M48
; DRILL file {KiCad (5.1.4)-1} date 25/09/2019 21:42:52
; FORMAT={-:-/ absolute / metric / decimal}
; #@! TF.CreationDate,2019-09-25T21:42:52+02:00
; #@! TF.GenerationSoftware,Kicad,Pcbnew,(5.1.4)-1
; #@! TF.FileFunction,Plated,1,2,PTH
FMAT,2
METRIC
T1C0.400
T2C0.600
T3C0.700
T4C0.762
T5C0.800
T6C0.900
T7C1.000
T8C1.200
T9C2.000
%
G90
G05
T1
X116.205Y-105.41
X120.65Y-136.525
X132.08Y-109.22
X137.795Y-119.38
T2
X135.255Y-123.825
X137.255Y-123.825
T3
X123.19Y-134.62
X123.19Y-139.7
X103.505Y-102.235
X103.505Y-107.315
T4
X122.555Y-103.505
X127.635Y-103.505
T5
X105.41Y-128.985
X105.41Y-133.985
X108.03Y-102.87
X113.03Y-102.87
X109.22Y-107.95
X109.22Y-110.49
X109.22Y-113.03
X109.22Y-115.57
X109.22Y-118.11
X109.22Y-120.65
X109.22Y-123.19
X109.22Y-125.73
X109.22Y-128.27
X109.22Y-130.81
X109.22Y-133.35
X109.22Y-135.89
X109.22Y-138.43
X109.22Y-140.97
X116.84Y-107.95
X116.84Y-110.49
X116.84Y-113.03
X116.84Y-115.57
X116.84Y-118.11
X116.84Y-120.65
X116.84Y-123.19
X116.84Y-125.73
X116.84Y-128.27
X116.84Y-130.81
X116.84Y-133.35
X116.84Y-135.89
X116.84Y-138.43
X116.84Y-140.97
X129.54Y-130.175
X129.54Y-137.795
X132.08Y-130.175
X132.08Y-137.795
X134.62Y-130.175
X134.62Y-137.795
X137.16Y-130.175
X137.16Y-137.795
X139.7Y-130.175
X139.7Y-137.795
X142.24Y-130.175
X142.24Y-137.795
X144.78Y-130.175
X144.78Y-137.795
X147.32Y-130.175
X147.32Y-137.795
X102.87Y-128.985
X102.87Y-133.985
X103.759Y-139.265
X103.759Y-144.145
T6
X123.19Y-128.27
X123.19Y-130.81
X132.08Y-103.759
X134.62Y-103.759
X137.16Y-103.759
T7
X126.365Y-111.125
X126.365Y-113.665
X126.365Y-116.205
X126.365Y-118.745
X126.365Y-121.285
X126.365Y-123.825
X108.585Y-146.685
X111.125Y-146.685
X113.665Y-146.685
X123.825Y-111.125
X123.825Y-113.665
X123.825Y-116.205
X123.825Y-118.745
X123.825Y-121.285
X123.825Y-123.825
X128.905Y-111.125
X128.905Y-113.665
X128.905Y-116.205
X128.905Y-118.745
X128.905Y-121.285
X128.905Y-123.825
X103.505Y-111.76
X103.505Y-114.3
X103.505Y-116.84
X103.505Y-119.38
X103.505Y-121.92
X103.505Y-124.46
T8
X144.145Y-103.815
X144.145Y-107.315
X144.145Y-142.55
X144.145Y-146.05
X144.399Y-121.722
X144.399Y-125.222
T9
X118.5Y-147.0
X118.5Y-103.0
T0
M30
