G04 #@! TF.GenerationSoftware,KiCad,Pcbnew,(5.1.4)-1*
G04 #@! TF.CreationDate,2019-09-25T21:42:56+02:00*
G04 #@! TF.ProjectId,MicoBot1,4d69636f-426f-4743-912e-6b696361645f,rev?*
G04 #@! TF.SameCoordinates,Original*
G04 #@! TF.FileFunction,Profile,NP*
%FSLAX46Y46*%
G04 Gerber Fmt 4.6, Leading zero omitted, Abs format (unit mm)*
G04 Created by KiCad (PCBNEW (5.1.4)-1) date 2019-09-25 21:42:56*
%MOMM*%
%LPD*%
G04 APERTURE LIST*
%ADD10C,0.120000*%
G04 APERTURE END LIST*
D10*
X101000000Y-150000000D02*
X123000000Y-150000000D01*
X138000000Y-150000000D02*
G75*
G02X137000000Y-149000000I0J1000000D01*
G01*
X149000000Y-150000000D02*
X138000000Y-150000000D01*
X136000000Y-145000000D02*
G75*
G02X137000000Y-146000000I0J-1000000D01*
G01*
X124000000Y-146000000D02*
G75*
G02X125000000Y-145000000I1000000J0D01*
G01*
X124000000Y-149000000D02*
G75*
G02X123000000Y-150000000I-1000000J0D01*
G01*
X137000000Y-146000000D02*
X137000000Y-149000000D01*
X125000000Y-145000000D02*
X136000000Y-145000000D01*
X124000000Y-149000000D02*
X124000000Y-146000000D01*
X101000000Y-150000000D02*
G75*
G02X100000000Y-149000000I0J1000000D01*
G01*
X145000000Y-118000000D02*
G75*
G02X144000000Y-117000000I0J1000000D01*
G01*
X144000000Y-112000000D02*
G75*
G02X145000000Y-111000000I1000000J0D01*
G01*
X100000000Y-101000000D02*
G75*
G02X101000000Y-100000000I1000000J0D01*
G01*
X149000000Y-100000000D02*
G75*
G02X150000000Y-101000000I0J-1000000D01*
G01*
X150000000Y-149000000D02*
G75*
G02X149000000Y-150000000I-1000000J0D01*
G01*
X149000000Y-118000000D02*
G75*
G02X150000000Y-119000000I0J-1000000D01*
G01*
X150000000Y-110000000D02*
G75*
G02X149000000Y-111000000I-1000000J0D01*
G01*
X150000000Y-119000000D02*
X150000000Y-149000000D01*
X150000000Y-101000000D02*
X150000000Y-110000000D01*
X145000000Y-118000000D02*
X149000000Y-118000000D01*
X144000000Y-112000000D02*
X144000000Y-117000000D01*
X149000000Y-111000000D02*
X145000000Y-111000000D01*
X100000000Y-101000000D02*
X100000000Y-149000000D01*
X101000000Y-100000000D02*
X149000000Y-100000000D01*
M02*
