G04 #@! TF.GenerationSoftware,KiCad,Pcbnew,(5.1.8)-1*
G04 #@! TF.CreationDate,2021-03-23T12:39:28+01:00*
G04 #@! TF.ProjectId,MicoBot1,4d69636f-426f-4743-912e-6b696361645f,rev?*
G04 #@! TF.SameCoordinates,Original*
G04 #@! TF.FileFunction,Legend,Top*
G04 #@! TF.FilePolarity,Positive*
%FSLAX46Y46*%
G04 Gerber Fmt 4.6, Leading zero omitted, Abs format (unit mm)*
G04 Created by KiCad (PCBNEW (5.1.8)-1) date 2021-03-23 12:39:28*
%MOMM*%
%LPD*%
G01*
G04 APERTURE LIST*
%ADD10C,0.300000*%
%ADD11C,0.120000*%
%ADD12C,0.127000*%
%ADD13C,0.150000*%
%ADD14C,0.050000*%
%ADD15C,2.502000*%
%ADD16O,1.702000X1.702000*%
%ADD17C,1.626000*%
%ADD18C,1.778400*%
%ADD19C,1.502000*%
%ADD20O,1.502000X1.502000*%
%ADD21C,1.902000*%
%ADD22C,1.702000*%
%ADD23C,1.602000*%
%ADD24C,1.302000*%
%ADD25O,1.802000X1.802000*%
G04 APERTURE END LIST*
D10*
X135144238Y-113808761D02*
X135144238Y-111808761D01*
X135810904Y-113237333D01*
X136477571Y-111808761D01*
X136477571Y-113808761D01*
X137429952Y-113808761D02*
X137429952Y-112475428D01*
X137429952Y-111808761D02*
X137334714Y-111904000D01*
X137429952Y-111999238D01*
X137525190Y-111904000D01*
X137429952Y-111808761D01*
X137429952Y-111999238D01*
X139239476Y-113713523D02*
X139049000Y-113808761D01*
X138668047Y-113808761D01*
X138477571Y-113713523D01*
X138382333Y-113618285D01*
X138287095Y-113427809D01*
X138287095Y-112856380D01*
X138382333Y-112665904D01*
X138477571Y-112570666D01*
X138668047Y-112475428D01*
X139049000Y-112475428D01*
X139239476Y-112570666D01*
X140382333Y-113808761D02*
X140191857Y-113713523D01*
X140096619Y-113618285D01*
X140001380Y-113427809D01*
X140001380Y-112856380D01*
X140096619Y-112665904D01*
X140191857Y-112570666D01*
X140382333Y-112475428D01*
X140668047Y-112475428D01*
X140858523Y-112570666D01*
X140953761Y-112665904D01*
X141049000Y-112856380D01*
X141049000Y-113427809D01*
X140953761Y-113618285D01*
X140858523Y-113713523D01*
X140668047Y-113808761D01*
X140382333Y-113808761D01*
X134144238Y-116061142D02*
X134429952Y-116156380D01*
X134525190Y-116251619D01*
X134620428Y-116442095D01*
X134620428Y-116727809D01*
X134525190Y-116918285D01*
X134429952Y-117013523D01*
X134239476Y-117108761D01*
X133477571Y-117108761D01*
X133477571Y-115108761D01*
X134144238Y-115108761D01*
X134334714Y-115204000D01*
X134429952Y-115299238D01*
X134525190Y-115489714D01*
X134525190Y-115680190D01*
X134429952Y-115870666D01*
X134334714Y-115965904D01*
X134144238Y-116061142D01*
X133477571Y-116061142D01*
X135763285Y-117108761D02*
X135572809Y-117013523D01*
X135477571Y-116918285D01*
X135382333Y-116727809D01*
X135382333Y-116156380D01*
X135477571Y-115965904D01*
X135572809Y-115870666D01*
X135763285Y-115775428D01*
X136049000Y-115775428D01*
X136239476Y-115870666D01*
X136334714Y-115965904D01*
X136429952Y-116156380D01*
X136429952Y-116727809D01*
X136334714Y-116918285D01*
X136239476Y-117013523D01*
X136049000Y-117108761D01*
X135763285Y-117108761D01*
X137001380Y-115775428D02*
X137763285Y-115775428D01*
X137287095Y-115108761D02*
X137287095Y-116823047D01*
X137382333Y-117013523D01*
X137572809Y-117108761D01*
X137763285Y-117108761D01*
X139668047Y-115108761D02*
X140334714Y-117108761D01*
X141001380Y-115108761D01*
X142715666Y-117108761D02*
X141572809Y-117108761D01*
X142144238Y-117108761D02*
X142144238Y-115108761D01*
X141953761Y-115394476D01*
X141763285Y-115584952D01*
X141572809Y-115680190D01*
D11*
X170180000Y-78740000D02*
X170180000Y-78740000D01*
X115680000Y-106620000D02*
X114030000Y-106620000D01*
X115680000Y-142300000D02*
X115680000Y-106620000D01*
X110380000Y-142300000D02*
X115680000Y-142300000D01*
X110380000Y-106620000D02*
X110380000Y-142300000D01*
X112030000Y-106620000D02*
X110380000Y-106620000D01*
X114030000Y-106620000D02*
G75*
G02*
X112030000Y-106620000I-1000000J0D01*
G01*
X128210000Y-131335000D02*
X128210000Y-132985000D01*
X148650000Y-131335000D02*
X128210000Y-131335000D01*
X148650000Y-136635000D02*
X148650000Y-131335000D01*
X128210000Y-136635000D02*
X148650000Y-136635000D01*
X128210000Y-134985000D02*
X128210000Y-136635000D01*
X128210000Y-132985000D02*
G75*
G02*
X128210000Y-134985000I0J-1000000D01*
G01*
X128651000Y-99949000D02*
X121539000Y-99949000D01*
X128651000Y-107061000D02*
X128651000Y-99949000D01*
X121539000Y-107061000D02*
X128651000Y-107061000D01*
X121539000Y-99949000D02*
X121539000Y-107061000D01*
X132588000Y-102743000D02*
X136652000Y-102743000D01*
X132588000Y-104775000D02*
X132588000Y-102743000D01*
X136652000Y-104775000D02*
X132588000Y-104775000D01*
D12*
X138684000Y-105537000D02*
X130556000Y-105537000D01*
X130556000Y-105537000D02*
X130556000Y-101981000D01*
X130556000Y-101981000D02*
X138684000Y-101981000D01*
X138684000Y-101981000D02*
X138684000Y-105537000D01*
X136652000Y-104775000D02*
X136652000Y-102743000D01*
X136398000Y-102743000D02*
X136398000Y-104775000D01*
X136144000Y-104775000D02*
X136144000Y-102743000D01*
X135890000Y-102743000D02*
X135890000Y-104775000D01*
X135636000Y-104775000D02*
X135636000Y-102743000D01*
X135382000Y-102743000D02*
X135382000Y-104775000D01*
X135128000Y-104775000D02*
X135128000Y-102743000D01*
D11*
X122270000Y-135240000D02*
X122270000Y-139080000D01*
X124110000Y-135240000D02*
X124110000Y-139080000D01*
X124270000Y-131100000D02*
X124426000Y-131100000D01*
X121954000Y-131100000D02*
X122110000Y-131100000D01*
X122111392Y-127867665D02*
G75*
G03*
X121954484Y-131100000I1078608J-1672335D01*
G01*
X124268608Y-127867665D02*
G75*
G02*
X124425516Y-131100000I-1078608J-1672335D01*
G01*
X122110163Y-128498870D02*
G75*
G03*
X122110000Y-130580961I1079837J-1041130D01*
G01*
X124269837Y-128498870D02*
G75*
G02*
X124270000Y-130580961I-1079837J-1041130D01*
G01*
X106465000Y-129215000D02*
X106480000Y-129215000D01*
X104340000Y-129215000D02*
X104355000Y-129215000D01*
X106465000Y-133755000D02*
X106480000Y-133755000D01*
X104340000Y-133755000D02*
X104355000Y-133755000D01*
X106480000Y-133755000D02*
X106480000Y-129215000D01*
X104340000Y-133755000D02*
X104340000Y-129215000D01*
X101800000Y-133755000D02*
X101800000Y-129215000D01*
X103940000Y-133755000D02*
X103940000Y-129215000D01*
X101800000Y-133755000D02*
X101815000Y-133755000D01*
X103925000Y-133755000D02*
X103940000Y-133755000D01*
X101800000Y-129215000D02*
X101815000Y-129215000D01*
X103925000Y-129215000D02*
X103940000Y-129215000D01*
X108260000Y-101815000D02*
X108260000Y-101800000D01*
X108260000Y-103940000D02*
X108260000Y-103925000D01*
X112800000Y-101815000D02*
X112800000Y-101800000D01*
X112800000Y-103940000D02*
X112800000Y-103925000D01*
X112800000Y-101800000D02*
X108260000Y-101800000D01*
X112800000Y-103940000D02*
X108260000Y-103940000D01*
X102585000Y-102855000D02*
X102585000Y-106695000D01*
X104425000Y-102855000D02*
X104425000Y-106695000D01*
X106284000Y-144905000D02*
X106284000Y-138505000D01*
X101234000Y-144905000D02*
X101234000Y-138505000D01*
X106284000Y-144905000D02*
G75*
G02*
X101234000Y-144905000I-2525000J0D01*
G01*
X106284000Y-138505000D02*
G75*
G03*
X101234000Y-138505000I-2525000J0D01*
G01*
X138875000Y-123825000D02*
G75*
G03*
X138875000Y-123825000I-2620000J0D01*
G01*
X148945000Y-109365000D02*
X148945000Y-108965000D01*
X148305000Y-109365000D02*
X148945000Y-109365000D01*
X145086000Y-104960000D02*
X145214000Y-105089000D01*
X142870000Y-102745000D02*
X142964000Y-102839000D01*
X145326000Y-104790000D02*
X145419000Y-104884000D01*
X143076000Y-102540000D02*
X143204000Y-102669000D01*
X140985000Y-102005000D02*
X148705000Y-102005000D01*
X140985000Y-109125000D02*
X148705000Y-109125000D01*
X148705000Y-109125000D02*
X148705000Y-102005000D01*
X140985000Y-109125000D02*
X140985000Y-102005000D01*
X147145000Y-109125000D02*
X147145000Y-102005000D01*
X148245000Y-109125000D02*
X148245000Y-102005000D01*
X145825000Y-103815000D02*
G75*
G03*
X145825000Y-103815000I-1680000J0D01*
G01*
X145569721Y-106424736D02*
G75*
G02*
X145825000Y-107315000I-1424721J-890264D01*
G01*
X143254807Y-105889495D02*
G75*
G02*
X145036000Y-105890000I890193J-1425505D01*
G01*
X142719642Y-108204894D02*
G75*
G02*
X142705000Y-106449000I1425358J889894D01*
G01*
X145034894Y-108740358D02*
G75*
G02*
X143279000Y-108755000I-889894J1425358D01*
G01*
X145825099Y-107286326D02*
G75*
G02*
X145585000Y-108181000I-1680099J-28674D01*
G01*
X148945000Y-148100000D02*
X148945000Y-147700000D01*
X148305000Y-148100000D02*
X148945000Y-148100000D01*
X145086000Y-143695000D02*
X145214000Y-143824000D01*
X142870000Y-141480000D02*
X142964000Y-141574000D01*
X145326000Y-143525000D02*
X145419000Y-143619000D01*
X143076000Y-141275000D02*
X143204000Y-141404000D01*
X140985000Y-140740000D02*
X148705000Y-140740000D01*
X140985000Y-147860000D02*
X148705000Y-147860000D01*
X148705000Y-147860000D02*
X148705000Y-140740000D01*
X140985000Y-147860000D02*
X140985000Y-140740000D01*
X147145000Y-147860000D02*
X147145000Y-140740000D01*
X148245000Y-147860000D02*
X148245000Y-140740000D01*
X145825000Y-142550000D02*
G75*
G03*
X145825000Y-142550000I-1680000J0D01*
G01*
X145569721Y-145159736D02*
G75*
G02*
X145825000Y-146050000I-1424721J-890264D01*
G01*
X143254807Y-144624495D02*
G75*
G02*
X145036000Y-144625000I890193J-1425505D01*
G01*
X142719642Y-146939894D02*
G75*
G02*
X142705000Y-145184000I1425358J889894D01*
G01*
X145034894Y-147475358D02*
G75*
G02*
X143279000Y-147490000I-889894J1425358D01*
G01*
X145825099Y-146021326D02*
G75*
G02*
X145585000Y-146916000I-1680099J-28674D01*
G01*
X146079000Y-121722000D02*
G75*
G03*
X146079000Y-121722000I-1680000J0D01*
G01*
X148499000Y-127032000D02*
X148499000Y-119912000D01*
X147399000Y-127032000D02*
X147399000Y-119912000D01*
X141239000Y-127032000D02*
X141239000Y-119912000D01*
X148959000Y-127032000D02*
X148959000Y-119912000D01*
X141239000Y-127032000D02*
X148959000Y-127032000D01*
X141239000Y-119912000D02*
X148959000Y-119912000D01*
X143330000Y-120447000D02*
X143458000Y-120576000D01*
X145580000Y-122697000D02*
X145673000Y-122791000D01*
X143124000Y-120652000D02*
X143218000Y-120746000D01*
X145340000Y-122867000D02*
X145468000Y-122996000D01*
X148559000Y-127272000D02*
X149199000Y-127272000D01*
X149199000Y-127272000D02*
X149199000Y-126872000D01*
X146079099Y-125193326D02*
G75*
G02*
X145839000Y-126088000I-1680099J-28674D01*
G01*
X145288894Y-126647358D02*
G75*
G02*
X143533000Y-126662000I-889894J1425358D01*
G01*
X142973642Y-126111894D02*
G75*
G02*
X142959000Y-124356000I1425358J889894D01*
G01*
X143508807Y-123796495D02*
G75*
G02*
X145290000Y-123797000I890193J-1425505D01*
G01*
X145823721Y-124331736D02*
G75*
G02*
X146079000Y-125222000I-1424721J-890264D01*
G01*
X122495000Y-109795000D02*
X123825000Y-109795000D01*
X122495000Y-111125000D02*
X122495000Y-109795000D01*
X122495000Y-112395000D02*
X125155000Y-112395000D01*
X125155000Y-112395000D02*
X125155000Y-125155000D01*
X122495000Y-112395000D02*
X122495000Y-125155000D01*
X122495000Y-125155000D02*
X125155000Y-125155000D01*
X114995000Y-145355000D02*
X114995000Y-146685000D01*
X113665000Y-145355000D02*
X114995000Y-145355000D01*
X112395000Y-145355000D02*
X112395000Y-148015000D01*
X112395000Y-148015000D02*
X107255000Y-148015000D01*
X112395000Y-145355000D02*
X107255000Y-145355000D01*
X107255000Y-145355000D02*
X107255000Y-148015000D01*
X104835000Y-110430000D02*
X102175000Y-110430000D01*
X104835000Y-123190000D02*
X104835000Y-110430000D01*
X102175000Y-123190000D02*
X102175000Y-110430000D01*
X104835000Y-123190000D02*
X102175000Y-123190000D01*
X104835000Y-124460000D02*
X104835000Y-125790000D01*
X104835000Y-125790000D02*
X103505000Y-125790000D01*
X125035000Y-125155000D02*
X127695000Y-125155000D01*
X125035000Y-112395000D02*
X125035000Y-125155000D01*
X127695000Y-112395000D02*
X127695000Y-125155000D01*
X125035000Y-112395000D02*
X127695000Y-112395000D01*
X125035000Y-111125000D02*
X125035000Y-109795000D01*
X125035000Y-109795000D02*
X126365000Y-109795000D01*
X127575000Y-109795000D02*
X128905000Y-109795000D01*
X127575000Y-111125000D02*
X127575000Y-109795000D01*
X127575000Y-112395000D02*
X130235000Y-112395000D01*
X130235000Y-112395000D02*
X130235000Y-125155000D01*
X127575000Y-112395000D02*
X127575000Y-125155000D01*
X127575000Y-125155000D02*
X130235000Y-125155000D01*
D13*
X118500000Y-148627142D02*
X118547619Y-148674761D01*
X118500000Y-148722380D01*
X118452380Y-148674761D01*
X118500000Y-148627142D01*
X118500000Y-148722380D01*
X118500000Y-104627142D02*
X118547619Y-104674761D01*
X118500000Y-104722380D01*
X118452380Y-104674761D01*
X118500000Y-104627142D01*
X118500000Y-104722380D01*
X111212380Y-113156904D02*
X112021904Y-113156904D01*
X112117142Y-113109285D01*
X112164761Y-113061666D01*
X112212380Y-112966428D01*
X112212380Y-112775952D01*
X112164761Y-112680714D01*
X112117142Y-112633095D01*
X112021904Y-112585476D01*
X111212380Y-112585476D01*
X112212380Y-111585476D02*
X112212380Y-112156904D01*
X112212380Y-111871190D02*
X111212380Y-111871190D01*
X111355238Y-111966428D01*
X111450476Y-112061666D01*
X111498095Y-112156904D01*
X138938095Y-132167380D02*
X138938095Y-132976904D01*
X138985714Y-133072142D01*
X139033333Y-133119761D01*
X139128571Y-133167380D01*
X139319047Y-133167380D01*
X139414285Y-133119761D01*
X139461904Y-133072142D01*
X139509523Y-132976904D01*
X139509523Y-132167380D01*
X139938095Y-132262619D02*
X139985714Y-132215000D01*
X140080952Y-132167380D01*
X140319047Y-132167380D01*
X140414285Y-132215000D01*
X140461904Y-132262619D01*
X140509523Y-132357857D01*
X140509523Y-132453095D01*
X140461904Y-132595952D01*
X139890476Y-133167380D01*
X140509523Y-133167380D01*
X118681666Y-101369761D02*
X118824523Y-101417380D01*
X119062619Y-101417380D01*
X119157857Y-101369761D01*
X119205476Y-101322142D01*
X119253095Y-101226904D01*
X119253095Y-101131666D01*
X119205476Y-101036428D01*
X119157857Y-100988809D01*
X119062619Y-100941190D01*
X118872142Y-100893571D01*
X118776904Y-100845952D01*
X118729285Y-100798333D01*
X118681666Y-100703095D01*
X118681666Y-100607857D01*
X118729285Y-100512619D01*
X118776904Y-100465000D01*
X118872142Y-100417380D01*
X119110238Y-100417380D01*
X119253095Y-100465000D01*
X119586428Y-100417380D02*
X119824523Y-101417380D01*
X120015000Y-100703095D01*
X120205476Y-101417380D01*
X120443571Y-100417380D01*
X121348333Y-101417380D02*
X120776904Y-101417380D01*
X121062619Y-101417380D02*
X121062619Y-100417380D01*
X120967380Y-100560238D01*
X120872142Y-100655476D01*
X120776904Y-100703095D01*
X130111666Y-101369761D02*
X130254523Y-101417380D01*
X130492619Y-101417380D01*
X130587857Y-101369761D01*
X130635476Y-101322142D01*
X130683095Y-101226904D01*
X130683095Y-101131666D01*
X130635476Y-101036428D01*
X130587857Y-100988809D01*
X130492619Y-100941190D01*
X130302142Y-100893571D01*
X130206904Y-100845952D01*
X130159285Y-100798333D01*
X130111666Y-100703095D01*
X130111666Y-100607857D01*
X130159285Y-100512619D01*
X130206904Y-100465000D01*
X130302142Y-100417380D01*
X130540238Y-100417380D01*
X130683095Y-100465000D01*
X131016428Y-100417380D02*
X131254523Y-101417380D01*
X131445000Y-100703095D01*
X131635476Y-101417380D01*
X131873571Y-100417380D01*
X132206904Y-100512619D02*
X132254523Y-100465000D01*
X132349761Y-100417380D01*
X132587857Y-100417380D01*
X132683095Y-100465000D01*
X132730714Y-100512619D01*
X132778333Y-100607857D01*
X132778333Y-100703095D01*
X132730714Y-100845952D01*
X132159285Y-101417380D01*
X132778333Y-101417380D01*
D14*
X133873142Y-100163380D02*
X134044571Y-100163380D01*
X134130285Y-100211000D01*
X134216000Y-100306238D01*
X134258857Y-100496714D01*
X134258857Y-100830047D01*
X134216000Y-101020523D01*
X134130285Y-101115761D01*
X134044571Y-101163380D01*
X133873142Y-101163380D01*
X133787428Y-101115761D01*
X133701714Y-101020523D01*
X133658857Y-100830047D01*
X133658857Y-100496714D01*
X133701714Y-100306238D01*
X133787428Y-100211000D01*
X133873142Y-100163380D01*
X134644571Y-100496714D02*
X134644571Y-101163380D01*
X134644571Y-100591952D02*
X134687428Y-100544333D01*
X134773142Y-100496714D01*
X134901714Y-100496714D01*
X134987428Y-100544333D01*
X135030285Y-100639571D01*
X135030285Y-101163380D01*
D13*
X125562380Y-137326666D02*
X125086190Y-137660000D01*
X125562380Y-137898095D02*
X124562380Y-137898095D01*
X124562380Y-137517142D01*
X124610000Y-137421904D01*
X124657619Y-137374285D01*
X124752857Y-137326666D01*
X124895714Y-137326666D01*
X124990952Y-137374285D01*
X125038571Y-137421904D01*
X125086190Y-137517142D01*
X125086190Y-137898095D01*
X125562380Y-136374285D02*
X125562380Y-136945714D01*
X125562380Y-136660000D02*
X124562380Y-136660000D01*
X124705238Y-136755238D01*
X124800476Y-136850476D01*
X124848095Y-136945714D01*
X120682380Y-130278095D02*
X119682380Y-130278095D01*
X119682380Y-130040000D01*
X119730000Y-129897142D01*
X119825238Y-129801904D01*
X119920476Y-129754285D01*
X120110952Y-129706666D01*
X120253809Y-129706666D01*
X120444285Y-129754285D01*
X120539523Y-129801904D01*
X120634761Y-129897142D01*
X120682380Y-130040000D01*
X120682380Y-130278095D01*
X120682380Y-128754285D02*
X120682380Y-129325714D01*
X120682380Y-129040000D02*
X119682380Y-129040000D01*
X119825238Y-129135238D01*
X119920476Y-129230476D01*
X119968095Y-129325714D01*
X103567142Y-131651666D02*
X103614761Y-131699285D01*
X103662380Y-131842142D01*
X103662380Y-131937380D01*
X103614761Y-132080238D01*
X103519523Y-132175476D01*
X103424285Y-132223095D01*
X103233809Y-132270714D01*
X103090952Y-132270714D01*
X102900476Y-132223095D01*
X102805238Y-132175476D01*
X102710000Y-132080238D01*
X102662380Y-131937380D01*
X102662380Y-131842142D01*
X102710000Y-131699285D01*
X102757619Y-131651666D01*
X102757619Y-131270714D02*
X102710000Y-131223095D01*
X102662380Y-131127857D01*
X102662380Y-130889761D01*
X102710000Y-130794523D01*
X102757619Y-130746904D01*
X102852857Y-130699285D01*
X102948095Y-130699285D01*
X103090952Y-130746904D01*
X103662380Y-131318333D01*
X103662380Y-130699285D01*
X101027142Y-131651666D02*
X101074761Y-131699285D01*
X101122380Y-131842142D01*
X101122380Y-131937380D01*
X101074761Y-132080238D01*
X100979523Y-132175476D01*
X100884285Y-132223095D01*
X100693809Y-132270714D01*
X100550952Y-132270714D01*
X100360476Y-132223095D01*
X100265238Y-132175476D01*
X100170000Y-132080238D01*
X100122380Y-131937380D01*
X100122380Y-131842142D01*
X100170000Y-131699285D01*
X100217619Y-131651666D01*
X100122380Y-131318333D02*
X100122380Y-130699285D01*
X100503333Y-131032619D01*
X100503333Y-130889761D01*
X100550952Y-130794523D01*
X100598571Y-130746904D01*
X100693809Y-130699285D01*
X100931904Y-130699285D01*
X101027142Y-130746904D01*
X101074761Y-130794523D01*
X101122380Y-130889761D01*
X101122380Y-131175476D01*
X101074761Y-131270714D01*
X101027142Y-131318333D01*
X110363333Y-105427142D02*
X110315714Y-105474761D01*
X110172857Y-105522380D01*
X110077619Y-105522380D01*
X109934761Y-105474761D01*
X109839523Y-105379523D01*
X109791904Y-105284285D01*
X109744285Y-105093809D01*
X109744285Y-104950952D01*
X109791904Y-104760476D01*
X109839523Y-104665238D01*
X109934761Y-104570000D01*
X110077619Y-104522380D01*
X110172857Y-104522380D01*
X110315714Y-104570000D01*
X110363333Y-104617619D01*
X111315714Y-105522380D02*
X110744285Y-105522380D01*
X111030000Y-105522380D02*
X111030000Y-104522380D01*
X110934761Y-104665238D01*
X110839523Y-104760476D01*
X110744285Y-104808095D01*
X105877380Y-104941666D02*
X105401190Y-105275000D01*
X105877380Y-105513095D02*
X104877380Y-105513095D01*
X104877380Y-105132142D01*
X104925000Y-105036904D01*
X104972619Y-104989285D01*
X105067857Y-104941666D01*
X105210714Y-104941666D01*
X105305952Y-104989285D01*
X105353571Y-105036904D01*
X105401190Y-105132142D01*
X105401190Y-105513095D01*
X104972619Y-104560714D02*
X104925000Y-104513095D01*
X104877380Y-104417857D01*
X104877380Y-104179761D01*
X104925000Y-104084523D01*
X104972619Y-104036904D01*
X105067857Y-103989285D01*
X105163095Y-103989285D01*
X105305952Y-104036904D01*
X105877380Y-104608333D01*
X105877380Y-103989285D01*
X102211190Y-142181190D02*
X102687380Y-142181190D01*
X101687380Y-142514523D02*
X102211190Y-142181190D01*
X101687380Y-141847857D01*
X102687380Y-140990714D02*
X102687380Y-141562142D01*
X102687380Y-141276428D02*
X101687380Y-141276428D01*
X101830238Y-141371666D01*
X101925476Y-141466904D01*
X101973095Y-141562142D01*
X136088333Y-120432142D02*
X136040714Y-120479761D01*
X135897857Y-120527380D01*
X135802619Y-120527380D01*
X135659761Y-120479761D01*
X135564523Y-120384523D01*
X135516904Y-120289285D01*
X135469285Y-120098809D01*
X135469285Y-119955952D01*
X135516904Y-119765476D01*
X135564523Y-119670238D01*
X135659761Y-119575000D01*
X135802619Y-119527380D01*
X135897857Y-119527380D01*
X136040714Y-119575000D01*
X136088333Y-119622619D01*
X136945476Y-119860714D02*
X136945476Y-120527380D01*
X136707380Y-119479761D02*
X136469285Y-120194047D01*
X137088333Y-120194047D01*
X139437380Y-105898333D02*
X140151666Y-105898333D01*
X140294523Y-105945952D01*
X140389761Y-106041190D01*
X140437380Y-106184047D01*
X140437380Y-106279285D01*
X139532619Y-105469761D02*
X139485000Y-105422142D01*
X139437380Y-105326904D01*
X139437380Y-105088809D01*
X139485000Y-104993571D01*
X139532619Y-104945952D01*
X139627857Y-104898333D01*
X139723095Y-104898333D01*
X139865952Y-104945952D01*
X140437380Y-105517380D01*
X140437380Y-104898333D01*
X140437380Y-145109523D02*
X139437380Y-145109523D01*
X140151666Y-144776190D01*
X139437380Y-144442857D01*
X140437380Y-144442857D01*
X139532619Y-144014285D02*
X139485000Y-143966666D01*
X139437380Y-143871428D01*
X139437380Y-143633333D01*
X139485000Y-143538095D01*
X139532619Y-143490476D01*
X139627857Y-143442857D01*
X139723095Y-143442857D01*
X139865952Y-143490476D01*
X140437380Y-144061904D01*
X140437380Y-143442857D01*
X140691380Y-124281523D02*
X139691380Y-124281523D01*
X140405666Y-123948190D01*
X139691380Y-123614857D01*
X140691380Y-123614857D01*
X140691380Y-122614857D02*
X140691380Y-123186285D01*
X140691380Y-122900571D02*
X139691380Y-122900571D01*
X139834238Y-122995809D01*
X139929476Y-123091047D01*
X139977095Y-123186285D01*
X122856666Y-107402380D02*
X122856666Y-108116666D01*
X122809047Y-108259523D01*
X122713809Y-108354761D01*
X122570952Y-108402380D01*
X122475714Y-108402380D01*
X123761428Y-107402380D02*
X123570952Y-107402380D01*
X123475714Y-107450000D01*
X123428095Y-107497619D01*
X123332857Y-107640476D01*
X123285238Y-107830952D01*
X123285238Y-108211904D01*
X123332857Y-108307142D01*
X123380476Y-108354761D01*
X123475714Y-108402380D01*
X123666190Y-108402380D01*
X123761428Y-108354761D01*
X123809047Y-108307142D01*
X123856666Y-108211904D01*
X123856666Y-107973809D01*
X123809047Y-107878571D01*
X123761428Y-107830952D01*
X123666190Y-107783333D01*
X123475714Y-107783333D01*
X123380476Y-107830952D01*
X123332857Y-107878571D01*
X123285238Y-107973809D01*
X115447380Y-147018333D02*
X116161666Y-147018333D01*
X116304523Y-147065952D01*
X116399761Y-147161190D01*
X116447380Y-147304047D01*
X116447380Y-147399285D01*
X115447380Y-146637380D02*
X115447380Y-145970714D01*
X116447380Y-146399285D01*
X103171666Y-126242380D02*
X103171666Y-126956666D01*
X103124047Y-127099523D01*
X103028809Y-127194761D01*
X102885952Y-127242380D01*
X102790714Y-127242380D01*
X103790714Y-126670952D02*
X103695476Y-126623333D01*
X103647857Y-126575714D01*
X103600238Y-126480476D01*
X103600238Y-126432857D01*
X103647857Y-126337619D01*
X103695476Y-126290000D01*
X103790714Y-126242380D01*
X103981190Y-126242380D01*
X104076428Y-126290000D01*
X104124047Y-126337619D01*
X104171666Y-126432857D01*
X104171666Y-126480476D01*
X104124047Y-126575714D01*
X104076428Y-126623333D01*
X103981190Y-126670952D01*
X103790714Y-126670952D01*
X103695476Y-126718571D01*
X103647857Y-126766190D01*
X103600238Y-126861428D01*
X103600238Y-127051904D01*
X103647857Y-127147142D01*
X103695476Y-127194761D01*
X103790714Y-127242380D01*
X103981190Y-127242380D01*
X104076428Y-127194761D01*
X104124047Y-127147142D01*
X104171666Y-127051904D01*
X104171666Y-126861428D01*
X104124047Y-126766190D01*
X104076428Y-126718571D01*
X103981190Y-126670952D01*
X124063333Y-107402380D02*
X124396666Y-108402380D01*
X124730000Y-107402380D01*
X125491904Y-108354761D02*
X125396666Y-108402380D01*
X125206190Y-108402380D01*
X125110952Y-108354761D01*
X125063333Y-108307142D01*
X125015714Y-108211904D01*
X125015714Y-107926190D01*
X125063333Y-107830952D01*
X125110952Y-107783333D01*
X125206190Y-107735714D01*
X125396666Y-107735714D01*
X125491904Y-107783333D01*
X126349047Y-108354761D02*
X126253809Y-108402380D01*
X126063333Y-108402380D01*
X125968095Y-108354761D01*
X125920476Y-108307142D01*
X125872857Y-108211904D01*
X125872857Y-107926190D01*
X125920476Y-107830952D01*
X125968095Y-107783333D01*
X126063333Y-107735714D01*
X126253809Y-107735714D01*
X126349047Y-107783333D01*
X127301428Y-108402380D02*
X126730000Y-108402380D01*
X127015714Y-108402380D02*
X127015714Y-107402380D01*
X126920476Y-107545238D01*
X126825238Y-107640476D01*
X126730000Y-107688095D01*
X127150952Y-107450000D02*
X127055714Y-107402380D01*
X126912857Y-107402380D01*
X126770000Y-107450000D01*
X126674761Y-107545238D01*
X126627142Y-107640476D01*
X126579523Y-107830952D01*
X126579523Y-107973809D01*
X126627142Y-108164285D01*
X126674761Y-108259523D01*
X126770000Y-108354761D01*
X126912857Y-108402380D01*
X127008095Y-108402380D01*
X127150952Y-108354761D01*
X127198571Y-108307142D01*
X127198571Y-107973809D01*
X127008095Y-107973809D01*
X127627142Y-107735714D02*
X127627142Y-108402380D01*
X127627142Y-107830952D02*
X127674761Y-107783333D01*
X127770000Y-107735714D01*
X127912857Y-107735714D01*
X128008095Y-107783333D01*
X128055714Y-107878571D01*
X128055714Y-108402380D01*
X128960476Y-108402380D02*
X128960476Y-107402380D01*
X128960476Y-108354761D02*
X128865238Y-108402380D01*
X128674761Y-108402380D01*
X128579523Y-108354761D01*
X128531904Y-108307142D01*
X128484285Y-108211904D01*
X128484285Y-107926190D01*
X128531904Y-107830952D01*
X128579523Y-107783333D01*
X128674761Y-107735714D01*
X128865238Y-107735714D01*
X128960476Y-107783333D01*
X129960476Y-108402380D02*
X129389047Y-108402380D01*
X129674761Y-108402380D02*
X129674761Y-107402380D01*
X129579523Y-107545238D01*
X129484285Y-107640476D01*
X129389047Y-107688095D01*
%LPC*%
D15*
X118500000Y-147000000D03*
X118500000Y-103000000D03*
G36*
G01*
X108369000Y-108750000D02*
X108369000Y-107150000D01*
G75*
G02*
X108420000Y-107099000I51000J0D01*
G01*
X110020000Y-107099000D01*
G75*
G02*
X110071000Y-107150000I0J-51000D01*
G01*
X110071000Y-108750000D01*
G75*
G02*
X110020000Y-108801000I-51000J0D01*
G01*
X108420000Y-108801000D01*
G75*
G02*
X108369000Y-108750000I0J51000D01*
G01*
G37*
D16*
X116840000Y-140970000D03*
X109220000Y-110490000D03*
X116840000Y-138430000D03*
X109220000Y-113030000D03*
X116840000Y-135890000D03*
X109220000Y-115570000D03*
X116840000Y-133350000D03*
X109220000Y-118110000D03*
X116840000Y-130810000D03*
X109220000Y-120650000D03*
X116840000Y-128270000D03*
X109220000Y-123190000D03*
X116840000Y-125730000D03*
X109220000Y-125730000D03*
X116840000Y-123190000D03*
X109220000Y-128270000D03*
X116840000Y-120650000D03*
X109220000Y-130810000D03*
X116840000Y-118110000D03*
X109220000Y-133350000D03*
X116840000Y-115570000D03*
X109220000Y-135890000D03*
X116840000Y-113030000D03*
X109220000Y-138430000D03*
X116840000Y-110490000D03*
X109220000Y-140970000D03*
X116840000Y-107950000D03*
G36*
G01*
X130340000Y-138646000D02*
X128740000Y-138646000D01*
G75*
G02*
X128689000Y-138595000I0J51000D01*
G01*
X128689000Y-136995000D01*
G75*
G02*
X128740000Y-136944000I51000J0D01*
G01*
X130340000Y-136944000D01*
G75*
G02*
X130391000Y-136995000I0J-51000D01*
G01*
X130391000Y-138595000D01*
G75*
G02*
X130340000Y-138646000I-51000J0D01*
G01*
G37*
X147320000Y-130175000D03*
X132080000Y-137795000D03*
X144780000Y-130175000D03*
X134620000Y-137795000D03*
X142240000Y-130175000D03*
X137160000Y-137795000D03*
X139700000Y-130175000D03*
X139700000Y-137795000D03*
X137160000Y-130175000D03*
X142240000Y-137795000D03*
X134620000Y-130175000D03*
X144780000Y-137795000D03*
X132080000Y-130175000D03*
X147320000Y-137795000D03*
X129540000Y-130175000D03*
D17*
X122555000Y-103505000D03*
X127635000Y-103505000D03*
D18*
X132080000Y-103759000D03*
X137160000Y-103759000D03*
X134620000Y-103759000D03*
D19*
X123190000Y-134620000D03*
D20*
X123190000Y-139700000D03*
G36*
G01*
X124090000Y-131761000D02*
X122290000Y-131761000D01*
G75*
G02*
X122239000Y-131710000I0J51000D01*
G01*
X122239000Y-129910000D01*
G75*
G02*
X122290000Y-129859000I51000J0D01*
G01*
X124090000Y-129859000D01*
G75*
G02*
X124141000Y-129910000I0J-51000D01*
G01*
X124141000Y-131710000D01*
G75*
G02*
X124090000Y-131761000I-51000J0D01*
G01*
G37*
D21*
X123190000Y-128270000D03*
D22*
X105410000Y-133985000D03*
X105410000Y-128985000D03*
X102870000Y-128985000D03*
X102870000Y-133985000D03*
X113030000Y-102870000D03*
X108030000Y-102870000D03*
D19*
X103505000Y-102235000D03*
D20*
X103505000Y-107315000D03*
D23*
X103759000Y-144145000D03*
X103759000Y-139265000D03*
D24*
X135255000Y-123825000D03*
X137255000Y-123825000D03*
G36*
G01*
X145345000Y-108566000D02*
X142945000Y-108566000D01*
G75*
G02*
X142894000Y-108515000I0J51000D01*
G01*
X142894000Y-106115000D01*
G75*
G02*
X142945000Y-106064000I51000J0D01*
G01*
X145345000Y-106064000D01*
G75*
G02*
X145396000Y-106115000I0J-51000D01*
G01*
X145396000Y-108515000D01*
G75*
G02*
X145345000Y-108566000I-51000J0D01*
G01*
G37*
D15*
X144145000Y-103815000D03*
G36*
G01*
X145345000Y-147301000D02*
X142945000Y-147301000D01*
G75*
G02*
X142894000Y-147250000I0J51000D01*
G01*
X142894000Y-144850000D01*
G75*
G02*
X142945000Y-144799000I51000J0D01*
G01*
X145345000Y-144799000D01*
G75*
G02*
X145396000Y-144850000I0J-51000D01*
G01*
X145396000Y-147250000D01*
G75*
G02*
X145345000Y-147301000I-51000J0D01*
G01*
G37*
X144145000Y-142550000D03*
X144399000Y-121722000D03*
G36*
G01*
X145599000Y-126473000D02*
X143199000Y-126473000D01*
G75*
G02*
X143148000Y-126422000I0J51000D01*
G01*
X143148000Y-124022000D01*
G75*
G02*
X143199000Y-123971000I51000J0D01*
G01*
X145599000Y-123971000D01*
G75*
G02*
X145650000Y-124022000I0J-51000D01*
G01*
X145650000Y-126422000D01*
G75*
G02*
X145599000Y-126473000I-51000J0D01*
G01*
G37*
G36*
G01*
X122924000Y-111975000D02*
X122924000Y-110275000D01*
G75*
G02*
X122975000Y-110224000I51000J0D01*
G01*
X124675000Y-110224000D01*
G75*
G02*
X124726000Y-110275000I0J-51000D01*
G01*
X124726000Y-111975000D01*
G75*
G02*
X124675000Y-112026000I-51000J0D01*
G01*
X122975000Y-112026000D01*
G75*
G02*
X122924000Y-111975000I0J51000D01*
G01*
G37*
D25*
X123825000Y-113665000D03*
X123825000Y-116205000D03*
X123825000Y-118745000D03*
X123825000Y-121285000D03*
X123825000Y-123825000D03*
G36*
G01*
X112815000Y-145784000D02*
X114515000Y-145784000D01*
G75*
G02*
X114566000Y-145835000I0J-51000D01*
G01*
X114566000Y-147535000D01*
G75*
G02*
X114515000Y-147586000I-51000J0D01*
G01*
X112815000Y-147586000D01*
G75*
G02*
X112764000Y-147535000I0J51000D01*
G01*
X112764000Y-145835000D01*
G75*
G02*
X112815000Y-145784000I51000J0D01*
G01*
G37*
X111125000Y-146685000D03*
X108585000Y-146685000D03*
X103505000Y-111760000D03*
X103505000Y-114300000D03*
X103505000Y-116840000D03*
X103505000Y-119380000D03*
X103505000Y-121920000D03*
G36*
G01*
X104406000Y-123610000D02*
X104406000Y-125310000D01*
G75*
G02*
X104355000Y-125361000I-51000J0D01*
G01*
X102655000Y-125361000D01*
G75*
G02*
X102604000Y-125310000I0J51000D01*
G01*
X102604000Y-123610000D01*
G75*
G02*
X102655000Y-123559000I51000J0D01*
G01*
X104355000Y-123559000D01*
G75*
G02*
X104406000Y-123610000I0J-51000D01*
G01*
G37*
X126365000Y-123825000D03*
X126365000Y-121285000D03*
X126365000Y-118745000D03*
X126365000Y-116205000D03*
X126365000Y-113665000D03*
G36*
G01*
X125464000Y-111975000D02*
X125464000Y-110275000D01*
G75*
G02*
X125515000Y-110224000I51000J0D01*
G01*
X127215000Y-110224000D01*
G75*
G02*
X127266000Y-110275000I0J-51000D01*
G01*
X127266000Y-111975000D01*
G75*
G02*
X127215000Y-112026000I-51000J0D01*
G01*
X125515000Y-112026000D01*
G75*
G02*
X125464000Y-111975000I0J51000D01*
G01*
G37*
G36*
G01*
X128004000Y-111975000D02*
X128004000Y-110275000D01*
G75*
G02*
X128055000Y-110224000I51000J0D01*
G01*
X129755000Y-110224000D01*
G75*
G02*
X129806000Y-110275000I0J-51000D01*
G01*
X129806000Y-111975000D01*
G75*
G02*
X129755000Y-112026000I-51000J0D01*
G01*
X128055000Y-112026000D01*
G75*
G02*
X128004000Y-111975000I0J51000D01*
G01*
G37*
X128905000Y-113665000D03*
X128905000Y-116205000D03*
X128905000Y-118745000D03*
X128905000Y-121285000D03*
X128905000Y-123825000D03*
M02*
