G04 #@! TF.GenerationSoftware,KiCad,Pcbnew,(5.1.4)-1*
G04 #@! TF.CreationDate,2019-09-25T21:42:55+02:00*
G04 #@! TF.ProjectId,MicoBot1,4d69636f-426f-4743-912e-6b696361645f,rev?*
G04 #@! TF.SameCoordinates,Original*
G04 #@! TF.FileFunction,Legend,Bot*
G04 #@! TF.FilePolarity,Positive*
%FSLAX46Y46*%
G04 Gerber Fmt 4.6, Leading zero omitted, Abs format (unit mm)*
G04 Created by KiCad (PCBNEW (5.1.4)-1) date 2019-09-25 21:42:55*
%MOMM*%
%LPD*%
G04 APERTURE LIST*
%ADD10C,0.120000*%
%ADD11C,0.150000*%
%ADD12C,2.502000*%
%ADD13R,1.702000X1.702000*%
%ADD14O,1.702000X1.702000*%
%ADD15C,1.626000*%
%ADD16R,2.102000X3.902000*%
%ADD17R,2.102000X1.602000*%
%ADD18C,1.778400*%
%ADD19C,1.502000*%
%ADD20O,1.502000X1.502000*%
%ADD21R,1.902000X1.902000*%
%ADD22C,1.902000*%
%ADD23C,1.702000*%
%ADD24C,1.602000*%
%ADD25C,1.302000*%
%ADD26R,2.502000X2.502000*%
%ADD27R,1.802000X1.802000*%
%ADD28O,1.802000X1.802000*%
G04 APERTURE END LIST*
D10*
X135885000Y-117710000D02*
X135885000Y-116450000D01*
X135885000Y-110890000D02*
X135885000Y-112150000D01*
X139645000Y-117710000D02*
X135885000Y-117710000D01*
X141895000Y-110890000D02*
X135885000Y-110890000D01*
D11*
X138556904Y-109252380D02*
X138556904Y-110061904D01*
X138509285Y-110157142D01*
X138461666Y-110204761D01*
X138366428Y-110252380D01*
X138175952Y-110252380D01*
X138080714Y-110204761D01*
X138033095Y-110157142D01*
X137985476Y-110061904D01*
X137985476Y-109252380D01*
X137604523Y-109252380D02*
X136985476Y-109252380D01*
X137318809Y-109633333D01*
X137175952Y-109633333D01*
X137080714Y-109680952D01*
X137033095Y-109728571D01*
X136985476Y-109823809D01*
X136985476Y-110061904D01*
X137033095Y-110157142D01*
X137080714Y-110204761D01*
X137175952Y-110252380D01*
X137461666Y-110252380D01*
X137556904Y-110204761D01*
X137604523Y-110157142D01*
%LPC*%
D12*
X118500000Y-147000000D03*
X118500000Y-103000000D03*
D13*
X109220000Y-107950000D03*
D14*
X116840000Y-140970000D03*
X109220000Y-110490000D03*
X116840000Y-138430000D03*
X109220000Y-113030000D03*
X116840000Y-135890000D03*
X109220000Y-115570000D03*
X116840000Y-133350000D03*
X109220000Y-118110000D03*
X116840000Y-130810000D03*
X109220000Y-120650000D03*
X116840000Y-128270000D03*
X109220000Y-123190000D03*
X116840000Y-125730000D03*
X109220000Y-125730000D03*
X116840000Y-123190000D03*
X109220000Y-128270000D03*
X116840000Y-120650000D03*
X109220000Y-130810000D03*
X116840000Y-118110000D03*
X109220000Y-133350000D03*
X116840000Y-115570000D03*
X109220000Y-135890000D03*
X116840000Y-113030000D03*
X109220000Y-138430000D03*
X116840000Y-110490000D03*
X109220000Y-140970000D03*
X116840000Y-107950000D03*
D13*
X129540000Y-137795000D03*
D14*
X147320000Y-130175000D03*
X132080000Y-137795000D03*
X144780000Y-130175000D03*
X134620000Y-137795000D03*
X142240000Y-130175000D03*
X137160000Y-137795000D03*
X139700000Y-130175000D03*
X139700000Y-137795000D03*
X137160000Y-130175000D03*
X142240000Y-137795000D03*
X134620000Y-130175000D03*
X144780000Y-137795000D03*
X132080000Y-130175000D03*
X147320000Y-137795000D03*
X129540000Y-130175000D03*
D15*
X122555000Y-103505000D03*
X127635000Y-103505000D03*
D16*
X134645000Y-114300000D03*
D17*
X140945000Y-114300000D03*
X140945000Y-116600000D03*
X140945000Y-112000000D03*
D18*
X132080000Y-103759000D03*
X137160000Y-103759000D03*
X134620000Y-103759000D03*
D19*
X123190000Y-134620000D03*
D20*
X123190000Y-139700000D03*
D21*
X123190000Y-130810000D03*
D22*
X123190000Y-128270000D03*
D23*
X105410000Y-133985000D03*
X105410000Y-128985000D03*
X102870000Y-128985000D03*
X102870000Y-133985000D03*
X113030000Y-102870000D03*
X108030000Y-102870000D03*
D19*
X103505000Y-102235000D03*
D20*
X103505000Y-107315000D03*
D24*
X103759000Y-144145000D03*
X103759000Y-139265000D03*
D25*
X135255000Y-123825000D03*
X137255000Y-123825000D03*
D26*
X144145000Y-107315000D03*
D12*
X144145000Y-103815000D03*
D26*
X144145000Y-146050000D03*
D12*
X144145000Y-142550000D03*
X144399000Y-121722000D03*
D26*
X144399000Y-125222000D03*
D27*
X123825000Y-111125000D03*
D28*
X123825000Y-113665000D03*
X123825000Y-116205000D03*
X123825000Y-118745000D03*
X123825000Y-121285000D03*
X123825000Y-123825000D03*
D27*
X113665000Y-146685000D03*
D28*
X111125000Y-146685000D03*
X108585000Y-146685000D03*
X103505000Y-111760000D03*
X103505000Y-114300000D03*
X103505000Y-116840000D03*
X103505000Y-119380000D03*
X103505000Y-121920000D03*
D27*
X103505000Y-124460000D03*
D28*
X126365000Y-123825000D03*
X126365000Y-121285000D03*
X126365000Y-118745000D03*
X126365000Y-116205000D03*
X126365000Y-113665000D03*
D27*
X126365000Y-111125000D03*
X128905000Y-111125000D03*
D28*
X128905000Y-113665000D03*
X128905000Y-116205000D03*
X128905000Y-118745000D03*
X128905000Y-121285000D03*
X128905000Y-123825000D03*
M02*
