G04 #@! TF.GenerationSoftware,KiCad,Pcbnew,(5.1.8)-1*
G04 #@! TF.CreationDate,2021-03-23T12:39:28+01:00*
G04 #@! TF.ProjectId,MicoBot1,4d69636f-426f-4743-912e-6b696361645f,rev?*
G04 #@! TF.SameCoordinates,Original*
G04 #@! TF.FileFunction,Other,User*
%FSLAX46Y46*%
G04 Gerber Fmt 4.6, Leading zero omitted, Abs format (unit mm)*
G04 Created by KiCad (PCBNEW (5.1.8)-1) date 2021-03-23 12:39:28*
%MOMM*%
%LPD*%
G01*
G04 APERTURE LIST*
%ADD10C,0.050000*%
%ADD11C,0.120000*%
G04 APERTURE END LIST*
D10*
X117920000Y-106400000D02*
X108120000Y-106400000D01*
X117920000Y-142500000D02*
X117920000Y-106400000D01*
X108120000Y-142500000D02*
X117920000Y-142500000D01*
X108120000Y-106400000D02*
X108120000Y-142500000D01*
X127990000Y-129095000D02*
X127990000Y-138895000D01*
X148840000Y-129095000D02*
X127990000Y-129095000D01*
X148840000Y-138895000D02*
X148840000Y-129095000D01*
X127990000Y-138895000D02*
X148840000Y-138895000D01*
D11*
X127366845Y-103505000D02*
G75*
G03*
X127366845Y-103505000I-2271845J0D01*
G01*
X121793000Y-106807000D02*
X121793000Y-100203000D01*
X128397000Y-106807000D02*
X121793000Y-106807000D01*
X128397000Y-100203000D02*
X128397000Y-106807000D01*
X121793000Y-100203000D02*
X128397000Y-100203000D01*
D10*
X124240000Y-140650000D02*
X124240000Y-133670000D01*
X122140000Y-140650000D02*
X124240000Y-140650000D01*
X122140000Y-133670000D02*
X122140000Y-140650000D01*
X124240000Y-133670000D02*
X122140000Y-133670000D01*
X120940000Y-127110000D02*
X120940000Y-131960000D01*
X125440000Y-127110000D02*
X120940000Y-127110000D01*
X125440000Y-131960000D02*
X125440000Y-127110000D01*
X120940000Y-131960000D02*
X125440000Y-131960000D01*
X104210000Y-127935000D02*
X104210000Y-135035000D01*
X106610000Y-127935000D02*
X104210000Y-127935000D01*
X106610000Y-135035000D02*
X106610000Y-127935000D01*
X104210000Y-135035000D02*
X106610000Y-135035000D01*
X101670000Y-135035000D02*
X104070000Y-135035000D01*
X104070000Y-135035000D02*
X104070000Y-127935000D01*
X104070000Y-127935000D02*
X101670000Y-127935000D01*
X101670000Y-127935000D02*
X101670000Y-135035000D01*
X106980000Y-104070000D02*
X114080000Y-104070000D01*
X106980000Y-101670000D02*
X106980000Y-104070000D01*
X114080000Y-101670000D02*
X106980000Y-101670000D01*
X114080000Y-104070000D02*
X114080000Y-101670000D01*
X104555000Y-108265000D02*
X104555000Y-101285000D01*
X102455000Y-108265000D02*
X104555000Y-108265000D01*
X102455000Y-101285000D02*
X102455000Y-108265000D01*
X104555000Y-101285000D02*
X102455000Y-101285000D01*
X100959000Y-135645000D02*
X100959000Y-147745000D01*
X106559000Y-135645000D02*
X100959000Y-135645000D01*
X106559000Y-147745000D02*
X106559000Y-135645000D01*
X100959000Y-147745000D02*
X106559000Y-147745000D01*
X139005000Y-123825000D02*
G75*
G03*
X139005000Y-123825000I-2750000J0D01*
G01*
X140545000Y-101565000D02*
X140545000Y-109565000D01*
X149145000Y-101565000D02*
X140545000Y-101565000D01*
X149145000Y-109565000D02*
X149145000Y-101565000D01*
X140545000Y-109565000D02*
X149145000Y-109565000D01*
X140545000Y-140300000D02*
X140545000Y-148300000D01*
X149145000Y-140300000D02*
X140545000Y-140300000D01*
X149145000Y-148300000D02*
X149145000Y-140300000D01*
X140545000Y-148300000D02*
X149145000Y-148300000D01*
X140799000Y-127472000D02*
X149399000Y-127472000D01*
X149399000Y-127472000D02*
X149399000Y-119472000D01*
X149399000Y-119472000D02*
X140799000Y-119472000D01*
X140799000Y-119472000D02*
X140799000Y-127472000D01*
X125625000Y-109325000D02*
X122025000Y-109325000D01*
X125625000Y-125625000D02*
X125625000Y-109325000D01*
X122025000Y-125625000D02*
X125625000Y-125625000D01*
X122025000Y-109325000D02*
X122025000Y-125625000D01*
X115465000Y-148485000D02*
X115465000Y-144885000D01*
X106815000Y-148485000D02*
X115465000Y-148485000D01*
X106815000Y-144885000D02*
X106815000Y-148485000D01*
X115465000Y-144885000D02*
X106815000Y-144885000D01*
X105305000Y-126260000D02*
X105305000Y-109960000D01*
X105305000Y-109960000D02*
X101705000Y-109960000D01*
X101705000Y-109960000D02*
X101705000Y-126260000D01*
X101705000Y-126260000D02*
X105305000Y-126260000D01*
X124565000Y-109325000D02*
X124565000Y-125625000D01*
X124565000Y-125625000D02*
X128165000Y-125625000D01*
X128165000Y-125625000D02*
X128165000Y-109325000D01*
X128165000Y-109325000D02*
X124565000Y-109325000D01*
X130705000Y-109325000D02*
X127105000Y-109325000D01*
X130705000Y-125625000D02*
X130705000Y-109325000D01*
X127105000Y-125625000D02*
X130705000Y-125625000D01*
X127105000Y-109325000D02*
X127105000Y-125625000D01*
M02*
