G04 #@! TF.GenerationSoftware,KiCad,Pcbnew,(5.1.4)-1*
G04 #@! TF.CreationDate,2019-08-18T14:13:06+02:00*
G04 #@! TF.ProjectId,MicoBot1,4d69636f-426f-4743-912e-6b696361645f,rev?*
G04 #@! TF.SameCoordinates,Original*
G04 #@! TF.FileFunction,Soldermask,Bot*
G04 #@! TF.FilePolarity,Negative*
%FSLAX46Y46*%
G04 Gerber Fmt 4.6, Leading zero omitted, Abs format (unit mm)*
G04 Created by KiCad (PCBNEW (5.1.4)-1) date 2019-08-18 14:13:06*
%MOMM*%
%LPD*%
G04 APERTURE LIST*
%ADD10C,0.100000*%
G04 APERTURE END LIST*
D10*
G36*
X118864712Y-145797037D02*
G01*
X118864903Y-145797075D01*
X119092571Y-145891378D01*
X119297466Y-146028285D01*
X119471715Y-146202534D01*
X119608622Y-146407429D01*
X119608623Y-146407431D01*
X119702925Y-146635097D01*
X119747985Y-146861627D01*
X119751000Y-146876787D01*
X119751000Y-147123213D01*
X119702925Y-147364903D01*
X119608622Y-147592571D01*
X119471715Y-147797466D01*
X119297466Y-147971715D01*
X119092571Y-148108622D01*
X119092570Y-148108623D01*
X119092569Y-148108623D01*
X118864903Y-148202925D01*
X118623214Y-148251000D01*
X118376786Y-148251000D01*
X118135097Y-148202925D01*
X117907431Y-148108623D01*
X117907430Y-148108623D01*
X117907429Y-148108622D01*
X117702534Y-147971715D01*
X117528285Y-147797466D01*
X117391378Y-147592571D01*
X117297075Y-147364903D01*
X117249000Y-147123213D01*
X117249000Y-146876787D01*
X117252016Y-146861627D01*
X117297075Y-146635097D01*
X117391377Y-146407431D01*
X117391378Y-146407429D01*
X117528285Y-146202534D01*
X117702534Y-146028285D01*
X117907429Y-145891378D01*
X118135097Y-145797075D01*
X118135288Y-145797037D01*
X118376786Y-145749000D01*
X118623214Y-145749000D01*
X118864712Y-145797037D01*
X118864712Y-145797037D01*
G37*
G36*
X114566000Y-147586000D02*
G01*
X112764000Y-147586000D01*
X112764000Y-145784000D01*
X114566000Y-145784000D01*
X114566000Y-147586000D01*
X114566000Y-147586000D01*
G37*
G36*
X111235443Y-145790519D02*
G01*
X111301627Y-145797037D01*
X111471466Y-145848557D01*
X111627991Y-145932222D01*
X111663729Y-145961552D01*
X111765186Y-146044814D01*
X111848448Y-146146271D01*
X111877778Y-146182009D01*
X111961443Y-146338534D01*
X112012963Y-146508373D01*
X112030359Y-146685000D01*
X112012963Y-146861627D01*
X111961443Y-147031466D01*
X111877778Y-147187991D01*
X111848448Y-147223729D01*
X111765186Y-147325186D01*
X111663729Y-147408448D01*
X111627991Y-147437778D01*
X111471466Y-147521443D01*
X111301627Y-147572963D01*
X111235443Y-147579481D01*
X111169260Y-147586000D01*
X111080740Y-147586000D01*
X111014557Y-147579481D01*
X110948373Y-147572963D01*
X110778534Y-147521443D01*
X110622009Y-147437778D01*
X110586271Y-147408448D01*
X110484814Y-147325186D01*
X110401552Y-147223729D01*
X110372222Y-147187991D01*
X110288557Y-147031466D01*
X110237037Y-146861627D01*
X110219641Y-146685000D01*
X110237037Y-146508373D01*
X110288557Y-146338534D01*
X110372222Y-146182009D01*
X110401552Y-146146271D01*
X110484814Y-146044814D01*
X110586271Y-145961552D01*
X110622009Y-145932222D01*
X110778534Y-145848557D01*
X110948373Y-145797037D01*
X111014557Y-145790519D01*
X111080740Y-145784000D01*
X111169260Y-145784000D01*
X111235443Y-145790519D01*
X111235443Y-145790519D01*
G37*
G36*
X108695443Y-145790519D02*
G01*
X108761627Y-145797037D01*
X108931466Y-145848557D01*
X109087991Y-145932222D01*
X109123729Y-145961552D01*
X109225186Y-146044814D01*
X109308448Y-146146271D01*
X109337778Y-146182009D01*
X109421443Y-146338534D01*
X109472963Y-146508373D01*
X109490359Y-146685000D01*
X109472963Y-146861627D01*
X109421443Y-147031466D01*
X109337778Y-147187991D01*
X109308448Y-147223729D01*
X109225186Y-147325186D01*
X109123729Y-147408448D01*
X109087991Y-147437778D01*
X108931466Y-147521443D01*
X108761627Y-147572963D01*
X108695443Y-147579481D01*
X108629260Y-147586000D01*
X108540740Y-147586000D01*
X108474557Y-147579481D01*
X108408373Y-147572963D01*
X108238534Y-147521443D01*
X108082009Y-147437778D01*
X108046271Y-147408448D01*
X107944814Y-147325186D01*
X107861552Y-147223729D01*
X107832222Y-147187991D01*
X107748557Y-147031466D01*
X107697037Y-146861627D01*
X107679641Y-146685000D01*
X107697037Y-146508373D01*
X107748557Y-146338534D01*
X107832222Y-146182009D01*
X107861552Y-146146271D01*
X107944814Y-146044814D01*
X108046271Y-145961552D01*
X108082009Y-145932222D01*
X108238534Y-145848557D01*
X108408373Y-145797037D01*
X108474557Y-145790519D01*
X108540740Y-145784000D01*
X108629260Y-145784000D01*
X108695443Y-145790519D01*
X108695443Y-145790519D01*
G37*
G36*
X145396000Y-147301000D02*
G01*
X142894000Y-147301000D01*
X142894000Y-144799000D01*
X145396000Y-144799000D01*
X145396000Y-147301000D01*
X145396000Y-147301000D01*
G37*
G36*
X103992642Y-143374781D02*
G01*
X104138414Y-143435162D01*
X104138416Y-143435163D01*
X104269608Y-143522822D01*
X104381178Y-143634392D01*
X104468837Y-143765584D01*
X104468838Y-143765586D01*
X104529219Y-143911358D01*
X104560000Y-144066107D01*
X104560000Y-144223893D01*
X104529219Y-144378642D01*
X104468838Y-144524414D01*
X104468837Y-144524416D01*
X104381178Y-144655608D01*
X104269608Y-144767178D01*
X104138416Y-144854837D01*
X104138415Y-144854838D01*
X104138414Y-144854838D01*
X103992642Y-144915219D01*
X103837893Y-144946000D01*
X103680107Y-144946000D01*
X103525358Y-144915219D01*
X103379586Y-144854838D01*
X103379585Y-144854838D01*
X103379584Y-144854837D01*
X103248392Y-144767178D01*
X103136822Y-144655608D01*
X103049163Y-144524416D01*
X103049162Y-144524414D01*
X102988781Y-144378642D01*
X102958000Y-144223893D01*
X102958000Y-144066107D01*
X102988781Y-143911358D01*
X103049162Y-143765586D01*
X103049163Y-143765584D01*
X103136822Y-143634392D01*
X103248392Y-143522822D01*
X103379584Y-143435163D01*
X103379586Y-143435162D01*
X103525358Y-143374781D01*
X103680107Y-143344000D01*
X103837893Y-143344000D01*
X103992642Y-143374781D01*
X103992642Y-143374781D01*
G37*
G36*
X144509903Y-141347075D02*
G01*
X144737571Y-141441378D01*
X144942466Y-141578285D01*
X145116715Y-141752534D01*
X145253622Y-141957429D01*
X145347925Y-142185097D01*
X145396000Y-142426787D01*
X145396000Y-142673213D01*
X145347925Y-142914903D01*
X145253622Y-143142571D01*
X145116715Y-143347466D01*
X144942466Y-143521715D01*
X144737571Y-143658622D01*
X144737570Y-143658623D01*
X144737569Y-143658623D01*
X144509903Y-143752925D01*
X144268214Y-143801000D01*
X144021786Y-143801000D01*
X143780097Y-143752925D01*
X143552431Y-143658623D01*
X143552430Y-143658623D01*
X143552429Y-143658622D01*
X143347534Y-143521715D01*
X143173285Y-143347466D01*
X143036378Y-143142571D01*
X142942075Y-142914903D01*
X142894000Y-142673213D01*
X142894000Y-142426787D01*
X142942075Y-142185097D01*
X143036378Y-141957429D01*
X143173285Y-141752534D01*
X143347534Y-141578285D01*
X143552429Y-141441378D01*
X143780097Y-141347075D01*
X144021786Y-141299000D01*
X144268214Y-141299000D01*
X144509903Y-141347075D01*
X144509903Y-141347075D01*
G37*
G36*
X117006823Y-140131313D02*
G01*
X117167242Y-140179976D01*
X117267578Y-140233607D01*
X117315078Y-140258996D01*
X117444659Y-140365341D01*
X117551004Y-140494922D01*
X117551005Y-140494924D01*
X117630024Y-140642758D01*
X117678687Y-140803177D01*
X117695117Y-140970000D01*
X117678687Y-141136823D01*
X117630024Y-141297242D01*
X117559114Y-141429906D01*
X117551004Y-141445078D01*
X117444659Y-141574659D01*
X117315078Y-141681004D01*
X117315076Y-141681005D01*
X117167242Y-141760024D01*
X117006823Y-141808687D01*
X116881804Y-141821000D01*
X116798196Y-141821000D01*
X116673177Y-141808687D01*
X116512758Y-141760024D01*
X116364924Y-141681005D01*
X116364922Y-141681004D01*
X116235341Y-141574659D01*
X116128996Y-141445078D01*
X116120886Y-141429906D01*
X116049976Y-141297242D01*
X116001313Y-141136823D01*
X115984883Y-140970000D01*
X116001313Y-140803177D01*
X116049976Y-140642758D01*
X116128995Y-140494924D01*
X116128996Y-140494922D01*
X116235341Y-140365341D01*
X116364922Y-140258996D01*
X116412422Y-140233607D01*
X116512758Y-140179976D01*
X116673177Y-140131313D01*
X116798196Y-140119000D01*
X116881804Y-140119000D01*
X117006823Y-140131313D01*
X117006823Y-140131313D01*
G37*
G36*
X109386823Y-140131313D02*
G01*
X109547242Y-140179976D01*
X109647578Y-140233607D01*
X109695078Y-140258996D01*
X109824659Y-140365341D01*
X109931004Y-140494922D01*
X109931005Y-140494924D01*
X110010024Y-140642758D01*
X110058687Y-140803177D01*
X110075117Y-140970000D01*
X110058687Y-141136823D01*
X110010024Y-141297242D01*
X109939114Y-141429906D01*
X109931004Y-141445078D01*
X109824659Y-141574659D01*
X109695078Y-141681004D01*
X109695076Y-141681005D01*
X109547242Y-141760024D01*
X109386823Y-141808687D01*
X109261804Y-141821000D01*
X109178196Y-141821000D01*
X109053177Y-141808687D01*
X108892758Y-141760024D01*
X108744924Y-141681005D01*
X108744922Y-141681004D01*
X108615341Y-141574659D01*
X108508996Y-141445078D01*
X108500886Y-141429906D01*
X108429976Y-141297242D01*
X108381313Y-141136823D01*
X108364883Y-140970000D01*
X108381313Y-140803177D01*
X108429976Y-140642758D01*
X108508995Y-140494924D01*
X108508996Y-140494922D01*
X108615341Y-140365341D01*
X108744922Y-140258996D01*
X108792422Y-140233607D01*
X108892758Y-140179976D01*
X109053177Y-140131313D01*
X109178196Y-140119000D01*
X109261804Y-140119000D01*
X109386823Y-140131313D01*
X109386823Y-140131313D01*
G37*
G36*
X123263665Y-138952622D02*
G01*
X123337222Y-138959867D01*
X123478786Y-139002810D01*
X123609252Y-139072546D01*
X123639040Y-139096992D01*
X123723607Y-139166393D01*
X123793008Y-139250960D01*
X123817454Y-139280748D01*
X123887190Y-139411214D01*
X123930133Y-139552778D01*
X123944633Y-139700000D01*
X123930133Y-139847222D01*
X123887190Y-139988786D01*
X123817454Y-140119252D01*
X123807555Y-140131314D01*
X123723607Y-140233607D01*
X123639040Y-140303008D01*
X123609252Y-140327454D01*
X123478786Y-140397190D01*
X123337222Y-140440133D01*
X123263665Y-140447378D01*
X123226888Y-140451000D01*
X123153112Y-140451000D01*
X123116335Y-140447378D01*
X123042778Y-140440133D01*
X122901214Y-140397190D01*
X122770748Y-140327454D01*
X122740960Y-140303008D01*
X122656393Y-140233607D01*
X122572445Y-140131314D01*
X122562546Y-140119252D01*
X122492810Y-139988786D01*
X122449867Y-139847222D01*
X122435367Y-139700000D01*
X122449867Y-139552778D01*
X122492810Y-139411214D01*
X122562546Y-139280748D01*
X122586992Y-139250960D01*
X122656393Y-139166393D01*
X122740960Y-139096992D01*
X122770748Y-139072546D01*
X122901214Y-139002810D01*
X123042778Y-138959867D01*
X123116335Y-138952622D01*
X123153112Y-138949000D01*
X123226888Y-138949000D01*
X123263665Y-138952622D01*
X123263665Y-138952622D01*
G37*
G36*
X103992642Y-138494781D02*
G01*
X104138414Y-138555162D01*
X104138416Y-138555163D01*
X104269608Y-138642822D01*
X104381178Y-138754392D01*
X104383080Y-138757239D01*
X104468838Y-138885586D01*
X104529219Y-139031358D01*
X104560000Y-139186107D01*
X104560000Y-139343893D01*
X104529219Y-139498642D01*
X104506795Y-139552778D01*
X104468837Y-139644416D01*
X104381178Y-139775608D01*
X104269608Y-139887178D01*
X104138416Y-139974837D01*
X104138415Y-139974838D01*
X104138414Y-139974838D01*
X103992642Y-140035219D01*
X103837893Y-140066000D01*
X103680107Y-140066000D01*
X103525358Y-140035219D01*
X103379586Y-139974838D01*
X103379585Y-139974838D01*
X103379584Y-139974837D01*
X103248392Y-139887178D01*
X103136822Y-139775608D01*
X103049163Y-139644416D01*
X103011205Y-139552778D01*
X102988781Y-139498642D01*
X102958000Y-139343893D01*
X102958000Y-139186107D01*
X102988781Y-139031358D01*
X103049162Y-138885586D01*
X103134920Y-138757239D01*
X103136822Y-138754392D01*
X103248392Y-138642822D01*
X103379584Y-138555163D01*
X103379586Y-138555162D01*
X103525358Y-138494781D01*
X103680107Y-138464000D01*
X103837893Y-138464000D01*
X103992642Y-138494781D01*
X103992642Y-138494781D01*
G37*
G36*
X117006823Y-137591313D02*
G01*
X117167242Y-137639976D01*
X117299906Y-137710886D01*
X117315078Y-137718996D01*
X117444659Y-137825341D01*
X117551004Y-137954922D01*
X117551005Y-137954924D01*
X117630024Y-138102758D01*
X117678687Y-138263177D01*
X117695117Y-138430000D01*
X117678687Y-138596823D01*
X117630024Y-138757242D01*
X117561424Y-138885584D01*
X117551004Y-138905078D01*
X117444659Y-139034659D01*
X117315078Y-139141004D01*
X117315076Y-139141005D01*
X117167242Y-139220024D01*
X117006823Y-139268687D01*
X116881804Y-139281000D01*
X116798196Y-139281000D01*
X116673177Y-139268687D01*
X116512758Y-139220024D01*
X116364924Y-139141005D01*
X116364922Y-139141004D01*
X116235341Y-139034659D01*
X116128996Y-138905078D01*
X116118576Y-138885584D01*
X116049976Y-138757242D01*
X116001313Y-138596823D01*
X115984883Y-138430000D01*
X116001313Y-138263177D01*
X116049976Y-138102758D01*
X116128995Y-137954924D01*
X116128996Y-137954922D01*
X116235341Y-137825341D01*
X116364922Y-137718996D01*
X116380094Y-137710886D01*
X116512758Y-137639976D01*
X116673177Y-137591313D01*
X116798196Y-137579000D01*
X116881804Y-137579000D01*
X117006823Y-137591313D01*
X117006823Y-137591313D01*
G37*
G36*
X109386823Y-137591313D02*
G01*
X109547242Y-137639976D01*
X109679906Y-137710886D01*
X109695078Y-137718996D01*
X109824659Y-137825341D01*
X109931004Y-137954922D01*
X109931005Y-137954924D01*
X110010024Y-138102758D01*
X110058687Y-138263177D01*
X110075117Y-138430000D01*
X110058687Y-138596823D01*
X110010024Y-138757242D01*
X109941424Y-138885584D01*
X109931004Y-138905078D01*
X109824659Y-139034659D01*
X109695078Y-139141004D01*
X109695076Y-139141005D01*
X109547242Y-139220024D01*
X109386823Y-139268687D01*
X109261804Y-139281000D01*
X109178196Y-139281000D01*
X109053177Y-139268687D01*
X108892758Y-139220024D01*
X108744924Y-139141005D01*
X108744922Y-139141004D01*
X108615341Y-139034659D01*
X108508996Y-138905078D01*
X108498576Y-138885584D01*
X108429976Y-138757242D01*
X108381313Y-138596823D01*
X108364883Y-138430000D01*
X108381313Y-138263177D01*
X108429976Y-138102758D01*
X108508995Y-137954924D01*
X108508996Y-137954922D01*
X108615341Y-137825341D01*
X108744922Y-137718996D01*
X108760094Y-137710886D01*
X108892758Y-137639976D01*
X109053177Y-137591313D01*
X109178196Y-137579000D01*
X109261804Y-137579000D01*
X109386823Y-137591313D01*
X109386823Y-137591313D01*
G37*
G36*
X139866823Y-136956313D02*
G01*
X140027242Y-137004976D01*
X140159906Y-137075886D01*
X140175078Y-137083996D01*
X140304659Y-137190341D01*
X140411004Y-137319922D01*
X140411005Y-137319924D01*
X140490024Y-137467758D01*
X140538687Y-137628177D01*
X140555117Y-137795000D01*
X140538687Y-137961823D01*
X140490024Y-138122242D01*
X140419114Y-138254906D01*
X140411004Y-138270078D01*
X140304659Y-138399659D01*
X140175078Y-138506004D01*
X140175076Y-138506005D01*
X140027242Y-138585024D01*
X139866823Y-138633687D01*
X139741804Y-138646000D01*
X139658196Y-138646000D01*
X139533177Y-138633687D01*
X139372758Y-138585024D01*
X139224924Y-138506005D01*
X139224922Y-138506004D01*
X139095341Y-138399659D01*
X138988996Y-138270078D01*
X138980886Y-138254906D01*
X138909976Y-138122242D01*
X138861313Y-137961823D01*
X138844883Y-137795000D01*
X138861313Y-137628177D01*
X138909976Y-137467758D01*
X138988995Y-137319924D01*
X138988996Y-137319922D01*
X139095341Y-137190341D01*
X139224922Y-137083996D01*
X139240094Y-137075886D01*
X139372758Y-137004976D01*
X139533177Y-136956313D01*
X139658196Y-136944000D01*
X139741804Y-136944000D01*
X139866823Y-136956313D01*
X139866823Y-136956313D01*
G37*
G36*
X130391000Y-138646000D02*
G01*
X128689000Y-138646000D01*
X128689000Y-136944000D01*
X130391000Y-136944000D01*
X130391000Y-138646000D01*
X130391000Y-138646000D01*
G37*
G36*
X132246823Y-136956313D02*
G01*
X132407242Y-137004976D01*
X132539906Y-137075886D01*
X132555078Y-137083996D01*
X132684659Y-137190341D01*
X132791004Y-137319922D01*
X132791005Y-137319924D01*
X132870024Y-137467758D01*
X132918687Y-137628177D01*
X132935117Y-137795000D01*
X132918687Y-137961823D01*
X132870024Y-138122242D01*
X132799114Y-138254906D01*
X132791004Y-138270078D01*
X132684659Y-138399659D01*
X132555078Y-138506004D01*
X132555076Y-138506005D01*
X132407242Y-138585024D01*
X132246823Y-138633687D01*
X132121804Y-138646000D01*
X132038196Y-138646000D01*
X131913177Y-138633687D01*
X131752758Y-138585024D01*
X131604924Y-138506005D01*
X131604922Y-138506004D01*
X131475341Y-138399659D01*
X131368996Y-138270078D01*
X131360886Y-138254906D01*
X131289976Y-138122242D01*
X131241313Y-137961823D01*
X131224883Y-137795000D01*
X131241313Y-137628177D01*
X131289976Y-137467758D01*
X131368995Y-137319924D01*
X131368996Y-137319922D01*
X131475341Y-137190341D01*
X131604922Y-137083996D01*
X131620094Y-137075886D01*
X131752758Y-137004976D01*
X131913177Y-136956313D01*
X132038196Y-136944000D01*
X132121804Y-136944000D01*
X132246823Y-136956313D01*
X132246823Y-136956313D01*
G37*
G36*
X134786823Y-136956313D02*
G01*
X134947242Y-137004976D01*
X135079906Y-137075886D01*
X135095078Y-137083996D01*
X135224659Y-137190341D01*
X135331004Y-137319922D01*
X135331005Y-137319924D01*
X135410024Y-137467758D01*
X135458687Y-137628177D01*
X135475117Y-137795000D01*
X135458687Y-137961823D01*
X135410024Y-138122242D01*
X135339114Y-138254906D01*
X135331004Y-138270078D01*
X135224659Y-138399659D01*
X135095078Y-138506004D01*
X135095076Y-138506005D01*
X134947242Y-138585024D01*
X134786823Y-138633687D01*
X134661804Y-138646000D01*
X134578196Y-138646000D01*
X134453177Y-138633687D01*
X134292758Y-138585024D01*
X134144924Y-138506005D01*
X134144922Y-138506004D01*
X134015341Y-138399659D01*
X133908996Y-138270078D01*
X133900886Y-138254906D01*
X133829976Y-138122242D01*
X133781313Y-137961823D01*
X133764883Y-137795000D01*
X133781313Y-137628177D01*
X133829976Y-137467758D01*
X133908995Y-137319924D01*
X133908996Y-137319922D01*
X134015341Y-137190341D01*
X134144922Y-137083996D01*
X134160094Y-137075886D01*
X134292758Y-137004976D01*
X134453177Y-136956313D01*
X134578196Y-136944000D01*
X134661804Y-136944000D01*
X134786823Y-136956313D01*
X134786823Y-136956313D01*
G37*
G36*
X142406823Y-136956313D02*
G01*
X142567242Y-137004976D01*
X142699906Y-137075886D01*
X142715078Y-137083996D01*
X142844659Y-137190341D01*
X142951004Y-137319922D01*
X142951005Y-137319924D01*
X143030024Y-137467758D01*
X143078687Y-137628177D01*
X143095117Y-137795000D01*
X143078687Y-137961823D01*
X143030024Y-138122242D01*
X142959114Y-138254906D01*
X142951004Y-138270078D01*
X142844659Y-138399659D01*
X142715078Y-138506004D01*
X142715076Y-138506005D01*
X142567242Y-138585024D01*
X142406823Y-138633687D01*
X142281804Y-138646000D01*
X142198196Y-138646000D01*
X142073177Y-138633687D01*
X141912758Y-138585024D01*
X141764924Y-138506005D01*
X141764922Y-138506004D01*
X141635341Y-138399659D01*
X141528996Y-138270078D01*
X141520886Y-138254906D01*
X141449976Y-138122242D01*
X141401313Y-137961823D01*
X141384883Y-137795000D01*
X141401313Y-137628177D01*
X141449976Y-137467758D01*
X141528995Y-137319924D01*
X141528996Y-137319922D01*
X141635341Y-137190341D01*
X141764922Y-137083996D01*
X141780094Y-137075886D01*
X141912758Y-137004976D01*
X142073177Y-136956313D01*
X142198196Y-136944000D01*
X142281804Y-136944000D01*
X142406823Y-136956313D01*
X142406823Y-136956313D01*
G37*
G36*
X147486823Y-136956313D02*
G01*
X147647242Y-137004976D01*
X147779906Y-137075886D01*
X147795078Y-137083996D01*
X147924659Y-137190341D01*
X148031004Y-137319922D01*
X148031005Y-137319924D01*
X148110024Y-137467758D01*
X148158687Y-137628177D01*
X148175117Y-137795000D01*
X148158687Y-137961823D01*
X148110024Y-138122242D01*
X148039114Y-138254906D01*
X148031004Y-138270078D01*
X147924659Y-138399659D01*
X147795078Y-138506004D01*
X147795076Y-138506005D01*
X147647242Y-138585024D01*
X147486823Y-138633687D01*
X147361804Y-138646000D01*
X147278196Y-138646000D01*
X147153177Y-138633687D01*
X146992758Y-138585024D01*
X146844924Y-138506005D01*
X146844922Y-138506004D01*
X146715341Y-138399659D01*
X146608996Y-138270078D01*
X146600886Y-138254906D01*
X146529976Y-138122242D01*
X146481313Y-137961823D01*
X146464883Y-137795000D01*
X146481313Y-137628177D01*
X146529976Y-137467758D01*
X146608995Y-137319924D01*
X146608996Y-137319922D01*
X146715341Y-137190341D01*
X146844922Y-137083996D01*
X146860094Y-137075886D01*
X146992758Y-137004976D01*
X147153177Y-136956313D01*
X147278196Y-136944000D01*
X147361804Y-136944000D01*
X147486823Y-136956313D01*
X147486823Y-136956313D01*
G37*
G36*
X137326823Y-136956313D02*
G01*
X137487242Y-137004976D01*
X137619906Y-137075886D01*
X137635078Y-137083996D01*
X137764659Y-137190341D01*
X137871004Y-137319922D01*
X137871005Y-137319924D01*
X137950024Y-137467758D01*
X137998687Y-137628177D01*
X138015117Y-137795000D01*
X137998687Y-137961823D01*
X137950024Y-138122242D01*
X137879114Y-138254906D01*
X137871004Y-138270078D01*
X137764659Y-138399659D01*
X137635078Y-138506004D01*
X137635076Y-138506005D01*
X137487242Y-138585024D01*
X137326823Y-138633687D01*
X137201804Y-138646000D01*
X137118196Y-138646000D01*
X136993177Y-138633687D01*
X136832758Y-138585024D01*
X136684924Y-138506005D01*
X136684922Y-138506004D01*
X136555341Y-138399659D01*
X136448996Y-138270078D01*
X136440886Y-138254906D01*
X136369976Y-138122242D01*
X136321313Y-137961823D01*
X136304883Y-137795000D01*
X136321313Y-137628177D01*
X136369976Y-137467758D01*
X136448995Y-137319924D01*
X136448996Y-137319922D01*
X136555341Y-137190341D01*
X136684922Y-137083996D01*
X136700094Y-137075886D01*
X136832758Y-137004976D01*
X136993177Y-136956313D01*
X137118196Y-136944000D01*
X137201804Y-136944000D01*
X137326823Y-136956313D01*
X137326823Y-136956313D01*
G37*
G36*
X144946823Y-136956313D02*
G01*
X145107242Y-137004976D01*
X145239906Y-137075886D01*
X145255078Y-137083996D01*
X145384659Y-137190341D01*
X145491004Y-137319922D01*
X145491005Y-137319924D01*
X145570024Y-137467758D01*
X145618687Y-137628177D01*
X145635117Y-137795000D01*
X145618687Y-137961823D01*
X145570024Y-138122242D01*
X145499114Y-138254906D01*
X145491004Y-138270078D01*
X145384659Y-138399659D01*
X145255078Y-138506004D01*
X145255076Y-138506005D01*
X145107242Y-138585024D01*
X144946823Y-138633687D01*
X144821804Y-138646000D01*
X144738196Y-138646000D01*
X144613177Y-138633687D01*
X144452758Y-138585024D01*
X144304924Y-138506005D01*
X144304922Y-138506004D01*
X144175341Y-138399659D01*
X144068996Y-138270078D01*
X144060886Y-138254906D01*
X143989976Y-138122242D01*
X143941313Y-137961823D01*
X143924883Y-137795000D01*
X143941313Y-137628177D01*
X143989976Y-137467758D01*
X144068995Y-137319924D01*
X144068996Y-137319922D01*
X144175341Y-137190341D01*
X144304922Y-137083996D01*
X144320094Y-137075886D01*
X144452758Y-137004976D01*
X144613177Y-136956313D01*
X144738196Y-136944000D01*
X144821804Y-136944000D01*
X144946823Y-136956313D01*
X144946823Y-136956313D01*
G37*
G36*
X117006823Y-135051313D02*
G01*
X117137380Y-135090917D01*
X117163145Y-135098733D01*
X117167242Y-135099976D01*
X117299906Y-135170886D01*
X117315078Y-135178996D01*
X117444659Y-135285341D01*
X117551004Y-135414922D01*
X117551005Y-135414924D01*
X117630024Y-135562758D01*
X117678687Y-135723177D01*
X117695117Y-135890000D01*
X117678687Y-136056823D01*
X117630024Y-136217242D01*
X117559114Y-136349906D01*
X117551004Y-136365078D01*
X117444659Y-136494659D01*
X117315078Y-136601004D01*
X117315076Y-136601005D01*
X117167242Y-136680024D01*
X117006823Y-136728687D01*
X116881804Y-136741000D01*
X116798196Y-136741000D01*
X116673177Y-136728687D01*
X116512758Y-136680024D01*
X116364924Y-136601005D01*
X116364922Y-136601004D01*
X116235341Y-136494659D01*
X116128996Y-136365078D01*
X116120886Y-136349906D01*
X116049976Y-136217242D01*
X116001313Y-136056823D01*
X115984883Y-135890000D01*
X116001313Y-135723177D01*
X116049976Y-135562758D01*
X116128995Y-135414924D01*
X116128996Y-135414922D01*
X116235341Y-135285341D01*
X116364922Y-135178996D01*
X116380094Y-135170886D01*
X116512758Y-135099976D01*
X116516856Y-135098733D01*
X116542620Y-135090917D01*
X116673177Y-135051313D01*
X116798196Y-135039000D01*
X116881804Y-135039000D01*
X117006823Y-135051313D01*
X117006823Y-135051313D01*
G37*
G36*
X109386823Y-135051313D02*
G01*
X109517380Y-135090917D01*
X109543145Y-135098733D01*
X109547242Y-135099976D01*
X109679906Y-135170886D01*
X109695078Y-135178996D01*
X109824659Y-135285341D01*
X109931004Y-135414922D01*
X109931005Y-135414924D01*
X110010024Y-135562758D01*
X110058687Y-135723177D01*
X110075117Y-135890000D01*
X110058687Y-136056823D01*
X110010024Y-136217242D01*
X109939114Y-136349906D01*
X109931004Y-136365078D01*
X109824659Y-136494659D01*
X109695078Y-136601004D01*
X109695076Y-136601005D01*
X109547242Y-136680024D01*
X109386823Y-136728687D01*
X109261804Y-136741000D01*
X109178196Y-136741000D01*
X109053177Y-136728687D01*
X108892758Y-136680024D01*
X108744924Y-136601005D01*
X108744922Y-136601004D01*
X108615341Y-136494659D01*
X108508996Y-136365078D01*
X108500886Y-136349906D01*
X108429976Y-136217242D01*
X108381313Y-136056823D01*
X108364883Y-135890000D01*
X108381313Y-135723177D01*
X108429976Y-135562758D01*
X108508995Y-135414924D01*
X108508996Y-135414922D01*
X108615341Y-135285341D01*
X108744922Y-135178996D01*
X108760094Y-135170886D01*
X108892758Y-135099976D01*
X108896856Y-135098733D01*
X108922620Y-135090917D01*
X109053177Y-135051313D01*
X109178196Y-135039000D01*
X109261804Y-135039000D01*
X109386823Y-135051313D01*
X109386823Y-135051313D01*
G37*
G36*
X123409059Y-133897860D02*
G01*
X123545732Y-133954472D01*
X123668735Y-134036660D01*
X123773340Y-134141265D01*
X123855528Y-134264268D01*
X123912140Y-134400941D01*
X123941000Y-134546033D01*
X123941000Y-134693967D01*
X123912140Y-134839059D01*
X123855528Y-134975732D01*
X123773340Y-135098735D01*
X123668735Y-135203340D01*
X123545732Y-135285528D01*
X123545731Y-135285529D01*
X123545730Y-135285529D01*
X123409059Y-135342140D01*
X123263968Y-135371000D01*
X123116032Y-135371000D01*
X122970941Y-135342140D01*
X122834270Y-135285529D01*
X122834269Y-135285529D01*
X122834268Y-135285528D01*
X122711265Y-135203340D01*
X122606660Y-135098735D01*
X122524472Y-134975732D01*
X122467860Y-134839059D01*
X122439000Y-134693967D01*
X122439000Y-134546033D01*
X122467860Y-134400941D01*
X122524472Y-134264268D01*
X122606660Y-134141265D01*
X122711265Y-134036660D01*
X122834268Y-133954472D01*
X122970941Y-133897860D01*
X123116032Y-133869000D01*
X123263968Y-133869000D01*
X123409059Y-133897860D01*
X123409059Y-133897860D01*
G37*
G36*
X103118228Y-133166703D02*
G01*
X103273100Y-133230853D01*
X103412481Y-133323985D01*
X103531015Y-133442519D01*
X103624147Y-133581900D01*
X103688297Y-133736772D01*
X103721000Y-133901184D01*
X103721000Y-134068816D01*
X103688297Y-134233228D01*
X103624147Y-134388100D01*
X103531015Y-134527481D01*
X103412481Y-134646015D01*
X103273100Y-134739147D01*
X103118228Y-134803297D01*
X102953816Y-134836000D01*
X102786184Y-134836000D01*
X102621772Y-134803297D01*
X102466900Y-134739147D01*
X102327519Y-134646015D01*
X102208985Y-134527481D01*
X102115853Y-134388100D01*
X102051703Y-134233228D01*
X102019000Y-134068816D01*
X102019000Y-133901184D01*
X102051703Y-133736772D01*
X102115853Y-133581900D01*
X102208985Y-133442519D01*
X102327519Y-133323985D01*
X102466900Y-133230853D01*
X102621772Y-133166703D01*
X102786184Y-133134000D01*
X102953816Y-133134000D01*
X103118228Y-133166703D01*
X103118228Y-133166703D01*
G37*
G36*
X105658228Y-133166703D02*
G01*
X105813100Y-133230853D01*
X105952481Y-133323985D01*
X106071015Y-133442519D01*
X106164147Y-133581900D01*
X106228297Y-133736772D01*
X106261000Y-133901184D01*
X106261000Y-134068816D01*
X106228297Y-134233228D01*
X106164147Y-134388100D01*
X106071015Y-134527481D01*
X105952481Y-134646015D01*
X105813100Y-134739147D01*
X105658228Y-134803297D01*
X105493816Y-134836000D01*
X105326184Y-134836000D01*
X105161772Y-134803297D01*
X105006900Y-134739147D01*
X104867519Y-134646015D01*
X104748985Y-134527481D01*
X104655853Y-134388100D01*
X104591703Y-134233228D01*
X104559000Y-134068816D01*
X104559000Y-133901184D01*
X104591703Y-133736772D01*
X104655853Y-133581900D01*
X104748985Y-133442519D01*
X104867519Y-133323985D01*
X105006900Y-133230853D01*
X105161772Y-133166703D01*
X105326184Y-133134000D01*
X105493816Y-133134000D01*
X105658228Y-133166703D01*
X105658228Y-133166703D01*
G37*
G36*
X117006823Y-132511313D02*
G01*
X117167242Y-132559976D01*
X117299906Y-132630886D01*
X117315078Y-132638996D01*
X117444659Y-132745341D01*
X117551004Y-132874922D01*
X117551005Y-132874924D01*
X117630024Y-133022758D01*
X117678687Y-133183177D01*
X117695117Y-133350000D01*
X117678687Y-133516823D01*
X117630024Y-133677242D01*
X117559114Y-133809906D01*
X117551004Y-133825078D01*
X117444659Y-133954659D01*
X117315078Y-134061004D01*
X117315076Y-134061005D01*
X117167242Y-134140024D01*
X117167239Y-134140025D01*
X117137380Y-134149083D01*
X117006823Y-134188687D01*
X116881804Y-134201000D01*
X116798196Y-134201000D01*
X116673177Y-134188687D01*
X116542620Y-134149083D01*
X116512761Y-134140025D01*
X116512758Y-134140024D01*
X116364924Y-134061005D01*
X116364922Y-134061004D01*
X116235341Y-133954659D01*
X116128996Y-133825078D01*
X116120886Y-133809906D01*
X116049976Y-133677242D01*
X116001313Y-133516823D01*
X115984883Y-133350000D01*
X116001313Y-133183177D01*
X116049976Y-133022758D01*
X116128995Y-132874924D01*
X116128996Y-132874922D01*
X116235341Y-132745341D01*
X116364922Y-132638996D01*
X116380094Y-132630886D01*
X116512758Y-132559976D01*
X116673177Y-132511313D01*
X116798196Y-132499000D01*
X116881804Y-132499000D01*
X117006823Y-132511313D01*
X117006823Y-132511313D01*
G37*
G36*
X109386823Y-132511313D02*
G01*
X109547242Y-132559976D01*
X109679906Y-132630886D01*
X109695078Y-132638996D01*
X109824659Y-132745341D01*
X109931004Y-132874922D01*
X109931005Y-132874924D01*
X110010024Y-133022758D01*
X110058687Y-133183177D01*
X110075117Y-133350000D01*
X110058687Y-133516823D01*
X110010024Y-133677242D01*
X109939114Y-133809906D01*
X109931004Y-133825078D01*
X109824659Y-133954659D01*
X109695078Y-134061004D01*
X109695076Y-134061005D01*
X109547242Y-134140024D01*
X109547239Y-134140025D01*
X109517380Y-134149083D01*
X109386823Y-134188687D01*
X109261804Y-134201000D01*
X109178196Y-134201000D01*
X109053177Y-134188687D01*
X108922620Y-134149083D01*
X108892761Y-134140025D01*
X108892758Y-134140024D01*
X108744924Y-134061005D01*
X108744922Y-134061004D01*
X108615341Y-133954659D01*
X108508996Y-133825078D01*
X108500886Y-133809906D01*
X108429976Y-133677242D01*
X108381313Y-133516823D01*
X108364883Y-133350000D01*
X108381313Y-133183177D01*
X108429976Y-133022758D01*
X108508995Y-132874924D01*
X108508996Y-132874922D01*
X108615341Y-132745341D01*
X108744922Y-132638996D01*
X108760094Y-132630886D01*
X108892758Y-132559976D01*
X109053177Y-132511313D01*
X109178196Y-132499000D01*
X109261804Y-132499000D01*
X109386823Y-132511313D01*
X109386823Y-132511313D01*
G37*
G36*
X124141000Y-131761000D02*
G01*
X122239000Y-131761000D01*
X122239000Y-129859000D01*
X124141000Y-129859000D01*
X124141000Y-131761000D01*
X124141000Y-131761000D01*
G37*
G36*
X109386823Y-129971313D02*
G01*
X109547242Y-130019976D01*
X109679906Y-130090886D01*
X109695078Y-130098996D01*
X109824659Y-130205341D01*
X109931004Y-130334922D01*
X109931005Y-130334924D01*
X110010024Y-130482758D01*
X110058687Y-130643177D01*
X110075117Y-130810000D01*
X110058687Y-130976823D01*
X110010024Y-131137242D01*
X109939114Y-131269906D01*
X109931004Y-131285078D01*
X109824659Y-131414659D01*
X109695078Y-131521004D01*
X109695076Y-131521005D01*
X109547242Y-131600024D01*
X109386823Y-131648687D01*
X109261804Y-131661000D01*
X109178196Y-131661000D01*
X109053177Y-131648687D01*
X108892758Y-131600024D01*
X108744924Y-131521005D01*
X108744922Y-131521004D01*
X108615341Y-131414659D01*
X108508996Y-131285078D01*
X108500886Y-131269906D01*
X108429976Y-131137242D01*
X108381313Y-130976823D01*
X108364883Y-130810000D01*
X108381313Y-130643177D01*
X108429976Y-130482758D01*
X108508995Y-130334924D01*
X108508996Y-130334922D01*
X108615341Y-130205341D01*
X108744922Y-130098996D01*
X108760094Y-130090886D01*
X108892758Y-130019976D01*
X109053177Y-129971313D01*
X109178196Y-129959000D01*
X109261804Y-129959000D01*
X109386823Y-129971313D01*
X109386823Y-129971313D01*
G37*
G36*
X117006823Y-129971313D02*
G01*
X117167242Y-130019976D01*
X117299906Y-130090886D01*
X117315078Y-130098996D01*
X117444659Y-130205341D01*
X117551004Y-130334922D01*
X117551005Y-130334924D01*
X117630024Y-130482758D01*
X117678687Y-130643177D01*
X117695117Y-130810000D01*
X117678687Y-130976823D01*
X117630024Y-131137242D01*
X117559114Y-131269906D01*
X117551004Y-131285078D01*
X117444659Y-131414659D01*
X117315078Y-131521004D01*
X117315076Y-131521005D01*
X117167242Y-131600024D01*
X117006823Y-131648687D01*
X116881804Y-131661000D01*
X116798196Y-131661000D01*
X116673177Y-131648687D01*
X116512758Y-131600024D01*
X116364924Y-131521005D01*
X116364922Y-131521004D01*
X116235341Y-131414659D01*
X116128996Y-131285078D01*
X116120886Y-131269906D01*
X116049976Y-131137242D01*
X116001313Y-130976823D01*
X115984883Y-130810000D01*
X116001313Y-130643177D01*
X116049976Y-130482758D01*
X116128995Y-130334924D01*
X116128996Y-130334922D01*
X116235341Y-130205341D01*
X116364922Y-130098996D01*
X116380094Y-130090886D01*
X116512758Y-130019976D01*
X116673177Y-129971313D01*
X116798196Y-129959000D01*
X116881804Y-129959000D01*
X117006823Y-129971313D01*
X117006823Y-129971313D01*
G37*
G36*
X142406823Y-129336313D02*
G01*
X142567242Y-129384976D01*
X142699906Y-129455886D01*
X142715078Y-129463996D01*
X142844659Y-129570341D01*
X142951004Y-129699922D01*
X142951005Y-129699924D01*
X143030024Y-129847758D01*
X143078687Y-130008177D01*
X143095117Y-130175000D01*
X143078687Y-130341823D01*
X143030024Y-130502242D01*
X142959114Y-130634906D01*
X142951004Y-130650078D01*
X142844659Y-130779659D01*
X142715078Y-130886004D01*
X142715076Y-130886005D01*
X142567242Y-130965024D01*
X142406823Y-131013687D01*
X142281804Y-131026000D01*
X142198196Y-131026000D01*
X142073177Y-131013687D01*
X141912758Y-130965024D01*
X141764924Y-130886005D01*
X141764922Y-130886004D01*
X141635341Y-130779659D01*
X141528996Y-130650078D01*
X141520886Y-130634906D01*
X141449976Y-130502242D01*
X141401313Y-130341823D01*
X141384883Y-130175000D01*
X141401313Y-130008177D01*
X141449976Y-129847758D01*
X141528995Y-129699924D01*
X141528996Y-129699922D01*
X141635341Y-129570341D01*
X141764922Y-129463996D01*
X141780094Y-129455886D01*
X141912758Y-129384976D01*
X142073177Y-129336313D01*
X142198196Y-129324000D01*
X142281804Y-129324000D01*
X142406823Y-129336313D01*
X142406823Y-129336313D01*
G37*
G36*
X129706823Y-129336313D02*
G01*
X129867242Y-129384976D01*
X129999906Y-129455886D01*
X130015078Y-129463996D01*
X130144659Y-129570341D01*
X130251004Y-129699922D01*
X130251005Y-129699924D01*
X130330024Y-129847758D01*
X130378687Y-130008177D01*
X130395117Y-130175000D01*
X130378687Y-130341823D01*
X130330024Y-130502242D01*
X130259114Y-130634906D01*
X130251004Y-130650078D01*
X130144659Y-130779659D01*
X130015078Y-130886004D01*
X130015076Y-130886005D01*
X129867242Y-130965024D01*
X129706823Y-131013687D01*
X129581804Y-131026000D01*
X129498196Y-131026000D01*
X129373177Y-131013687D01*
X129212758Y-130965024D01*
X129064924Y-130886005D01*
X129064922Y-130886004D01*
X128935341Y-130779659D01*
X128828996Y-130650078D01*
X128820886Y-130634906D01*
X128749976Y-130502242D01*
X128701313Y-130341823D01*
X128684883Y-130175000D01*
X128701313Y-130008177D01*
X128749976Y-129847758D01*
X128828995Y-129699924D01*
X128828996Y-129699922D01*
X128935341Y-129570341D01*
X129064922Y-129463996D01*
X129080094Y-129455886D01*
X129212758Y-129384976D01*
X129373177Y-129336313D01*
X129498196Y-129324000D01*
X129581804Y-129324000D01*
X129706823Y-129336313D01*
X129706823Y-129336313D01*
G37*
G36*
X132246823Y-129336313D02*
G01*
X132407242Y-129384976D01*
X132539906Y-129455886D01*
X132555078Y-129463996D01*
X132684659Y-129570341D01*
X132791004Y-129699922D01*
X132791005Y-129699924D01*
X132870024Y-129847758D01*
X132918687Y-130008177D01*
X132935117Y-130175000D01*
X132918687Y-130341823D01*
X132870024Y-130502242D01*
X132799114Y-130634906D01*
X132791004Y-130650078D01*
X132684659Y-130779659D01*
X132555078Y-130886004D01*
X132555076Y-130886005D01*
X132407242Y-130965024D01*
X132246823Y-131013687D01*
X132121804Y-131026000D01*
X132038196Y-131026000D01*
X131913177Y-131013687D01*
X131752758Y-130965024D01*
X131604924Y-130886005D01*
X131604922Y-130886004D01*
X131475341Y-130779659D01*
X131368996Y-130650078D01*
X131360886Y-130634906D01*
X131289976Y-130502242D01*
X131241313Y-130341823D01*
X131224883Y-130175000D01*
X131241313Y-130008177D01*
X131289976Y-129847758D01*
X131368995Y-129699924D01*
X131368996Y-129699922D01*
X131475341Y-129570341D01*
X131604922Y-129463996D01*
X131620094Y-129455886D01*
X131752758Y-129384976D01*
X131913177Y-129336313D01*
X132038196Y-129324000D01*
X132121804Y-129324000D01*
X132246823Y-129336313D01*
X132246823Y-129336313D01*
G37*
G36*
X134786823Y-129336313D02*
G01*
X134947242Y-129384976D01*
X135079906Y-129455886D01*
X135095078Y-129463996D01*
X135224659Y-129570341D01*
X135331004Y-129699922D01*
X135331005Y-129699924D01*
X135410024Y-129847758D01*
X135458687Y-130008177D01*
X135475117Y-130175000D01*
X135458687Y-130341823D01*
X135410024Y-130502242D01*
X135339114Y-130634906D01*
X135331004Y-130650078D01*
X135224659Y-130779659D01*
X135095078Y-130886004D01*
X135095076Y-130886005D01*
X134947242Y-130965024D01*
X134786823Y-131013687D01*
X134661804Y-131026000D01*
X134578196Y-131026000D01*
X134453177Y-131013687D01*
X134292758Y-130965024D01*
X134144924Y-130886005D01*
X134144922Y-130886004D01*
X134015341Y-130779659D01*
X133908996Y-130650078D01*
X133900886Y-130634906D01*
X133829976Y-130502242D01*
X133781313Y-130341823D01*
X133764883Y-130175000D01*
X133781313Y-130008177D01*
X133829976Y-129847758D01*
X133908995Y-129699924D01*
X133908996Y-129699922D01*
X134015341Y-129570341D01*
X134144922Y-129463996D01*
X134160094Y-129455886D01*
X134292758Y-129384976D01*
X134453177Y-129336313D01*
X134578196Y-129324000D01*
X134661804Y-129324000D01*
X134786823Y-129336313D01*
X134786823Y-129336313D01*
G37*
G36*
X137326823Y-129336313D02*
G01*
X137487242Y-129384976D01*
X137619906Y-129455886D01*
X137635078Y-129463996D01*
X137764659Y-129570341D01*
X137871004Y-129699922D01*
X137871005Y-129699924D01*
X137950024Y-129847758D01*
X137998687Y-130008177D01*
X138015117Y-130175000D01*
X137998687Y-130341823D01*
X137950024Y-130502242D01*
X137879114Y-130634906D01*
X137871004Y-130650078D01*
X137764659Y-130779659D01*
X137635078Y-130886004D01*
X137635076Y-130886005D01*
X137487242Y-130965024D01*
X137326823Y-131013687D01*
X137201804Y-131026000D01*
X137118196Y-131026000D01*
X136993177Y-131013687D01*
X136832758Y-130965024D01*
X136684924Y-130886005D01*
X136684922Y-130886004D01*
X136555341Y-130779659D01*
X136448996Y-130650078D01*
X136440886Y-130634906D01*
X136369976Y-130502242D01*
X136321313Y-130341823D01*
X136304883Y-130175000D01*
X136321313Y-130008177D01*
X136369976Y-129847758D01*
X136448995Y-129699924D01*
X136448996Y-129699922D01*
X136555341Y-129570341D01*
X136684922Y-129463996D01*
X136700094Y-129455886D01*
X136832758Y-129384976D01*
X136993177Y-129336313D01*
X137118196Y-129324000D01*
X137201804Y-129324000D01*
X137326823Y-129336313D01*
X137326823Y-129336313D01*
G37*
G36*
X139866823Y-129336313D02*
G01*
X140027242Y-129384976D01*
X140159906Y-129455886D01*
X140175078Y-129463996D01*
X140304659Y-129570341D01*
X140411004Y-129699922D01*
X140411005Y-129699924D01*
X140490024Y-129847758D01*
X140538687Y-130008177D01*
X140555117Y-130175000D01*
X140538687Y-130341823D01*
X140490024Y-130502242D01*
X140419114Y-130634906D01*
X140411004Y-130650078D01*
X140304659Y-130779659D01*
X140175078Y-130886004D01*
X140175076Y-130886005D01*
X140027242Y-130965024D01*
X139866823Y-131013687D01*
X139741804Y-131026000D01*
X139658196Y-131026000D01*
X139533177Y-131013687D01*
X139372758Y-130965024D01*
X139224924Y-130886005D01*
X139224922Y-130886004D01*
X139095341Y-130779659D01*
X138988996Y-130650078D01*
X138980886Y-130634906D01*
X138909976Y-130502242D01*
X138861313Y-130341823D01*
X138844883Y-130175000D01*
X138861313Y-130008177D01*
X138909976Y-129847758D01*
X138988995Y-129699924D01*
X138988996Y-129699922D01*
X139095341Y-129570341D01*
X139224922Y-129463996D01*
X139240094Y-129455886D01*
X139372758Y-129384976D01*
X139533177Y-129336313D01*
X139658196Y-129324000D01*
X139741804Y-129324000D01*
X139866823Y-129336313D01*
X139866823Y-129336313D01*
G37*
G36*
X144946823Y-129336313D02*
G01*
X145107242Y-129384976D01*
X145239906Y-129455886D01*
X145255078Y-129463996D01*
X145384659Y-129570341D01*
X145491004Y-129699922D01*
X145491005Y-129699924D01*
X145570024Y-129847758D01*
X145618687Y-130008177D01*
X145635117Y-130175000D01*
X145618687Y-130341823D01*
X145570024Y-130502242D01*
X145499114Y-130634906D01*
X145491004Y-130650078D01*
X145384659Y-130779659D01*
X145255078Y-130886004D01*
X145255076Y-130886005D01*
X145107242Y-130965024D01*
X144946823Y-131013687D01*
X144821804Y-131026000D01*
X144738196Y-131026000D01*
X144613177Y-131013687D01*
X144452758Y-130965024D01*
X144304924Y-130886005D01*
X144304922Y-130886004D01*
X144175341Y-130779659D01*
X144068996Y-130650078D01*
X144060886Y-130634906D01*
X143989976Y-130502242D01*
X143941313Y-130341823D01*
X143924883Y-130175000D01*
X143941313Y-130008177D01*
X143989976Y-129847758D01*
X144068995Y-129699924D01*
X144068996Y-129699922D01*
X144175341Y-129570341D01*
X144304922Y-129463996D01*
X144320094Y-129455886D01*
X144452758Y-129384976D01*
X144613177Y-129336313D01*
X144738196Y-129324000D01*
X144821804Y-129324000D01*
X144946823Y-129336313D01*
X144946823Y-129336313D01*
G37*
G36*
X147486823Y-129336313D02*
G01*
X147647242Y-129384976D01*
X147779906Y-129455886D01*
X147795078Y-129463996D01*
X147924659Y-129570341D01*
X148031004Y-129699922D01*
X148031005Y-129699924D01*
X148110024Y-129847758D01*
X148158687Y-130008177D01*
X148175117Y-130175000D01*
X148158687Y-130341823D01*
X148110024Y-130502242D01*
X148039114Y-130634906D01*
X148031004Y-130650078D01*
X147924659Y-130779659D01*
X147795078Y-130886004D01*
X147795076Y-130886005D01*
X147647242Y-130965024D01*
X147486823Y-131013687D01*
X147361804Y-131026000D01*
X147278196Y-131026000D01*
X147153177Y-131013687D01*
X146992758Y-130965024D01*
X146844924Y-130886005D01*
X146844922Y-130886004D01*
X146715341Y-130779659D01*
X146608996Y-130650078D01*
X146600886Y-130634906D01*
X146529976Y-130502242D01*
X146481313Y-130341823D01*
X146464883Y-130175000D01*
X146481313Y-130008177D01*
X146529976Y-129847758D01*
X146608995Y-129699924D01*
X146608996Y-129699922D01*
X146715341Y-129570341D01*
X146844922Y-129463996D01*
X146860094Y-129455886D01*
X146992758Y-129384976D01*
X147153177Y-129336313D01*
X147278196Y-129324000D01*
X147361804Y-129324000D01*
X147486823Y-129336313D01*
X147486823Y-129336313D01*
G37*
G36*
X103118228Y-128166703D02*
G01*
X103273100Y-128230853D01*
X103412481Y-128323985D01*
X103531015Y-128442519D01*
X103624147Y-128581900D01*
X103688297Y-128736772D01*
X103721000Y-128901184D01*
X103721000Y-129068816D01*
X103688297Y-129233228D01*
X103624147Y-129388100D01*
X103531015Y-129527481D01*
X103412481Y-129646015D01*
X103273100Y-129739147D01*
X103118228Y-129803297D01*
X102953816Y-129836000D01*
X102786184Y-129836000D01*
X102621772Y-129803297D01*
X102466900Y-129739147D01*
X102327519Y-129646015D01*
X102208985Y-129527481D01*
X102115853Y-129388100D01*
X102051703Y-129233228D01*
X102019000Y-129068816D01*
X102019000Y-128901184D01*
X102051703Y-128736772D01*
X102115853Y-128581900D01*
X102208985Y-128442519D01*
X102327519Y-128323985D01*
X102466900Y-128230853D01*
X102621772Y-128166703D01*
X102786184Y-128134000D01*
X102953816Y-128134000D01*
X103118228Y-128166703D01*
X103118228Y-128166703D01*
G37*
G36*
X105658228Y-128166703D02*
G01*
X105813100Y-128230853D01*
X105952481Y-128323985D01*
X106071015Y-128442519D01*
X106164147Y-128581900D01*
X106228297Y-128736772D01*
X106261000Y-128901184D01*
X106261000Y-129068816D01*
X106228297Y-129233228D01*
X106164147Y-129388100D01*
X106071015Y-129527481D01*
X105952481Y-129646015D01*
X105813100Y-129739147D01*
X105658228Y-129803297D01*
X105493816Y-129836000D01*
X105326184Y-129836000D01*
X105161772Y-129803297D01*
X105006900Y-129739147D01*
X104867519Y-129646015D01*
X104748985Y-129527481D01*
X104655853Y-129388100D01*
X104591703Y-129233228D01*
X104559000Y-129068816D01*
X104559000Y-128901184D01*
X104591703Y-128736772D01*
X104655853Y-128581900D01*
X104748985Y-128442519D01*
X104867519Y-128323985D01*
X105006900Y-128230853D01*
X105161772Y-128166703D01*
X105326184Y-128134000D01*
X105493816Y-128134000D01*
X105658228Y-128166703D01*
X105658228Y-128166703D01*
G37*
G36*
X123467395Y-127355546D02*
G01*
X123640466Y-127427234D01*
X123646572Y-127431314D01*
X123796227Y-127531310D01*
X123928690Y-127663773D01*
X123981081Y-127742182D01*
X124032766Y-127819534D01*
X124104454Y-127992605D01*
X124141000Y-128176333D01*
X124141000Y-128363667D01*
X124104454Y-128547395D01*
X124032766Y-128720466D01*
X124016322Y-128745076D01*
X123928690Y-128876227D01*
X123796227Y-129008690D01*
X123719400Y-129060024D01*
X123640466Y-129112766D01*
X123467395Y-129184454D01*
X123283667Y-129221000D01*
X123096333Y-129221000D01*
X122912605Y-129184454D01*
X122739534Y-129112766D01*
X122660600Y-129060024D01*
X122583773Y-129008690D01*
X122451310Y-128876227D01*
X122363678Y-128745076D01*
X122347234Y-128720466D01*
X122275546Y-128547395D01*
X122239000Y-128363667D01*
X122239000Y-128176333D01*
X122275546Y-127992605D01*
X122347234Y-127819534D01*
X122398919Y-127742182D01*
X122451310Y-127663773D01*
X122583773Y-127531310D01*
X122733428Y-127431314D01*
X122739534Y-127427234D01*
X122912605Y-127355546D01*
X123096333Y-127319000D01*
X123283667Y-127319000D01*
X123467395Y-127355546D01*
X123467395Y-127355546D01*
G37*
G36*
X109386823Y-127431313D02*
G01*
X109547242Y-127479976D01*
X109643279Y-127531309D01*
X109695078Y-127558996D01*
X109824659Y-127665341D01*
X109931004Y-127794922D01*
X109931005Y-127794924D01*
X110010024Y-127942758D01*
X110058687Y-128103177D01*
X110075117Y-128270000D01*
X110058687Y-128436823D01*
X110010024Y-128597242D01*
X109944159Y-128720466D01*
X109931004Y-128745078D01*
X109824659Y-128874659D01*
X109695078Y-128981004D01*
X109695076Y-128981005D01*
X109547242Y-129060024D01*
X109386823Y-129108687D01*
X109261804Y-129121000D01*
X109178196Y-129121000D01*
X109053177Y-129108687D01*
X108892758Y-129060024D01*
X108744924Y-128981005D01*
X108744922Y-128981004D01*
X108615341Y-128874659D01*
X108508996Y-128745078D01*
X108495841Y-128720466D01*
X108429976Y-128597242D01*
X108381313Y-128436823D01*
X108364883Y-128270000D01*
X108381313Y-128103177D01*
X108429976Y-127942758D01*
X108508995Y-127794924D01*
X108508996Y-127794922D01*
X108615341Y-127665341D01*
X108744922Y-127558996D01*
X108796721Y-127531309D01*
X108892758Y-127479976D01*
X109053177Y-127431313D01*
X109178196Y-127419000D01*
X109261804Y-127419000D01*
X109386823Y-127431313D01*
X109386823Y-127431313D01*
G37*
G36*
X117006823Y-127431313D02*
G01*
X117167242Y-127479976D01*
X117263279Y-127531309D01*
X117315078Y-127558996D01*
X117444659Y-127665341D01*
X117551004Y-127794922D01*
X117551005Y-127794924D01*
X117630024Y-127942758D01*
X117678687Y-128103177D01*
X117695117Y-128270000D01*
X117678687Y-128436823D01*
X117630024Y-128597242D01*
X117564159Y-128720466D01*
X117551004Y-128745078D01*
X117444659Y-128874659D01*
X117315078Y-128981004D01*
X117315076Y-128981005D01*
X117167242Y-129060024D01*
X117006823Y-129108687D01*
X116881804Y-129121000D01*
X116798196Y-129121000D01*
X116673177Y-129108687D01*
X116512758Y-129060024D01*
X116364924Y-128981005D01*
X116364922Y-128981004D01*
X116235341Y-128874659D01*
X116128996Y-128745078D01*
X116115841Y-128720466D01*
X116049976Y-128597242D01*
X116001313Y-128436823D01*
X115984883Y-128270000D01*
X116001313Y-128103177D01*
X116049976Y-127942758D01*
X116128995Y-127794924D01*
X116128996Y-127794922D01*
X116235341Y-127665341D01*
X116364922Y-127558996D01*
X116416721Y-127531309D01*
X116512758Y-127479976D01*
X116673177Y-127431313D01*
X116798196Y-127419000D01*
X116881804Y-127419000D01*
X117006823Y-127431313D01*
X117006823Y-127431313D01*
G37*
G36*
X109386823Y-124891313D02*
G01*
X109547242Y-124939976D01*
X109679906Y-125010886D01*
X109695078Y-125018996D01*
X109824659Y-125125341D01*
X109931004Y-125254922D01*
X109931005Y-125254924D01*
X110010024Y-125402758D01*
X110058687Y-125563177D01*
X110075117Y-125730000D01*
X110058687Y-125896823D01*
X110010024Y-126057242D01*
X109939114Y-126189906D01*
X109931004Y-126205078D01*
X109824659Y-126334659D01*
X109695078Y-126441004D01*
X109695076Y-126441005D01*
X109547242Y-126520024D01*
X109386823Y-126568687D01*
X109261804Y-126581000D01*
X109178196Y-126581000D01*
X109053177Y-126568687D01*
X108892758Y-126520024D01*
X108744924Y-126441005D01*
X108744922Y-126441004D01*
X108615341Y-126334659D01*
X108508996Y-126205078D01*
X108500886Y-126189906D01*
X108429976Y-126057242D01*
X108381313Y-125896823D01*
X108364883Y-125730000D01*
X108381313Y-125563177D01*
X108429976Y-125402758D01*
X108508995Y-125254924D01*
X108508996Y-125254922D01*
X108615341Y-125125341D01*
X108744922Y-125018996D01*
X108760094Y-125010886D01*
X108892758Y-124939976D01*
X109053177Y-124891313D01*
X109178196Y-124879000D01*
X109261804Y-124879000D01*
X109386823Y-124891313D01*
X109386823Y-124891313D01*
G37*
G36*
X117006823Y-124891313D02*
G01*
X117167242Y-124939976D01*
X117299906Y-125010886D01*
X117315078Y-125018996D01*
X117444659Y-125125341D01*
X117551004Y-125254922D01*
X117551005Y-125254924D01*
X117630024Y-125402758D01*
X117678687Y-125563177D01*
X117695117Y-125730000D01*
X117678687Y-125896823D01*
X117630024Y-126057242D01*
X117559114Y-126189906D01*
X117551004Y-126205078D01*
X117444659Y-126334659D01*
X117315078Y-126441004D01*
X117315076Y-126441005D01*
X117167242Y-126520024D01*
X117006823Y-126568687D01*
X116881804Y-126581000D01*
X116798196Y-126581000D01*
X116673177Y-126568687D01*
X116512758Y-126520024D01*
X116364924Y-126441005D01*
X116364922Y-126441004D01*
X116235341Y-126334659D01*
X116128996Y-126205078D01*
X116120886Y-126189906D01*
X116049976Y-126057242D01*
X116001313Y-125896823D01*
X115984883Y-125730000D01*
X116001313Y-125563177D01*
X116049976Y-125402758D01*
X116128995Y-125254924D01*
X116128996Y-125254922D01*
X116235341Y-125125341D01*
X116364922Y-125018996D01*
X116380094Y-125010886D01*
X116512758Y-124939976D01*
X116673177Y-124891313D01*
X116798196Y-124879000D01*
X116881804Y-124879000D01*
X117006823Y-124891313D01*
X117006823Y-124891313D01*
G37*
G36*
X145650000Y-126473000D02*
G01*
X143148000Y-126473000D01*
X143148000Y-123971000D01*
X145650000Y-123971000D01*
X145650000Y-126473000D01*
X145650000Y-126473000D01*
G37*
G36*
X104406000Y-125361000D02*
G01*
X102604000Y-125361000D01*
X102604000Y-123559000D01*
X104406000Y-123559000D01*
X104406000Y-125361000D01*
X104406000Y-125361000D01*
G37*
G36*
X126475443Y-122930519D02*
G01*
X126541627Y-122937037D01*
X126711466Y-122988557D01*
X126867991Y-123072222D01*
X126903729Y-123101552D01*
X127005186Y-123184814D01*
X127057115Y-123248091D01*
X127117778Y-123322009D01*
X127201443Y-123478534D01*
X127252963Y-123648373D01*
X127270359Y-123825000D01*
X127252963Y-124001627D01*
X127201443Y-124171466D01*
X127117778Y-124327991D01*
X127115583Y-124330665D01*
X127005186Y-124465186D01*
X126903729Y-124548448D01*
X126867991Y-124577778D01*
X126711466Y-124661443D01*
X126541627Y-124712963D01*
X126475443Y-124719481D01*
X126409260Y-124726000D01*
X126320740Y-124726000D01*
X126254557Y-124719481D01*
X126188373Y-124712963D01*
X126018534Y-124661443D01*
X125862009Y-124577778D01*
X125826271Y-124548448D01*
X125724814Y-124465186D01*
X125614417Y-124330665D01*
X125612222Y-124327991D01*
X125528557Y-124171466D01*
X125477037Y-124001627D01*
X125459641Y-123825000D01*
X125477037Y-123648373D01*
X125528557Y-123478534D01*
X125612222Y-123322009D01*
X125672885Y-123248091D01*
X125724814Y-123184814D01*
X125826271Y-123101552D01*
X125862009Y-123072222D01*
X126018534Y-122988557D01*
X126188373Y-122937037D01*
X126254557Y-122930519D01*
X126320740Y-122924000D01*
X126409260Y-122924000D01*
X126475443Y-122930519D01*
X126475443Y-122930519D01*
G37*
G36*
X123935443Y-122930519D02*
G01*
X124001627Y-122937037D01*
X124171466Y-122988557D01*
X124327991Y-123072222D01*
X124363729Y-123101552D01*
X124465186Y-123184814D01*
X124517115Y-123248091D01*
X124577778Y-123322009D01*
X124661443Y-123478534D01*
X124712963Y-123648373D01*
X124730359Y-123825000D01*
X124712963Y-124001627D01*
X124661443Y-124171466D01*
X124577778Y-124327991D01*
X124575583Y-124330665D01*
X124465186Y-124465186D01*
X124363729Y-124548448D01*
X124327991Y-124577778D01*
X124171466Y-124661443D01*
X124001627Y-124712963D01*
X123935443Y-124719481D01*
X123869260Y-124726000D01*
X123780740Y-124726000D01*
X123714557Y-124719481D01*
X123648373Y-124712963D01*
X123478534Y-124661443D01*
X123322009Y-124577778D01*
X123286271Y-124548448D01*
X123184814Y-124465186D01*
X123074417Y-124330665D01*
X123072222Y-124327991D01*
X122988557Y-124171466D01*
X122937037Y-124001627D01*
X122919641Y-123825000D01*
X122937037Y-123648373D01*
X122988557Y-123478534D01*
X123072222Y-123322009D01*
X123132885Y-123248091D01*
X123184814Y-123184814D01*
X123286271Y-123101552D01*
X123322009Y-123072222D01*
X123478534Y-122988557D01*
X123648373Y-122937037D01*
X123714557Y-122930519D01*
X123780740Y-122924000D01*
X123869260Y-122924000D01*
X123935443Y-122930519D01*
X123935443Y-122930519D01*
G37*
G36*
X129015443Y-122930519D02*
G01*
X129081627Y-122937037D01*
X129251466Y-122988557D01*
X129407991Y-123072222D01*
X129443729Y-123101552D01*
X129545186Y-123184814D01*
X129597115Y-123248091D01*
X129657778Y-123322009D01*
X129741443Y-123478534D01*
X129792963Y-123648373D01*
X129810359Y-123825000D01*
X129792963Y-124001627D01*
X129741443Y-124171466D01*
X129657778Y-124327991D01*
X129655583Y-124330665D01*
X129545186Y-124465186D01*
X129443729Y-124548448D01*
X129407991Y-124577778D01*
X129251466Y-124661443D01*
X129081627Y-124712963D01*
X129015443Y-124719481D01*
X128949260Y-124726000D01*
X128860740Y-124726000D01*
X128794557Y-124719481D01*
X128728373Y-124712963D01*
X128558534Y-124661443D01*
X128402009Y-124577778D01*
X128366271Y-124548448D01*
X128264814Y-124465186D01*
X128154417Y-124330665D01*
X128152222Y-124327991D01*
X128068557Y-124171466D01*
X128017037Y-124001627D01*
X127999641Y-123825000D01*
X128017037Y-123648373D01*
X128068557Y-123478534D01*
X128152222Y-123322009D01*
X128212885Y-123248091D01*
X128264814Y-123184814D01*
X128366271Y-123101552D01*
X128402009Y-123072222D01*
X128558534Y-122988557D01*
X128728373Y-122937037D01*
X128794557Y-122930519D01*
X128860740Y-122924000D01*
X128949260Y-122924000D01*
X129015443Y-122930519D01*
X129015443Y-122930519D01*
G37*
G36*
X137444890Y-123199017D02*
G01*
X137563364Y-123248091D01*
X137669988Y-123319335D01*
X137760665Y-123410012D01*
X137806449Y-123478532D01*
X137831910Y-123516638D01*
X137880983Y-123635110D01*
X137886944Y-123665076D01*
X137906000Y-123760882D01*
X137906000Y-123889118D01*
X137880983Y-124014890D01*
X137831909Y-124133364D01*
X137760665Y-124239988D01*
X137669988Y-124330665D01*
X137563364Y-124401909D01*
X137563363Y-124401910D01*
X137563362Y-124401910D01*
X137444890Y-124450983D01*
X137319119Y-124476000D01*
X137190881Y-124476000D01*
X137065110Y-124450983D01*
X136946638Y-124401910D01*
X136946637Y-124401910D01*
X136946636Y-124401909D01*
X136840012Y-124330665D01*
X136749335Y-124239988D01*
X136678091Y-124133364D01*
X136629017Y-124014890D01*
X136604000Y-123889118D01*
X136604000Y-123760882D01*
X136623057Y-123665076D01*
X136629017Y-123635110D01*
X136678090Y-123516638D01*
X136703552Y-123478532D01*
X136749335Y-123410012D01*
X136840012Y-123319335D01*
X136946636Y-123248091D01*
X137065110Y-123199017D01*
X137190881Y-123174000D01*
X137319119Y-123174000D01*
X137444890Y-123199017D01*
X137444890Y-123199017D01*
G37*
G36*
X135444890Y-123199017D02*
G01*
X135563364Y-123248091D01*
X135669988Y-123319335D01*
X135760665Y-123410012D01*
X135806449Y-123478532D01*
X135831910Y-123516638D01*
X135880983Y-123635110D01*
X135886944Y-123665076D01*
X135906000Y-123760882D01*
X135906000Y-123889118D01*
X135880983Y-124014890D01*
X135831909Y-124133364D01*
X135760665Y-124239988D01*
X135669988Y-124330665D01*
X135563364Y-124401909D01*
X135563363Y-124401910D01*
X135563362Y-124401910D01*
X135444890Y-124450983D01*
X135319119Y-124476000D01*
X135190881Y-124476000D01*
X135065110Y-124450983D01*
X134946638Y-124401910D01*
X134946637Y-124401910D01*
X134946636Y-124401909D01*
X134840012Y-124330665D01*
X134749335Y-124239988D01*
X134678091Y-124133364D01*
X134629017Y-124014890D01*
X134604000Y-123889118D01*
X134604000Y-123760882D01*
X134623057Y-123665076D01*
X134629017Y-123635110D01*
X134678090Y-123516638D01*
X134703552Y-123478532D01*
X134749335Y-123410012D01*
X134840012Y-123319335D01*
X134946636Y-123248091D01*
X135065110Y-123199017D01*
X135190881Y-123174000D01*
X135319119Y-123174000D01*
X135444890Y-123199017D01*
X135444890Y-123199017D01*
G37*
G36*
X117006823Y-122351313D02*
G01*
X117167242Y-122399976D01*
X117299906Y-122470886D01*
X117315078Y-122478996D01*
X117444659Y-122585341D01*
X117551004Y-122714922D01*
X117551005Y-122714924D01*
X117630024Y-122862758D01*
X117678687Y-123023177D01*
X117695117Y-123190000D01*
X117678687Y-123356823D01*
X117630024Y-123517242D01*
X117567022Y-123635110D01*
X117551004Y-123665078D01*
X117444659Y-123794659D01*
X117315078Y-123901004D01*
X117315076Y-123901005D01*
X117167242Y-123980024D01*
X117006823Y-124028687D01*
X116881804Y-124041000D01*
X116798196Y-124041000D01*
X116673177Y-124028687D01*
X116512758Y-123980024D01*
X116364924Y-123901005D01*
X116364922Y-123901004D01*
X116235341Y-123794659D01*
X116128996Y-123665078D01*
X116112978Y-123635110D01*
X116049976Y-123517242D01*
X116001313Y-123356823D01*
X115984883Y-123190000D01*
X116001313Y-123023177D01*
X116049976Y-122862758D01*
X116128995Y-122714924D01*
X116128996Y-122714922D01*
X116235341Y-122585341D01*
X116364922Y-122478996D01*
X116380094Y-122470886D01*
X116512758Y-122399976D01*
X116673177Y-122351313D01*
X116798196Y-122339000D01*
X116881804Y-122339000D01*
X117006823Y-122351313D01*
X117006823Y-122351313D01*
G37*
G36*
X109386823Y-122351313D02*
G01*
X109547242Y-122399976D01*
X109679906Y-122470886D01*
X109695078Y-122478996D01*
X109824659Y-122585341D01*
X109931004Y-122714922D01*
X109931005Y-122714924D01*
X110010024Y-122862758D01*
X110058687Y-123023177D01*
X110075117Y-123190000D01*
X110058687Y-123356823D01*
X110010024Y-123517242D01*
X109947022Y-123635110D01*
X109931004Y-123665078D01*
X109824659Y-123794659D01*
X109695078Y-123901004D01*
X109695076Y-123901005D01*
X109547242Y-123980024D01*
X109386823Y-124028687D01*
X109261804Y-124041000D01*
X109178196Y-124041000D01*
X109053177Y-124028687D01*
X108892758Y-123980024D01*
X108744924Y-123901005D01*
X108744922Y-123901004D01*
X108615341Y-123794659D01*
X108508996Y-123665078D01*
X108492978Y-123635110D01*
X108429976Y-123517242D01*
X108381313Y-123356823D01*
X108364883Y-123190000D01*
X108381313Y-123023177D01*
X108429976Y-122862758D01*
X108508995Y-122714924D01*
X108508996Y-122714922D01*
X108615341Y-122585341D01*
X108744922Y-122478996D01*
X108760094Y-122470886D01*
X108892758Y-122399976D01*
X109053177Y-122351313D01*
X109178196Y-122339000D01*
X109261804Y-122339000D01*
X109386823Y-122351313D01*
X109386823Y-122351313D01*
G37*
G36*
X144763903Y-120519075D02*
G01*
X144991571Y-120613378D01*
X145196466Y-120750285D01*
X145370715Y-120924534D01*
X145507622Y-121129429D01*
X145507623Y-121129431D01*
X145601925Y-121357097D01*
X145650000Y-121598786D01*
X145650000Y-121845214D01*
X145611697Y-122037778D01*
X145601925Y-122086903D01*
X145507622Y-122314571D01*
X145370715Y-122519466D01*
X145196466Y-122693715D01*
X144991571Y-122830622D01*
X144991570Y-122830623D01*
X144991569Y-122830623D01*
X144763903Y-122924925D01*
X144522214Y-122973000D01*
X144275786Y-122973000D01*
X144034097Y-122924925D01*
X143806431Y-122830623D01*
X143806430Y-122830623D01*
X143806429Y-122830622D01*
X143601534Y-122693715D01*
X143427285Y-122519466D01*
X143290378Y-122314571D01*
X143196075Y-122086903D01*
X143186303Y-122037778D01*
X143148000Y-121845214D01*
X143148000Y-121598786D01*
X143196075Y-121357097D01*
X143290377Y-121129431D01*
X143290378Y-121129429D01*
X143427285Y-120924534D01*
X143601534Y-120750285D01*
X143806429Y-120613378D01*
X144034097Y-120519075D01*
X144275786Y-120471000D01*
X144522214Y-120471000D01*
X144763903Y-120519075D01*
X144763903Y-120519075D01*
G37*
G36*
X103615442Y-121025518D02*
G01*
X103681627Y-121032037D01*
X103851466Y-121083557D01*
X104007991Y-121167222D01*
X104043729Y-121196552D01*
X104145186Y-121279814D01*
X104228448Y-121381271D01*
X104257778Y-121417009D01*
X104341443Y-121573534D01*
X104392963Y-121743373D01*
X104410359Y-121920000D01*
X104392963Y-122096627D01*
X104341443Y-122266466D01*
X104257778Y-122422991D01*
X104228448Y-122458729D01*
X104145186Y-122560186D01*
X104043729Y-122643448D01*
X104007991Y-122672778D01*
X103851466Y-122756443D01*
X103681627Y-122807963D01*
X103615443Y-122814481D01*
X103549260Y-122821000D01*
X103460740Y-122821000D01*
X103394557Y-122814481D01*
X103328373Y-122807963D01*
X103158534Y-122756443D01*
X103002009Y-122672778D01*
X102966271Y-122643448D01*
X102864814Y-122560186D01*
X102781552Y-122458729D01*
X102752222Y-122422991D01*
X102668557Y-122266466D01*
X102617037Y-122096627D01*
X102599641Y-121920000D01*
X102617037Y-121743373D01*
X102668557Y-121573534D01*
X102752222Y-121417009D01*
X102781552Y-121381271D01*
X102864814Y-121279814D01*
X102966271Y-121196552D01*
X103002009Y-121167222D01*
X103158534Y-121083557D01*
X103328373Y-121032037D01*
X103394558Y-121025518D01*
X103460740Y-121019000D01*
X103549260Y-121019000D01*
X103615442Y-121025518D01*
X103615442Y-121025518D01*
G37*
G36*
X129015443Y-120390519D02*
G01*
X129081627Y-120397037D01*
X129251466Y-120448557D01*
X129407991Y-120532222D01*
X129443729Y-120561552D01*
X129545186Y-120644814D01*
X129628448Y-120746271D01*
X129657778Y-120782009D01*
X129741443Y-120938534D01*
X129792963Y-121108373D01*
X129810359Y-121285000D01*
X129792963Y-121461627D01*
X129741443Y-121631466D01*
X129657778Y-121787991D01*
X129628448Y-121823729D01*
X129545186Y-121925186D01*
X129443729Y-122008448D01*
X129407991Y-122037778D01*
X129251466Y-122121443D01*
X129081627Y-122172963D01*
X129015442Y-122179482D01*
X128949260Y-122186000D01*
X128860740Y-122186000D01*
X128794558Y-122179482D01*
X128728373Y-122172963D01*
X128558534Y-122121443D01*
X128402009Y-122037778D01*
X128366271Y-122008448D01*
X128264814Y-121925186D01*
X128181552Y-121823729D01*
X128152222Y-121787991D01*
X128068557Y-121631466D01*
X128017037Y-121461627D01*
X127999641Y-121285000D01*
X128017037Y-121108373D01*
X128068557Y-120938534D01*
X128152222Y-120782009D01*
X128181552Y-120746271D01*
X128264814Y-120644814D01*
X128366271Y-120561552D01*
X128402009Y-120532222D01*
X128558534Y-120448557D01*
X128728373Y-120397037D01*
X128794557Y-120390519D01*
X128860740Y-120384000D01*
X128949260Y-120384000D01*
X129015443Y-120390519D01*
X129015443Y-120390519D01*
G37*
G36*
X123935443Y-120390519D02*
G01*
X124001627Y-120397037D01*
X124171466Y-120448557D01*
X124327991Y-120532222D01*
X124363729Y-120561552D01*
X124465186Y-120644814D01*
X124548448Y-120746271D01*
X124577778Y-120782009D01*
X124661443Y-120938534D01*
X124712963Y-121108373D01*
X124730359Y-121285000D01*
X124712963Y-121461627D01*
X124661443Y-121631466D01*
X124577778Y-121787991D01*
X124548448Y-121823729D01*
X124465186Y-121925186D01*
X124363729Y-122008448D01*
X124327991Y-122037778D01*
X124171466Y-122121443D01*
X124001627Y-122172963D01*
X123935442Y-122179482D01*
X123869260Y-122186000D01*
X123780740Y-122186000D01*
X123714558Y-122179482D01*
X123648373Y-122172963D01*
X123478534Y-122121443D01*
X123322009Y-122037778D01*
X123286271Y-122008448D01*
X123184814Y-121925186D01*
X123101552Y-121823729D01*
X123072222Y-121787991D01*
X122988557Y-121631466D01*
X122937037Y-121461627D01*
X122919641Y-121285000D01*
X122937037Y-121108373D01*
X122988557Y-120938534D01*
X123072222Y-120782009D01*
X123101552Y-120746271D01*
X123184814Y-120644814D01*
X123286271Y-120561552D01*
X123322009Y-120532222D01*
X123478534Y-120448557D01*
X123648373Y-120397037D01*
X123714557Y-120390519D01*
X123780740Y-120384000D01*
X123869260Y-120384000D01*
X123935443Y-120390519D01*
X123935443Y-120390519D01*
G37*
G36*
X126475443Y-120390519D02*
G01*
X126541627Y-120397037D01*
X126711466Y-120448557D01*
X126867991Y-120532222D01*
X126903729Y-120561552D01*
X127005186Y-120644814D01*
X127088448Y-120746271D01*
X127117778Y-120782009D01*
X127201443Y-120938534D01*
X127252963Y-121108373D01*
X127270359Y-121285000D01*
X127252963Y-121461627D01*
X127201443Y-121631466D01*
X127117778Y-121787991D01*
X127088448Y-121823729D01*
X127005186Y-121925186D01*
X126903729Y-122008448D01*
X126867991Y-122037778D01*
X126711466Y-122121443D01*
X126541627Y-122172963D01*
X126475442Y-122179482D01*
X126409260Y-122186000D01*
X126320740Y-122186000D01*
X126254558Y-122179482D01*
X126188373Y-122172963D01*
X126018534Y-122121443D01*
X125862009Y-122037778D01*
X125826271Y-122008448D01*
X125724814Y-121925186D01*
X125641552Y-121823729D01*
X125612222Y-121787991D01*
X125528557Y-121631466D01*
X125477037Y-121461627D01*
X125459641Y-121285000D01*
X125477037Y-121108373D01*
X125528557Y-120938534D01*
X125612222Y-120782009D01*
X125641552Y-120746271D01*
X125724814Y-120644814D01*
X125826271Y-120561552D01*
X125862009Y-120532222D01*
X126018534Y-120448557D01*
X126188373Y-120397037D01*
X126254557Y-120390519D01*
X126320740Y-120384000D01*
X126409260Y-120384000D01*
X126475443Y-120390519D01*
X126475443Y-120390519D01*
G37*
G36*
X117006823Y-119811313D02*
G01*
X117167242Y-119859976D01*
X117299906Y-119930886D01*
X117315078Y-119938996D01*
X117444659Y-120045341D01*
X117551004Y-120174922D01*
X117551005Y-120174924D01*
X117630024Y-120322758D01*
X117678687Y-120483177D01*
X117695117Y-120650000D01*
X117678687Y-120816823D01*
X117630024Y-120977242D01*
X117600735Y-121032037D01*
X117551004Y-121125078D01*
X117444659Y-121254659D01*
X117315078Y-121361004D01*
X117315076Y-121361005D01*
X117167242Y-121440024D01*
X117006823Y-121488687D01*
X116881804Y-121501000D01*
X116798196Y-121501000D01*
X116673177Y-121488687D01*
X116512758Y-121440024D01*
X116364924Y-121361005D01*
X116364922Y-121361004D01*
X116235341Y-121254659D01*
X116128996Y-121125078D01*
X116079265Y-121032037D01*
X116049976Y-120977242D01*
X116001313Y-120816823D01*
X115984883Y-120650000D01*
X116001313Y-120483177D01*
X116049976Y-120322758D01*
X116128995Y-120174924D01*
X116128996Y-120174922D01*
X116235341Y-120045341D01*
X116364922Y-119938996D01*
X116380094Y-119930886D01*
X116512758Y-119859976D01*
X116673177Y-119811313D01*
X116798196Y-119799000D01*
X116881804Y-119799000D01*
X117006823Y-119811313D01*
X117006823Y-119811313D01*
G37*
G36*
X109386823Y-119811313D02*
G01*
X109547242Y-119859976D01*
X109679906Y-119930886D01*
X109695078Y-119938996D01*
X109824659Y-120045341D01*
X109931004Y-120174922D01*
X109931005Y-120174924D01*
X110010024Y-120322758D01*
X110058687Y-120483177D01*
X110075117Y-120650000D01*
X110058687Y-120816823D01*
X110010024Y-120977242D01*
X109980735Y-121032037D01*
X109931004Y-121125078D01*
X109824659Y-121254659D01*
X109695078Y-121361004D01*
X109695076Y-121361005D01*
X109547242Y-121440024D01*
X109386823Y-121488687D01*
X109261804Y-121501000D01*
X109178196Y-121501000D01*
X109053177Y-121488687D01*
X108892758Y-121440024D01*
X108744924Y-121361005D01*
X108744922Y-121361004D01*
X108615341Y-121254659D01*
X108508996Y-121125078D01*
X108459265Y-121032037D01*
X108429976Y-120977242D01*
X108381313Y-120816823D01*
X108364883Y-120650000D01*
X108381313Y-120483177D01*
X108429976Y-120322758D01*
X108508995Y-120174924D01*
X108508996Y-120174922D01*
X108615341Y-120045341D01*
X108744922Y-119938996D01*
X108760094Y-119930886D01*
X108892758Y-119859976D01*
X109053177Y-119811313D01*
X109178196Y-119799000D01*
X109261804Y-119799000D01*
X109386823Y-119811313D01*
X109386823Y-119811313D01*
G37*
G36*
X103615442Y-118485518D02*
G01*
X103681627Y-118492037D01*
X103851466Y-118543557D01*
X104007991Y-118627222D01*
X104043729Y-118656552D01*
X104145186Y-118739814D01*
X104228448Y-118841271D01*
X104257778Y-118877009D01*
X104341443Y-119033534D01*
X104392963Y-119203373D01*
X104410359Y-119380000D01*
X104392963Y-119556627D01*
X104341443Y-119726466D01*
X104257778Y-119882991D01*
X104228448Y-119918729D01*
X104145186Y-120020186D01*
X104043729Y-120103448D01*
X104007991Y-120132778D01*
X103851466Y-120216443D01*
X103681627Y-120267963D01*
X103615442Y-120274482D01*
X103549260Y-120281000D01*
X103460740Y-120281000D01*
X103394558Y-120274482D01*
X103328373Y-120267963D01*
X103158534Y-120216443D01*
X103002009Y-120132778D01*
X102966271Y-120103448D01*
X102864814Y-120020186D01*
X102781552Y-119918729D01*
X102752222Y-119882991D01*
X102668557Y-119726466D01*
X102617037Y-119556627D01*
X102599641Y-119380000D01*
X102617037Y-119203373D01*
X102668557Y-119033534D01*
X102752222Y-118877009D01*
X102781552Y-118841271D01*
X102864814Y-118739814D01*
X102966271Y-118656552D01*
X103002009Y-118627222D01*
X103158534Y-118543557D01*
X103328373Y-118492037D01*
X103394558Y-118485518D01*
X103460740Y-118479000D01*
X103549260Y-118479000D01*
X103615442Y-118485518D01*
X103615442Y-118485518D01*
G37*
G36*
X129015442Y-117850518D02*
G01*
X129081627Y-117857037D01*
X129251466Y-117908557D01*
X129407991Y-117992222D01*
X129443729Y-118021552D01*
X129545186Y-118104814D01*
X129628448Y-118206271D01*
X129657778Y-118242009D01*
X129741443Y-118398534D01*
X129792963Y-118568373D01*
X129810359Y-118745000D01*
X129792963Y-118921627D01*
X129741443Y-119091466D01*
X129657778Y-119247991D01*
X129628448Y-119283729D01*
X129545186Y-119385186D01*
X129443729Y-119468448D01*
X129407991Y-119497778D01*
X129251466Y-119581443D01*
X129081627Y-119632963D01*
X129015443Y-119639481D01*
X128949260Y-119646000D01*
X128860740Y-119646000D01*
X128794557Y-119639481D01*
X128728373Y-119632963D01*
X128558534Y-119581443D01*
X128402009Y-119497778D01*
X128366271Y-119468448D01*
X128264814Y-119385186D01*
X128181552Y-119283729D01*
X128152222Y-119247991D01*
X128068557Y-119091466D01*
X128017037Y-118921627D01*
X127999641Y-118745000D01*
X128017037Y-118568373D01*
X128068557Y-118398534D01*
X128152222Y-118242009D01*
X128181552Y-118206271D01*
X128264814Y-118104814D01*
X128366271Y-118021552D01*
X128402009Y-117992222D01*
X128558534Y-117908557D01*
X128728373Y-117857037D01*
X128794558Y-117850518D01*
X128860740Y-117844000D01*
X128949260Y-117844000D01*
X129015442Y-117850518D01*
X129015442Y-117850518D01*
G37*
G36*
X126475442Y-117850518D02*
G01*
X126541627Y-117857037D01*
X126711466Y-117908557D01*
X126867991Y-117992222D01*
X126903729Y-118021552D01*
X127005186Y-118104814D01*
X127088448Y-118206271D01*
X127117778Y-118242009D01*
X127201443Y-118398534D01*
X127252963Y-118568373D01*
X127270359Y-118745000D01*
X127252963Y-118921627D01*
X127201443Y-119091466D01*
X127117778Y-119247991D01*
X127088448Y-119283729D01*
X127005186Y-119385186D01*
X126903729Y-119468448D01*
X126867991Y-119497778D01*
X126711466Y-119581443D01*
X126541627Y-119632963D01*
X126475443Y-119639481D01*
X126409260Y-119646000D01*
X126320740Y-119646000D01*
X126254557Y-119639481D01*
X126188373Y-119632963D01*
X126018534Y-119581443D01*
X125862009Y-119497778D01*
X125826271Y-119468448D01*
X125724814Y-119385186D01*
X125641552Y-119283729D01*
X125612222Y-119247991D01*
X125528557Y-119091466D01*
X125477037Y-118921627D01*
X125459641Y-118745000D01*
X125477037Y-118568373D01*
X125528557Y-118398534D01*
X125612222Y-118242009D01*
X125641552Y-118206271D01*
X125724814Y-118104814D01*
X125826271Y-118021552D01*
X125862009Y-117992222D01*
X126018534Y-117908557D01*
X126188373Y-117857037D01*
X126254558Y-117850518D01*
X126320740Y-117844000D01*
X126409260Y-117844000D01*
X126475442Y-117850518D01*
X126475442Y-117850518D01*
G37*
G36*
X123935442Y-117850518D02*
G01*
X124001627Y-117857037D01*
X124171466Y-117908557D01*
X124327991Y-117992222D01*
X124363729Y-118021552D01*
X124465186Y-118104814D01*
X124548448Y-118206271D01*
X124577778Y-118242009D01*
X124661443Y-118398534D01*
X124712963Y-118568373D01*
X124730359Y-118745000D01*
X124712963Y-118921627D01*
X124661443Y-119091466D01*
X124577778Y-119247991D01*
X124548448Y-119283729D01*
X124465186Y-119385186D01*
X124363729Y-119468448D01*
X124327991Y-119497778D01*
X124171466Y-119581443D01*
X124001627Y-119632963D01*
X123935443Y-119639481D01*
X123869260Y-119646000D01*
X123780740Y-119646000D01*
X123714557Y-119639481D01*
X123648373Y-119632963D01*
X123478534Y-119581443D01*
X123322009Y-119497778D01*
X123286271Y-119468448D01*
X123184814Y-119385186D01*
X123101552Y-119283729D01*
X123072222Y-119247991D01*
X122988557Y-119091466D01*
X122937037Y-118921627D01*
X122919641Y-118745000D01*
X122937037Y-118568373D01*
X122988557Y-118398534D01*
X123072222Y-118242009D01*
X123101552Y-118206271D01*
X123184814Y-118104814D01*
X123286271Y-118021552D01*
X123322009Y-117992222D01*
X123478534Y-117908557D01*
X123648373Y-117857037D01*
X123714558Y-117850518D01*
X123780740Y-117844000D01*
X123869260Y-117844000D01*
X123935442Y-117850518D01*
X123935442Y-117850518D01*
G37*
G36*
X117006823Y-117271313D02*
G01*
X117167242Y-117319976D01*
X117299906Y-117390886D01*
X117315078Y-117398996D01*
X117444659Y-117505341D01*
X117551004Y-117634922D01*
X117551005Y-117634924D01*
X117630024Y-117782758D01*
X117678687Y-117943177D01*
X117695117Y-118110000D01*
X117678687Y-118276823D01*
X117630024Y-118437242D01*
X117600735Y-118492037D01*
X117551004Y-118585078D01*
X117444659Y-118714659D01*
X117315078Y-118821004D01*
X117315076Y-118821005D01*
X117167242Y-118900024D01*
X117006823Y-118948687D01*
X116881804Y-118961000D01*
X116798196Y-118961000D01*
X116673177Y-118948687D01*
X116512758Y-118900024D01*
X116364924Y-118821005D01*
X116364922Y-118821004D01*
X116235341Y-118714659D01*
X116128996Y-118585078D01*
X116079265Y-118492037D01*
X116049976Y-118437242D01*
X116001313Y-118276823D01*
X115984883Y-118110000D01*
X116001313Y-117943177D01*
X116049976Y-117782758D01*
X116128995Y-117634924D01*
X116128996Y-117634922D01*
X116235341Y-117505341D01*
X116364922Y-117398996D01*
X116380094Y-117390886D01*
X116512758Y-117319976D01*
X116673177Y-117271313D01*
X116798196Y-117259000D01*
X116881804Y-117259000D01*
X117006823Y-117271313D01*
X117006823Y-117271313D01*
G37*
G36*
X109386823Y-117271313D02*
G01*
X109547242Y-117319976D01*
X109679906Y-117390886D01*
X109695078Y-117398996D01*
X109824659Y-117505341D01*
X109931004Y-117634922D01*
X109931005Y-117634924D01*
X110010024Y-117782758D01*
X110058687Y-117943177D01*
X110075117Y-118110000D01*
X110058687Y-118276823D01*
X110010024Y-118437242D01*
X109980735Y-118492037D01*
X109931004Y-118585078D01*
X109824659Y-118714659D01*
X109695078Y-118821004D01*
X109695076Y-118821005D01*
X109547242Y-118900024D01*
X109386823Y-118948687D01*
X109261804Y-118961000D01*
X109178196Y-118961000D01*
X109053177Y-118948687D01*
X108892758Y-118900024D01*
X108744924Y-118821005D01*
X108744922Y-118821004D01*
X108615341Y-118714659D01*
X108508996Y-118585078D01*
X108459265Y-118492037D01*
X108429976Y-118437242D01*
X108381313Y-118276823D01*
X108364883Y-118110000D01*
X108381313Y-117943177D01*
X108429976Y-117782758D01*
X108508995Y-117634924D01*
X108508996Y-117634922D01*
X108615341Y-117505341D01*
X108744922Y-117398996D01*
X108760094Y-117390886D01*
X108892758Y-117319976D01*
X109053177Y-117271313D01*
X109178196Y-117259000D01*
X109261804Y-117259000D01*
X109386823Y-117271313D01*
X109386823Y-117271313D01*
G37*
G36*
X103615442Y-115945518D02*
G01*
X103681627Y-115952037D01*
X103851466Y-116003557D01*
X104007991Y-116087222D01*
X104043729Y-116116552D01*
X104145186Y-116199814D01*
X104228448Y-116301271D01*
X104257778Y-116337009D01*
X104341443Y-116493534D01*
X104392963Y-116663373D01*
X104410359Y-116840000D01*
X104392963Y-117016627D01*
X104341443Y-117186466D01*
X104257778Y-117342991D01*
X104228448Y-117378729D01*
X104145186Y-117480186D01*
X104043729Y-117563448D01*
X104007991Y-117592778D01*
X103851466Y-117676443D01*
X103681627Y-117727963D01*
X103615442Y-117734482D01*
X103549260Y-117741000D01*
X103460740Y-117741000D01*
X103394558Y-117734482D01*
X103328373Y-117727963D01*
X103158534Y-117676443D01*
X103002009Y-117592778D01*
X102966271Y-117563448D01*
X102864814Y-117480186D01*
X102781552Y-117378729D01*
X102752222Y-117342991D01*
X102668557Y-117186466D01*
X102617037Y-117016627D01*
X102599641Y-116840000D01*
X102617037Y-116663373D01*
X102668557Y-116493534D01*
X102752222Y-116337009D01*
X102781552Y-116301271D01*
X102864814Y-116199814D01*
X102966271Y-116116552D01*
X103002009Y-116087222D01*
X103158534Y-116003557D01*
X103328373Y-115952037D01*
X103394558Y-115945518D01*
X103460740Y-115939000D01*
X103549260Y-115939000D01*
X103615442Y-115945518D01*
X103615442Y-115945518D01*
G37*
G36*
X141996000Y-117401000D02*
G01*
X139894000Y-117401000D01*
X139894000Y-115799000D01*
X141996000Y-115799000D01*
X141996000Y-117401000D01*
X141996000Y-117401000D01*
G37*
G36*
X123935442Y-115310518D02*
G01*
X124001627Y-115317037D01*
X124171466Y-115368557D01*
X124327991Y-115452222D01*
X124363729Y-115481552D01*
X124465186Y-115564814D01*
X124548448Y-115666271D01*
X124577778Y-115702009D01*
X124661443Y-115858534D01*
X124712963Y-116028373D01*
X124730359Y-116205000D01*
X124712963Y-116381627D01*
X124661443Y-116551466D01*
X124577778Y-116707991D01*
X124548448Y-116743729D01*
X124465186Y-116845186D01*
X124363729Y-116928448D01*
X124327991Y-116957778D01*
X124171466Y-117041443D01*
X124001627Y-117092963D01*
X123935443Y-117099481D01*
X123869260Y-117106000D01*
X123780740Y-117106000D01*
X123714557Y-117099481D01*
X123648373Y-117092963D01*
X123478534Y-117041443D01*
X123322009Y-116957778D01*
X123286271Y-116928448D01*
X123184814Y-116845186D01*
X123101552Y-116743729D01*
X123072222Y-116707991D01*
X122988557Y-116551466D01*
X122937037Y-116381627D01*
X122919641Y-116205000D01*
X122937037Y-116028373D01*
X122988557Y-115858534D01*
X123072222Y-115702009D01*
X123101552Y-115666271D01*
X123184814Y-115564814D01*
X123286271Y-115481552D01*
X123322009Y-115452222D01*
X123478534Y-115368557D01*
X123648373Y-115317037D01*
X123714558Y-115310518D01*
X123780740Y-115304000D01*
X123869260Y-115304000D01*
X123935442Y-115310518D01*
X123935442Y-115310518D01*
G37*
G36*
X126475442Y-115310518D02*
G01*
X126541627Y-115317037D01*
X126711466Y-115368557D01*
X126867991Y-115452222D01*
X126903729Y-115481552D01*
X127005186Y-115564814D01*
X127088448Y-115666271D01*
X127117778Y-115702009D01*
X127201443Y-115858534D01*
X127252963Y-116028373D01*
X127270359Y-116205000D01*
X127252963Y-116381627D01*
X127201443Y-116551466D01*
X127117778Y-116707991D01*
X127088448Y-116743729D01*
X127005186Y-116845186D01*
X126903729Y-116928448D01*
X126867991Y-116957778D01*
X126711466Y-117041443D01*
X126541627Y-117092963D01*
X126475443Y-117099481D01*
X126409260Y-117106000D01*
X126320740Y-117106000D01*
X126254557Y-117099481D01*
X126188373Y-117092963D01*
X126018534Y-117041443D01*
X125862009Y-116957778D01*
X125826271Y-116928448D01*
X125724814Y-116845186D01*
X125641552Y-116743729D01*
X125612222Y-116707991D01*
X125528557Y-116551466D01*
X125477037Y-116381627D01*
X125459641Y-116205000D01*
X125477037Y-116028373D01*
X125528557Y-115858534D01*
X125612222Y-115702009D01*
X125641552Y-115666271D01*
X125724814Y-115564814D01*
X125826271Y-115481552D01*
X125862009Y-115452222D01*
X126018534Y-115368557D01*
X126188373Y-115317037D01*
X126254558Y-115310518D01*
X126320740Y-115304000D01*
X126409260Y-115304000D01*
X126475442Y-115310518D01*
X126475442Y-115310518D01*
G37*
G36*
X129015442Y-115310518D02*
G01*
X129081627Y-115317037D01*
X129251466Y-115368557D01*
X129407991Y-115452222D01*
X129443729Y-115481552D01*
X129545186Y-115564814D01*
X129628448Y-115666271D01*
X129657778Y-115702009D01*
X129741443Y-115858534D01*
X129792963Y-116028373D01*
X129810359Y-116205000D01*
X129792963Y-116381627D01*
X129741443Y-116551466D01*
X129657778Y-116707991D01*
X129628448Y-116743729D01*
X129545186Y-116845186D01*
X129443729Y-116928448D01*
X129407991Y-116957778D01*
X129251466Y-117041443D01*
X129081627Y-117092963D01*
X129015443Y-117099481D01*
X128949260Y-117106000D01*
X128860740Y-117106000D01*
X128794557Y-117099481D01*
X128728373Y-117092963D01*
X128558534Y-117041443D01*
X128402009Y-116957778D01*
X128366271Y-116928448D01*
X128264814Y-116845186D01*
X128181552Y-116743729D01*
X128152222Y-116707991D01*
X128068557Y-116551466D01*
X128017037Y-116381627D01*
X127999641Y-116205000D01*
X128017037Y-116028373D01*
X128068557Y-115858534D01*
X128152222Y-115702009D01*
X128181552Y-115666271D01*
X128264814Y-115564814D01*
X128366271Y-115481552D01*
X128402009Y-115452222D01*
X128558534Y-115368557D01*
X128728373Y-115317037D01*
X128794558Y-115310518D01*
X128860740Y-115304000D01*
X128949260Y-115304000D01*
X129015442Y-115310518D01*
X129015442Y-115310518D01*
G37*
G36*
X117006823Y-114731313D02*
G01*
X117167242Y-114779976D01*
X117299906Y-114850886D01*
X117315078Y-114858996D01*
X117444659Y-114965341D01*
X117551004Y-115094922D01*
X117551005Y-115094924D01*
X117630024Y-115242758D01*
X117678687Y-115403177D01*
X117695117Y-115570000D01*
X117678687Y-115736823D01*
X117630024Y-115897242D01*
X117600735Y-115952037D01*
X117551004Y-116045078D01*
X117444659Y-116174659D01*
X117315078Y-116281004D01*
X117315076Y-116281005D01*
X117167242Y-116360024D01*
X117006823Y-116408687D01*
X116881804Y-116421000D01*
X116798196Y-116421000D01*
X116673177Y-116408687D01*
X116512758Y-116360024D01*
X116364924Y-116281005D01*
X116364922Y-116281004D01*
X116235341Y-116174659D01*
X116128996Y-116045078D01*
X116079265Y-115952037D01*
X116049976Y-115897242D01*
X116001313Y-115736823D01*
X115984883Y-115570000D01*
X116001313Y-115403177D01*
X116049976Y-115242758D01*
X116128995Y-115094924D01*
X116128996Y-115094922D01*
X116235341Y-114965341D01*
X116364922Y-114858996D01*
X116380094Y-114850886D01*
X116512758Y-114779976D01*
X116673177Y-114731313D01*
X116798196Y-114719000D01*
X116881804Y-114719000D01*
X117006823Y-114731313D01*
X117006823Y-114731313D01*
G37*
G36*
X109386823Y-114731313D02*
G01*
X109547242Y-114779976D01*
X109679906Y-114850886D01*
X109695078Y-114858996D01*
X109824659Y-114965341D01*
X109931004Y-115094922D01*
X109931005Y-115094924D01*
X110010024Y-115242758D01*
X110058687Y-115403177D01*
X110075117Y-115570000D01*
X110058687Y-115736823D01*
X110010024Y-115897242D01*
X109980735Y-115952037D01*
X109931004Y-116045078D01*
X109824659Y-116174659D01*
X109695078Y-116281004D01*
X109695076Y-116281005D01*
X109547242Y-116360024D01*
X109386823Y-116408687D01*
X109261804Y-116421000D01*
X109178196Y-116421000D01*
X109053177Y-116408687D01*
X108892758Y-116360024D01*
X108744924Y-116281005D01*
X108744922Y-116281004D01*
X108615341Y-116174659D01*
X108508996Y-116045078D01*
X108459265Y-115952037D01*
X108429976Y-115897242D01*
X108381313Y-115736823D01*
X108364883Y-115570000D01*
X108381313Y-115403177D01*
X108429976Y-115242758D01*
X108508995Y-115094924D01*
X108508996Y-115094922D01*
X108615341Y-114965341D01*
X108744922Y-114858996D01*
X108760094Y-114850886D01*
X108892758Y-114779976D01*
X109053177Y-114731313D01*
X109178196Y-114719000D01*
X109261804Y-114719000D01*
X109386823Y-114731313D01*
X109386823Y-114731313D01*
G37*
G36*
X135696000Y-116251000D02*
G01*
X133594000Y-116251000D01*
X133594000Y-112349000D01*
X135696000Y-112349000D01*
X135696000Y-116251000D01*
X135696000Y-116251000D01*
G37*
G36*
X103615443Y-113405519D02*
G01*
X103681627Y-113412037D01*
X103851466Y-113463557D01*
X104007991Y-113547222D01*
X104043729Y-113576552D01*
X104145186Y-113659814D01*
X104228448Y-113761271D01*
X104257778Y-113797009D01*
X104341443Y-113953534D01*
X104392963Y-114123373D01*
X104410359Y-114300000D01*
X104392963Y-114476627D01*
X104341443Y-114646466D01*
X104257778Y-114802991D01*
X104228448Y-114838729D01*
X104145186Y-114940186D01*
X104043729Y-115023448D01*
X104007991Y-115052778D01*
X103851466Y-115136443D01*
X103681627Y-115187963D01*
X103615442Y-115194482D01*
X103549260Y-115201000D01*
X103460740Y-115201000D01*
X103394558Y-115194482D01*
X103328373Y-115187963D01*
X103158534Y-115136443D01*
X103002009Y-115052778D01*
X102966271Y-115023448D01*
X102864814Y-114940186D01*
X102781552Y-114838729D01*
X102752222Y-114802991D01*
X102668557Y-114646466D01*
X102617037Y-114476627D01*
X102599641Y-114300000D01*
X102617037Y-114123373D01*
X102668557Y-113953534D01*
X102752222Y-113797009D01*
X102781552Y-113761271D01*
X102864814Y-113659814D01*
X102966271Y-113576552D01*
X103002009Y-113547222D01*
X103158534Y-113463557D01*
X103328373Y-113412037D01*
X103394557Y-113405519D01*
X103460740Y-113399000D01*
X103549260Y-113399000D01*
X103615443Y-113405519D01*
X103615443Y-113405519D01*
G37*
G36*
X141996000Y-115101000D02*
G01*
X139894000Y-115101000D01*
X139894000Y-113499000D01*
X141996000Y-113499000D01*
X141996000Y-115101000D01*
X141996000Y-115101000D01*
G37*
G36*
X129015442Y-112770518D02*
G01*
X129081627Y-112777037D01*
X129251466Y-112828557D01*
X129407991Y-112912222D01*
X129443729Y-112941552D01*
X129545186Y-113024814D01*
X129628448Y-113126271D01*
X129657778Y-113162009D01*
X129741443Y-113318534D01*
X129792963Y-113488373D01*
X129810359Y-113665000D01*
X129792963Y-113841627D01*
X129741443Y-114011466D01*
X129657778Y-114167991D01*
X129628448Y-114203729D01*
X129545186Y-114305186D01*
X129443729Y-114388448D01*
X129407991Y-114417778D01*
X129251466Y-114501443D01*
X129081627Y-114552963D01*
X129015442Y-114559482D01*
X128949260Y-114566000D01*
X128860740Y-114566000D01*
X128794558Y-114559482D01*
X128728373Y-114552963D01*
X128558534Y-114501443D01*
X128402009Y-114417778D01*
X128366271Y-114388448D01*
X128264814Y-114305186D01*
X128181552Y-114203729D01*
X128152222Y-114167991D01*
X128068557Y-114011466D01*
X128017037Y-113841627D01*
X127999641Y-113665000D01*
X128017037Y-113488373D01*
X128068557Y-113318534D01*
X128152222Y-113162009D01*
X128181552Y-113126271D01*
X128264814Y-113024814D01*
X128366271Y-112941552D01*
X128402009Y-112912222D01*
X128558534Y-112828557D01*
X128728373Y-112777037D01*
X128794558Y-112770518D01*
X128860740Y-112764000D01*
X128949260Y-112764000D01*
X129015442Y-112770518D01*
X129015442Y-112770518D01*
G37*
G36*
X126475442Y-112770518D02*
G01*
X126541627Y-112777037D01*
X126711466Y-112828557D01*
X126867991Y-112912222D01*
X126903729Y-112941552D01*
X127005186Y-113024814D01*
X127088448Y-113126271D01*
X127117778Y-113162009D01*
X127201443Y-113318534D01*
X127252963Y-113488373D01*
X127270359Y-113665000D01*
X127252963Y-113841627D01*
X127201443Y-114011466D01*
X127117778Y-114167991D01*
X127088448Y-114203729D01*
X127005186Y-114305186D01*
X126903729Y-114388448D01*
X126867991Y-114417778D01*
X126711466Y-114501443D01*
X126541627Y-114552963D01*
X126475442Y-114559482D01*
X126409260Y-114566000D01*
X126320740Y-114566000D01*
X126254558Y-114559482D01*
X126188373Y-114552963D01*
X126018534Y-114501443D01*
X125862009Y-114417778D01*
X125826271Y-114388448D01*
X125724814Y-114305186D01*
X125641552Y-114203729D01*
X125612222Y-114167991D01*
X125528557Y-114011466D01*
X125477037Y-113841627D01*
X125459641Y-113665000D01*
X125477037Y-113488373D01*
X125528557Y-113318534D01*
X125612222Y-113162009D01*
X125641552Y-113126271D01*
X125724814Y-113024814D01*
X125826271Y-112941552D01*
X125862009Y-112912222D01*
X126018534Y-112828557D01*
X126188373Y-112777037D01*
X126254558Y-112770518D01*
X126320740Y-112764000D01*
X126409260Y-112764000D01*
X126475442Y-112770518D01*
X126475442Y-112770518D01*
G37*
G36*
X123935442Y-112770518D02*
G01*
X124001627Y-112777037D01*
X124171466Y-112828557D01*
X124327991Y-112912222D01*
X124363729Y-112941552D01*
X124465186Y-113024814D01*
X124548448Y-113126271D01*
X124577778Y-113162009D01*
X124661443Y-113318534D01*
X124712963Y-113488373D01*
X124730359Y-113665000D01*
X124712963Y-113841627D01*
X124661443Y-114011466D01*
X124577778Y-114167991D01*
X124548448Y-114203729D01*
X124465186Y-114305186D01*
X124363729Y-114388448D01*
X124327991Y-114417778D01*
X124171466Y-114501443D01*
X124001627Y-114552963D01*
X123935442Y-114559482D01*
X123869260Y-114566000D01*
X123780740Y-114566000D01*
X123714558Y-114559482D01*
X123648373Y-114552963D01*
X123478534Y-114501443D01*
X123322009Y-114417778D01*
X123286271Y-114388448D01*
X123184814Y-114305186D01*
X123101552Y-114203729D01*
X123072222Y-114167991D01*
X122988557Y-114011466D01*
X122937037Y-113841627D01*
X122919641Y-113665000D01*
X122937037Y-113488373D01*
X122988557Y-113318534D01*
X123072222Y-113162009D01*
X123101552Y-113126271D01*
X123184814Y-113024814D01*
X123286271Y-112941552D01*
X123322009Y-112912222D01*
X123478534Y-112828557D01*
X123648373Y-112777037D01*
X123714558Y-112770518D01*
X123780740Y-112764000D01*
X123869260Y-112764000D01*
X123935442Y-112770518D01*
X123935442Y-112770518D01*
G37*
G36*
X109386823Y-112191313D02*
G01*
X109547242Y-112239976D01*
X109679906Y-112310886D01*
X109695078Y-112318996D01*
X109824659Y-112425341D01*
X109931004Y-112554922D01*
X109931005Y-112554924D01*
X110010024Y-112702758D01*
X110058687Y-112863177D01*
X110075117Y-113030000D01*
X110058687Y-113196823D01*
X110010024Y-113357242D01*
X109980735Y-113412037D01*
X109931004Y-113505078D01*
X109824659Y-113634659D01*
X109695078Y-113741004D01*
X109695076Y-113741005D01*
X109547242Y-113820024D01*
X109386823Y-113868687D01*
X109261804Y-113881000D01*
X109178196Y-113881000D01*
X109053177Y-113868687D01*
X108892758Y-113820024D01*
X108744924Y-113741005D01*
X108744922Y-113741004D01*
X108615341Y-113634659D01*
X108508996Y-113505078D01*
X108459265Y-113412037D01*
X108429976Y-113357242D01*
X108381313Y-113196823D01*
X108364883Y-113030000D01*
X108381313Y-112863177D01*
X108429976Y-112702758D01*
X108508995Y-112554924D01*
X108508996Y-112554922D01*
X108615341Y-112425341D01*
X108744922Y-112318996D01*
X108760094Y-112310886D01*
X108892758Y-112239976D01*
X109053177Y-112191313D01*
X109178196Y-112179000D01*
X109261804Y-112179000D01*
X109386823Y-112191313D01*
X109386823Y-112191313D01*
G37*
G36*
X117006823Y-112191313D02*
G01*
X117167242Y-112239976D01*
X117299906Y-112310886D01*
X117315078Y-112318996D01*
X117444659Y-112425341D01*
X117551004Y-112554922D01*
X117551005Y-112554924D01*
X117630024Y-112702758D01*
X117678687Y-112863177D01*
X117695117Y-113030000D01*
X117678687Y-113196823D01*
X117630024Y-113357242D01*
X117600735Y-113412037D01*
X117551004Y-113505078D01*
X117444659Y-113634659D01*
X117315078Y-113741004D01*
X117315076Y-113741005D01*
X117167242Y-113820024D01*
X117006823Y-113868687D01*
X116881804Y-113881000D01*
X116798196Y-113881000D01*
X116673177Y-113868687D01*
X116512758Y-113820024D01*
X116364924Y-113741005D01*
X116364922Y-113741004D01*
X116235341Y-113634659D01*
X116128996Y-113505078D01*
X116079265Y-113412037D01*
X116049976Y-113357242D01*
X116001313Y-113196823D01*
X115984883Y-113030000D01*
X116001313Y-112863177D01*
X116049976Y-112702758D01*
X116128995Y-112554924D01*
X116128996Y-112554922D01*
X116235341Y-112425341D01*
X116364922Y-112318996D01*
X116380094Y-112310886D01*
X116512758Y-112239976D01*
X116673177Y-112191313D01*
X116798196Y-112179000D01*
X116881804Y-112179000D01*
X117006823Y-112191313D01*
X117006823Y-112191313D01*
G37*
G36*
X141996000Y-112801000D02*
G01*
X139894000Y-112801000D01*
X139894000Y-111199000D01*
X141996000Y-111199000D01*
X141996000Y-112801000D01*
X141996000Y-112801000D01*
G37*
G36*
X103615442Y-110865518D02*
G01*
X103681627Y-110872037D01*
X103851466Y-110923557D01*
X104007991Y-111007222D01*
X104043729Y-111036552D01*
X104145186Y-111119814D01*
X104228448Y-111221271D01*
X104257778Y-111257009D01*
X104341443Y-111413534D01*
X104392963Y-111583373D01*
X104410359Y-111760000D01*
X104392963Y-111936627D01*
X104341443Y-112106466D01*
X104257778Y-112262991D01*
X104228448Y-112298729D01*
X104145186Y-112400186D01*
X104043729Y-112483448D01*
X104007991Y-112512778D01*
X103851466Y-112596443D01*
X103681627Y-112647963D01*
X103615442Y-112654482D01*
X103549260Y-112661000D01*
X103460740Y-112661000D01*
X103394558Y-112654482D01*
X103328373Y-112647963D01*
X103158534Y-112596443D01*
X103002009Y-112512778D01*
X102966271Y-112483448D01*
X102864814Y-112400186D01*
X102781552Y-112298729D01*
X102752222Y-112262991D01*
X102668557Y-112106466D01*
X102617037Y-111936627D01*
X102599641Y-111760000D01*
X102617037Y-111583373D01*
X102668557Y-111413534D01*
X102752222Y-111257009D01*
X102781552Y-111221271D01*
X102864814Y-111119814D01*
X102966271Y-111036552D01*
X103002009Y-111007222D01*
X103158534Y-110923557D01*
X103328373Y-110872037D01*
X103394558Y-110865518D01*
X103460740Y-110859000D01*
X103549260Y-110859000D01*
X103615442Y-110865518D01*
X103615442Y-110865518D01*
G37*
G36*
X124726000Y-112026000D02*
G01*
X122924000Y-112026000D01*
X122924000Y-110224000D01*
X124726000Y-110224000D01*
X124726000Y-112026000D01*
X124726000Y-112026000D01*
G37*
G36*
X129806000Y-112026000D02*
G01*
X128004000Y-112026000D01*
X128004000Y-110224000D01*
X129806000Y-110224000D01*
X129806000Y-112026000D01*
X129806000Y-112026000D01*
G37*
G36*
X127266000Y-112026000D02*
G01*
X125464000Y-112026000D01*
X125464000Y-110224000D01*
X127266000Y-110224000D01*
X127266000Y-112026000D01*
X127266000Y-112026000D01*
G37*
G36*
X109386823Y-109651313D02*
G01*
X109547242Y-109699976D01*
X109679906Y-109770886D01*
X109695078Y-109778996D01*
X109824659Y-109885341D01*
X109931004Y-110014922D01*
X109931005Y-110014924D01*
X110010024Y-110162758D01*
X110058687Y-110323177D01*
X110075117Y-110490000D01*
X110058687Y-110656823D01*
X110010024Y-110817242D01*
X109980735Y-110872037D01*
X109931004Y-110965078D01*
X109824659Y-111094659D01*
X109695078Y-111201004D01*
X109695076Y-111201005D01*
X109547242Y-111280024D01*
X109386823Y-111328687D01*
X109261804Y-111341000D01*
X109178196Y-111341000D01*
X109053177Y-111328687D01*
X108892758Y-111280024D01*
X108744924Y-111201005D01*
X108744922Y-111201004D01*
X108615341Y-111094659D01*
X108508996Y-110965078D01*
X108459265Y-110872037D01*
X108429976Y-110817242D01*
X108381313Y-110656823D01*
X108364883Y-110490000D01*
X108381313Y-110323177D01*
X108429976Y-110162758D01*
X108508995Y-110014924D01*
X108508996Y-110014922D01*
X108615341Y-109885341D01*
X108744922Y-109778996D01*
X108760094Y-109770886D01*
X108892758Y-109699976D01*
X109053177Y-109651313D01*
X109178196Y-109639000D01*
X109261804Y-109639000D01*
X109386823Y-109651313D01*
X109386823Y-109651313D01*
G37*
G36*
X117006823Y-109651313D02*
G01*
X117167242Y-109699976D01*
X117299906Y-109770886D01*
X117315078Y-109778996D01*
X117444659Y-109885341D01*
X117551004Y-110014922D01*
X117551005Y-110014924D01*
X117630024Y-110162758D01*
X117678687Y-110323177D01*
X117695117Y-110490000D01*
X117678687Y-110656823D01*
X117630024Y-110817242D01*
X117600735Y-110872037D01*
X117551004Y-110965078D01*
X117444659Y-111094659D01*
X117315078Y-111201004D01*
X117315076Y-111201005D01*
X117167242Y-111280024D01*
X117006823Y-111328687D01*
X116881804Y-111341000D01*
X116798196Y-111341000D01*
X116673177Y-111328687D01*
X116512758Y-111280024D01*
X116364924Y-111201005D01*
X116364922Y-111201004D01*
X116235341Y-111094659D01*
X116128996Y-110965078D01*
X116079265Y-110872037D01*
X116049976Y-110817242D01*
X116001313Y-110656823D01*
X115984883Y-110490000D01*
X116001313Y-110323177D01*
X116049976Y-110162758D01*
X116128995Y-110014924D01*
X116128996Y-110014922D01*
X116235341Y-109885341D01*
X116364922Y-109778996D01*
X116380094Y-109770886D01*
X116512758Y-109699976D01*
X116673177Y-109651313D01*
X116798196Y-109639000D01*
X116881804Y-109639000D01*
X117006823Y-109651313D01*
X117006823Y-109651313D01*
G37*
G36*
X117006823Y-107111313D02*
G01*
X117167242Y-107159976D01*
X117299906Y-107230886D01*
X117315078Y-107238996D01*
X117444659Y-107345341D01*
X117551004Y-107474922D01*
X117551005Y-107474924D01*
X117630024Y-107622758D01*
X117678687Y-107783177D01*
X117695117Y-107950000D01*
X117678687Y-108116823D01*
X117630024Y-108277242D01*
X117559114Y-108409906D01*
X117551004Y-108425078D01*
X117444659Y-108554659D01*
X117315078Y-108661004D01*
X117315076Y-108661005D01*
X117167242Y-108740024D01*
X117006823Y-108788687D01*
X116881804Y-108801000D01*
X116798196Y-108801000D01*
X116673177Y-108788687D01*
X116512758Y-108740024D01*
X116364924Y-108661005D01*
X116364922Y-108661004D01*
X116235341Y-108554659D01*
X116128996Y-108425078D01*
X116120886Y-108409906D01*
X116049976Y-108277242D01*
X116001313Y-108116823D01*
X115984883Y-107950000D01*
X116001313Y-107783177D01*
X116049976Y-107622758D01*
X116128995Y-107474924D01*
X116128996Y-107474922D01*
X116235341Y-107345341D01*
X116364922Y-107238996D01*
X116380094Y-107230886D01*
X116512758Y-107159976D01*
X116673177Y-107111313D01*
X116798196Y-107099000D01*
X116881804Y-107099000D01*
X117006823Y-107111313D01*
X117006823Y-107111313D01*
G37*
G36*
X110071000Y-108801000D02*
G01*
X108369000Y-108801000D01*
X108369000Y-107099000D01*
X110071000Y-107099000D01*
X110071000Y-108801000D01*
X110071000Y-108801000D01*
G37*
G36*
X145396000Y-108566000D02*
G01*
X142894000Y-108566000D01*
X142894000Y-106064000D01*
X145396000Y-106064000D01*
X145396000Y-108566000D01*
X145396000Y-108566000D01*
G37*
G36*
X103724059Y-106592860D02*
G01*
X103860732Y-106649472D01*
X103983735Y-106731660D01*
X104088340Y-106836265D01*
X104088341Y-106836267D01*
X104170529Y-106959270D01*
X104227140Y-107095941D01*
X104256000Y-107241032D01*
X104256000Y-107388968D01*
X104227140Y-107534059D01*
X104170528Y-107670732D01*
X104088340Y-107793735D01*
X103983735Y-107898340D01*
X103860732Y-107980528D01*
X103860731Y-107980529D01*
X103860730Y-107980529D01*
X103724059Y-108037140D01*
X103578968Y-108066000D01*
X103431032Y-108066000D01*
X103285941Y-108037140D01*
X103149270Y-107980529D01*
X103149269Y-107980529D01*
X103149268Y-107980528D01*
X103026265Y-107898340D01*
X102921660Y-107793735D01*
X102839472Y-107670732D01*
X102782860Y-107534059D01*
X102754000Y-107388968D01*
X102754000Y-107241032D01*
X102782860Y-107095941D01*
X102839471Y-106959270D01*
X102921659Y-106836267D01*
X102921660Y-106836265D01*
X103026265Y-106731660D01*
X103149268Y-106649472D01*
X103285941Y-106592860D01*
X103431032Y-106564000D01*
X103578968Y-106564000D01*
X103724059Y-106592860D01*
X103724059Y-106592860D01*
G37*
G36*
X144509903Y-102612075D02*
G01*
X144702860Y-102692000D01*
X144737571Y-102706378D01*
X144942466Y-102843285D01*
X145116715Y-103017534D01*
X145187328Y-103123214D01*
X145253623Y-103222431D01*
X145347925Y-103450097D01*
X145396000Y-103691786D01*
X145396000Y-103938214D01*
X145347925Y-104179903D01*
X145290724Y-104318000D01*
X145253622Y-104407571D01*
X145116715Y-104612466D01*
X144942466Y-104786715D01*
X144737571Y-104923622D01*
X144737570Y-104923623D01*
X144737569Y-104923623D01*
X144509903Y-105017925D01*
X144268214Y-105066000D01*
X144021786Y-105066000D01*
X143780097Y-105017925D01*
X143552431Y-104923623D01*
X143552430Y-104923623D01*
X143552429Y-104923622D01*
X143347534Y-104786715D01*
X143173285Y-104612466D01*
X143036378Y-104407571D01*
X142999277Y-104318000D01*
X142942075Y-104179903D01*
X142894000Y-103938214D01*
X142894000Y-103691786D01*
X142942075Y-103450097D01*
X143036377Y-103222431D01*
X143102672Y-103123214D01*
X143173285Y-103017534D01*
X143347534Y-102843285D01*
X143552429Y-102706378D01*
X143587141Y-102692000D01*
X143780097Y-102612075D01*
X144021786Y-102564000D01*
X144268214Y-102564000D01*
X144509903Y-102612075D01*
X144509903Y-102612075D01*
G37*
G36*
X132339369Y-102903971D02*
G01*
X132501195Y-102971002D01*
X132646829Y-103068311D01*
X132770689Y-103192171D01*
X132867998Y-103337805D01*
X132935029Y-103499631D01*
X132969200Y-103671420D01*
X132969200Y-103846580D01*
X132935029Y-104018369D01*
X132867998Y-104180195D01*
X132770689Y-104325829D01*
X132646829Y-104449689D01*
X132501195Y-104546998D01*
X132339369Y-104614029D01*
X132167580Y-104648200D01*
X131992420Y-104648200D01*
X131820631Y-104614029D01*
X131658805Y-104546998D01*
X131513171Y-104449689D01*
X131389311Y-104325829D01*
X131292002Y-104180195D01*
X131224971Y-104018369D01*
X131190800Y-103846580D01*
X131190800Y-103671420D01*
X131224971Y-103499631D01*
X131292002Y-103337805D01*
X131389311Y-103192171D01*
X131513171Y-103068311D01*
X131658805Y-102971002D01*
X131820631Y-102903971D01*
X131992420Y-102869800D01*
X132167580Y-102869800D01*
X132339369Y-102903971D01*
X132339369Y-102903971D01*
G37*
G36*
X134879369Y-102903971D02*
G01*
X135041195Y-102971002D01*
X135186829Y-103068311D01*
X135310689Y-103192171D01*
X135407998Y-103337805D01*
X135475029Y-103499631D01*
X135509200Y-103671420D01*
X135509200Y-103846580D01*
X135475029Y-104018369D01*
X135407998Y-104180195D01*
X135310689Y-104325829D01*
X135186829Y-104449689D01*
X135041195Y-104546998D01*
X134879369Y-104614029D01*
X134707580Y-104648200D01*
X134532420Y-104648200D01*
X134360631Y-104614029D01*
X134198805Y-104546998D01*
X134053171Y-104449689D01*
X133929311Y-104325829D01*
X133832002Y-104180195D01*
X133764971Y-104018369D01*
X133730800Y-103846580D01*
X133730800Y-103671420D01*
X133764971Y-103499631D01*
X133832002Y-103337805D01*
X133929311Y-103192171D01*
X134053171Y-103068311D01*
X134198805Y-102971002D01*
X134360631Y-102903971D01*
X134532420Y-102869800D01*
X134707580Y-102869800D01*
X134879369Y-102903971D01*
X134879369Y-102903971D01*
G37*
G36*
X137419369Y-102903971D02*
G01*
X137581195Y-102971002D01*
X137726829Y-103068311D01*
X137850689Y-103192171D01*
X137947998Y-103337805D01*
X138015029Y-103499631D01*
X138049200Y-103671420D01*
X138049200Y-103846580D01*
X138015029Y-104018369D01*
X137947998Y-104180195D01*
X137850689Y-104325829D01*
X137726829Y-104449689D01*
X137581195Y-104546998D01*
X137419369Y-104614029D01*
X137247580Y-104648200D01*
X137072420Y-104648200D01*
X136900631Y-104614029D01*
X136738805Y-104546998D01*
X136593171Y-104449689D01*
X136469311Y-104325829D01*
X136372002Y-104180195D01*
X136304971Y-104018369D01*
X136270800Y-103846580D01*
X136270800Y-103671420D01*
X136304971Y-103499631D01*
X136372002Y-103337805D01*
X136469311Y-103192171D01*
X136593171Y-103068311D01*
X136738805Y-102971002D01*
X136900631Y-102903971D01*
X137072420Y-102869800D01*
X137247580Y-102869800D01*
X137419369Y-102903971D01*
X137419369Y-102903971D01*
G37*
G36*
X122792142Y-102723242D02*
G01*
X122940101Y-102784529D01*
X123073255Y-102873499D01*
X123186501Y-102986745D01*
X123275471Y-103119899D01*
X123336758Y-103267858D01*
X123368000Y-103424925D01*
X123368000Y-103585075D01*
X123336758Y-103742142D01*
X123275471Y-103890101D01*
X123186501Y-104023255D01*
X123073255Y-104136501D01*
X122940101Y-104225471D01*
X122792142Y-104286758D01*
X122635075Y-104318000D01*
X122474925Y-104318000D01*
X122317858Y-104286758D01*
X122169899Y-104225471D01*
X122036745Y-104136501D01*
X121923499Y-104023255D01*
X121834529Y-103890101D01*
X121773242Y-103742142D01*
X121742000Y-103585075D01*
X121742000Y-103424925D01*
X121773242Y-103267858D01*
X121834529Y-103119899D01*
X121923499Y-102986745D01*
X122036745Y-102873499D01*
X122169899Y-102784529D01*
X122317858Y-102723242D01*
X122474925Y-102692000D01*
X122635075Y-102692000D01*
X122792142Y-102723242D01*
X122792142Y-102723242D01*
G37*
G36*
X127872142Y-102723242D02*
G01*
X128020101Y-102784529D01*
X128153255Y-102873499D01*
X128266501Y-102986745D01*
X128355471Y-103119899D01*
X128416758Y-103267858D01*
X128448000Y-103424925D01*
X128448000Y-103585075D01*
X128416758Y-103742142D01*
X128355471Y-103890101D01*
X128266501Y-104023255D01*
X128153255Y-104136501D01*
X128020101Y-104225471D01*
X127872142Y-104286758D01*
X127715075Y-104318000D01*
X127554925Y-104318000D01*
X127397858Y-104286758D01*
X127249899Y-104225471D01*
X127116745Y-104136501D01*
X127003499Y-104023255D01*
X126914529Y-103890101D01*
X126853242Y-103742142D01*
X126822000Y-103585075D01*
X126822000Y-103424925D01*
X126853242Y-103267858D01*
X126914529Y-103119899D01*
X127003499Y-102986745D01*
X127116745Y-102873499D01*
X127249899Y-102784529D01*
X127397858Y-102723242D01*
X127554925Y-102692000D01*
X127715075Y-102692000D01*
X127872142Y-102723242D01*
X127872142Y-102723242D01*
G37*
G36*
X118864903Y-101797075D02*
G01*
X119092571Y-101891378D01*
X119297466Y-102028285D01*
X119471715Y-102202534D01*
X119591779Y-102382222D01*
X119608623Y-102407431D01*
X119702925Y-102635097D01*
X119751000Y-102876786D01*
X119751000Y-103123214D01*
X119702925Y-103364903D01*
X119611728Y-103585074D01*
X119608622Y-103592571D01*
X119471715Y-103797466D01*
X119297466Y-103971715D01*
X119092571Y-104108622D01*
X119092570Y-104108623D01*
X119092569Y-104108623D01*
X118864903Y-104202925D01*
X118623214Y-104251000D01*
X118376786Y-104251000D01*
X118135097Y-104202925D01*
X117907431Y-104108623D01*
X117907430Y-104108623D01*
X117907429Y-104108622D01*
X117702534Y-103971715D01*
X117528285Y-103797466D01*
X117391378Y-103592571D01*
X117388273Y-103585074D01*
X117297075Y-103364903D01*
X117249000Y-103123214D01*
X117249000Y-102876786D01*
X117297075Y-102635097D01*
X117391377Y-102407431D01*
X117408221Y-102382222D01*
X117528285Y-102202534D01*
X117702534Y-102028285D01*
X117907429Y-101891378D01*
X118135097Y-101797075D01*
X118376786Y-101749000D01*
X118623214Y-101749000D01*
X118864903Y-101797075D01*
X118864903Y-101797075D01*
G37*
G36*
X108278228Y-102051703D02*
G01*
X108433100Y-102115853D01*
X108572481Y-102208985D01*
X108691015Y-102327519D01*
X108784147Y-102466900D01*
X108848297Y-102621772D01*
X108881000Y-102786184D01*
X108881000Y-102953816D01*
X108848297Y-103118228D01*
X108784147Y-103273100D01*
X108691015Y-103412481D01*
X108572481Y-103531015D01*
X108433100Y-103624147D01*
X108278228Y-103688297D01*
X108113816Y-103721000D01*
X107946184Y-103721000D01*
X107781772Y-103688297D01*
X107626900Y-103624147D01*
X107487519Y-103531015D01*
X107368985Y-103412481D01*
X107275853Y-103273100D01*
X107211703Y-103118228D01*
X107179000Y-102953816D01*
X107179000Y-102786184D01*
X107211703Y-102621772D01*
X107275853Y-102466900D01*
X107368985Y-102327519D01*
X107487519Y-102208985D01*
X107626900Y-102115853D01*
X107781772Y-102051703D01*
X107946184Y-102019000D01*
X108113816Y-102019000D01*
X108278228Y-102051703D01*
X108278228Y-102051703D01*
G37*
G36*
X113278228Y-102051703D02*
G01*
X113433100Y-102115853D01*
X113572481Y-102208985D01*
X113691015Y-102327519D01*
X113784147Y-102466900D01*
X113848297Y-102621772D01*
X113881000Y-102786184D01*
X113881000Y-102953816D01*
X113848297Y-103118228D01*
X113784147Y-103273100D01*
X113691015Y-103412481D01*
X113572481Y-103531015D01*
X113433100Y-103624147D01*
X113278228Y-103688297D01*
X113113816Y-103721000D01*
X112946184Y-103721000D01*
X112781772Y-103688297D01*
X112626900Y-103624147D01*
X112487519Y-103531015D01*
X112368985Y-103412481D01*
X112275853Y-103273100D01*
X112211703Y-103118228D01*
X112179000Y-102953816D01*
X112179000Y-102786184D01*
X112211703Y-102621772D01*
X112275853Y-102466900D01*
X112368985Y-102327519D01*
X112487519Y-102208985D01*
X112626900Y-102115853D01*
X112781772Y-102051703D01*
X112946184Y-102019000D01*
X113113816Y-102019000D01*
X113278228Y-102051703D01*
X113278228Y-102051703D01*
G37*
G36*
X103578665Y-101487622D02*
G01*
X103652222Y-101494867D01*
X103793786Y-101537810D01*
X103924252Y-101607546D01*
X103954040Y-101631992D01*
X104038607Y-101701393D01*
X104108008Y-101785960D01*
X104132454Y-101815748D01*
X104202190Y-101946214D01*
X104245133Y-102087778D01*
X104259633Y-102235000D01*
X104245133Y-102382222D01*
X104202190Y-102523786D01*
X104132454Y-102654252D01*
X104108008Y-102684040D01*
X104038607Y-102768607D01*
X103954040Y-102838008D01*
X103924252Y-102862454D01*
X103793786Y-102932190D01*
X103652222Y-102975133D01*
X103578665Y-102982378D01*
X103541888Y-102986000D01*
X103468112Y-102986000D01*
X103431335Y-102982378D01*
X103357778Y-102975133D01*
X103216214Y-102932190D01*
X103085748Y-102862454D01*
X103055960Y-102838008D01*
X102971393Y-102768607D01*
X102901992Y-102684040D01*
X102877546Y-102654252D01*
X102807810Y-102523786D01*
X102764867Y-102382222D01*
X102750367Y-102235000D01*
X102764867Y-102087778D01*
X102807810Y-101946214D01*
X102877546Y-101815748D01*
X102901992Y-101785960D01*
X102971393Y-101701393D01*
X103055960Y-101631992D01*
X103085748Y-101607546D01*
X103216214Y-101537810D01*
X103357778Y-101494867D01*
X103431335Y-101487622D01*
X103468112Y-101484000D01*
X103541888Y-101484000D01*
X103578665Y-101487622D01*
X103578665Y-101487622D01*
G37*
M02*
