G04 #@! TF.GenerationSoftware,KiCad,Pcbnew,(5.1.8)-1*
G04 #@! TF.CreationDate,2021-03-23T12:44:49+01:00*
G04 #@! TF.ProjectId,MicoBot1,4d69636f-426f-4743-912e-6b696361645f,rev?*
G04 #@! TF.SameCoordinates,Original*
G04 #@! TF.FileFunction,Copper,L1,Top*
G04 #@! TF.FilePolarity,Positive*
%FSLAX46Y46*%
G04 Gerber Fmt 4.6, Leading zero omitted, Abs format (unit mm)*
G04 Created by KiCad (PCBNEW (5.1.8)-1) date 2021-03-23 12:44:49*
%MOMM*%
%LPD*%
G01*
G04 APERTURE LIST*
G04 #@! TA.AperFunction,ComponentPad*
%ADD10C,2.400000*%
G04 #@! TD*
G04 #@! TA.AperFunction,ComponentPad*
%ADD11R,1.600000X1.600000*%
G04 #@! TD*
G04 #@! TA.AperFunction,ComponentPad*
%ADD12O,1.600000X1.600000*%
G04 #@! TD*
G04 #@! TA.AperFunction,ComponentPad*
%ADD13C,1.524000*%
G04 #@! TD*
G04 #@! TA.AperFunction,ComponentPad*
%ADD14C,1.676400*%
G04 #@! TD*
G04 #@! TA.AperFunction,ComponentPad*
%ADD15C,1.400000*%
G04 #@! TD*
G04 #@! TA.AperFunction,ComponentPad*
%ADD16O,1.400000X1.400000*%
G04 #@! TD*
G04 #@! TA.AperFunction,ComponentPad*
%ADD17R,1.800000X1.800000*%
G04 #@! TD*
G04 #@! TA.AperFunction,ComponentPad*
%ADD18C,1.800000*%
G04 #@! TD*
G04 #@! TA.AperFunction,ComponentPad*
%ADD19C,1.600000*%
G04 #@! TD*
G04 #@! TA.AperFunction,ComponentPad*
%ADD20C,1.500000*%
G04 #@! TD*
G04 #@! TA.AperFunction,ComponentPad*
%ADD21C,1.200000*%
G04 #@! TD*
G04 #@! TA.AperFunction,ComponentPad*
%ADD22R,2.400000X2.400000*%
G04 #@! TD*
G04 #@! TA.AperFunction,ComponentPad*
%ADD23R,1.700000X1.700000*%
G04 #@! TD*
G04 #@! TA.AperFunction,ComponentPad*
%ADD24O,1.700000X1.700000*%
G04 #@! TD*
G04 #@! TA.AperFunction,ViaPad*
%ADD25C,1.200000*%
G04 #@! TD*
G04 #@! TA.AperFunction,ViaPad*
%ADD26C,1.000000*%
G04 #@! TD*
G04 #@! TA.AperFunction,Conductor*
%ADD27C,0.800000*%
G04 #@! TD*
G04 #@! TA.AperFunction,Conductor*
%ADD28C,0.600000*%
G04 #@! TD*
G04 #@! TA.AperFunction,Conductor*
%ADD29C,0.400000*%
G04 #@! TD*
G04 APERTURE END LIST*
D10*
X118500000Y-147000000D03*
X118500000Y-103000000D03*
D11*
X109220000Y-107950000D03*
D12*
X116840000Y-140970000D03*
X109220000Y-110490000D03*
X116840000Y-138430000D03*
X109220000Y-113030000D03*
X116840000Y-135890000D03*
X109220000Y-115570000D03*
X116840000Y-133350000D03*
X109220000Y-118110000D03*
X116840000Y-130810000D03*
X109220000Y-120650000D03*
X116840000Y-128270000D03*
X109220000Y-123190000D03*
X116840000Y-125730000D03*
X109220000Y-125730000D03*
X116840000Y-123190000D03*
X109220000Y-128270000D03*
X116840000Y-120650000D03*
X109220000Y-130810000D03*
X116840000Y-118110000D03*
X109220000Y-133350000D03*
X116840000Y-115570000D03*
X109220000Y-135890000D03*
X116840000Y-113030000D03*
X109220000Y-138430000D03*
X116840000Y-110490000D03*
X109220000Y-140970000D03*
X116840000Y-107950000D03*
D11*
X129540000Y-137795000D03*
D12*
X147320000Y-130175000D03*
X132080000Y-137795000D03*
X144780000Y-130175000D03*
X134620000Y-137795000D03*
X142240000Y-130175000D03*
X137160000Y-137795000D03*
X139700000Y-130175000D03*
X139700000Y-137795000D03*
X137160000Y-130175000D03*
X142240000Y-137795000D03*
X134620000Y-130175000D03*
X144780000Y-137795000D03*
X132080000Y-130175000D03*
X147320000Y-137795000D03*
X129540000Y-130175000D03*
D13*
X122555000Y-103505000D03*
X127635000Y-103505000D03*
D14*
X132080000Y-103759000D03*
X137160000Y-103759000D03*
X134620000Y-103759000D03*
D15*
X123190000Y-134620000D03*
D16*
X123190000Y-139700000D03*
D17*
X123190000Y-130810000D03*
D18*
X123190000Y-128270000D03*
D19*
X105410000Y-133985000D03*
X105410000Y-128985000D03*
X102870000Y-128985000D03*
X102870000Y-133985000D03*
X113030000Y-102870000D03*
X108030000Y-102870000D03*
D15*
X103505000Y-102235000D03*
D16*
X103505000Y-107315000D03*
D20*
X103759000Y-144145000D03*
X103759000Y-139265000D03*
D21*
X135255000Y-123825000D03*
X137255000Y-123825000D03*
D22*
X144145000Y-107315000D03*
D10*
X144145000Y-103815000D03*
D22*
X144145000Y-146050000D03*
D10*
X144145000Y-142550000D03*
X144399000Y-121722000D03*
D22*
X144399000Y-125222000D03*
D23*
X123825000Y-111125000D03*
D24*
X123825000Y-113665000D03*
X123825000Y-116205000D03*
X123825000Y-118745000D03*
X123825000Y-121285000D03*
X123825000Y-123825000D03*
D23*
X113665000Y-146685000D03*
D24*
X111125000Y-146685000D03*
X108585000Y-146685000D03*
X103505000Y-111760000D03*
X103505000Y-114300000D03*
X103505000Y-116840000D03*
X103505000Y-119380000D03*
X103505000Y-121920000D03*
D23*
X103505000Y-124460000D03*
D24*
X126365000Y-123825000D03*
X126365000Y-121285000D03*
X126365000Y-118745000D03*
X126365000Y-116205000D03*
X126365000Y-113665000D03*
D23*
X126365000Y-111125000D03*
X128905000Y-111125000D03*
D24*
X128905000Y-113665000D03*
X128905000Y-116205000D03*
X128905000Y-118745000D03*
X128905000Y-121285000D03*
X128905000Y-123825000D03*
D25*
X132080000Y-109220000D03*
X116205000Y-105410000D03*
D26*
X120650000Y-136525000D03*
D25*
X137795000Y-119380000D03*
D27*
X132080000Y-109220000D02*
X130810000Y-107950000D01*
X130810000Y-107950000D02*
X127000000Y-107950000D01*
X126365000Y-108585000D02*
X126365000Y-111125000D01*
X127000000Y-107950000D02*
X126365000Y-108585000D01*
X126365000Y-111125000D02*
X126365000Y-123825000D01*
X129540000Y-128270000D02*
X129540000Y-130175000D01*
X126365000Y-123825000D02*
X126365000Y-125095000D01*
X126365000Y-125095000D02*
X129540000Y-128270000D01*
X129540000Y-127635000D02*
X129540000Y-128270000D01*
D28*
X135255000Y-123825000D02*
X133350000Y-123825000D01*
X133350000Y-123825000D02*
X129540000Y-127635000D01*
X126365000Y-125095000D02*
X126365000Y-125730000D01*
X126365000Y-125730000D02*
X125730000Y-126365000D01*
X125730000Y-126365000D02*
X121285000Y-126365000D01*
X119380000Y-128270000D02*
X116840000Y-128270000D01*
X120332500Y-127317500D02*
X120332500Y-106362500D01*
X120332500Y-127317500D02*
X119380000Y-128270000D01*
X121285000Y-126365000D02*
X120332500Y-127317500D01*
X120332500Y-106362500D02*
X119380000Y-105410000D01*
X119380000Y-105410000D02*
X116205000Y-105410000D01*
X106680000Y-105410000D02*
X103505000Y-102235000D01*
X116205000Y-105410000D02*
X106680000Y-105410000D01*
D29*
X120650000Y-138430000D02*
X116840000Y-138430000D01*
X147320000Y-133350000D02*
X144780000Y-135890000D01*
X147320000Y-130175000D02*
X147320000Y-133350000D01*
X144780000Y-135890000D02*
X128270000Y-135890000D01*
X128270000Y-135890000D02*
X126365000Y-137795000D01*
X126365000Y-137795000D02*
X121285000Y-137795000D01*
X121285000Y-137795000D02*
X120650000Y-138430000D01*
X118745000Y-135890000D02*
X116840000Y-135890000D01*
X121920000Y-132715000D02*
X118745000Y-135890000D01*
X131445000Y-132715000D02*
X121920000Y-132715000D01*
X132080000Y-130175000D02*
X132080000Y-132080000D01*
X132080000Y-132080000D02*
X131445000Y-132715000D01*
X144780000Y-130175000D02*
X144780000Y-132080000D01*
X144780000Y-132080000D02*
X142875000Y-133985000D01*
X142875000Y-133985000D02*
X142240000Y-134620000D01*
X142240000Y-134620000D02*
X127000000Y-134620000D01*
X127000000Y-134620000D02*
X125095000Y-136525000D01*
X125095000Y-136525000D02*
X120650000Y-136525000D01*
D27*
X132080000Y-103759000D02*
X132080000Y-106045000D01*
X132080000Y-106045000D02*
X133350000Y-107315000D01*
X133350000Y-107315000D02*
X136525000Y-107315000D01*
X136525000Y-107315000D02*
X137795000Y-108585000D01*
X137795000Y-108585000D02*
X137795000Y-119380000D01*
D29*
X111760000Y-115570000D02*
X109220000Y-115570000D01*
X114935000Y-118745000D02*
X111760000Y-115570000D01*
X114935000Y-144165000D02*
X114935000Y-118745000D01*
X113665000Y-146685000D02*
X113665000Y-145435000D01*
X113665000Y-145435000D02*
X114935000Y-144165000D01*
X111760000Y-118110000D02*
X109220000Y-118110000D01*
X113665000Y-120015000D02*
X111760000Y-118110000D01*
X113665000Y-142240000D02*
X113665000Y-120015000D01*
X111125000Y-146685000D02*
X111125000Y-144780000D01*
X111125000Y-144780000D02*
X113665000Y-142240000D01*
X111125000Y-120650000D02*
X109220000Y-120650000D01*
X111760000Y-121285000D02*
X111125000Y-120650000D01*
X111760000Y-141605000D02*
X111760000Y-121285000D01*
X108585000Y-146685000D02*
X108585000Y-144780000D01*
X108585000Y-144780000D02*
X111760000Y-141605000D01*
X103505000Y-114300000D02*
X105410000Y-114300000D01*
X105410000Y-114300000D02*
X106680000Y-113030000D01*
X106680000Y-113030000D02*
X109220000Y-113030000D01*
D27*
X134620000Y-128270000D02*
X134620000Y-130175000D01*
X142438000Y-121722000D02*
X140335000Y-123825000D01*
X144399000Y-121722000D02*
X142438000Y-121722000D01*
X140335000Y-123825000D02*
X140335000Y-125095000D01*
X140335000Y-125095000D02*
X137795000Y-127635000D01*
X137795000Y-127635000D02*
X135255000Y-127635000D01*
X135255000Y-127635000D02*
X134620000Y-128270000D01*
D28*
X144399000Y-125222000D02*
X143383000Y-125222000D01*
D27*
X143383000Y-125222000D02*
X142240000Y-126365000D01*
X142240000Y-126365000D02*
X142240000Y-130175000D01*
M02*
