solid cruz
facet normal -1.6965031768491027e-15 3.716811878881447e-16 -1.0
outer loop
vertex 1.3944290913027542 18.84679728191707 5.357936316841005e-14
vertex 0.0 16.749999999999996 4.511946372076636e-14
vertex 0.0 18.499999999999993 5.357936316841005e-14
endloop
endfacet
facet normal -1.6965031768491027e-15 3.716811878881447e-16 -1.0
outer loop
vertex 0.0 16.749999999999996 4.511946372076636e-14
vertex 1.3944290913027542 18.84679728191707 5.357936316841005e-14
vertex 11.500000000000002 16.749999999999996 4.511946372076636e-14
endloop
endfacet
facet normal -1.6965031768491027e-15 3.716811878881447e-16 -1.0
outer loop
vertex 11.500000000000002 16.749999999999996 4.511946372076636e-14
vertex 1.3944290913027542 18.84679728191707 5.357936316841005e-14
vertex 2.7480042886971976 19.32901614344685 5.357936316841005e-14
endloop
endfacet
facet normal -1.6965031768491027e-15 3.716811878881447e-16 -1.0
outer loop
vertex 11.500000000000002 16.749999999999996 4.511946372076636e-14
vertex 2.7480042886971976 19.32901614344685 5.357936316841005e-14
vertex 4.047608731526464 19.941983628387877 5.357936316841005e-14
endloop
endfacet
facet normal -1.6965031768491027e-15 3.716811878881447e-16 -1.0
outer loop
vertex 11.500000000000002 16.749999999999996 4.511946372076636e-14
vertex 4.047608731526464 19.941983628387877 5.357936316841005e-14
vertex 5.280648564333931 20.679759757119772 5.357936316841005e-14
endloop
endfacet
facet normal -1.6965031768491027e-15 3.716811878881447e-16 -1.0
outer loop
vertex 11.500000000000002 16.749999999999996 4.511946372076636e-14
vertex 5.280648564333931 20.679759757119772 5.357936316841005e-14
vertex 6.435174977993632 21.535195088152204 5.357936316841005e-14
endloop
endfacet
facet normal -1.6965031768491027e-15 3.716811878881447e-16 -1.0
outer loop
vertex 11.500000000000002 16.749999999999996 4.511946372076636e-14
vertex 6.435174977993632 21.535195088152204 5.357936316841005e-14
vertex 7.5000000000000036 22.499999999999993 5.357936316841005e-14
endloop
endfacet
facet normal -1.6965031768491027e-15 3.716811878881447e-16 -1.0
outer loop
vertex 11.500000000000002 16.749999999999996 4.511946372076636e-14
vertex 7.5000000000000036 22.499999999999993 5.357936316841005e-14
vertex 8.464804911847793 23.564825022006367 5.357936316841005e-14
endloop
endfacet
facet normal -1.6965031768491027e-15 3.716811878881447e-16 -1.0
outer loop
vertex 11.500000000000002 16.749999999999996 4.511946372076636e-14
vertex 8.464804911847793 23.564825022006367 5.357936316841005e-14
vertex 9.320240242880223 24.71935143566607 5.357936316841005e-14
endloop
endfacet
facet normal -1.6965031768491027e-15 3.716811878881447e-16 -1.0
outer loop
vertex 11.500000000000002 16.749999999999996 4.511946372076636e-14
vertex 9.320240242880223 24.71935143566607 5.357936316841005e-14
vertex 10.05801637161212 25.952391268473534 5.357936316841005e-14
endloop
endfacet
facet normal -1.6965031768491027e-15 3.716811878881447e-16 -1.0
outer loop
vertex 11.500000000000002 16.749999999999996 4.511946372076636e-14
vertex 10.05801637161212 25.952391268473534 5.357936316841005e-14
vertex 10.670983856553146 27.251995711302804 5.357936316841005e-14
endloop
endfacet
facet normal -1.6965031768491027e-15 3.716811878881447e-16 -1.0
outer loop
vertex 11.500000000000002 16.749999999999996 4.511946372076636e-14
vertex 10.670983856553146 27.251995711302804 5.357936316841005e-14
vertex 11.153202718082925 28.605570908697246 5.357936316841005e-14
endloop
endfacet
facet normal -1.6965031768491027e-15 3.716811878881447e-16 -1.0
outer loop
vertex 11.500000000000002 16.749999999999996 4.511946372076636e-14
vertex 11.153202718082925 28.605570908697246 5.357936316841005e-14
vertex 11.500000000000002 30.0 5.357936316841005e-14
endloop
endfacet
facet normal -1.6965031768491027e-15 3.716811878881447e-16 -1.0
outer loop
vertex 11.500000000000002 16.749999999999996 4.511946372076636e-14
vertex 11.500000000000002 30.0 5.357936316841005e-14
vertex 13.250000000000002 30.0 3.665956427312267e-14
endloop
endfacet
facet normal -1.6965031768491027e-15 3.716811878881447e-16 -1.0
outer loop
vertex 11.500000000000002 16.749999999999996 4.511946372076636e-14
vertex 13.250000000000002 30.0 3.665956427312267e-14
vertex 11.500000000000002 13.250000000000004 4.511946372076636e-14
endloop
endfacet
facet normal -1.6965031768491027e-15 3.716811878881447e-16 -1.0
outer loop
vertex 11.500000000000002 13.250000000000004 4.511946372076636e-14
vertex 13.250000000000002 30.0 3.665956427312267e-14
vertex 11.500000000000002 0.0 3.101963130802687e-14
endloop
endfacet
facet normal -1.6965031768491027e-15 3.716811878881447e-16 -1.0
outer loop
vertex 11.500000000000002 0.0 3.101963130802687e-14
vertex 13.250000000000002 30.0 3.665956427312267e-14
vertex 13.250000000000002 6.130361918582385e-17 2.5379698342931078e-14
endloop
endfacet
facet normal -1.6965031768491027e-15 3.716811878881447e-16 -1.0
outer loop
vertex 13.250000000000002 6.130361918582385e-17 2.5379698342931078e-14
vertex 13.250000000000002 30.0 3.665956427312267e-14
vertex 13.250000000000004 18.499999999999993 3.665956427312267e-14
endloop
endfacet
facet normal -1.6965031768491027e-15 3.716811878881447e-16 -1.0
outer loop
vertex 13.250000000000002 6.130361918582385e-17 2.5379698342931078e-14
vertex 13.250000000000004 18.499999999999993 3.665956427312267e-14
vertex 13.250000000000004 11.500000000000002 2.5379698342931078e-14
endloop
endfacet
facet normal -1.6965031768491027e-15 3.716811878881447e-16 -1.0
outer loop
vertex 13.250000000000004 11.500000000000002 2.5379698342931078e-14
vertex 13.250000000000004 18.499999999999993 3.665956427312267e-14
vertex 14.051316701949483 15.316227766016835 2.8516661724887766e-14
endloop
endfacet
facet normal -1.6965031768491027e-15 3.716811878881447e-16 -1.0
outer loop
vertex 14.051316701949483 15.316227766016835 2.8516661724887766e-14
vertex 13.250000000000004 18.499999999999993 3.665956427312267e-14
vertex 14.165488069879297 15.550989871491502 2.841022629472357e-14
endloop
endfacet
facet normal -1.6965031768491027e-15 3.716811878881447e-16 -1.0
outer loop
vertex 14.165488069879297 15.550989871491502 2.841022629472357e-14
vertex 13.250000000000004 18.499999999999993 3.665956427312267e-14
vertex 14.336530046750667 15.74820292777784 2.8193353420614302e-14
endloop
endfacet
facet normal -1.6965031768491027e-15 3.716811878881447e-16 -1.0
outer loop
vertex 14.336530046750667 15.74820292777784 2.8193353420614302e-14
vertex 13.250000000000004 18.499999999999993 3.665956427312267e-14
vertex 16.75 18.499999999999993 3.665956427312267e-14
endloop
endfacet
facet normal -1.6965031768491027e-15 3.716811878881447e-16 -1.0
outer loop
vertex 13.250000000000004 11.500000000000002 2.5379698342931078e-14
vertex 14.051316701949483 15.316227766016835 2.8516661724887766e-14
vertex 14.001796533008534 15.059915260879214 2.850540631243405e-14
endloop
endfacet
facet normal -1.6965031768491027e-15 3.716811878881447e-16 -1.0
outer loop
vertex 14.336530046750667 15.74820292777784 2.8193353420614302e-14
vertex 16.75 18.499999999999993 3.665956427312267e-14
vertex 14.552786404500036 15.894427190999915 2.7880822630531123e-14
endloop
endfacet
facet normal -1.6965031768491027e-15 3.716811878881447e-16 -1.0
outer loop
vertex 14.552786404500036 15.894427190999915 2.7880822630531123e-14
vertex 16.75 18.499999999999993 3.665956427312267e-14
vertex 14.79951962972732 15.979697719266168 2.7493932381336662e-14
endloop
endfacet
facet normal -1.6965031768491027e-15 3.716811878881447e-16 -1.0
outer loop
vertex 14.79951962972732 15.979697719266168 2.7493932381336662e-14
vertex 16.75 18.499999999999993 3.665956427312267e-14
vertex 15.059915260879212 15.998203466991464 2.705904860414715e-14
endloop
endfacet
facet normal -1.6965031768491027e-15 3.716811878881447e-16 -1.0
outer loop
vertex 15.059915260879212 15.998203466991464 2.705904860414715e-14
vertex 16.75 18.499999999999993 3.665956427312267e-14
vertex 15.316227766016834 15.948683298050515 2.6605807909698635e-14
endloop
endfacet
facet normal -1.6965031768491027e-15 3.716811878881447e-16 -1.0
outer loop
vertex 15.316227766016834 15.948683298050515 2.6605807909698635e-14
vertex 16.75 18.499999999999993 3.665956427312267e-14
vertex 15.5509898714915 15.834511930120701 2.616509790230211e-14
endloop
endfacet
facet normal -1.6965031768491027e-15 3.716811878881447e-16 -1.0
outer loop
vertex 15.5509898714915 15.834511930120701 2.616509790230211e-14
vertex 16.75 18.499999999999993 3.665956427312267e-14
vertex 15.748202927777834 15.663469953249333 2.5766952240653934e-14
endloop
endfacet
facet normal -1.6965031768491027e-15 3.716811878881447e-16 -1.0
outer loop
vertex 15.748202927777834 15.663469953249333 2.5766952240653934e-14
vertex 16.75 18.499999999999993 3.665956427312267e-14
vertex 15.894427190999913 15.447213595499962 2.5438503893628618e-14
endloop
endfacet
facet normal -1.6965031768491027e-15 3.716811878881447e-16 -1.0
outer loop
vertex 15.894427190999913 15.447213595499962 2.5438503893628618e-14
vertex 16.75 18.499999999999993 3.665956427312267e-14
vertex 15.979697719266165 15.200480370272679 2.520213607328937e-14
endloop
endfacet
facet normal -1.6965031768491027e-15 3.716811878881447e-16 -1.0
outer loop
vertex 15.979697719266165 15.200480370272679 2.520213607328937e-14
vertex 16.75 18.499999999999993 3.665956427312267e-14
vertex 15.99820346699146 14.940084739120786 2.5073956855976022e-14
endloop
endfacet
facet normal -1.6965031768491027e-15 3.716811878881447e-16 -1.0
outer loop
vertex 18.846797281917077 28.605570908697242 2.8199664825478975e-15
vertex 18.5 16.749999999999996 8.459899447643692e-15
vertex 18.5 30.0 2.8199664825478975e-15
endloop
endfacet
facet normal -1.6965031768491027e-15 3.716811878881447e-16 -1.0
outer loop
vertex 18.5 16.749999999999996 8.459899447643692e-15
vertex 18.846797281917077 28.605570908697242 2.8199664825478975e-15
vertex 19.329016143446857 27.251995711302797 2.8199664825478975e-15
endloop
endfacet
facet normal -1.6965031768491027e-15 3.716811878881447e-16 -1.0
outer loop
vertex 18.5 16.749999999999996 8.459899447643692e-15
vertex 19.329016143446857 27.251995711302797 2.8199664825478975e-15
vertex 19.941983628387884 25.952391268473534 2.8199664825478975e-15
endloop
endfacet
facet normal -1.6965031768491027e-15 3.716811878881447e-16 -1.0
outer loop
vertex 18.5 16.749999999999996 8.459899447643692e-15
vertex 19.941983628387884 25.952391268473534 2.8199664825478975e-15
vertex 20.679759757119783 24.71935143566607 2.8199664825478975e-15
endloop
endfacet
facet normal -1.6965031768491027e-15 3.716811878881447e-16 -1.0
outer loop
vertex 18.5 16.749999999999996 8.459899447643692e-15
vertex 20.679759757119783 24.71935143566607 2.8199664825478975e-15
vertex 21.535195088152214 23.564825022006367 2.8199664825478975e-15
endloop
endfacet
facet normal -1.6965031768491027e-15 3.716811878881447e-16 -1.0
outer loop
vertex 18.5 16.749999999999996 8.459899447643692e-15
vertex 21.535195088152214 23.564825022006367 2.8199664825478975e-15
vertex 22.5 22.499999999999993 2.8199664825478975e-15
endloop
endfacet
facet normal -1.6965031768491027e-15 3.716811878881447e-16 -1.0
outer loop
vertex 18.5 16.749999999999996 8.459899447643692e-15
vertex 22.5 22.499999999999993 2.8199664825478975e-15
vertex 23.56482502200637 21.53519508815221 2.8199664825478975e-15
endloop
endfacet
facet normal -1.6965031768491027e-15 3.716811878881447e-16 -1.0
outer loop
vertex 18.5 16.749999999999996 8.459899447643692e-15
vertex 23.56482502200637 21.53519508815221 2.8199664825478975e-15
vertex 30.0 16.749999999999996 8.459899447643692e-15
endloop
endfacet
facet normal -1.6965031768491027e-15 3.716811878881447e-16 -1.0
outer loop
vertex 30.0 16.749999999999996 8.459899447643692e-15
vertex 23.56482502200637 21.53519508815221 2.8199664825478975e-15
vertex 24.719351435666074 20.67975975711978 2.8199664825478975e-15
endloop
endfacet
facet normal -1.6965031768491027e-15 3.716811878881447e-16 -1.0
outer loop
vertex 30.0 16.749999999999996 8.459899447643692e-15
vertex 24.719351435666074 20.67975975711978 2.8199664825478975e-15
vertex 25.95239126847354 19.94198362838788 2.8199664825478975e-15
endloop
endfacet
facet normal -1.6965031768491027e-15 3.716811878881447e-16 -1.0
outer loop
vertex 30.0 16.749999999999996 8.459899447643692e-15
vertex 25.95239126847354 19.94198362838788 2.8199664825478975e-15
vertex 27.251995711302804 19.329016143446857 2.8199664825478975e-15
endloop
endfacet
facet normal -1.6965031768491027e-15 3.716811878881447e-16 -1.0
outer loop
vertex 30.0 16.749999999999996 8.459899447643692e-15
vertex 27.251995711302804 19.329016143446857 2.8199664825478975e-15
vertex 28.605570908697246 18.846797281917077 2.8199664825478975e-15
endloop
endfacet
facet normal -1.6965031768491027e-15 3.716811878881447e-16 -1.0
outer loop
vertex 30.0 16.749999999999996 8.459899447643692e-15
vertex 28.605570908697246 18.846797281917077 2.8199664825478975e-15
vertex 30.0 18.499999999999993 2.8199664825478975e-15
endloop
endfacet
facet normal -1.6965031768491027e-15 3.716811878881447e-16 -1.0
outer loop
vertex 18.5 30.0 2.8199664825478975e-15
vertex 16.75 18.499999999999993 3.665956427312267e-14
vertex 16.75 30.0 3.665956427312267e-14
endloop
endfacet
facet normal -1.6965031768491027e-15 3.716811878881447e-16 -1.0
outer loop
vertex 16.75 18.499999999999993 3.665956427312267e-14
vertex 18.5 30.0 2.8199664825478975e-15
vertex 16.75 11.500000000000002 2.5379698342931078e-14
endloop
endfacet
facet normal -1.6965031768491027e-15 3.716811878881447e-16 -1.0
outer loop
vertex 16.75 11.500000000000002 2.5379698342931078e-14
vertex 18.5 30.0 2.8199664825478975e-15
vertex 16.75 0.0 2.5379698342931078e-14
endloop
endfacet
facet normal -1.6965031768491027e-15 3.716811878881447e-16 -1.0
outer loop
vertex 16.75 0.0 2.5379698342931078e-14
vertex 18.5 30.0 2.8199664825478975e-15
vertex 18.5 0.0 1.127986593019159e-14
endloop
endfacet
facet normal -1.6965031768491027e-15 3.716811878881447e-16 -1.0
outer loop
vertex 18.5 0.0 1.127986593019159e-14
vertex 18.5 30.0 2.8199664825478975e-15
vertex 18.5 16.749999999999996 8.459899447643692e-15
endloop
endfacet
facet normal -1.6965031768491027e-15 3.716811878881447e-16 -1.0
outer loop
vertex 18.5 0.0 1.127986593019159e-14
vertex 18.5 16.749999999999996 8.459899447643692e-15
vertex 18.5 13.250000000000004 8.459899447643692e-15
endloop
endfacet
facet normal -1.6965031768491027e-15 3.716811878881447e-16 -1.0
outer loop
vertex 18.5 0.0 1.127986593019159e-14
vertex 18.5 13.250000000000004 8.459899447643692e-15
vertex 18.846797281917084 1.3944290913027515 1.127986593019159e-14
endloop
endfacet
facet normal -1.6965031768491027e-15 3.716811878881447e-16 -1.0
outer loop
vertex 18.846797281917084 1.3944290913027515 1.127986593019159e-14
vertex 18.5 13.250000000000004 8.459899447643692e-15
vertex 19.329016143446864 2.7480042886971976 1.127986593019159e-14
endloop
endfacet
facet normal -1.6965031768491027e-15 3.716811878881447e-16 -1.0
outer loop
vertex 19.329016143446864 2.7480042886971976 1.127986593019159e-14
vertex 18.5 13.250000000000004 8.459899447643692e-15
vertex 19.941983628387884 4.047608731526464 1.127986593019159e-14
endloop
endfacet
facet normal -1.6965031768491027e-15 3.716811878881447e-16 -1.0
outer loop
vertex 19.941983628387884 4.047608731526464 1.127986593019159e-14
vertex 18.5 13.250000000000004 8.459899447643692e-15
vertex 20.679759757119786 5.280648564333931 1.127986593019159e-14
endloop
endfacet
facet normal -1.6965031768491027e-15 3.716811878881447e-16 -1.0
outer loop
vertex 20.679759757119786 5.280648564333931 1.127986593019159e-14
vertex 18.5 13.250000000000004 8.459899447643692e-15
vertex 21.535195088152214 6.435174977993632 1.127986593019159e-14
endloop
endfacet
facet normal -1.6965031768491027e-15 3.716811878881447e-16 -1.0
outer loop
vertex 21.535195088152214 6.435174977993632 1.127986593019159e-14
vertex 18.5 13.250000000000004 8.459899447643692e-15
vertex 22.5 7.500000000000002 1.127986593019159e-14
endloop
endfacet
facet normal -1.6965031768491027e-15 3.716811878881447e-16 -1.0
outer loop
vertex 22.5 7.500000000000002 1.127986593019159e-14
vertex 18.5 13.250000000000004 8.459899447643692e-15
vertex 23.564825022006374 8.464804911847793 1.127986593019159e-14
endloop
endfacet
facet normal -1.6965031768491027e-15 3.716811878881447e-16 -1.0
outer loop
vertex 23.564825022006374 8.464804911847793 1.127986593019159e-14
vertex 18.5 13.250000000000004 8.459899447643692e-15
vertex 30.0 13.250000000000002 8.459899447643692e-15
endloop
endfacet
facet normal -1.6965031768491027e-15 3.716811878881447e-16 -1.0
outer loop
vertex 23.564825022006374 8.464804911847793 1.127986593019159e-14
vertex 30.0 13.250000000000002 8.459899447643692e-15
vertex 24.719351435666074 9.320240242880223 1.127986593019159e-14
endloop
endfacet
facet normal -1.6965031768491027e-15 3.716811878881447e-16 -1.0
outer loop
vertex 24.719351435666074 9.320240242880223 1.127986593019159e-14
vertex 30.0 13.250000000000002 8.459899447643692e-15
vertex 25.952391268473544 10.05801637161212 1.127986593019159e-14
endloop
endfacet
facet normal -1.6965031768491027e-15 3.716811878881447e-16 -1.0
outer loop
vertex 25.952391268473544 10.05801637161212 1.127986593019159e-14
vertex 30.0 13.250000000000002 8.459899447643692e-15
vertex 27.251995711302804 10.670983856553146 1.127986593019159e-14
endloop
endfacet
facet normal -1.6965031768491027e-15 3.716811878881447e-16 -1.0
outer loop
vertex 27.251995711302804 10.670983856553146 1.127986593019159e-14
vertex 30.0 13.250000000000002 8.459899447643692e-15
vertex 28.605570908697253 11.153202718082929 1.127986593019159e-14
endloop
endfacet
facet normal -1.6965031768491027e-15 3.716811878881447e-16 -1.0
outer loop
vertex 28.605570908697253 11.153202718082929 1.127986593019159e-14
vertex 30.0 13.250000000000002 8.459899447643692e-15
vertex 30.0 11.500000000000002 1.127986593019159e-14
endloop
endfacet
facet normal -1.6965031768491027e-15 3.716811878881447e-16 -1.0
outer loop
vertex 13.250000000000004 11.500000000000002 2.5379698342931078e-14
vertex 14.251797072222159 14.336530046750669 2.781241092775614e-14
vertex 16.75 11.500000000000002 2.5379698342931078e-14
endloop
endfacet
facet normal -1.6965031768491027e-15 3.716811878881447e-16 -1.0
outer loop
vertex 14.251797072222159 14.336530046750669 2.781241092775614e-14
vertex 13.250000000000004 11.500000000000002 2.5379698342931078e-14
vertex 14.105572809000083 14.55278640450004 2.8140859274781455e-14
endloop
endfacet
facet normal -1.6965031768491027e-15 3.716811878881447e-16 -1.0
outer loop
vertex 14.105572809000083 14.55278640450004 2.8140859274781455e-14
vertex 13.250000000000004 11.500000000000002 2.5379698342931078e-14
vertex 14.02030228073383 14.799519629727325 2.8377227095120702e-14
endloop
endfacet
facet normal -1.6965031768491027e-15 3.716811878881447e-16 -1.0
outer loop
vertex 14.02030228073383 14.799519629727325 2.8377227095120702e-14
vertex 13.250000000000004 11.500000000000002 2.5379698342931078e-14
vertex 14.001796533008534 15.059915260879214 2.850540631243405e-14
endloop
endfacet
facet normal -1.6965031768491027e-15 3.716811878881447e-16 -1.0
outer loop
vertex 16.75 11.500000000000002 2.5379698342931078e-14
vertex 14.251797072222159 14.336530046750669 2.781241092775614e-14
vertex 14.449010128508496 14.1654880698793 2.741426526610796e-14
endloop
endfacet
facet normal -1.6965031768491027e-15 3.716811878881447e-16 -1.0
outer loop
vertex 16.75 11.500000000000002 2.5379698342931078e-14
vertex 14.449010128508496 14.1654880698793 2.741426526610796e-14
vertex 14.683772233983163 14.051316701949485 2.697355525871144e-14
endloop
endfacet
facet normal -1.6965031768491027e-15 3.716811878881447e-16 -1.0
outer loop
vertex 16.75 11.500000000000002 2.5379698342931078e-14
vertex 14.683772233983163 14.051316701949485 2.697355525871144e-14
vertex 14.940084739120785 14.001796533008537 2.6520314564262923e-14
endloop
endfacet
facet normal -1.6965031768491027e-15 3.716811878881447e-16 -1.0
outer loop
vertex 16.75 11.500000000000002 2.5379698342931078e-14
vertex 14.940084739120785 14.001796533008537 2.6520314564262923e-14
vertex 15.200480370272674 14.020302280733834 2.608543078707341e-14
endloop
endfacet
facet normal -1.6965031768491027e-15 3.716811878881447e-16 -1.0
outer loop
vertex 16.75 11.500000000000002 2.5379698342931078e-14
vertex 15.200480370272674 14.020302280733834 2.608543078707341e-14
vertex 15.44721359549996 14.105572809000087 2.5698540537878947e-14
endloop
endfacet
facet normal -1.6965031768491027e-15 3.716811878881447e-16 -1.0
outer loop
vertex 16.75 11.500000000000002 2.5379698342931078e-14
vertex 15.44721359549996 14.105572809000087 2.5698540537878947e-14
vertex 15.663469953249333 14.251797072222164 2.538600974779577e-14
endloop
endfacet
facet normal -1.6965031768491027e-15 3.716811878881447e-16 -1.0
outer loop
vertex 16.75 11.500000000000002 2.5379698342931078e-14
vertex 15.663469953249333 14.251797072222164 2.538600974779577e-14
vertex 15.834511930120698 14.4490101285085 2.5169136873686502e-14
endloop
endfacet
facet normal -1.6965031768491027e-15 3.716811878881447e-16 -1.0
outer loop
vertex 16.75 11.500000000000002 2.5379698342931078e-14
vertex 15.834511930120698 14.4490101285085 2.5169136873686502e-14
vertex 15.948683298050513 14.683772233983165 2.5062701443522307e-14
endloop
endfacet
facet normal -1.6965031768491027e-15 3.716811878881447e-16 -1.0
outer loop
vertex 16.75 11.500000000000002 2.5379698342931078e-14
vertex 15.948683298050513 14.683772233983165 2.5062701443522307e-14
vertex 15.99820346699146 14.940084739120786 2.5073956855976022e-14
endloop
endfacet
facet normal -1.6965031768491027e-15 3.716811878881447e-16 -1.0
outer loop
vertex 16.75 11.500000000000002 2.5379698342931078e-14
vertex 15.99820346699146 14.940084739120786 2.5073956855976022e-14
vertex 16.75 18.499999999999993 3.665956427312267e-14
endloop
endfacet
facet normal -1.6965031768491027e-15 3.716811878881447e-16 -1.0
outer loop
vertex 6.130361918582384e-17 13.250000000000002 4.511946372076636e-14
vertex 1.3944290913027515 11.15320271808292 3.101963130802687e-14
vertex 0.0 11.500000000000002 3.101963130802687e-14
endloop
endfacet
facet normal -1.6965031768491027e-15 3.716811878881447e-16 -1.0
outer loop
vertex 1.3944290913027515 11.15320271808292 3.101963130802687e-14
vertex 6.130361918582384e-17 13.250000000000002 4.511946372076636e-14
vertex 11.500000000000002 13.250000000000004 4.511946372076636e-14
endloop
endfacet
facet normal -1.6965031768491027e-15 3.716811878881447e-16 -1.0
outer loop
vertex 1.3944290913027515 11.15320271808292 3.101963130802687e-14
vertex 11.500000000000002 13.250000000000004 4.511946372076636e-14
vertex 2.7480042886971976 10.67098385655314 3.101963130802687e-14
endloop
endfacet
facet normal -1.6965031768491027e-15 3.716811878881447e-16 -1.0
outer loop
vertex 2.7480042886971976 10.67098385655314 3.101963130802687e-14
vertex 11.500000000000002 13.250000000000004 4.511946372076636e-14
vertex 4.047608731526464 10.05801637161212 3.101963130802687e-14
endloop
endfacet
facet normal -1.6965031768491027e-15 3.716811878881447e-16 -1.0
outer loop
vertex 4.047608731526464 10.05801637161212 3.101963130802687e-14
vertex 11.500000000000002 13.250000000000004 4.511946372076636e-14
vertex 5.280648564333931 9.32024024288022 3.101963130802687e-14
endloop
endfacet
facet normal -1.6965031768491027e-15 3.716811878881447e-16 -1.0
outer loop
vertex 5.280648564333931 9.32024024288022 3.101963130802687e-14
vertex 11.500000000000002 13.250000000000004 4.511946372076636e-14
vertex 6.435174977993632 8.464804911847791 3.101963130802687e-14
endloop
endfacet
facet normal -1.6965031768491027e-15 3.716811878881447e-16 -1.0
outer loop
vertex 6.435174977993632 8.464804911847791 3.101963130802687e-14
vertex 11.500000000000002 13.250000000000004 4.511946372076636e-14
vertex 7.5000000000000036 7.500000000000002 3.101963130802687e-14
endloop
endfacet
facet normal -1.6965031768491027e-15 3.716811878881447e-16 -1.0
outer loop
vertex 7.5000000000000036 7.500000000000002 3.101963130802687e-14
vertex 11.500000000000002 13.250000000000004 4.511946372076636e-14
vertex 8.464804911847793 6.435174977993629 3.101963130802687e-14
endloop
endfacet
facet normal -1.6965031768491027e-15 3.716811878881447e-16 -1.0
outer loop
vertex 8.464804911847793 6.435174977993629 3.101963130802687e-14
vertex 11.500000000000002 13.250000000000004 4.511946372076636e-14
vertex 9.320240242880223 5.280648564333928 3.101963130802687e-14
endloop
endfacet
facet normal -1.6965031768491027e-15 3.716811878881447e-16 -1.0
outer loop
vertex 9.320240242880223 5.280648564333928 3.101963130802687e-14
vertex 11.500000000000002 13.250000000000004 4.511946372076636e-14
vertex 10.05801637161212 4.047608731526459 3.101963130802687e-14
endloop
endfacet
facet normal -1.6965031768491027e-15 3.716811878881447e-16 -1.0
outer loop
vertex 10.05801637161212 4.047608731526459 3.101963130802687e-14
vertex 11.500000000000002 13.250000000000004 4.511946372076636e-14
vertex 10.670983856553146 2.7480042886971963 3.101963130802687e-14
endloop
endfacet
facet normal -1.6965031768491027e-15 3.716811878881447e-16 -1.0
outer loop
vertex 10.670983856553146 2.7480042886971963 3.101963130802687e-14
vertex 11.500000000000002 13.250000000000004 4.511946372076636e-14
vertex 11.153202718082929 1.39442909130275 3.101963130802687e-14
endloop
endfacet
facet normal -1.6965031768491027e-15 3.716811878881447e-16 -1.0
outer loop
vertex 11.153202718082929 1.39442909130275 3.101963130802687e-14
vertex 11.500000000000002 13.250000000000004 4.511946372076636e-14
vertex 11.500000000000002 0.0 3.101963130802687e-14
endloop
endfacet
facet normal -0.0 1.0 -0.0
outer loop
vertex 16.75 30.0 3.665956427312267e-14
vertex 18.5 30.0 50.0
vertex 18.5 30.0 2.8199664825478975e-15
endloop
endfacet
facet normal -0.0 1.0 -0.0
outer loop
vertex 18.5 30.0 50.0
vertex 16.75 30.0 3.665956427312267e-14
vertex 16.75 30.0 50.0
endloop
endfacet
facet normal 1.0 -0.0 -0.0
outer loop
vertex 30.0 13.250000000000002 8.459899447643692e-15
vertex 30.0 11.500000000000002 50.0
vertex 30.0 11.500000000000002 1.127986593019159e-14
endloop
endfacet
facet normal 1.0 -0.0 -0.0
outer loop
vertex 30.0 11.500000000000002 50.0
vertex 30.0 13.250000000000002 8.459899447643692e-15
vertex 30.0 13.250000000000002 50.0
endloop
endfacet
facet normal 0.0 -1.0 0.0
outer loop
vertex 13.250000000000002 6.130361918582385e-17 50.0
vertex 11.500000000000002 0.0 3.101963130802687e-14
vertex 13.250000000000002 6.130361918582385e-17 2.5379698342931078e-14
endloop
endfacet
facet normal 0.0 -1.0 0.0
outer loop
vertex 11.500000000000002 0.0 3.101963130802687e-14
vertex 13.250000000000002 6.130361918582385e-17 50.0
vertex 11.500000000000002 0.0 50.0
endloop
endfacet
facet normal -1.0 0.0 0.0
outer loop
vertex 0.0 18.499999999999993 50.0
vertex 0.0 16.749999999999996 4.511946372076636e-14
vertex 0.0 16.749999999999996 50.0
endloop
endfacet
facet normal -1.0 0.0 0.0
outer loop
vertex 0.0 16.749999999999996 4.511946372076636e-14
vertex 0.0 18.499999999999993 50.0
vertex 0.0 18.499999999999993 5.357936316841005e-14
endloop
endfacet
facet normal 2.534375913871006e-30 -1.641339443612692e-30 1.0
outer loop
vertex 18.846797281917084 1.3944290913027515 50.0
vertex 18.5 13.250000000000004 50.0
vertex 18.5 0.0 50.0
endloop
endfacet
facet normal 2.534375913871006e-30 -1.641339443612692e-30 1.0
outer loop
vertex 18.5 13.250000000000004 50.0
vertex 18.846797281917084 1.3944290913027515 50.0
vertex 19.329016143446864 2.7480042886971976 50.0
endloop
endfacet
facet normal 2.534375913871006e-30 -1.641339443612692e-30 1.0
outer loop
vertex 18.5 13.250000000000004 50.0
vertex 19.329016143446864 2.7480042886971976 50.0
vertex 19.941983628387884 4.047608731526464 50.0
endloop
endfacet
facet normal 2.534375913871006e-30 -1.641339443612692e-30 1.0
outer loop
vertex 18.5 13.250000000000004 50.0
vertex 19.941983628387884 4.047608731526464 50.0
vertex 20.679759757119786 5.280648564333931 50.0
endloop
endfacet
facet normal 2.534375913871006e-30 -1.641339443612692e-30 1.0
outer loop
vertex 18.5 13.250000000000004 50.0
vertex 20.679759757119786 5.280648564333931 50.0
vertex 21.535195088152214 6.435174977993632 50.0
endloop
endfacet
facet normal 2.534375913871006e-30 -1.641339443612692e-30 1.0
outer loop
vertex 18.5 13.250000000000004 50.0
vertex 21.535195088152214 6.435174977993632 50.0
vertex 22.5 7.500000000000002 50.0
endloop
endfacet
facet normal 2.534375913871006e-30 -1.641339443612692e-30 1.0
outer loop
vertex 18.5 13.250000000000004 50.0
vertex 22.5 7.500000000000002 50.0
vertex 23.564825022006374 8.464804911847793 50.0
endloop
endfacet
facet normal 2.534375913871006e-30 -1.641339443612692e-30 1.0
outer loop
vertex 18.5 13.250000000000004 50.0
vertex 23.564825022006374 8.464804911847793 50.0
vertex 30.0 13.250000000000002 50.0
endloop
endfacet
facet normal 2.534375913871006e-30 -1.641339443612692e-30 1.0
outer loop
vertex 30.0 13.250000000000002 50.0
vertex 23.564825022006374 8.464804911847793 50.0
vertex 24.719351435666074 9.320240242880223 50.0
endloop
endfacet
facet normal 2.534375913871006e-30 -1.641339443612692e-30 1.0
outer loop
vertex 30.0 13.250000000000002 50.0
vertex 24.719351435666074 9.320240242880223 50.0
vertex 25.952391268473544 10.05801637161212 50.0
endloop
endfacet
facet normal 2.534375913871006e-30 -1.641339443612692e-30 1.0
outer loop
vertex 30.0 13.250000000000002 50.0
vertex 25.952391268473544 10.05801637161212 50.0
vertex 27.251995711302804 10.670983856553146 50.0
endloop
endfacet
facet normal 2.534375913871006e-30 -1.641339443612692e-30 1.0
outer loop
vertex 30.0 13.250000000000002 50.0
vertex 27.251995711302804 10.670983856553146 50.0
vertex 28.605570908697253 11.153202718082929 50.0
endloop
endfacet
facet normal 2.534375913871006e-30 -1.641339443612692e-30 1.0
outer loop
vertex 30.0 13.250000000000002 50.0
vertex 28.605570908697253 11.153202718082929 50.0
vertex 30.0 11.500000000000002 50.0
endloop
endfacet
facet normal 2.534375913871006e-30 -1.641339443612692e-30 1.0
outer loop
vertex 18.5 0.0 50.0
vertex 16.75 11.500000000000002 50.0
vertex 16.75 0.0 50.0
endloop
endfacet
facet normal 2.534375913871006e-30 -1.641339443612692e-30 1.0
outer loop
vertex 16.75 11.500000000000002 50.0
vertex 18.5 0.0 50.0
vertex 16.75 18.499999999999993 50.0
endloop
endfacet
facet normal 2.534375913871006e-30 -1.641339443612692e-30 1.0
outer loop
vertex 16.75 18.499999999999993 50.0
vertex 18.5 0.0 50.0
vertex 16.75 30.0 50.0
endloop
endfacet
facet normal 2.534375913871006e-30 -1.641339443612692e-30 1.0
outer loop
vertex 16.75 30.0 50.0
vertex 18.5 0.0 50.0
vertex 18.5 30.0 50.0
endloop
endfacet
facet normal 2.534375913871006e-30 -1.641339443612692e-30 1.0
outer loop
vertex 18.5 30.0 50.0
vertex 18.5 0.0 50.0
vertex 18.5 13.250000000000004 50.0
endloop
endfacet
facet normal 2.534375913871006e-30 -1.641339443612692e-30 1.0
outer loop
vertex 18.5 30.0 50.0
vertex 18.5 13.250000000000004 50.0
vertex 18.5 16.749999999999996 50.0
endloop
endfacet
facet normal 2.534375913871006e-30 -1.641339443612692e-30 1.0
outer loop
vertex 18.5 30.0 50.0
vertex 18.5 16.749999999999996 50.0
vertex 18.846797281917077 28.605570908697242 50.0
endloop
endfacet
facet normal 2.534375913871006e-30 -1.641339443612692e-30 1.0
outer loop
vertex 18.846797281917077 28.605570908697242 50.0
vertex 18.5 16.749999999999996 50.0
vertex 19.329016143446857 27.251995711302797 50.0
endloop
endfacet
facet normal 2.534375913871006e-30 -1.641339443612692e-30 1.0
outer loop
vertex 19.329016143446857 27.251995711302797 50.0
vertex 18.5 16.749999999999996 50.0
vertex 19.941983628387884 25.952391268473534 50.0
endloop
endfacet
facet normal 2.534375913871006e-30 -1.641339443612692e-30 1.0
outer loop
vertex 19.941983628387884 25.952391268473534 50.0
vertex 18.5 16.749999999999996 50.0
vertex 20.679759757119783 24.71935143566607 50.0
endloop
endfacet
facet normal 2.534375913871006e-30 -1.641339443612692e-30 1.0
outer loop
vertex 20.679759757119783 24.71935143566607 50.0
vertex 18.5 16.749999999999996 50.0
vertex 21.535195088152214 23.564825022006367 50.0
endloop
endfacet
facet normal 2.534375913871006e-30 -1.641339443612692e-30 1.0
outer loop
vertex 21.535195088152214 23.564825022006367 50.0
vertex 18.5 16.749999999999996 50.0
vertex 22.5 22.499999999999993 50.0
endloop
endfacet
facet normal 2.534375913871006e-30 -1.641339443612692e-30 1.0
outer loop
vertex 22.5 22.499999999999993 50.0
vertex 18.5 16.749999999999996 50.0
vertex 23.56482502200637 21.53519508815221 50.0
endloop
endfacet
facet normal 2.534375913871006e-30 -1.641339443612692e-30 1.0
outer loop
vertex 23.56482502200637 21.53519508815221 50.0
vertex 18.5 16.749999999999996 50.0
vertex 30.0 16.749999999999996 50.0
endloop
endfacet
facet normal 2.534375913871006e-30 -1.641339443612692e-30 1.0
outer loop
vertex 23.56482502200637 21.53519508815221 50.0
vertex 30.0 16.749999999999996 50.0
vertex 24.719351435666074 20.67975975711978 50.0
endloop
endfacet
facet normal 2.534375913871006e-30 -1.641339443612692e-30 1.0
outer loop
vertex 24.719351435666074 20.67975975711978 50.0
vertex 30.0 16.749999999999996 50.0
vertex 25.95239126847354 19.94198362838788 50.0
endloop
endfacet
facet normal 2.534375913871006e-30 -1.641339443612692e-30 1.0
outer loop
vertex 25.95239126847354 19.94198362838788 50.0
vertex 30.0 16.749999999999996 50.0
vertex 27.251995711302804 19.329016143446857 50.0
endloop
endfacet
facet normal 2.534375913871006e-30 -1.641339443612692e-30 1.0
outer loop
vertex 27.251995711302804 19.329016143446857 50.0
vertex 30.0 16.749999999999996 50.0
vertex 28.605570908697246 18.846797281917077 50.0
endloop
endfacet
facet normal 2.534375913871006e-30 -1.641339443612692e-30 1.0
outer loop
vertex 28.605570908697246 18.846797281917077 50.0
vertex 30.0 16.749999999999996 50.0
vertex 30.0 18.499999999999993 50.0
endloop
endfacet
facet normal 2.534375913871006e-30 -1.641339443612692e-30 1.0
outer loop
vertex 1.3944290913027515 11.15320271808292 50.0
vertex 6.130361918582384e-17 13.250000000000002 50.0
vertex 0.0 11.500000000000002 50.0
endloop
endfacet
facet normal 2.534375913871006e-30 -1.641339443612692e-30 1.0
outer loop
vertex 6.130361918582384e-17 13.250000000000002 50.0
vertex 1.3944290913027515 11.15320271808292 50.0
vertex 11.500000000000002 13.250000000000004 50.0
endloop
endfacet
facet normal 2.534375913871006e-30 -1.641339443612692e-30 1.0
outer loop
vertex 11.500000000000002 13.250000000000004 50.0
vertex 1.3944290913027515 11.15320271808292 50.0
vertex 2.7480042886971976 10.67098385655314 50.0
endloop
endfacet
facet normal 2.534375913871006e-30 -1.641339443612692e-30 1.0
outer loop
vertex 11.500000000000002 13.250000000000004 50.0
vertex 2.7480042886971976 10.67098385655314 50.0
vertex 4.047608731526464 10.05801637161212 50.0
endloop
endfacet
facet normal 2.534375913871006e-30 -1.641339443612692e-30 1.0
outer loop
vertex 11.500000000000002 13.250000000000004 50.0
vertex 4.047608731526464 10.05801637161212 50.0
vertex 5.280648564333931 9.32024024288022 50.0
endloop
endfacet
facet normal 2.534375913871006e-30 -1.641339443612692e-30 1.0
outer loop
vertex 11.500000000000002 13.250000000000004 50.0
vertex 5.280648564333931 9.32024024288022 50.0
vertex 6.435174977993632 8.464804911847791 50.0
endloop
endfacet
facet normal 2.534375913871006e-30 -1.641339443612692e-30 1.0
outer loop
vertex 11.500000000000002 13.250000000000004 50.0
vertex 6.435174977993632 8.464804911847791 50.0
vertex 7.5000000000000036 7.500000000000002 50.0
endloop
endfacet
facet normal 2.534375913871006e-30 -1.641339443612692e-30 1.0
outer loop
vertex 11.500000000000002 13.250000000000004 50.0
vertex 7.5000000000000036 7.500000000000002 50.0
vertex 8.464804911847793 6.435174977993629 50.0
endloop
endfacet
facet normal 2.534375913871006e-30 -1.641339443612692e-30 1.0
outer loop
vertex 11.500000000000002 13.250000000000004 50.0
vertex 8.464804911847793 6.435174977993629 50.0
vertex 9.320240242880223 5.280648564333928 50.0
endloop
endfacet
facet normal 2.534375913871006e-30 -1.641339443612692e-30 1.0
outer loop
vertex 11.500000000000002 13.250000000000004 50.0
vertex 9.320240242880223 5.280648564333928 50.0
vertex 10.05801637161212 4.047608731526459 50.0
endloop
endfacet
facet normal 2.534375913871006e-30 -1.641339443612692e-30 1.0
outer loop
vertex 11.500000000000002 13.250000000000004 50.0
vertex 10.05801637161212 4.047608731526459 50.0
vertex 10.670983856553146 2.7480042886971963 50.0
endloop
endfacet
facet normal 2.534375913871006e-30 -1.641339443612692e-30 1.0
outer loop
vertex 11.500000000000002 13.250000000000004 50.0
vertex 10.670983856553146 2.7480042886971963 50.0
vertex 11.153202718082929 1.39442909130275 50.0
endloop
endfacet
facet normal 2.534375913871006e-30 -1.641339443612692e-30 1.0
outer loop
vertex 11.500000000000002 13.250000000000004 50.0
vertex 11.153202718082929 1.39442909130275 50.0
vertex 11.500000000000002 0.0 50.0
endloop
endfacet
facet normal 2.534375913871006e-30 -1.641339443612692e-30 1.0
outer loop
vertex 11.500000000000002 13.250000000000004 50.0
vertex 11.500000000000002 0.0 50.0
vertex 13.250000000000002 6.130361918582385e-17 50.0
endloop
endfacet
facet normal 2.534375913871006e-30 -1.641339443612692e-30 1.0
outer loop
vertex 11.500000000000002 13.250000000000004 50.0
vertex 13.250000000000002 6.130361918582385e-17 50.0
vertex 11.500000000000002 16.749999999999996 50.0
endloop
endfacet
facet normal 2.534375913871006e-30 -1.641339443612692e-30 1.0
outer loop
vertex 11.500000000000002 16.749999999999996 50.0
vertex 13.250000000000002 6.130361918582385e-17 50.0
vertex 11.500000000000002 30.0 50.0
endloop
endfacet
facet normal 2.534375913871006e-30 -1.641339443612692e-30 1.0
outer loop
vertex 11.500000000000002 30.0 50.0
vertex 13.250000000000002 6.130361918582385e-17 50.0
vertex 13.250000000000002 30.0 50.0
endloop
endfacet
facet normal 2.534375913871006e-30 -1.641339443612692e-30 1.0
outer loop
vertex 13.250000000000002 30.0 50.0
vertex 13.250000000000002 6.130361918582385e-17 50.0
vertex 13.250000000000004 11.500000000000002 50.0
endloop
endfacet
facet normal 2.534375913871006e-30 -1.641339443612692e-30 1.0
outer loop
vertex 13.250000000000002 30.0 50.0
vertex 13.250000000000004 11.500000000000002 50.0
vertex 13.250000000000004 18.499999999999993 50.0
endloop
endfacet
facet normal 2.534375913871006e-30 -1.641339443612692e-30 1.0
outer loop
vertex 13.250000000000004 18.499999999999993 50.0
vertex 13.250000000000004 11.500000000000002 50.0
vertex 16.75 11.500000000000002 50.0
endloop
endfacet
facet normal 2.534375913871006e-30 -1.641339443612692e-30 1.0
outer loop
vertex 13.250000000000004 18.499999999999993 50.0
vertex 16.75 11.500000000000002 50.0
vertex 16.75 18.499999999999993 50.0
endloop
endfacet
facet normal 2.534375913871006e-30 -1.641339443612692e-30 1.0
outer loop
vertex 11.500000000000002 16.749999999999996 50.0
vertex 0.0 18.499999999999993 50.0
vertex 0.0 16.749999999999996 50.0
endloop
endfacet
facet normal 2.534375913871006e-30 -1.641339443612692e-30 1.0
outer loop
vertex 0.0 18.499999999999993 50.0
vertex 11.500000000000002 16.749999999999996 50.0
vertex 1.3944290913027542 18.84679728191707 50.0
endloop
endfacet
facet normal 2.534375913871006e-30 -1.641339443612692e-30 1.0
outer loop
vertex 1.3944290913027542 18.84679728191707 50.0
vertex 11.500000000000002 16.749999999999996 50.0
vertex 2.7480042886971976 19.32901614344685 50.0
endloop
endfacet
facet normal 2.534375913871006e-30 -1.641339443612692e-30 1.0
outer loop
vertex 2.7480042886971976 19.32901614344685 50.0
vertex 11.500000000000002 16.749999999999996 50.0
vertex 4.047608731526464 19.941983628387877 50.0
endloop
endfacet
facet normal 2.534375913871006e-30 -1.641339443612692e-30 1.0
outer loop
vertex 4.047608731526464 19.941983628387877 50.0
vertex 11.500000000000002 16.749999999999996 50.0
vertex 5.280648564333931 20.679759757119772 50.0
endloop
endfacet
facet normal 2.534375913871006e-30 -1.641339443612692e-30 1.0
outer loop
vertex 5.280648564333931 20.679759757119772 50.0
vertex 11.500000000000002 16.749999999999996 50.0
vertex 6.435174977993632 21.535195088152204 50.0
endloop
endfacet
facet normal 2.534375913871006e-30 -1.641339443612692e-30 1.0
outer loop
vertex 6.435174977993632 21.535195088152204 50.0
vertex 11.500000000000002 16.749999999999996 50.0
vertex 7.5000000000000036 22.499999999999993 50.0
endloop
endfacet
facet normal 2.534375913871006e-30 -1.641339443612692e-30 1.0
outer loop
vertex 7.5000000000000036 22.499999999999993 50.0
vertex 11.500000000000002 16.749999999999996 50.0
vertex 8.464804911847793 23.564825022006367 50.0
endloop
endfacet
facet normal 2.534375913871006e-30 -1.641339443612692e-30 1.0
outer loop
vertex 8.464804911847793 23.564825022006367 50.0
vertex 11.500000000000002 16.749999999999996 50.0
vertex 9.320240242880223 24.71935143566607 50.0
endloop
endfacet
facet normal 2.534375913871006e-30 -1.641339443612692e-30 1.0
outer loop
vertex 9.320240242880223 24.71935143566607 50.0
vertex 11.500000000000002 16.749999999999996 50.0
vertex 10.05801637161212 25.952391268473534 50.0
endloop
endfacet
facet normal 2.534375913871006e-30 -1.641339443612692e-30 1.0
outer loop
vertex 10.05801637161212 25.952391268473534 50.0
vertex 11.500000000000002 16.749999999999996 50.0
vertex 10.670983856553146 27.251995711302804 50.0
endloop
endfacet
facet normal 2.534375913871006e-30 -1.641339443612692e-30 1.0
outer loop
vertex 10.670983856553146 27.251995711302804 50.0
vertex 11.500000000000002 16.749999999999996 50.0
vertex 11.153202718082925 28.605570908697246 50.0
endloop
endfacet
facet normal 2.534375913871006e-30 -1.641339443612692e-30 1.0
outer loop
vertex 11.153202718082925 28.605570908697246 50.0
vertex 11.500000000000002 16.749999999999996 50.0
vertex 11.500000000000002 30.0 50.0
endloop
endfacet
facet normal 0.24134989663571427 -0.9704381625811767 0.0
outer loop
vertex 30.0 11.500000000000002 50.0
vertex 28.605570908697253 11.153202718082929 1.127986593019159e-14
vertex 30.0 11.500000000000002 1.127986593019159e-14
endloop
endfacet
facet normal 0.2888225715272255 -0.9573826414639033 0.0
outer loop
vertex 28.605570908697253 11.153202718082929 1.127986593019159e-14
vertex 30.0 11.500000000000002 50.0
vertex 28.605570908697253 11.153202718082929 50.0
endloop
endfacet
facet normal 0.2888225715272255 -0.9573826414639033 0.0
outer loop
vertex 28.605570908697253 11.153202718082929 50.0
vertex 27.251995711302804 10.670983856553146 1.127986593019159e-14
vertex 28.605570908697253 11.153202718082929 1.127986593019159e-14
endloop
endfacet
facet normal 0.3815541342464626 -0.9243464949029842 0.0
outer loop
vertex 27.251995711302804 10.670983856553146 1.127986593019159e-14
vertex 28.605570908697253 11.153202718082929 50.0
vertex 27.251995711302804 10.670983856553146 50.0
endloop
endfacet
facet normal 0.3815541342464626 -0.9243464949029842 0.0
outer loop
vertex 27.251995711302804 10.670983856553146 50.0
vertex 25.952391268473544 10.05801637161212 1.127986593019159e-14
vertex 27.251995711302804 10.670983856553146 1.127986593019159e-14
endloop
endfacet
facet normal 0.4705882352941178 -0.8823529411764706 0.0
outer loop
vertex 25.952391268473544 10.05801637161212 1.127986593019159e-14
vertex 27.251995711302804 10.670983856553146 50.0
vertex 25.952391268473544 10.05801637161212 50.0
endloop
endfacet
facet normal 0.4705882352941178 -0.8823529411764706 0.0
outer loop
vertex 25.952391268473544 10.05801637161212 50.0
vertex 24.719351435666074 9.320240242880223 1.127986593019159e-14
vertex 25.952391268473544 10.05801637161212 1.127986593019159e-14
endloop
endfacet
facet normal 0.5550620870693276 -0.8318089200641228 0.0
outer loop
vertex 24.719351435666074 9.320240242880223 1.127986593019159e-14
vertex 25.952391268473544 10.05801637161212 50.0
vertex 24.719351435666074 9.320240242880223 50.0
endloop
endfacet
facet normal 0.5550620870693276 -0.8318089200641228 0.0
outer loop
vertex 24.719351435666074 9.320240242880223 50.0
vertex 23.564825022006374 8.464804911847793 1.127986593019159e-14
vertex 24.719351435666074 9.320240242880223 1.127986593019159e-14
endloop
endfacet
facet normal 0.6341570932022601 -0.7732042299038852 0.0
outer loop
vertex 23.564825022006374 8.464804911847793 1.127986593019159e-14
vertex 24.719351435666074 9.320240242880223 50.0
vertex 23.564825022006374 8.464804911847793 50.0
endloop
endfacet
facet normal 0.6341570932022601 -0.7732042299038852 0.0
outer loop
vertex 23.564825022006374 8.464804911847793 50.0
vertex 22.5 7.500000000000002 1.127986593019159e-14
vertex 23.564825022006374 8.464804911847793 1.127986593019159e-14
endloop
endfacet
facet normal 0.7071067811865476 -0.7071067811865475 0.0
outer loop
vertex 22.5 7.500000000000002 1.127986593019159e-14
vertex 23.564825022006374 8.464804911847793 50.0
vertex 22.5 7.500000000000002 50.0
endloop
endfacet
facet normal 0.7071067811865476 -0.7071067811865475 0.0
outer loop
vertex 22.5 7.500000000000002 1.127986593019159e-14
vertex 21.535195088152214 6.435174977993632 50.0
vertex 21.535195088152214 6.435174977993632 1.127986593019159e-14
endloop
endfacet
facet normal 0.7732042299038855 -0.6341570932022597 0.0
outer loop
vertex 21.535195088152214 6.435174977993632 50.0
vertex 22.5 7.500000000000002 1.127986593019159e-14
vertex 22.5 7.500000000000002 50.0
endloop
endfacet
facet normal 0.7732042299038855 -0.6341570932022597 0.0
outer loop
vertex 21.535195088152214 6.435174977993632 1.127986593019159e-14
vertex 20.679759757119786 5.280648564333931 50.0
vertex 20.679759757119786 5.280648564333931 1.127986593019159e-14
endloop
endfacet
facet normal 0.8318089200641219 -0.5550620870693286 0.0
outer loop
vertex 20.679759757119786 5.280648564333931 50.0
vertex 21.535195088152214 6.435174977993632 1.127986593019159e-14
vertex 21.535195088152214 6.435174977993632 50.0
endloop
endfacet
facet normal 0.8318089200641219 -0.5550620870693286 0.0
outer loop
vertex 20.679759757119786 5.280648564333931 1.127986593019159e-14
vertex 19.941983628387884 4.047608731526464 50.0
vertex 19.941983628387884 4.047608731526464 1.127986593019159e-14
endloop
endfacet
facet normal 0.882352941176471 -0.4705882352941168 0.0
outer loop
vertex 19.941983628387884 4.047608731526464 50.0
vertex 20.679759757119786 5.280648564333931 1.127986593019159e-14
vertex 20.679759757119786 5.280648564333931 50.0
endloop
endfacet
facet normal 0.882352941176471 -0.4705882352941168 0.0
outer loop
vertex 19.941983628387884 4.047608731526464 1.127986593019159e-14
vertex 19.329016143446864 2.7480042886971976 50.0
vertex 19.329016143446864 2.7480042886971976 1.127986593019159e-14
endloop
endfacet
facet normal 0.9243464949029853 -0.3815541342464594 0.0
outer loop
vertex 19.329016143446864 2.7480042886971976 50.0
vertex 19.941983628387884 4.047608731526464 1.127986593019159e-14
vertex 19.941983628387884 4.047608731526464 50.0
endloop
endfacet
facet normal 0.9243464949029853 -0.3815541342464594 0.0
outer loop
vertex 19.329016143446864 2.7480042886971976 1.127986593019159e-14
vertex 18.846797281917084 1.3944290913027515 50.0
vertex 18.846797281917084 1.3944290913027515 1.127986593019159e-14
endloop
endfacet
facet normal 0.9573826414639025 -0.2888225715272278 0.0
outer loop
vertex 18.846797281917084 1.3944290913027515 50.0
vertex 19.329016143446864 2.7480042886971976 1.127986593019159e-14
vertex 19.329016143446864 2.7480042886971976 50.0
endloop
endfacet
facet normal 0.9573826414639025 -0.2888225715272278 0.0
outer loop
vertex 18.846797281917084 1.3944290913027515 1.127986593019159e-14
vertex 18.5 0.0 50.0
vertex 18.5 0.0 1.127986593019159e-14
endloop
endfacet
facet normal 0.9704381625811752 -0.2413498966357203 -0.0
outer loop
vertex 18.5 0.0 50.0
vertex 18.846797281917084 1.3944290913027515 1.127986593019159e-14
vertex 18.846797281917084 1.3944290913027515 50.0
endloop
endfacet
facet normal 0.9704381625811764 0.2413498966357152 1.5354122350971943e-33
outer loop
vertex 18.5 30.0 2.8199664825478975e-15
vertex 18.846797281917077 28.605570908697242 50.0
vertex 18.846797281917077 28.605570908697242 2.8199664825478975e-15
endloop
endfacet
facet normal 0.9573826414639031 0.2888225715272256 7.686377455018199e-34
outer loop
vertex 18.846797281917077 28.605570908697242 50.0
vertex 18.5 30.0 2.8199664825478975e-15
vertex 18.5 30.0 50.0
endloop
endfacet
facet normal 0.9573826414639031 0.2888225715272256 7.686377455018199e-34
outer loop
vertex 18.846797281917077 28.605570908697242 2.8199664825478975e-15
vertex 19.329016143446857 27.251995711302797 50.0
vertex 19.329016143446857 27.251995711302797 2.8199664825478975e-15
endloop
endfacet
facet normal 0.9243464949029845 0.3815541342464616 0.0
outer loop
vertex 19.329016143446857 27.251995711302797 50.0
vertex 18.846797281917077 28.605570908697242 2.8199664825478975e-15
vertex 18.846797281917077 28.605570908697242 50.0
endloop
endfacet
facet normal 0.9243464949029845 0.3815541342464616 0.0
outer loop
vertex 19.329016143446857 27.251995711302797 2.8199664825478975e-15
vertex 19.941983628387884 25.952391268473534 50.0
vertex 19.941983628387884 25.952391268473534 2.8199664825478975e-15
endloop
endfacet
facet normal 0.8823529411764702 0.4705882352941182 0.0
outer loop
vertex 19.941983628387884 25.952391268473534 50.0
vertex 19.329016143446857 27.251995711302797 2.8199664825478975e-15
vertex 19.329016143446857 27.251995711302797 50.0
endloop
endfacet
facet normal 0.8823529411764702 0.4705882352941182 0.0
outer loop
vertex 19.941983628387884 25.952391268473534 2.8199664825478975e-15
vertex 20.679759757119783 24.71935143566607 50.0
vertex 20.679759757119783 24.71935143566607 2.8199664825478975e-15
endloop
endfacet
facet normal 0.8318089200641218 0.5550620870693289 0.0
outer loop
vertex 20.679759757119783 24.71935143566607 50.0
vertex 19.941983628387884 25.952391268473534 2.8199664825478975e-15
vertex 19.941983628387884 25.952391268473534 50.0
endloop
endfacet
facet normal 0.8318089200641218 0.5550620870693289 0.0
outer loop
vertex 20.679759757119783 24.71935143566607 2.8199664825478975e-15
vertex 21.535195088152214 23.564825022006367 50.0
vertex 21.535195088152214 23.564825022006367 2.8199664825478975e-15
endloop
endfacet
facet normal 0.7732042299038857 0.6341570932022592 0.0
outer loop
vertex 21.535195088152214 23.564825022006367 50.0
vertex 20.679759757119783 24.71935143566607 2.8199664825478975e-15
vertex 20.679759757119783 24.71935143566607 50.0
endloop
endfacet
facet normal 0.7732042299038857 0.6341570932022592 0.0
outer loop
vertex 21.535195088152214 23.564825022006367 2.8199664825478975e-15
vertex 22.5 22.499999999999993 50.0
vertex 22.5 22.499999999999993 2.8199664825478975e-15
endloop
endfacet
facet normal 0.7071067811865472 0.7071067811865476 0.0
outer loop
vertex 22.5 22.499999999999993 50.0
vertex 21.535195088152214 23.564825022006367 2.8199664825478975e-15
vertex 21.535195088152214 23.564825022006367 50.0
endloop
endfacet
facet normal 0.7071067811865472 0.7071067811865476 0.0
outer loop
vertex 22.5 22.499999999999993 50.0
vertex 23.56482502200637 21.53519508815221 2.8199664825478975e-15
vertex 22.5 22.499999999999993 2.8199664825478975e-15
endloop
endfacet
facet normal 0.6341570932022591 0.7732042299038858 0.0
outer loop
vertex 23.56482502200637 21.53519508815221 2.8199664825478975e-15
vertex 22.5 22.499999999999993 50.0
vertex 23.56482502200637 21.53519508815221 50.0
endloop
endfacet
facet normal 0.6341570932022591 0.7732042299038858 0.0
outer loop
vertex 23.56482502200637 21.53519508815221 50.0
vertex 24.719351435666074 20.67975975711978 2.8199664825478975e-15
vertex 23.56482502200637 21.53519508815221 2.8199664825478975e-15
endloop
endfacet
facet normal 0.5550620870693286 0.8318089200641219 0.0
outer loop
vertex 24.719351435666074 20.67975975711978 2.8199664825478975e-15
vertex 23.56482502200637 21.53519508815221 50.0
vertex 24.719351435666074 20.67975975711978 50.0
endloop
endfacet
facet normal 0.5550620870693286 0.8318089200641219 0.0
outer loop
vertex 24.719351435666074 20.67975975711978 50.0
vertex 25.95239126847354 19.94198362838788 2.8199664825478975e-15
vertex 24.719351435666074 20.67975975711978 2.8199664825478975e-15
endloop
endfacet
facet normal 0.4705882352941171 0.8823529411764708 0.0
outer loop
vertex 25.95239126847354 19.94198362838788 2.8199664825478975e-15
vertex 24.719351435666074 20.67975975711978 50.0
vertex 25.95239126847354 19.94198362838788 50.0
endloop
endfacet
facet normal 0.4705882352941171 0.8823529411764708 0.0
outer loop
vertex 25.95239126847354 19.94198362838788 50.0
vertex 27.251995711302804 19.329016143446857 2.8199664825478975e-15
vertex 25.95239126847354 19.94198362838788 2.8199664825478975e-15
endloop
endfacet
facet normal 0.38155413424646173 0.9243464949029845 0.0
outer loop
vertex 27.251995711302804 19.329016143446857 2.8199664825478975e-15
vertex 25.95239126847354 19.94198362838788 50.0
vertex 27.251995711302804 19.329016143446857 50.0
endloop
endfacet
facet normal 0.38155413424646173 0.9243464949029845 0.0
outer loop
vertex 27.251995711302804 19.329016143446857 50.0
vertex 28.605570908697246 18.846797281917077 2.8199664825478975e-15
vertex 27.251995711302804 19.329016143446857 2.8199664825478975e-15
endloop
endfacet
facet normal 0.2888225715272279 0.9573826414639025 1.5452987795581724e-33
outer loop
vertex 28.605570908697246 18.846797281917077 2.8199664825478975e-15
vertex 27.251995711302804 19.329016143446857 50.0
vertex 28.605570908697246 18.846797281917077 50.0
endloop
endfacet
facet normal 0.2888225715272279 0.9573826414639025 1.5452987795581724e-33
outer loop
vertex 28.605570908697246 18.846797281917077 50.0
vertex 30.0 18.499999999999993 2.8199664825478975e-15
vertex 28.605570908697246 18.846797281917077 2.8199664825478975e-15
endloop
endfacet
facet normal 0.24134989663571796 0.9704381625811757 3.086851598037689e-33
outer loop
vertex 30.0 18.499999999999993 2.8199664825478975e-15
vertex 28.605570908697246 18.846797281917077 50.0
vertex 30.0 18.499999999999993 50.0
endloop
endfacet
facet normal -0.6341570932022605 0.7732042299038848 0.0
outer loop
vertex 6.435174977993632 21.535195088152204 50.0
vertex 7.5000000000000036 22.499999999999993 5.357936316841005e-14
vertex 6.435174977993632 21.535195088152204 5.357936316841005e-14
endloop
endfacet
facet normal -0.707106781186548 0.7071067811865471 0.0
outer loop
vertex 7.5000000000000036 22.499999999999993 5.357936316841005e-14
vertex 6.435174977993632 21.535195088152204 50.0
vertex 7.5000000000000036 22.499999999999993 50.0
endloop
endfacet
facet normal -0.7732042299038855 0.6341570932022598 0.0
outer loop
vertex 8.464804911847793 23.564825022006367 50.0
vertex 7.5000000000000036 22.499999999999993 5.357936316841005e-14
vertex 7.5000000000000036 22.499999999999993 50.0
endloop
endfacet
facet normal -0.707106781186548 0.7071067811865471 0.0
outer loop
vertex 7.5000000000000036 22.499999999999993 5.357936316841005e-14
vertex 8.464804911847793 23.564825022006367 50.0
vertex 8.464804911847793 23.564825022006367 5.357936316841005e-14
endloop
endfacet
facet normal -0.8318089200641223 0.5550620870693284 0.0
outer loop
vertex 9.320240242880223 24.71935143566607 50.0
vertex 8.464804911847793 23.564825022006367 5.357936316841005e-14
vertex 8.464804911847793 23.564825022006367 50.0
endloop
endfacet
facet normal -0.7732042299038855 0.6341570932022598 0.0
outer loop
vertex 8.464804911847793 23.564825022006367 5.357936316841005e-14
vertex 9.320240242880223 24.71935143566607 50.0
vertex 9.320240242880223 24.71935143566607 5.357936316841005e-14
endloop
endfacet
facet normal -0.8823529411764708 0.4705882352941171 0.0
outer loop
vertex 10.05801637161212 25.952391268473534 50.0
vertex 9.320240242880223 24.71935143566607 5.357936316841005e-14
vertex 9.320240242880223 24.71935143566607 50.0
endloop
endfacet
facet normal -0.8318089200641223 0.5550620870693284 0.0
outer loop
vertex 9.320240242880223 24.71935143566607 5.357936316841005e-14
vertex 10.05801637161212 25.952391268473534 50.0
vertex 10.05801637161212 25.952391268473534 5.357936316841005e-14
endloop
endfacet
facet normal -0.9243464949029848 0.3815541342464609 0.0
outer loop
vertex 10.670983856553146 27.251995711302804 50.0
vertex 10.05801637161212 25.952391268473534 5.357936316841005e-14
vertex 10.05801637161212 25.952391268473534 50.0
endloop
endfacet
facet normal -0.8823529411764708 0.4705882352941171 0.0
outer loop
vertex 10.05801637161212 25.952391268473534 5.357936316841005e-14
vertex 10.670983856553146 27.251995711302804 50.0
vertex 10.670983856553146 27.251995711302804 5.357936316841005e-14
endloop
endfacet
facet normal -0.9573826414639031 0.2888225715272256 1.087407344967865e-19
outer loop
vertex 11.153202718082925 28.605570908697246 50.0
vertex 10.670983856553146 27.251995711302804 5.357936316841005e-14
vertex 10.670983856553146 27.251995711302804 50.0
endloop
endfacet
facet normal -0.9243464949029848 0.3815541342464609 0.0
outer loop
vertex 10.670983856553146 27.251995711302804 5.357936316841005e-14
vertex 11.153202718082925 28.605570908697246 50.0
vertex 11.153202718082925 28.605570908697246 5.357936316841005e-14
endloop
endfacet
facet normal -0.9704381625811764 0.24134989663571518 2.1721787041672962e-19
outer loop
vertex 11.500000000000002 30.0 50.0
vertex 11.153202718082925 28.605570908697246 5.357936316841005e-14
vertex 11.153202718082925 28.605570908697246 50.0
endloop
endfacet
facet normal -0.9573826414639031 0.2888225715272256 1.087407344967865e-19
outer loop
vertex 11.153202718082925 28.605570908697246 5.357936316841005e-14
vertex 11.500000000000002 30.0 50.0
vertex 11.500000000000002 30.0 5.357936316841005e-14
endloop
endfacet
facet normal -0.24134989663571427 0.9704381625811767 2.172178704167312e-19
outer loop
vertex 0.0 18.499999999999993 50.0
vertex 1.3944290913027542 18.84679728191707 5.357936316841005e-14
vertex 0.0 18.499999999999993 5.357936316841005e-14
endloop
endfacet
facet normal -0.2888225715272252 0.9573826414639033 1.087407344967873e-19
outer loop
vertex 1.3944290913027542 18.84679728191707 5.357936316841005e-14
vertex 0.0 18.499999999999993 50.0
vertex 1.3944290913027542 18.84679728191707 50.0
endloop
endfacet
facet normal -0.2888225715272252 0.9573826414639033 1.087407344967873e-19
outer loop
vertex 1.3944290913027542 18.84679728191707 50.0
vertex 2.7480042886971976 19.32901614344685 5.357936316841005e-14
vertex 1.3944290913027542 18.84679728191707 5.357936316841005e-14
endloop
endfacet
facet normal -0.3815541342464615 0.9243464949029846 0.0
outer loop
vertex 2.7480042886971976 19.32901614344685 5.357936316841005e-14
vertex 1.3944290913027542 18.84679728191707 50.0
vertex 2.7480042886971976 19.32901614344685 50.0
endloop
endfacet
facet normal -0.3815541342464615 0.9243464949029846 0.0
outer loop
vertex 2.7480042886971976 19.32901614344685 50.0
vertex 4.047608731526464 19.941983628387877 5.357936316841005e-14
vertex 2.7480042886971976 19.32901614344685 5.357936316841005e-14
endloop
endfacet
facet normal -0.4705882352941177 0.8823529411764706 0.0
outer loop
vertex 4.047608731526464 19.941983628387877 5.357936316841005e-14
vertex 2.7480042886971976 19.32901614344685 50.0
vertex 4.047608731526464 19.941983628387877 50.0
endloop
endfacet
facet normal -0.4705882352941177 0.8823529411764706 0.0
outer loop
vertex 4.047608731526464 19.941983628387877 50.0
vertex 5.280648564333931 20.679759757119772 5.357936316841005e-14
vertex 4.047608731526464 19.941983628387877 5.357936316841005e-14
endloop
endfacet
facet normal -0.5550620870693286 0.8318089200641219 0.0
outer loop
vertex 5.280648564333931 20.679759757119772 5.357936316841005e-14
vertex 4.047608731526464 19.941983628387877 50.0
vertex 5.280648564333931 20.679759757119772 50.0
endloop
endfacet
facet normal -0.5550620870693286 0.8318089200641219 0.0
outer loop
vertex 5.280648564333931 20.679759757119772 50.0
vertex 6.435174977993632 21.535195088152204 5.357936316841005e-14
vertex 5.280648564333931 20.679759757119772 5.357936316841005e-14
endloop
endfacet
facet normal -0.6341570932022605 0.7732042299038848 0.0
outer loop
vertex 6.435174977993632 21.535195088152204 5.357936316841005e-14
vertex 5.280648564333931 20.679759757119772 50.0
vertex 6.435174977993632 21.535195088152204 50.0
endloop
endfacet
facet normal -0.7071067811865478 -0.7071067811865472 0.0
outer loop
vertex 7.5000000000000036 7.500000000000002 50.0
vertex 8.464804911847793 6.435174977993629 3.101963130802687e-14
vertex 8.464804911847793 6.435174977993629 50.0
endloop
endfacet
facet normal -0.7732042299038849 -0.6341570932022603 0.0
outer loop
vertex 8.464804911847793 6.435174977993629 3.101963130802687e-14
vertex 7.5000000000000036 7.500000000000002 50.0
vertex 7.5000000000000036 7.500000000000002 3.101963130802687e-14
endloop
endfacet
facet normal -0.7071067811865478 -0.7071067811865472 0.0
outer loop
vertex 7.5000000000000036 7.500000000000002 50.0
vertex 6.435174977993632 8.464804911847791 3.101963130802687e-14
vertex 7.5000000000000036 7.500000000000002 3.101963130802687e-14
endloop
endfacet
facet normal -0.63415709320226 -0.7732042299038852 0.0
outer loop
vertex 6.435174977993632 8.464804911847791 3.101963130802687e-14
vertex 7.5000000000000036 7.500000000000002 50.0
vertex 6.435174977993632 8.464804911847791 50.0
endloop
endfacet
facet normal -0.63415709320226 -0.7732042299038852 0.0
outer loop
vertex 6.435174977993632 8.464804911847791 50.0
vertex 5.280648564333931 9.32024024288022 3.101963130802687e-14
vertex 6.435174977993632 8.464804911847791 3.101963130802687e-14
endloop
endfacet
facet normal -0.5550620870693284 -0.8318089200641221 0.0
outer loop
vertex 5.280648564333931 9.32024024288022 3.101963130802687e-14
vertex 6.435174977993632 8.464804911847791 50.0
vertex 5.280648564333931 9.32024024288022 50.0
endloop
endfacet
facet normal -0.5550620870693284 -0.8318089200641221 0.0
outer loop
vertex 5.280648564333931 9.32024024288022 50.0
vertex 4.047608731526464 10.05801637161212 3.101963130802687e-14
vertex 5.280648564333931 9.32024024288022 3.101963130802687e-14
endloop
endfacet
facet normal -0.4705882352941168 -0.882352941176471 0.0
outer loop
vertex 4.047608731526464 10.05801637161212 3.101963130802687e-14
vertex 5.280648564333931 9.32024024288022 50.0
vertex 4.047608731526464 10.05801637161212 50.0
endloop
endfacet
facet normal -0.4705882352941168 -0.882352941176471 0.0
outer loop
vertex 4.047608731526464 10.05801637161212 50.0
vertex 2.7480042886971976 10.67098385655314 3.101963130802687e-14
vertex 4.047608731526464 10.05801637161212 3.101963130802687e-14
endloop
endfacet
facet normal -0.3815541342464594 -0.9243464949029853 0.0
outer loop
vertex 2.7480042886971976 10.67098385655314 3.101963130802687e-14
vertex 4.047608731526464 10.05801637161212 50.0
vertex 2.7480042886971976 10.67098385655314 50.0
endloop
endfacet
facet normal -0.3815541342464594 -0.9243464949029853 0.0
outer loop
vertex 2.7480042886971976 10.67098385655314 50.0
vertex 1.3944290913027515 11.15320271808292 3.101963130802687e-14
vertex 2.7480042886971976 10.67098385655314 3.101963130802687e-14
endloop
endfacet
facet normal -0.28882257152722735 -0.9573826414639026 7.726493897790869e-34
outer loop
vertex 1.3944290913027515 11.15320271808292 3.101963130802687e-14
vertex 2.7480042886971976 10.67098385655314 50.0
vertex 1.3944290913027515 11.15320271808292 50.0
endloop
endfacet
facet normal -0.28882257152722735 -0.9573826414639026 7.726493897790869e-34
outer loop
vertex 1.3944290913027515 11.15320271808292 50.0
vertex 0.0 11.500000000000002 3.101963130802687e-14
vertex 1.3944290913027515 11.15320271808292 3.101963130802687e-14
endloop
endfacet
facet normal -0.24134989663571932 -0.9704381625811754 1.5434257990188463e-33
outer loop
vertex 0.0 11.500000000000002 3.101963130802687e-14
vertex 1.3944290913027515 11.15320271808292 50.0
vertex 0.0 11.500000000000002 50.0
endloop
endfacet
facet normal -0.9573826414639031 -0.2888225715272257 -7.72649389779088e-34
outer loop
vertex 11.153202718082929 1.39442909130275 50.0
vertex 11.500000000000002 0.0 3.101963130802687e-14
vertex 11.500000000000002 0.0 50.0
endloop
endfacet
facet normal -0.9704381625811767 -0.24134989663571405 -1.543425799018848e-33
outer loop
vertex 11.500000000000002 0.0 3.101963130802687e-14
vertex 11.153202718082929 1.39442909130275 50.0
vertex 11.153202718082929 1.39442909130275 3.101963130802687e-14
endloop
endfacet
facet normal -0.9243464949029843 -0.38155413424646234 0.0
outer loop
vertex 10.670983856553146 2.7480042886971963 50.0
vertex 11.153202718082929 1.39442909130275 3.101963130802687e-14
vertex 11.153202718082929 1.39442909130275 50.0
endloop
endfacet
facet normal -0.9573826414639031 -0.2888225715272257 -7.72649389779088e-34
outer loop
vertex 11.153202718082929 1.39442909130275 3.101963130802687e-14
vertex 10.670983856553146 2.7480042886971963 50.0
vertex 10.670983856553146 2.7480042886971963 3.101963130802687e-14
endloop
endfacet
facet normal -0.8823529411764706 -0.47058823529411736 0.0
outer loop
vertex 10.05801637161212 4.047608731526459 50.0
vertex 10.670983856553146 2.7480042886971963 3.101963130802687e-14
vertex 10.670983856553146 2.7480042886971963 50.0
endloop
endfacet
facet normal -0.9243464949029843 -0.38155413424646234 0.0
outer loop
vertex 10.670983856553146 2.7480042886971963 3.101963130802687e-14
vertex 10.05801637161212 4.047608731526459 50.0
vertex 10.05801637161212 4.047608731526459 3.101963130802687e-14
endloop
endfacet
facet normal -0.8318089200641227 -0.5550620870693278 0.0
outer loop
vertex 9.320240242880223 5.280648564333928 50.0
vertex 10.05801637161212 4.047608731526459 3.101963130802687e-14
vertex 10.05801637161212 4.047608731526459 50.0
endloop
endfacet
facet normal -0.8823529411764706 -0.47058823529411736 0.0
outer loop
vertex 10.05801637161212 4.047608731526459 3.101963130802687e-14
vertex 9.320240242880223 5.280648564333928 50.0
vertex 9.320240242880223 5.280648564333928 3.101963130802687e-14
endloop
endfacet
facet normal -0.7732042299038849 -0.6341570932022603 0.0
outer loop
vertex 8.464804911847793 6.435174977993629 50.0
vertex 9.320240242880223 5.280648564333928 3.101963130802687e-14
vertex 9.320240242880223 5.280648564333928 50.0
endloop
endfacet
facet normal -0.8318089200641227 -0.5550620870693278 0.0
outer loop
vertex 9.320240242880223 5.280648564333928 3.101963130802687e-14
vertex 8.464804911847793 6.435174977993629 50.0
vertex 8.464804911847793 6.435174977993629 3.101963130802687e-14
endloop
endfacet
facet normal -1.0 0.0 0.0
outer loop
vertex 16.75 11.500000000000002 50.0
vertex 16.75 0.0 2.5379698342931078e-14
vertex 16.75 0.0 50.0
endloop
endfacet
facet normal -1.0 0.0 0.0
outer loop
vertex 16.75 0.0 2.5379698342931078e-14
vertex 16.75 11.500000000000002 50.0
vertex 16.75 11.500000000000002 2.5379698342931078e-14
endloop
endfacet
facet normal -0.0 -1.0 -0.0
outer loop
vertex 16.75 11.500000000000002 50.0
vertex 13.250000000000004 11.500000000000002 2.5379698342931078e-14
vertex 16.75 11.500000000000002 2.5379698342931078e-14
endloop
endfacet
facet normal -0.0 -1.0 -0.0
outer loop
vertex 13.250000000000004 11.500000000000002 2.5379698342931078e-14
vertex 16.75 11.500000000000002 50.0
vertex 13.250000000000004 11.500000000000002 50.0
endloop
endfacet
facet normal 1.0 -2.452144767432954e-16 0.0
outer loop
vertex 13.250000000000004 11.500000000000002 2.5379698342931078e-14
vertex 13.250000000000002 6.130361918582385e-17 50.0
vertex 13.250000000000002 6.130361918582385e-17 2.5379698342931078e-14
endloop
endfacet
facet normal 1.0 -2.452144767432954e-16 0.0
outer loop
vertex 13.250000000000002 6.130361918582385e-17 50.0
vertex 13.250000000000004 11.500000000000002 2.5379698342931078e-14
vertex 13.250000000000004 11.500000000000002 50.0
endloop
endfacet
facet normal 0.0 -1.0 0.0
outer loop
vertex 18.5 0.0 50.0
vertex 16.75 0.0 2.5379698342931078e-14
vertex 18.5 0.0 1.127986593019159e-14
endloop
endfacet
facet normal 0.0 -1.0 0.0
outer loop
vertex 16.75 0.0 2.5379698342931078e-14
vertex 18.5 0.0 50.0
vertex 16.75 0.0 50.0
endloop
endfacet
facet normal -2.4521447674329536e-16 -1.0 0.0
outer loop
vertex 30.0 16.749999999999996 50.0
vertex 18.5 16.749999999999996 8.459899447643692e-15
vertex 30.0 16.749999999999996 8.459899447643692e-15
endloop
endfacet
facet normal -2.4521447674329536e-16 -1.0 0.0
outer loop
vertex 18.5 16.749999999999996 8.459899447643692e-15
vertex 30.0 16.749999999999996 50.0
vertex 18.5 16.749999999999996 50.0
endloop
endfacet
facet normal 1.0 0.0 0.0
outer loop
vertex 18.5 16.749999999999996 8.459899447643692e-15
vertex 18.5 13.250000000000004 50.0
vertex 18.5 13.250000000000004 8.459899447643692e-15
endloop
endfacet
facet normal 1.0 0.0 0.0
outer loop
vertex 18.5 13.250000000000004 50.0
vertex 18.5 16.749999999999996 8.459899447643692e-15
vertex 18.5 16.749999999999996 50.0
endloop
endfacet
facet normal 2.4521447674329536e-16 1.0 0.0
outer loop
vertex 18.5 13.250000000000004 50.0
vertex 30.0 13.250000000000002 8.459899447643692e-15
vertex 18.5 13.250000000000004 8.459899447643692e-15
endloop
endfacet
facet normal 2.4521447674329536e-16 1.0 0.0
outer loop
vertex 30.0 13.250000000000002 8.459899447643692e-15
vertex 18.5 13.250000000000004 50.0
vertex 30.0 13.250000000000002 50.0
endloop
endfacet
facet normal 1.0 -0.0 -0.0
outer loop
vertex 30.0 18.499999999999993 2.8199664825478975e-15
vertex 30.0 16.749999999999996 50.0
vertex 30.0 16.749999999999996 8.459899447643692e-15
endloop
endfacet
facet normal 1.0 -0.0 -0.0
outer loop
vertex 30.0 16.749999999999996 50.0
vertex 30.0 18.499999999999993 2.8199664825478975e-15
vertex 30.0 18.499999999999993 50.0
endloop
endfacet
facet normal 1.0 2.4521447674329526e-16 0.0
outer loop
vertex 13.250000000000002 30.0 3.665956427312267e-14
vertex 13.250000000000004 18.499999999999993 50.0
vertex 13.250000000000004 18.499999999999993 3.665956427312267e-14
endloop
endfacet
facet normal 1.0 2.4521447674329526e-16 0.0
outer loop
vertex 13.250000000000004 18.499999999999993 50.0
vertex 13.250000000000002 30.0 3.665956427312267e-14
vertex 13.250000000000002 30.0 50.0
endloop
endfacet
facet normal -0.0 1.0 -0.0
outer loop
vertex 13.250000000000004 18.499999999999993 50.0
vertex 16.75 18.499999999999993 3.665956427312267e-14
vertex 13.250000000000004 18.499999999999993 3.665956427312267e-14
endloop
endfacet
facet normal -0.0 1.0 -0.0
outer loop
vertex 16.75 18.499999999999993 3.665956427312267e-14
vertex 13.250000000000004 18.499999999999993 50.0
vertex 16.75 18.499999999999993 50.0
endloop
endfacet
facet normal -1.0 0.0 0.0
outer loop
vertex 16.75 30.0 50.0
vertex 16.75 18.499999999999993 3.665956427312267e-14
vertex 16.75 18.499999999999993 50.0
endloop
endfacet
facet normal -1.0 0.0 0.0
outer loop
vertex 16.75 18.499999999999993 3.665956427312267e-14
vertex 16.75 30.0 50.0
vertex 16.75 30.0 3.665956427312267e-14
endloop
endfacet
facet normal -0.0 1.0 -0.0
outer loop
vertex 11.500000000000002 30.0 5.357936316841005e-14
vertex 13.250000000000002 30.0 50.0
vertex 13.250000000000002 30.0 3.665956427312267e-14
endloop
endfacet
facet normal -0.0 1.0 -0.0
outer loop
vertex 13.250000000000002 30.0 50.0
vertex 11.500000000000002 30.0 5.357936316841005e-14
vertex 11.500000000000002 30.0 50.0
endloop
endfacet
facet normal -2.4521447674329536e-16 1.0 0.0
outer loop
vertex 6.130361918582384e-17 13.250000000000002 50.0
vertex 11.500000000000002 13.250000000000004 4.511946372076636e-14
vertex 6.130361918582384e-17 13.250000000000002 4.511946372076636e-14
endloop
endfacet
facet normal -2.4521447674329536e-16 1.0 0.0
outer loop
vertex 11.500000000000002 13.250000000000004 4.511946372076636e-14
vertex 6.130361918582384e-17 13.250000000000002 50.0
vertex 11.500000000000002 13.250000000000004 50.0
endloop
endfacet
facet normal -1.0 0.0 -0.0
outer loop
vertex 11.500000000000002 16.749999999999996 50.0
vertex 11.500000000000002 13.250000000000004 4.511946372076636e-14
vertex 11.500000000000002 13.250000000000004 50.0
endloop
endfacet
facet normal -1.0 0.0 -0.0
outer loop
vertex 11.500000000000002 13.250000000000004 4.511946372076636e-14
vertex 11.500000000000002 16.749999999999996 50.0
vertex 11.500000000000002 16.749999999999996 4.511946372076636e-14
endloop
endfacet
facet normal 0.0 -1.0 0.0
outer loop
vertex 11.500000000000002 16.749999999999996 50.0
vertex 0.0 16.749999999999996 4.511946372076636e-14
vertex 11.500000000000002 16.749999999999996 4.511946372076636e-14
endloop
endfacet
facet normal 0.0 -1.0 0.0
outer loop
vertex 0.0 16.749999999999996 4.511946372076636e-14
vertex 11.500000000000002 16.749999999999996 50.0
vertex 0.0 16.749999999999996 50.0
endloop
endfacet
facet normal -1.0 0.0 0.0
outer loop
vertex 6.130361918582384e-17 13.250000000000002 50.0
vertex 0.0 11.500000000000002 3.101963130802687e-14
vertex 0.0 11.500000000000002 50.0
endloop
endfacet
facet normal -1.0 0.0 0.0
outer loop
vertex 0.0 11.500000000000002 3.101963130802687e-14
vertex 6.130361918582384e-17 13.250000000000002 50.0
vertex 6.130361918582384e-17 13.250000000000002 4.511946372076636e-14
endloop
endfacet
facet normal -1.6965031768490975e-15 3.716811878881356e-16 -1.0
outer loop
vertex 14.0513167019495 15.316227766016834 10.000000000000028
vertex 14.020302280733848 14.799519629727323 10.000000000000028
vertex 14.001796533008552 15.059915260879212 10.000000000000028
endloop
endfacet
facet normal -1.6965031768490975e-15 3.716811878881356e-16 -1.0
outer loop
vertex 14.020302280733848 14.799519629727323 10.000000000000028
vertex 14.0513167019495 15.316227766016834 10.000000000000028
vertex 14.105572809000101 14.552786404500036 10.000000000000028
endloop
endfacet
facet normal -1.6965031768490975e-15 3.716811878881356e-16 -1.0
outer loop
vertex 14.105572809000101 14.552786404500036 10.000000000000028
vertex 14.0513167019495 15.316227766016834 10.000000000000028
vertex 14.165488069879315 15.5509898714915 10.000000000000028
endloop
endfacet
facet normal -1.6965031768490975e-15 3.716811878881356e-16 -1.0
outer loop
vertex 14.105572809000101 14.552786404500036 10.000000000000028
vertex 14.165488069879315 15.5509898714915 10.000000000000028
vertex 14.251797072222177 14.336530046750667 10.000000000000028
endloop
endfacet
facet normal -1.6965031768490975e-15 3.716811878881356e-16 -1.0
outer loop
vertex 14.251797072222177 14.336530046750667 10.000000000000028
vertex 14.165488069879315 15.5509898714915 10.000000000000028
vertex 14.336530046750683 15.748202927777838 10.000000000000028
endloop
endfacet
facet normal -1.6965031768490975e-15 3.716811878881356e-16 -1.0
outer loop
vertex 14.251797072222177 14.336530046750667 10.000000000000028
vertex 14.336530046750683 15.748202927777838 10.000000000000028
vertex 14.449010128508512 14.165488069879297 10.000000000000027
endloop
endfacet
facet normal -1.6965031768490975e-15 3.716811878881356e-16 -1.0
outer loop
vertex 14.449010128508512 14.165488069879297 10.000000000000027
vertex 14.336530046750683 15.748202927777838 10.000000000000028
vertex 14.552786404500054 15.894427190999913 10.000000000000028
endloop
endfacet
facet normal -1.6965031768490975e-15 3.716811878881356e-16 -1.0
outer loop
vertex 14.449010128508512 14.165488069879297 10.000000000000027
vertex 14.552786404500054 15.894427190999913 10.000000000000028
vertex 14.683772233983179 14.051316701949483 10.000000000000027
endloop
endfacet
facet normal -1.6965031768490975e-15 3.716811878881356e-16 -1.0
outer loop
vertex 14.683772233983179 14.051316701949483 10.000000000000027
vertex 14.552786404500054 15.894427190999913 10.000000000000028
vertex 14.799519629727337 15.979697719266165 10.000000000000027
endloop
endfacet
facet normal -1.6965031768490975e-15 3.716811878881356e-16 -1.0
outer loop
vertex 14.683772233983179 14.051316701949483 10.000000000000027
vertex 14.799519629727337 15.979697719266165 10.000000000000027
vertex 14.9400847391208 14.001796533008534 10.000000000000027
endloop
endfacet
facet normal -1.6965031768490975e-15 3.716811878881356e-16 -1.0
outer loop
vertex 14.9400847391208 14.001796533008534 10.000000000000027
vertex 14.799519629727337 15.979697719266165 10.000000000000027
vertex 15.059915260879228 15.99820346699146 10.000000000000027
endloop
endfacet
facet normal -1.6965031768490975e-15 3.716811878881356e-16 -1.0
outer loop
vertex 14.9400847391208 14.001796533008534 10.000000000000027
vertex 15.059915260879228 15.99820346699146 10.000000000000027
vertex 15.200480370272691 14.02030228073383 10.000000000000027
endloop
endfacet
facet normal -1.6965031768490975e-15 3.716811878881356e-16 -1.0
outer loop
vertex 15.200480370272691 14.02030228073383 10.000000000000027
vertex 15.059915260879228 15.99820346699146 10.000000000000027
vertex 15.31622776601685 15.948683298050513 10.000000000000027
endloop
endfacet
facet normal -1.6965031768490975e-15 3.716811878881356e-16 -1.0
outer loop
vertex 15.200480370272691 14.02030228073383 10.000000000000027
vertex 15.31622776601685 15.948683298050513 10.000000000000027
vertex 15.447213595499976 14.105572809000083 10.000000000000025
endloop
endfacet
facet normal -1.6965031768490975e-15 3.716811878881356e-16 -1.0
outer loop
vertex 15.447213595499976 14.105572809000083 10.000000000000025
vertex 15.31622776601685 15.948683298050513 10.000000000000027
vertex 15.550989871491517 15.834511930120698 10.000000000000027
endloop
endfacet
facet normal -1.6965031768490975e-15 3.716811878881356e-16 -1.0
outer loop
vertex 15.447213595499976 14.105572809000083 10.000000000000025
vertex 15.550989871491517 15.834511930120698 10.000000000000027
vertex 15.663469953249349 14.251797072222162 10.000000000000025
endloop
endfacet
facet normal -1.6965031768490975e-15 3.716811878881356e-16 -1.0
outer loop
vertex 15.663469953249349 14.251797072222162 10.000000000000025
vertex 15.550989871491517 15.834511930120698 10.000000000000027
vertex 15.748202927777852 15.66346995324933 10.000000000000025
endloop
endfacet
facet normal -1.6965031768490975e-15 3.716811878881356e-16 -1.0
outer loop
vertex 15.663469953249349 14.251797072222162 10.000000000000025
vertex 15.748202927777852 15.66346995324933 10.000000000000025
vertex 15.834511930120716 14.449010128508496 10.000000000000025
endloop
endfacet
facet normal -1.6965031768490975e-15 3.716811878881356e-16 -1.0
outer loop
vertex 15.834511930120716 14.449010128508496 10.000000000000025
vertex 15.748202927777852 15.66346995324933 10.000000000000025
vertex 15.894427190999929 15.44721359549996 10.000000000000025
endloop
endfacet
facet normal -1.6965031768490975e-15 3.716811878881356e-16 -1.0
outer loop
vertex 15.834511930120716 14.449010128508496 10.000000000000025
vertex 15.894427190999929 15.44721359549996 10.000000000000025
vertex 15.948683298050529 14.683772233983163 10.000000000000025
endloop
endfacet
facet normal -1.6965031768490975e-15 3.716811878881356e-16 -1.0
outer loop
vertex 15.948683298050529 14.683772233983163 10.000000000000025
vertex 15.894427190999929 15.44721359549996 10.000000000000025
vertex 15.979697719266182 15.200480370272677 10.000000000000025
endloop
endfacet
facet normal -1.6965031768490975e-15 3.716811878881356e-16 -1.0
outer loop
vertex 15.948683298050529 14.683772233983163 10.000000000000025
vertex 15.979697719266182 15.200480370272677 10.000000000000025
vertex 15.998203466991479 14.940084739120785 10.000000000000025
endloop
endfacet
facet normal -0.8345119301207015 0.5509898714915018 1.6205447105185347e-15
outer loop
vertex 15.834511930120716 14.449010128508496 10.000000000000025
vertex 15.663469953249333 14.251797072222164 2.538600974779577e-14
vertex 15.663469953249349 14.251797072222162 10.000000000000025
endloop
endfacet
facet normal -0.6634699532493342 0.7482029277778365 1.403671836409265e-15
outer loop
vertex 15.663469953249333 14.251797072222164 2.538600974779577e-14
vertex 15.834511930120716 14.449010128508496 10.000000000000025
vertex 15.834511930120698 14.4490101285085 2.5169136873686502e-14
endloop
endfacet
facet normal -0.44721359549996004 0.8944271909999147 1.091141046326086e-15
outer loop
vertex 15.44721359549996 14.105572809000087 2.5698540537878947e-14
vertex 15.663469953249349 14.251797072222162 10.000000000000025
vertex 15.663469953249333 14.251797072222164 2.538600974779577e-14
endloop
endfacet
facet normal -0.6634699532493342 0.7482029277778365 1.403671836409265e-15
outer loop
vertex 15.663469953249349 14.251797072222162 10.000000000000025
vertex 15.44721359549996 14.105572809000087 2.5698540537878947e-14
vertex 15.447213595499976 14.105572809000083 10.000000000000025
endloop
endfacet
facet normal -0.20048037027267812 0.9796977192661672 7.04250797131628e-16
outer loop
vertex 15.200480370272674 14.020302280733834 2.608543078707341e-14
vertex 15.447213595499976 14.105572809000083 10.000000000000025
vertex 15.44721359549996 14.105572809000087 2.5698540537878947e-14
endloop
endfacet
facet normal -0.44721359549996004 0.894427190999915 1.091141046326086e-15
outer loop
vertex 15.447213595499976 14.105572809000083 10.000000000000025
vertex 15.200480370272674 14.020302280733834 2.608543078707341e-14
vertex 15.200480370272691 14.02030228073383 10.000000000000027
endloop
endfacet
facet normal 0.059915260879212104 0.9982034669914626 2.693670199421163e-16
outer loop
vertex 14.940084739120785 14.001796533008537 2.6520314564262923e-14
vertex 15.200480370272691 14.02030228073383 10.000000000000027
vertex 15.200480370272674 14.020302280733834 2.608543078707341e-14
endloop
endfacet
facet normal -0.200480370272678 0.9796977192661672 7.042507971316278e-16
outer loop
vertex 15.200480370272691 14.02030228073383 10.000000000000027
vertex 14.940084739120785 14.001796533008537 2.6520314564262923e-14
vertex 14.9400847391208 14.001796533008534 10.000000000000027
endloop
endfacet
facet normal 0.31622776601683794 0.9486832980505138 -1.838736745064095e-16
outer loop
vertex 14.683772233983163 14.051316701949485 2.697355525871144e-14
vertex 14.9400847391208 14.001796533008534 10.000000000000027
vertex 14.940084739120785 14.001796533008537 2.6520314564262923e-14
endloop
endfacet
facet normal 0.059915260879211944 0.9982034669914626 2.6936701994211656e-16
outer loop
vertex 14.9400847391208 14.001796533008534 10.000000000000027
vertex 14.683772233983163 14.051316701949485 2.697355525871144e-14
vertex 14.683772233983179 14.051316701949483 10.000000000000027
endloop
endfacet
facet normal 0.5509898714915024 0.8345119301207011 -6.245836819029269e-16
outer loop
vertex 14.449010128508496 14.1654880698793 2.741426526610796e-14
vertex 14.683772233983179 14.051316701949483 10.000000000000027
vertex 14.683772233983163 14.051316701949485 2.697355525871144e-14
endloop
endfacet
facet normal 0.31622776601683783 0.9486832980505139 -1.8387367450640926e-16
outer loop
vertex 14.683772233983179 14.051316701949483 10.000000000000027
vertex 14.449010128508496 14.1654880698793 2.741426526610796e-14
vertex 14.449010128508512 14.165488069879297 10.000000000000027
endloop
endfacet
facet normal 0.7482029277778377 0.6634699532493326 -1.0227293435510994e-15
outer loop
vertex 14.251797072222159 14.336530046750669 2.781241092775614e-14
vertex 14.449010128508512 14.165488069879297 10.000000000000027
vertex 14.449010128508496 14.1654880698793 2.741426526610796e-14
endloop
endfacet
facet normal 0.5509898714915025 0.834511930120701 -6.245836819029269e-16
outer loop
vertex 14.449010128508512 14.165488069879297 10.000000000000027
vertex 14.251797072222159 14.336530046750669 2.781241092775614e-14
vertex 14.251797072222177 14.336530046750667 10.000000000000028
endloop
endfacet
facet normal 0.7482029277778377 0.6634699532493326 -1.0227293435510994e-15
outer loop
vertex 14.251797072222159 14.336530046750669 2.781241092775614e-14
vertex 14.105572809000101 14.552786404500036 10.000000000000028
vertex 14.251797072222177 14.336530046750667 10.000000000000028
endloop
endfacet
facet normal 0.8944271909999154 0.44721359549995887 -1.3511776905764223e-15
outer loop
vertex 14.105572809000101 14.552786404500036 10.000000000000028
vertex 14.251797072222159 14.336530046750669 2.781241092775614e-14
vertex 14.105572809000083 14.55278640450004 2.8140859274781455e-14
endloop
endfacet
facet normal 0.8944271909999155 0.44721359549995876 -1.3511776905764223e-15
outer loop
vertex 14.105572809000083 14.55278640450004 2.8140859274781455e-14
vertex 14.020302280733848 14.799519629727323 10.000000000000028
vertex 14.105572809000101 14.552786404500036 10.000000000000028
endloop
endfacet
facet normal 0.9796977192661673 0.2004803702726782 -1.587545510915666e-15
outer loop
vertex 14.020302280733848 14.799519629727323 10.000000000000028
vertex 14.105572809000083 14.55278640450004 2.8140859274781455e-14
vertex 14.02030228073383 14.799519629727325 2.8377227095120702e-14
endloop
endfacet
facet normal 0.9796977192661672 0.20048037027267812 -1.5875455109156657e-15
outer loop
vertex 14.02030228073383 14.799519629727325 2.8377227095120702e-14
vertex 14.001796533008552 15.059915260879212 10.000000000000028
vertex 14.020302280733848 14.799519629727323 10.000000000000028
endloop
endfacet
facet normal 0.9982034669914626 -0.059915260879212076 -1.7157247282290127e-15
outer loop
vertex 14.001796533008552 15.059915260879212 10.000000000000028
vertex 14.02030228073383 14.799519629727325 2.8377227095120702e-14
vertex 14.001796533008534 15.059915260879214 2.850540631243405e-14
endloop
endfacet
facet normal 0.9982034669914626 -0.05991526087921208 -1.7157247282290127e-15
outer loop
vertex 14.001796533008534 15.059915260879214 2.850540631243405e-14
vertex 14.0513167019495 15.316227766016834 10.000000000000028
vertex 14.001796533008552 15.059915260879212 10.000000000000028
endloop
endfacet
facet normal 0.9486832980505138 -0.31622776601683794 -1.7269801406827257e-15
outer loop
vertex 14.0513167019495 15.316227766016834 10.000000000000028
vertex 14.001796533008534 15.059915260879214 2.850540631243405e-14
vertex 14.051316701949483 15.316227766016835 2.8516661724887766e-14
endloop
endfacet
facet normal 0.9486832980505139 -0.31622776601683794 -1.726980140682726e-15
outer loop
vertex 14.051316701949483 15.316227766016835 2.8516661724887766e-14
vertex 14.165488069879315 15.5509898714915 10.000000000000028
vertex 14.0513167019495 15.316227766016834 10.000000000000028
endloop
endfacet
facet normal 0.8345119301207011 -0.5509898714915024 -1.6205447105185345e-15
outer loop
vertex 14.165488069879315 15.5509898714915 10.000000000000028
vertex 14.051316701949483 15.316227766016835 2.8516661724887766e-14
vertex 14.165488069879297 15.550989871491502 2.841022629472357e-14
endloop
endfacet
facet normal 0.8345119301207011 -0.5509898714915024 -1.6205447105185347e-15
outer loop
vertex 14.165488069879297 15.550989871491502 2.841022629472357e-14
vertex 14.336530046750683 15.748202927777838 10.000000000000028
vertex 14.165488069879315 15.5509898714915 10.000000000000028
endloop
endfacet
facet normal 0.6634699532493326 -0.7482029277778378 -1.4036718364092626e-15
outer loop
vertex 14.336530046750683 15.748202927777838 10.000000000000028
vertex 14.165488069879297 15.550989871491502 2.841022629472357e-14
vertex 14.336530046750667 15.74820292777784 2.8193353420614302e-14
endloop
endfacet
facet normal 0.44721359549996054 -0.8944271909999146 -1.0911410463260868e-15
outer loop
vertex 14.552786404500054 15.894427190999913 10.000000000000028
vertex 14.336530046750667 15.74820292777784 2.8193353420614302e-14
vertex 14.552786404500036 15.894427190999915 2.7880822630531123e-14
endloop
endfacet
facet normal 0.6634699532493326 -0.7482029277778377 -1.4036718364092626e-15
outer loop
vertex 14.336530046750667 15.74820292777784 2.8193353420614302e-14
vertex 14.552786404500054 15.894427190999913 10.000000000000028
vertex 14.336530046750683 15.748202927777838 10.000000000000028
endloop
endfacet
facet normal 0.2004803702726796 -0.979697719266167 -7.042507971316302e-16
outer loop
vertex 14.799519629727337 15.979697719266165 10.000000000000027
vertex 14.552786404500036 15.894427190999915 2.7880822630531123e-14
vertex 14.79951962972732 15.979697719266168 2.7493932381336662e-14
endloop
endfacet
facet normal 0.4472135954999604 -0.8944271909999146 -1.0911410463260864e-15
outer loop
vertex 14.552786404500036 15.894427190999915 2.7880822630531123e-14
vertex 14.799519629727337 15.979697719266165 10.000000000000027
vertex 14.552786404500054 15.894427190999913 10.000000000000028
endloop
endfacet
facet normal -0.059915260879212624 -0.9982034669914626 -2.6936701994211543e-16
outer loop
vertex 15.059915260879228 15.99820346699146 10.000000000000027
vertex 14.79951962972732 15.979697719266168 2.7493932381336662e-14
vertex 15.059915260879212 15.998203466991464 2.705904860414715e-14
endloop
endfacet
facet normal 0.20048037027267948 -0.979697719266167 -7.042507971316301e-16
outer loop
vertex 14.79951962972732 15.979697719266168 2.7493932381336662e-14
vertex 15.059915260879228 15.99820346699146 10.000000000000027
vertex 14.799519629727337 15.979697719266165 10.000000000000027
endloop
endfacet
facet normal -0.31622776601683805 -0.9486832980505138 1.8387367450640975e-16
outer loop
vertex 15.31622776601685 15.948683298050513 10.000000000000027
vertex 15.059915260879212 15.998203466991464 2.705904860414715e-14
vertex 15.316227766016834 15.948683298050515 2.6605807909698635e-14
endloop
endfacet
facet normal -0.05991526087921248 -0.9982034669914626 -2.6936701994211563e-16
outer loop
vertex 15.059915260879212 15.998203466991464 2.705904860414715e-14
vertex 15.31622776601685 15.948683298050513 10.000000000000027
vertex 15.059915260879228 15.99820346699146 10.000000000000027
endloop
endfacet
facet normal -0.5509898714915052 -0.8345119301206991 6.245836819029323e-16
outer loop
vertex 15.550989871491517 15.834511930120698 10.000000000000027
vertex 15.316227766016834 15.948683298050515 2.6605807909698635e-14
vertex 15.5509898714915 15.834511930120701 2.616509790230211e-14
endloop
endfacet
facet normal -0.31622776601683794 -0.9486832980505138 1.838736745064095e-16
outer loop
vertex 15.316227766016834 15.948683298050515 2.6605807909698635e-14
vertex 15.550989871491517 15.834511930120698 10.000000000000027
vertex 15.31622776601685 15.948683298050513 10.000000000000027
endloop
endfacet
facet normal -0.7482029277778371 -0.6634699532493336 1.0227293435510985e-15
outer loop
vertex 15.748202927777852 15.66346995324933 10.000000000000025
vertex 15.5509898714915 15.834511930120701 2.616509790230211e-14
vertex 15.748202927777834 15.663469953249333 2.5766952240653934e-14
endloop
endfacet
facet normal -0.5509898714915054 -0.8345119301206991 6.245836819029325e-16
outer loop
vertex 15.5509898714915 15.834511930120701 2.616509790230211e-14
vertex 15.748202927777852 15.66346995324933 10.000000000000025
vertex 15.550989871491517 15.834511930120698 10.000000000000027
endloop
endfacet
facet normal -0.7482029277778371 -0.6634699532493336 1.0227293435510985e-15
outer loop
vertex 15.748202927777852 15.66346995324933 10.000000000000025
vertex 15.894427190999913 15.447213595499962 2.5438503893628618e-14
vertex 15.894427190999929 15.44721359549996 10.000000000000025
endloop
endfacet
facet normal -0.8944271909999129 -0.44721359549996437 1.3511776905764154e-15
outer loop
vertex 15.894427190999913 15.447213595499962 2.5438503893628618e-14
vertex 15.748202927777852 15.66346995324933 10.000000000000025
vertex 15.748202927777834 15.663469953249333 2.5766952240653934e-14
endloop
endfacet
facet normal -0.8944271909999126 -0.4472135954999643 1.3511776905764156e-15
outer loop
vertex 15.894427190999929 15.44721359549996 10.000000000000025
vertex 15.979697719266165 15.200480370272679 2.520213607328937e-14
vertex 15.979697719266182 15.200480370272677 10.000000000000025
endloop
endfacet
facet normal -0.9796977192661669 -0.20048037027267943 1.5875455109156645e-15
outer loop
vertex 15.979697719266165 15.200480370272679 2.520213607328937e-14
vertex 15.894427190999929 15.44721359549996 10.000000000000025
vertex 15.894427190999913 15.447213595499962 2.5438503893628618e-14
endloop
endfacet
facet normal -0.979697719266167 -0.20048037027267943 1.5875455109156647e-15
outer loop
vertex 15.979697719266182 15.200480370272677 10.000000000000025
vertex 15.99820346699146 14.940084739120786 2.5073956855976022e-14
vertex 15.998203466991479 14.940084739120785 10.000000000000025
endloop
endfacet
facet normal -0.9982034669914626 0.0599152608792125 1.715724728229013e-15
outer loop
vertex 15.99820346699146 14.940084739120786 2.5073956855976022e-14
vertex 15.979697719266182 15.200480370272677 10.000000000000025
vertex 15.979697719266165 15.200480370272679 2.520213607328937e-14
endloop
endfacet
facet normal -0.9982034669914626 0.0599152608792125 1.7157247282290127e-15
outer loop
vertex 15.998203466991479 14.940084739120785 10.000000000000025
vertex 15.948683298050513 14.683772233983165 2.5062701443522307e-14
vertex 15.948683298050529 14.683772233983163 10.000000000000025
endloop
endfacet
facet normal -0.9486832980505137 0.31622776601683794 1.7269801406827257e-15
outer loop
vertex 15.948683298050513 14.683772233983165 2.5062701443522307e-14
vertex 15.998203466991479 14.940084739120785 10.000000000000025
vertex 15.99820346699146 14.940084739120786 2.5073956855976022e-14
endloop
endfacet
facet normal -0.9486832980505138 0.3162277660168379 1.7269801406827257e-15
outer loop
vertex 15.948683298050529 14.683772233983163 10.000000000000025
vertex 15.834511930120698 14.4490101285085 2.5169136873686502e-14
vertex 15.834511930120716 14.449010128508496 10.000000000000025
endloop
endfacet
facet normal -0.8345119301207014 0.5509898714915018 1.6205447105185345e-15
outer loop
vertex 15.834511930120698 14.4490101285085 2.5169136873686502e-14
vertex 15.948683298050529 14.683772233983163 10.000000000000025
vertex 15.948683298050513 14.683772233983165 2.5062701443522307e-14
endloop
endfacet
endsolid cruz
