solid cruz
facet normal -1.6965031768491027e-15 3.716811878881447e-16 -1.0
outer loop
vertex 1.3944290913027542 18.84679728191707 5.357936316841005e-14
vertex 0.0 16.749999999999996 4.511946372076636e-14
vertex 0.0 18.499999999999993 5.357936316841005e-14
endloop
endfacet
facet normal -1.6965031768491027e-15 3.716811878881447e-16 -1.0
outer loop
vertex 0.0 16.749999999999996 4.511946372076636e-14
vertex 1.3944290913027542 18.84679728191707 5.357936316841005e-14
vertex 11.500000000000002 16.749999999999996 4.511946372076636e-14
endloop
endfacet
facet normal -1.6965031768491027e-15 3.716811878881447e-16 -1.0
outer loop
vertex 11.500000000000002 16.749999999999996 4.511946372076636e-14
vertex 1.3944290913027542 18.84679728191707 5.357936316841005e-14
vertex 2.7480042886971976 19.32901614344685 5.357936316841005e-14
endloop
endfacet
facet normal -1.6965031768491027e-15 3.716811878881447e-16 -1.0
outer loop
vertex 11.500000000000002 16.749999999999996 4.511946372076636e-14
vertex 2.7480042886971976 19.32901614344685 5.357936316841005e-14
vertex 4.047608731526464 19.941983628387877 5.357936316841005e-14
endloop
endfacet
facet normal -1.6965031768491027e-15 3.716811878881447e-16 -1.0
outer loop
vertex 11.500000000000002 16.749999999999996 4.511946372076636e-14
vertex 4.047608731526464 19.941983628387877 5.357936316841005e-14
vertex 5.280648564333931 20.679759757119772 5.357936316841005e-14
endloop
endfacet
facet normal -1.6965031768491027e-15 3.716811878881447e-16 -1.0
outer loop
vertex 11.500000000000002 16.749999999999996 4.511946372076636e-14
vertex 5.280648564333931 20.679759757119772 5.357936316841005e-14
vertex 6.435174977993632 21.535195088152204 5.357936316841005e-14
endloop
endfacet
facet normal -1.6965031768491027e-15 3.716811878881447e-16 -1.0
outer loop
vertex 11.500000000000002 16.749999999999996 4.511946372076636e-14
vertex 6.435174977993632 21.535195088152204 5.357936316841005e-14
vertex 7.5000000000000036 22.499999999999993 5.357936316841005e-14
endloop
endfacet
facet normal -1.6965031768491027e-15 3.716811878881447e-16 -1.0
outer loop
vertex 11.500000000000002 16.749999999999996 4.511946372076636e-14
vertex 7.5000000000000036 22.499999999999993 5.357936316841005e-14
vertex 8.464804911847793 23.564825022006367 5.357936316841005e-14
endloop
endfacet
facet normal -1.6965031768491027e-15 3.716811878881447e-16 -1.0
outer loop
vertex 11.500000000000002 16.749999999999996 4.511946372076636e-14
vertex 8.464804911847793 23.564825022006367 5.357936316841005e-14
vertex 9.320240242880223 24.71935143566607 5.357936316841005e-14
endloop
endfacet
facet normal -1.6965031768491027e-15 3.716811878881447e-16 -1.0
outer loop
vertex 11.500000000000002 16.749999999999996 4.511946372076636e-14
vertex 9.320240242880223 24.71935143566607 5.357936316841005e-14
vertex 10.05801637161212 25.952391268473534 5.357936316841005e-14
endloop
endfacet
facet normal -1.6965031768491027e-15 3.716811878881447e-16 -1.0
outer loop
vertex 11.500000000000002 16.749999999999996 4.511946372076636e-14
vertex 10.05801637161212 25.952391268473534 5.357936316841005e-14
vertex 10.670983856553146 27.251995711302804 5.357936316841005e-14
endloop
endfacet
facet normal -1.6965031768491027e-15 3.716811878881447e-16 -1.0
outer loop
vertex 11.500000000000002 16.749999999999996 4.511946372076636e-14
vertex 10.670983856553146 27.251995711302804 5.357936316841005e-14
vertex 11.153202718082925 28.605570908697246 5.357936316841005e-14
endloop
endfacet
facet normal -1.6965031768491027e-15 3.716811878881447e-16 -1.0
outer loop
vertex 11.500000000000002 16.749999999999996 4.511946372076636e-14
vertex 11.153202718082925 28.605570908697246 5.357936316841005e-14
vertex 11.500000000000002 30.0 5.357936316841005e-14
endloop
endfacet
facet normal -1.6965031768491027e-15 3.716811878881447e-16 -1.0
outer loop
vertex 11.500000000000002 16.749999999999996 4.511946372076636e-14
vertex 11.500000000000002 30.0 5.357936316841005e-14
vertex 13.250000000000002 30.0 3.665956427312267e-14
endloop
endfacet
facet normal -1.6965031768491027e-15 3.716811878881447e-16 -1.0
outer loop
vertex 11.500000000000002 16.749999999999996 4.511946372076636e-14
vertex 13.250000000000002 30.0 3.665956427312267e-14
vertex 11.500000000000002 13.250000000000004 4.511946372076636e-14
endloop
endfacet
facet normal -1.6965031768491027e-15 3.716811878881447e-16 -1.0
outer loop
vertex 11.500000000000002 13.250000000000004 4.511946372076636e-14
vertex 13.250000000000002 30.0 3.665956427312267e-14
vertex 11.500000000000002 0.0 3.101963130802687e-14
endloop
endfacet
facet normal -1.6965031768491027e-15 3.716811878881447e-16 -1.0
outer loop
vertex 11.500000000000002 0.0 3.101963130802687e-14
vertex 13.250000000000002 30.0 3.665956427312267e-14
vertex 13.250000000000002 6.130361918582385e-17 2.5379698342931078e-14
endloop
endfacet
facet normal -1.6965031768491027e-15 3.716811878881447e-16 -1.0
outer loop
vertex 13.250000000000002 6.130361918582385e-17 2.5379698342931078e-14
vertex 13.250000000000002 30.0 3.665956427312267e-14
vertex 13.250000000000004 18.499999999999993 3.665956427312267e-14
endloop
endfacet
facet normal -1.6965031768491027e-15 3.716811878881447e-16 -1.0
outer loop
vertex 13.250000000000002 6.130361918582385e-17 2.5379698342931078e-14
vertex 13.250000000000004 18.499999999999993 3.665956427312267e-14
vertex 13.250000000000004 11.500000000000002 2.5379698342931078e-14
endloop
endfacet
facet normal -1.6965031768491027e-15 3.716811878881447e-16 -1.0
outer loop
vertex 13.250000000000004 11.500000000000002 2.5379698342931078e-14
vertex 13.250000000000004 18.499999999999993 3.665956427312267e-14
vertex 13.652425319561527 15.080885602186944 3.1220884829225135e-14
endloop
endfacet
facet normal -1.6965031768491027e-15 3.716811878881447e-16 -1.0
outer loop
vertex 13.652425319561527 15.080885602186944 3.1220884829225135e-14
vertex 13.250000000000004 18.499999999999993 3.665956427312267e-14
vertex 13.719277547631808 15.426907484122733 3.1236079636037647e-14
endloop
endfacet
facet normal -1.6965031768491027e-15 3.716811878881447e-16 -1.0
outer loop
vertex 13.719277547631808 15.426907484122733 3.1236079636037647e-14
vertex 13.250000000000004 18.499999999999993 3.665956427312267e-14
vertex 13.873408894337057 15.743836326513533 3.109239180531599e-14
endloop
endfacet
facet normal -1.6965031768491027e-15 3.716811878881447e-16 -1.0
outer loop
vertex 13.873408894337057 15.743836326513533 3.109239180531599e-14
vertex 13.250000000000004 18.499999999999993 3.665956427312267e-14
vertex 14.104315563113406 16.010073952500086 3.079961342526847e-14
endloop
endfacet
facet normal -1.6965031768491027e-15 3.716811878881447e-16 -1.0
outer loop
vertex 14.104315563113406 16.010073952500086 3.079961342526847e-14
vertex 13.250000000000004 18.499999999999993 3.665956427312267e-14
vertex 16.75 18.499999999999993 3.665956427312267e-14
endloop
endfacet
facet normal -1.6965031768491027e-15 3.716811878881447e-16 -1.0
outer loop
vertex 14.104315563113406 16.010073952500086 3.079961342526847e-14
vertex 16.75 18.499999999999993 3.665956427312267e-14
vertex 14.39626164607506 16.20747670784989 3.037769685865618e-14
endloop
endfacet
facet normal -1.6965031768491027e-15 3.716811878881447e-16 -1.0
outer loop
vertex 14.39626164607506 16.20747670784989 3.037769685865618e-14
vertex 16.75 18.499999999999993 3.665956427312267e-14
vertex 14.729351500131893 16.322591921009327 2.985539502224366e-14
endloop
endfacet
facet normal -1.6965031768491027e-15 3.716811878881447e-16 -1.0
outer loop
vertex 14.729351500131893 16.322591921009327 2.985539502224366e-14
vertex 16.75 18.499999999999993 3.665956427312267e-14
vertex 15.080885602186944 16.347574680438473 2.926830192303781e-14
endloop
endfacet
facet normal -1.6965031768491027e-15 3.716811878881447e-16 -1.0
outer loop
vertex 15.080885602186944 16.347574680438473 2.926830192303781e-14
vertex 16.75 18.499999999999993 3.665956427312267e-14
vertex 15.426907484122733 16.28072245236819 2.865642698553231e-14
endloop
endfacet
facet normal -1.6965031768491027e-15 3.716811878881447e-16 -1.0
outer loop
vertex 15.426907484122733 16.28072245236819 2.865642698553231e-14
vertex 16.75 18.499999999999993 3.665956427312267e-14
vertex 15.743836326513533 16.126591105662943 2.8061468475547003e-14
endloop
endfacet
facet normal -1.6965031768491027e-15 3.716811878881447e-16 -1.0
outer loop
vertex 15.743836326513533 16.126591105662943 2.8061468475547003e-14
vertex 16.75 18.499999999999993 3.665956427312267e-14
vertex 16.010073952500086 15.895684436886595 2.7523971832321963e-14
endloop
endfacet
facet normal -1.6965031768491027e-15 3.716811878881447e-16 -1.0
outer loop
vertex 16.010073952500086 15.895684436886595 2.7523971832321963e-14
vertex 16.75 18.499999999999993 3.665956427312267e-14
vertex 16.20747670784989 15.603738353924943 2.708056656383778e-14
endloop
endfacet
facet normal -1.6965031768491027e-15 3.716811878881447e-16 -1.0
outer loop
vertex 16.20747670784989 15.603738353924943 2.708056656383778e-14
vertex 16.75 18.499999999999993 3.665956427312267e-14
vertex 16.322591921009327 15.270648499868107 2.6761470006379794e-14
endloop
endfacet
facet normal -1.6965031768491027e-15 3.716811878881447e-16 -1.0
outer loop
vertex 16.322591921009327 15.270648499868107 2.6761470006379794e-14
vertex 16.75 18.499999999999993 3.665956427312267e-14
vertex 16.347574680438473 14.919114397813058 2.6588428063006774e-14
endloop
endfacet
facet normal -1.6965031768491027e-15 3.716811878881447e-16 -1.0
outer loop
vertex 18.846797281917077 28.605570908697242 2.8199664825478975e-15
vertex 18.5 16.749999999999996 8.459899447643692e-15
vertex 18.5 30.0 2.8199664825478975e-15
endloop
endfacet
facet normal -1.6965031768491027e-15 3.716811878881447e-16 -1.0
outer loop
vertex 18.5 16.749999999999996 8.459899447643692e-15
vertex 18.846797281917077 28.605570908697242 2.8199664825478975e-15
vertex 19.329016143446857 27.251995711302797 2.8199664825478975e-15
endloop
endfacet
facet normal -1.6965031768491027e-15 3.716811878881447e-16 -1.0
outer loop
vertex 18.5 16.749999999999996 8.459899447643692e-15
vertex 19.329016143446857 27.251995711302797 2.8199664825478975e-15
vertex 19.941983628387884 25.952391268473534 2.8199664825478975e-15
endloop
endfacet
facet normal -1.6965031768491027e-15 3.716811878881447e-16 -1.0
outer loop
vertex 18.5 16.749999999999996 8.459899447643692e-15
vertex 19.941983628387884 25.952391268473534 2.8199664825478975e-15
vertex 20.679759757119783 24.71935143566607 2.8199664825478975e-15
endloop
endfacet
facet normal -1.6965031768491027e-15 3.716811878881447e-16 -1.0
outer loop
vertex 18.5 16.749999999999996 8.459899447643692e-15
vertex 20.679759757119783 24.71935143566607 2.8199664825478975e-15
vertex 21.535195088152214 23.564825022006367 2.8199664825478975e-15
endloop
endfacet
facet normal -1.6965031768491027e-15 3.716811878881447e-16 -1.0
outer loop
vertex 18.5 16.749999999999996 8.459899447643692e-15
vertex 21.535195088152214 23.564825022006367 2.8199664825478975e-15
vertex 22.5 22.499999999999993 2.8199664825478975e-15
endloop
endfacet
facet normal -1.6965031768491027e-15 3.716811878881447e-16 -1.0
outer loop
vertex 18.5 16.749999999999996 8.459899447643692e-15
vertex 22.5 22.499999999999993 2.8199664825478975e-15
vertex 23.56482502200637 21.53519508815221 2.8199664825478975e-15
endloop
endfacet
facet normal -1.6965031768491027e-15 3.716811878881447e-16 -1.0
outer loop
vertex 18.5 16.749999999999996 8.459899447643692e-15
vertex 23.56482502200637 21.53519508815221 2.8199664825478975e-15
vertex 30.0 16.749999999999996 8.459899447643692e-15
endloop
endfacet
facet normal -1.6965031768491027e-15 3.716811878881447e-16 -1.0
outer loop
vertex 30.0 16.749999999999996 8.459899447643692e-15
vertex 23.56482502200637 21.53519508815221 2.8199664825478975e-15
vertex 24.719351435666074 20.67975975711978 2.8199664825478975e-15
endloop
endfacet
facet normal -1.6965031768491027e-15 3.716811878881447e-16 -1.0
outer loop
vertex 30.0 16.749999999999996 8.459899447643692e-15
vertex 24.719351435666074 20.67975975711978 2.8199664825478975e-15
vertex 25.95239126847354 19.94198362838788 2.8199664825478975e-15
endloop
endfacet
facet normal -1.6965031768491027e-15 3.716811878881447e-16 -1.0
outer loop
vertex 30.0 16.749999999999996 8.459899447643692e-15
vertex 25.95239126847354 19.94198362838788 2.8199664825478975e-15
vertex 27.251995711302804 19.329016143446857 2.8199664825478975e-15
endloop
endfacet
facet normal -1.6965031768491027e-15 3.716811878881447e-16 -1.0
outer loop
vertex 30.0 16.749999999999996 8.459899447643692e-15
vertex 27.251995711302804 19.329016143446857 2.8199664825478975e-15
vertex 28.605570908697246 18.846797281917077 2.8199664825478975e-15
endloop
endfacet
facet normal -1.6965031768491027e-15 3.716811878881447e-16 -1.0
outer loop
vertex 30.0 16.749999999999996 8.459899447643692e-15
vertex 28.605570908697246 18.846797281917077 2.8199664825478975e-15
vertex 30.0 18.499999999999993 2.8199664825478975e-15
endloop
endfacet
facet normal -1.6965031768491027e-15 3.716811878881447e-16 -1.0
outer loop
vertex 18.5 30.0 2.8199664825478975e-15
vertex 16.75 18.499999999999993 3.665956427312267e-14
vertex 16.75 30.0 3.665956427312267e-14
endloop
endfacet
facet normal -1.6965031768491027e-15 3.716811878881447e-16 -1.0
outer loop
vertex 16.75 18.499999999999993 3.665956427312267e-14
vertex 18.5 30.0 2.8199664825478975e-15
vertex 16.75 11.500000000000002 2.5379698342931078e-14
endloop
endfacet
facet normal -1.6965031768491027e-15 3.716811878881447e-16 -1.0
outer loop
vertex 16.75 11.500000000000002 2.5379698342931078e-14
vertex 18.5 30.0 2.8199664825478975e-15
vertex 16.75 0.0 2.5379698342931078e-14
endloop
endfacet
facet normal -1.6965031768491027e-15 3.716811878881447e-16 -1.0
outer loop
vertex 16.75 0.0 2.5379698342931078e-14
vertex 18.5 30.0 2.8199664825478975e-15
vertex 18.5 0.0 1.127986593019159e-14
endloop
endfacet
facet normal -1.6965031768491027e-15 3.716811878881447e-16 -1.0
outer loop
vertex 18.5 0.0 1.127986593019159e-14
vertex 18.5 30.0 2.8199664825478975e-15
vertex 18.5 16.749999999999996 8.459899447643692e-15
endloop
endfacet
facet normal -1.6965031768491027e-15 3.716811878881447e-16 -1.0
outer loop
vertex 18.5 0.0 1.127986593019159e-14
vertex 18.5 16.749999999999996 8.459899447643692e-15
vertex 18.5 13.250000000000004 8.459899447643692e-15
endloop
endfacet
facet normal -1.6965031768491027e-15 3.716811878881447e-16 -1.0
outer loop
vertex 18.5 0.0 1.127986593019159e-14
vertex 18.5 13.250000000000004 8.459899447643692e-15
vertex 18.846797281917084 1.3944290913027515 1.127986593019159e-14
endloop
endfacet
facet normal -1.6965031768491027e-15 3.716811878881447e-16 -1.0
outer loop
vertex 18.846797281917084 1.3944290913027515 1.127986593019159e-14
vertex 18.5 13.250000000000004 8.459899447643692e-15
vertex 19.329016143446864 2.7480042886971976 1.127986593019159e-14
endloop
endfacet
facet normal -1.6965031768491027e-15 3.716811878881447e-16 -1.0
outer loop
vertex 19.329016143446864 2.7480042886971976 1.127986593019159e-14
vertex 18.5 13.250000000000004 8.459899447643692e-15
vertex 19.941983628387884 4.047608731526464 1.127986593019159e-14
endloop
endfacet
facet normal -1.6965031768491027e-15 3.716811878881447e-16 -1.0
outer loop
vertex 19.941983628387884 4.047608731526464 1.127986593019159e-14
vertex 18.5 13.250000000000004 8.459899447643692e-15
vertex 20.679759757119786 5.280648564333931 1.127986593019159e-14
endloop
endfacet
facet normal -1.6965031768491027e-15 3.716811878881447e-16 -1.0
outer loop
vertex 20.679759757119786 5.280648564333931 1.127986593019159e-14
vertex 18.5 13.250000000000004 8.459899447643692e-15
vertex 21.535195088152214 6.435174977993632 1.127986593019159e-14
endloop
endfacet
facet normal -1.6965031768491027e-15 3.716811878881447e-16 -1.0
outer loop
vertex 21.535195088152214 6.435174977993632 1.127986593019159e-14
vertex 18.5 13.250000000000004 8.459899447643692e-15
vertex 22.5 7.500000000000002 1.127986593019159e-14
endloop
endfacet
facet normal -1.6965031768491027e-15 3.716811878881447e-16 -1.0
outer loop
vertex 22.5 7.500000000000002 1.127986593019159e-14
vertex 18.5 13.250000000000004 8.459899447643692e-15
vertex 23.564825022006374 8.464804911847793 1.127986593019159e-14
endloop
endfacet
facet normal -1.6965031768491027e-15 3.716811878881447e-16 -1.0
outer loop
vertex 23.564825022006374 8.464804911847793 1.127986593019159e-14
vertex 18.5 13.250000000000004 8.459899447643692e-15
vertex 30.0 13.250000000000002 8.459899447643692e-15
endloop
endfacet
facet normal -1.6965031768491027e-15 3.716811878881447e-16 -1.0
outer loop
vertex 23.564825022006374 8.464804911847793 1.127986593019159e-14
vertex 30.0 13.250000000000002 8.459899447643692e-15
vertex 24.719351435666074 9.320240242880223 1.127986593019159e-14
endloop
endfacet
facet normal -1.6965031768491027e-15 3.716811878881447e-16 -1.0
outer loop
vertex 24.719351435666074 9.320240242880223 1.127986593019159e-14
vertex 30.0 13.250000000000002 8.459899447643692e-15
vertex 25.952391268473544 10.05801637161212 1.127986593019159e-14
endloop
endfacet
facet normal -1.6965031768491027e-15 3.716811878881447e-16 -1.0
outer loop
vertex 25.952391268473544 10.05801637161212 1.127986593019159e-14
vertex 30.0 13.250000000000002 8.459899447643692e-15
vertex 27.251995711302804 10.670983856553146 1.127986593019159e-14
endloop
endfacet
facet normal -1.6965031768491027e-15 3.716811878881447e-16 -1.0
outer loop
vertex 27.251995711302804 10.670983856553146 1.127986593019159e-14
vertex 30.0 13.250000000000002 8.459899447643692e-15
vertex 28.605570908697253 11.153202718082929 1.127986593019159e-14
endloop
endfacet
facet normal -1.6965031768491027e-15 3.716811878881447e-16 -1.0
outer loop
vertex 28.605570908697253 11.153202718082929 1.127986593019159e-14
vertex 30.0 13.250000000000002 8.459899447643692e-15
vertex 30.0 11.500000000000002 1.127986593019159e-14
endloop
endfacet
facet normal -1.6965031768491027e-15 3.716811878881447e-16 -1.0
outer loop
vertex 13.250000000000004 11.500000000000002 2.5379698342931078e-14
vertex 13.989926047499916 14.104315563113406 3.028534105990994e-14
vertex 16.75 11.500000000000002 2.5379698342931078e-14
endloop
endfacet
facet normal -1.6965031768491027e-15 3.716811878881447e-16 -1.0
outer loop
vertex 13.989926047499916 14.104315563113406 3.028534105990994e-14
vertex 13.250000000000004 11.500000000000002 2.5379698342931078e-14
vertex 13.792523292150113 14.39626164607506 3.072874632839413e-14
endloop
endfacet
facet normal -1.6965031768491027e-15 3.716811878881447e-16 -1.0
outer loop
vertex 13.792523292150113 14.39626164607506 3.072874632839413e-14
vertex 13.250000000000004 11.500000000000002 2.5379698342931078e-14
vertex 13.677408078990673 14.729351500131893 3.104784288585211e-14
endloop
endfacet
facet normal -1.6965031768491027e-15 3.716811878881447e-16 -1.0
outer loop
vertex 13.677408078990673 14.729351500131893 3.104784288585211e-14
vertex 13.250000000000004 11.500000000000002 2.5379698342931078e-14
vertex 13.652425319561527 15.080885602186944 3.1220884829225135e-14
endloop
endfacet
facet normal -1.6965031768491027e-15 3.716811878881447e-16 -1.0
outer loop
vertex 16.75 11.500000000000002 2.5379698342931078e-14
vertex 13.989926047499916 14.104315563113406 3.028534105990994e-14
vertex 14.25616367348647 13.873408894337057 2.97478444166849e-14
endloop
endfacet
facet normal -1.6965031768491027e-15 3.716811878881447e-16 -1.0
outer loop
vertex 16.75 11.500000000000002 2.5379698342931078e-14
vertex 14.25616367348647 13.873408894337057 2.97478444166849e-14
vertex 14.573092515877269 13.719277547631808 2.9152885906699596e-14
endloop
endfacet
facet normal -1.6965031768491027e-15 3.716811878881447e-16 -1.0
outer loop
vertex 16.75 11.500000000000002 2.5379698342931078e-14
vertex 14.573092515877269 13.719277547631808 2.9152885906699596e-14
vertex 14.919114397813058 13.652425319561527 2.8541010969194097e-14
endloop
endfacet
facet normal -1.6965031768491027e-15 3.716811878881447e-16 -1.0
outer loop
vertex 16.75 11.500000000000002 2.5379698342931078e-14
vertex 14.919114397813058 13.652425319561527 2.8541010969194097e-14
vertex 15.270648499868107 13.677408078990673 2.7953917869988252e-14
endloop
endfacet
facet normal -1.6965031768491027e-15 3.716811878881447e-16 -1.0
outer loop
vertex 16.75 11.500000000000002 2.5379698342931078e-14
vertex 15.270648499868107 13.677408078990673 2.7953917869988252e-14
vertex 15.603738353924943 13.792523292150113 2.7431616033575727e-14
endloop
endfacet
facet normal -1.6965031768491027e-15 3.716811878881447e-16 -1.0
outer loop
vertex 16.75 11.500000000000002 2.5379698342931078e-14
vertex 15.603738353924943 13.792523292150113 2.7431616033575727e-14
vertex 15.895684436886595 13.989926047499916 2.7009699466963436e-14
endloop
endfacet
facet normal -1.6965031768491027e-15 3.716811878881447e-16 -1.0
outer loop
vertex 16.75 11.500000000000002 2.5379698342931078e-14
vertex 15.895684436886595 13.989926047499916 2.7009699466963436e-14
vertex 16.126591105662943 14.25616367348647 2.671692108691592e-14
endloop
endfacet
facet normal -1.6965031768491027e-15 3.716811878881447e-16 -1.0
outer loop
vertex 16.75 11.500000000000002 2.5379698342931078e-14
vertex 16.126591105662943 14.25616367348647 2.671692108691592e-14
vertex 16.28072245236819 14.573092515877269 2.657323325619426e-14
endloop
endfacet
facet normal -1.6965031768491027e-15 3.716811878881447e-16 -1.0
outer loop
vertex 16.75 11.500000000000002 2.5379698342931078e-14
vertex 16.28072245236819 14.573092515877269 2.657323325619426e-14
vertex 16.347574680438473 14.919114397813058 2.6588428063006774e-14
endloop
endfacet
facet normal -1.6965031768491027e-15 3.716811878881447e-16 -1.0
outer loop
vertex 16.75 11.500000000000002 2.5379698342931078e-14
vertex 16.347574680438473 14.919114397813058 2.6588428063006774e-14
vertex 16.75 18.499999999999993 3.665956427312267e-14
endloop
endfacet
facet normal -1.6965031768491027e-15 3.716811878881447e-16 -1.0
outer loop
vertex 6.130361918582384e-17 13.250000000000002 4.511946372076636e-14
vertex 1.3944290913027515 11.15320271808292 3.101963130802687e-14
vertex 0.0 11.500000000000002 3.101963130802687e-14
endloop
endfacet
facet normal -1.6965031768491027e-15 3.716811878881447e-16 -1.0
outer loop
vertex 1.3944290913027515 11.15320271808292 3.101963130802687e-14
vertex 6.130361918582384e-17 13.250000000000002 4.511946372076636e-14
vertex 11.500000000000002 13.250000000000004 4.511946372076636e-14
endloop
endfacet
facet normal -1.6965031768491027e-15 3.716811878881447e-16 -1.0
outer loop
vertex 1.3944290913027515 11.15320271808292 3.101963130802687e-14
vertex 11.500000000000002 13.250000000000004 4.511946372076636e-14
vertex 2.7480042886971976 10.67098385655314 3.101963130802687e-14
endloop
endfacet
facet normal -1.6965031768491027e-15 3.716811878881447e-16 -1.0
outer loop
vertex 2.7480042886971976 10.67098385655314 3.101963130802687e-14
vertex 11.500000000000002 13.250000000000004 4.511946372076636e-14
vertex 4.047608731526464 10.05801637161212 3.101963130802687e-14
endloop
endfacet
facet normal -1.6965031768491027e-15 3.716811878881447e-16 -1.0
outer loop
vertex 4.047608731526464 10.05801637161212 3.101963130802687e-14
vertex 11.500000000000002 13.250000000000004 4.511946372076636e-14
vertex 5.280648564333931 9.32024024288022 3.101963130802687e-14
endloop
endfacet
facet normal -1.6965031768491027e-15 3.716811878881447e-16 -1.0
outer loop
vertex 5.280648564333931 9.32024024288022 3.101963130802687e-14
vertex 11.500000000000002 13.250000000000004 4.511946372076636e-14
vertex 6.435174977993632 8.464804911847791 3.101963130802687e-14
endloop
endfacet
facet normal -1.6965031768491027e-15 3.716811878881447e-16 -1.0
outer loop
vertex 6.435174977993632 8.464804911847791 3.101963130802687e-14
vertex 11.500000000000002 13.250000000000004 4.511946372076636e-14
vertex 7.5000000000000036 7.500000000000002 3.101963130802687e-14
endloop
endfacet
facet normal -1.6965031768491027e-15 3.716811878881447e-16 -1.0
outer loop
vertex 7.5000000000000036 7.500000000000002 3.101963130802687e-14
vertex 11.500000000000002 13.250000000000004 4.511946372076636e-14
vertex 8.464804911847793 6.435174977993629 3.101963130802687e-14
endloop
endfacet
facet normal -1.6965031768491027e-15 3.716811878881447e-16 -1.0
outer loop
vertex 8.464804911847793 6.435174977993629 3.101963130802687e-14
vertex 11.500000000000002 13.250000000000004 4.511946372076636e-14
vertex 9.320240242880223 5.280648564333928 3.101963130802687e-14
endloop
endfacet
facet normal -1.6965031768491027e-15 3.716811878881447e-16 -1.0
outer loop
vertex 9.320240242880223 5.280648564333928 3.101963130802687e-14
vertex 11.500000000000002 13.250000000000004 4.511946372076636e-14
vertex 10.05801637161212 4.047608731526459 3.101963130802687e-14
endloop
endfacet
facet normal -1.6965031768491027e-15 3.716811878881447e-16 -1.0
outer loop
vertex 10.05801637161212 4.047608731526459 3.101963130802687e-14
vertex 11.500000000000002 13.250000000000004 4.511946372076636e-14
vertex 10.670983856553146 2.7480042886971963 3.101963130802687e-14
endloop
endfacet
facet normal -1.6965031768491027e-15 3.716811878881447e-16 -1.0
outer loop
vertex 10.670983856553146 2.7480042886971963 3.101963130802687e-14
vertex 11.500000000000002 13.250000000000004 4.511946372076636e-14
vertex 11.153202718082929 1.39442909130275 3.101963130802687e-14
endloop
endfacet
facet normal -1.6965031768491027e-15 3.716811878881447e-16 -1.0
outer loop
vertex 11.153202718082929 1.39442909130275 3.101963130802687e-14
vertex 11.500000000000002 13.250000000000004 4.511946372076636e-14
vertex 11.500000000000002 0.0 3.101963130802687e-14
endloop
endfacet
facet normal -0.0 1.0 -0.0
outer loop
vertex 16.75 30.0 3.665956427312267e-14
vertex 18.5 30.0 50.0
vertex 18.5 30.0 2.8199664825478975e-15
endloop
endfacet
facet normal -0.0 1.0 -0.0
outer loop
vertex 18.5 30.0 50.0
vertex 16.75 30.0 3.665956427312267e-14
vertex 16.75 30.0 50.0
endloop
endfacet
facet normal 1.0 -0.0 -0.0
outer loop
vertex 30.0 13.250000000000002 8.459899447643692e-15
vertex 30.0 11.500000000000002 50.0
vertex 30.0 11.500000000000002 1.127986593019159e-14
endloop
endfacet
facet normal 1.0 -0.0 -0.0
outer loop
vertex 30.0 11.500000000000002 50.0
vertex 30.0 13.250000000000002 8.459899447643692e-15
vertex 30.0 13.250000000000002 50.0
endloop
endfacet
facet normal 0.0 -1.0 0.0
outer loop
vertex 13.250000000000002 6.130361918582385e-17 50.0
vertex 11.500000000000002 0.0 3.101963130802687e-14
vertex 13.250000000000002 6.130361918582385e-17 2.5379698342931078e-14
endloop
endfacet
facet normal 0.0 -1.0 0.0
outer loop
vertex 11.500000000000002 0.0 3.101963130802687e-14
vertex 13.250000000000002 6.130361918582385e-17 50.0
vertex 11.500000000000002 0.0 50.0
endloop
endfacet
facet normal -1.0 0.0 0.0
outer loop
vertex 0.0 18.499999999999993 50.0
vertex 0.0 16.749999999999996 4.511946372076636e-14
vertex 0.0 16.749999999999996 50.0
endloop
endfacet
facet normal -1.0 0.0 0.0
outer loop
vertex 0.0 16.749999999999996 4.511946372076636e-14
vertex 0.0 18.499999999999993 50.0
vertex 0.0 18.499999999999993 5.357936316841005e-14
endloop
endfacet
facet normal 2.534375913871006e-30 -1.641339443612692e-30 1.0
outer loop
vertex 18.846797281917084 1.3944290913027515 50.0
vertex 18.5 13.250000000000004 50.0
vertex 18.5 0.0 50.0
endloop
endfacet
facet normal 2.534375913871006e-30 -1.641339443612692e-30 1.0
outer loop
vertex 18.5 13.250000000000004 50.0
vertex 18.846797281917084 1.3944290913027515 50.0
vertex 19.329016143446864 2.7480042886971976 50.0
endloop
endfacet
facet normal 2.534375913871006e-30 -1.641339443612692e-30 1.0
outer loop
vertex 18.5 13.250000000000004 50.0
vertex 19.329016143446864 2.7480042886971976 50.0
vertex 19.941983628387884 4.047608731526464 50.0
endloop
endfacet
facet normal 2.534375913871006e-30 -1.641339443612692e-30 1.0
outer loop
vertex 18.5 13.250000000000004 50.0
vertex 19.941983628387884 4.047608731526464 50.0
vertex 20.679759757119786 5.280648564333931 50.0
endloop
endfacet
facet normal 2.534375913871006e-30 -1.641339443612692e-30 1.0
outer loop
vertex 18.5 13.250000000000004 50.0
vertex 20.679759757119786 5.280648564333931 50.0
vertex 21.535195088152214 6.435174977993632 50.0
endloop
endfacet
facet normal 2.534375913871006e-30 -1.641339443612692e-30 1.0
outer loop
vertex 18.5 13.250000000000004 50.0
vertex 21.535195088152214 6.435174977993632 50.0
vertex 22.5 7.500000000000002 50.0
endloop
endfacet
facet normal 2.534375913871006e-30 -1.641339443612692e-30 1.0
outer loop
vertex 18.5 13.250000000000004 50.0
vertex 22.5 7.500000000000002 50.0
vertex 23.564825022006374 8.464804911847793 50.0
endloop
endfacet
facet normal 2.534375913871006e-30 -1.641339443612692e-30 1.0
outer loop
vertex 18.5 13.250000000000004 50.0
vertex 23.564825022006374 8.464804911847793 50.0
vertex 30.0 13.250000000000002 50.0
endloop
endfacet
facet normal 2.534375913871006e-30 -1.641339443612692e-30 1.0
outer loop
vertex 30.0 13.250000000000002 50.0
vertex 23.564825022006374 8.464804911847793 50.0
vertex 24.719351435666074 9.320240242880223 50.0
endloop
endfacet
facet normal 2.534375913871006e-30 -1.641339443612692e-30 1.0
outer loop
vertex 30.0 13.250000000000002 50.0
vertex 24.719351435666074 9.320240242880223 50.0
vertex 25.952391268473544 10.05801637161212 50.0
endloop
endfacet
facet normal 2.534375913871006e-30 -1.641339443612692e-30 1.0
outer loop
vertex 30.0 13.250000000000002 50.0
vertex 25.952391268473544 10.05801637161212 50.0
vertex 27.251995711302804 10.670983856553146 50.0
endloop
endfacet
facet normal 2.534375913871006e-30 -1.641339443612692e-30 1.0
outer loop
vertex 30.0 13.250000000000002 50.0
vertex 27.251995711302804 10.670983856553146 50.0
vertex 28.605570908697253 11.153202718082929 50.0
endloop
endfacet
facet normal 2.534375913871006e-30 -1.641339443612692e-30 1.0
outer loop
vertex 30.0 13.250000000000002 50.0
vertex 28.605570908697253 11.153202718082929 50.0
vertex 30.0 11.500000000000002 50.0
endloop
endfacet
facet normal 2.534375913871006e-30 -1.641339443612692e-30 1.0
outer loop
vertex 18.5 0.0 50.0
vertex 16.75 11.500000000000002 50.0
vertex 16.75 0.0 50.0
endloop
endfacet
facet normal 2.534375913871006e-30 -1.641339443612692e-30 1.0
outer loop
vertex 16.75 11.500000000000002 50.0
vertex 18.5 0.0 50.0
vertex 16.75 18.499999999999993 50.0
endloop
endfacet
facet normal 2.534375913871006e-30 -1.641339443612692e-30 1.0
outer loop
vertex 16.75 18.499999999999993 50.0
vertex 18.5 0.0 50.0
vertex 16.75 30.0 50.0
endloop
endfacet
facet normal 2.534375913871006e-30 -1.641339443612692e-30 1.0
outer loop
vertex 16.75 30.0 50.0
vertex 18.5 0.0 50.0
vertex 18.5 30.0 50.0
endloop
endfacet
facet normal 2.534375913871006e-30 -1.641339443612692e-30 1.0
outer loop
vertex 18.5 30.0 50.0
vertex 18.5 0.0 50.0
vertex 18.5 13.250000000000004 50.0
endloop
endfacet
facet normal 2.534375913871006e-30 -1.641339443612692e-30 1.0
outer loop
vertex 18.5 30.0 50.0
vertex 18.5 13.250000000000004 50.0
vertex 18.5 16.749999999999996 50.0
endloop
endfacet
facet normal 2.534375913871006e-30 -1.641339443612692e-30 1.0
outer loop
vertex 18.5 30.0 50.0
vertex 18.5 16.749999999999996 50.0
vertex 18.846797281917077 28.605570908697242 50.0
endloop
endfacet
facet normal 2.534375913871006e-30 -1.641339443612692e-30 1.0
outer loop
vertex 18.846797281917077 28.605570908697242 50.0
vertex 18.5 16.749999999999996 50.0
vertex 19.329016143446857 27.251995711302797 50.0
endloop
endfacet
facet normal 2.534375913871006e-30 -1.641339443612692e-30 1.0
outer loop
vertex 19.329016143446857 27.251995711302797 50.0
vertex 18.5 16.749999999999996 50.0
vertex 19.941983628387884 25.952391268473534 50.0
endloop
endfacet
facet normal 2.534375913871006e-30 -1.641339443612692e-30 1.0
outer loop
vertex 19.941983628387884 25.952391268473534 50.0
vertex 18.5 16.749999999999996 50.0
vertex 20.679759757119783 24.71935143566607 50.0
endloop
endfacet
facet normal 2.534375913871006e-30 -1.641339443612692e-30 1.0
outer loop
vertex 20.679759757119783 24.71935143566607 50.0
vertex 18.5 16.749999999999996 50.0
vertex 21.535195088152214 23.564825022006367 50.0
endloop
endfacet
facet normal 2.534375913871006e-30 -1.641339443612692e-30 1.0
outer loop
vertex 21.535195088152214 23.564825022006367 50.0
vertex 18.5 16.749999999999996 50.0
vertex 22.5 22.499999999999993 50.0
endloop
endfacet
facet normal 2.534375913871006e-30 -1.641339443612692e-30 1.0
outer loop
vertex 22.5 22.499999999999993 50.0
vertex 18.5 16.749999999999996 50.0
vertex 23.56482502200637 21.53519508815221 50.0
endloop
endfacet
facet normal 2.534375913871006e-30 -1.641339443612692e-30 1.0
outer loop
vertex 23.56482502200637 21.53519508815221 50.0
vertex 18.5 16.749999999999996 50.0
vertex 30.0 16.749999999999996 50.0
endloop
endfacet
facet normal 2.534375913871006e-30 -1.641339443612692e-30 1.0
outer loop
vertex 23.56482502200637 21.53519508815221 50.0
vertex 30.0 16.749999999999996 50.0
vertex 24.719351435666074 20.67975975711978 50.0
endloop
endfacet
facet normal 2.534375913871006e-30 -1.641339443612692e-30 1.0
outer loop
vertex 24.719351435666074 20.67975975711978 50.0
vertex 30.0 16.749999999999996 50.0
vertex 25.95239126847354 19.94198362838788 50.0
endloop
endfacet
facet normal 2.534375913871006e-30 -1.641339443612692e-30 1.0
outer loop
vertex 25.95239126847354 19.94198362838788 50.0
vertex 30.0 16.749999999999996 50.0
vertex 27.251995711302804 19.329016143446857 50.0
endloop
endfacet
facet normal 2.534375913871006e-30 -1.641339443612692e-30 1.0
outer loop
vertex 27.251995711302804 19.329016143446857 50.0
vertex 30.0 16.749999999999996 50.0
vertex 28.605570908697246 18.846797281917077 50.0
endloop
endfacet
facet normal 2.534375913871006e-30 -1.641339443612692e-30 1.0
outer loop
vertex 28.605570908697246 18.846797281917077 50.0
vertex 30.0 16.749999999999996 50.0
vertex 30.0 18.499999999999993 50.0
endloop
endfacet
facet normal 2.534375913871006e-30 -1.641339443612692e-30 1.0
outer loop
vertex 1.3944290913027515 11.15320271808292 50.0
vertex 6.130361918582384e-17 13.250000000000002 50.0
vertex 0.0 11.500000000000002 50.0
endloop
endfacet
facet normal 2.534375913871006e-30 -1.641339443612692e-30 1.0
outer loop
vertex 6.130361918582384e-17 13.250000000000002 50.0
vertex 1.3944290913027515 11.15320271808292 50.0
vertex 11.500000000000002 13.250000000000004 50.0
endloop
endfacet
facet normal 2.534375913871006e-30 -1.641339443612692e-30 1.0
outer loop
vertex 11.500000000000002 13.250000000000004 50.0
vertex 1.3944290913027515 11.15320271808292 50.0
vertex 2.7480042886971976 10.67098385655314 50.0
endloop
endfacet
facet normal 2.534375913871006e-30 -1.641339443612692e-30 1.0
outer loop
vertex 11.500000000000002 13.250000000000004 50.0
vertex 2.7480042886971976 10.67098385655314 50.0
vertex 4.047608731526464 10.05801637161212 50.0
endloop
endfacet
facet normal 2.534375913871006e-30 -1.641339443612692e-30 1.0
outer loop
vertex 11.500000000000002 13.250000000000004 50.0
vertex 4.047608731526464 10.05801637161212 50.0
vertex 5.280648564333931 9.32024024288022 50.0
endloop
endfacet
facet normal 2.534375913871006e-30 -1.641339443612692e-30 1.0
outer loop
vertex 11.500000000000002 13.250000000000004 50.0
vertex 5.280648564333931 9.32024024288022 50.0
vertex 6.435174977993632 8.464804911847791 50.0
endloop
endfacet
facet normal 2.534375913871006e-30 -1.641339443612692e-30 1.0
outer loop
vertex 11.500000000000002 13.250000000000004 50.0
vertex 6.435174977993632 8.464804911847791 50.0
vertex 7.5000000000000036 7.500000000000002 50.0
endloop
endfacet
facet normal 2.534375913871006e-30 -1.641339443612692e-30 1.0
outer loop
vertex 11.500000000000002 13.250000000000004 50.0
vertex 7.5000000000000036 7.500000000000002 50.0
vertex 8.464804911847793 6.435174977993629 50.0
endloop
endfacet
facet normal 2.534375913871006e-30 -1.641339443612692e-30 1.0
outer loop
vertex 11.500000000000002 13.250000000000004 50.0
vertex 8.464804911847793 6.435174977993629 50.0
vertex 9.320240242880223 5.280648564333928 50.0
endloop
endfacet
facet normal 2.534375913871006e-30 -1.641339443612692e-30 1.0
outer loop
vertex 11.500000000000002 13.250000000000004 50.0
vertex 9.320240242880223 5.280648564333928 50.0
vertex 10.05801637161212 4.047608731526459 50.0
endloop
endfacet
facet normal 2.534375913871006e-30 -1.641339443612692e-30 1.0
outer loop
vertex 11.500000000000002 13.250000000000004 50.0
vertex 10.05801637161212 4.047608731526459 50.0
vertex 10.670983856553146 2.7480042886971963 50.0
endloop
endfacet
facet normal 2.534375913871006e-30 -1.641339443612692e-30 1.0
outer loop
vertex 11.500000000000002 13.250000000000004 50.0
vertex 10.670983856553146 2.7480042886971963 50.0
vertex 11.153202718082929 1.39442909130275 50.0
endloop
endfacet
facet normal 2.534375913871006e-30 -1.641339443612692e-30 1.0
outer loop
vertex 11.500000000000002 13.250000000000004 50.0
vertex 11.153202718082929 1.39442909130275 50.0
vertex 11.500000000000002 0.0 50.0
endloop
endfacet
facet normal 2.534375913871006e-30 -1.641339443612692e-30 1.0
outer loop
vertex 11.500000000000002 13.250000000000004 50.0
vertex 11.500000000000002 0.0 50.0
vertex 13.250000000000002 6.130361918582385e-17 50.0
endloop
endfacet
facet normal 2.534375913871006e-30 -1.641339443612692e-30 1.0
outer loop
vertex 11.500000000000002 13.250000000000004 50.0
vertex 13.250000000000002 6.130361918582385e-17 50.0
vertex 11.500000000000002 16.749999999999996 50.0
endloop
endfacet
facet normal 2.534375913871006e-30 -1.641339443612692e-30 1.0
outer loop
vertex 11.500000000000002 16.749999999999996 50.0
vertex 13.250000000000002 6.130361918582385e-17 50.0
vertex 11.500000000000002 30.0 50.0
endloop
endfacet
facet normal 2.534375913871006e-30 -1.641339443612692e-30 1.0
outer loop
vertex 11.500000000000002 30.0 50.0
vertex 13.250000000000002 6.130361918582385e-17 50.0
vertex 13.250000000000002 30.0 50.0
endloop
endfacet
facet normal 2.534375913871006e-30 -1.641339443612692e-30 1.0
outer loop
vertex 13.250000000000002 30.0 50.0
vertex 13.250000000000002 6.130361918582385e-17 50.0
vertex 13.250000000000004 11.500000000000002 50.0
endloop
endfacet
facet normal 2.534375913871006e-30 -1.641339443612692e-30 1.0
outer loop
vertex 13.250000000000002 30.0 50.0
vertex 13.250000000000004 11.500000000000002 50.0
vertex 13.250000000000004 18.499999999999993 50.0
endloop
endfacet
facet normal 2.534375913871006e-30 -1.641339443612692e-30 1.0
outer loop
vertex 13.250000000000004 18.499999999999993 50.0
vertex 13.250000000000004 11.500000000000002 50.0
vertex 16.75 11.500000000000002 50.0
endloop
endfacet
facet normal 2.534375913871006e-30 -1.641339443612692e-30 1.0
outer loop
vertex 13.250000000000004 18.499999999999993 50.0
vertex 16.75 11.500000000000002 50.0
vertex 16.75 18.499999999999993 50.0
endloop
endfacet
facet normal 2.534375913871006e-30 -1.641339443612692e-30 1.0
outer loop
vertex 11.500000000000002 16.749999999999996 50.0
vertex 0.0 18.499999999999993 50.0
vertex 0.0 16.749999999999996 50.0
endloop
endfacet
facet normal 2.534375913871006e-30 -1.641339443612692e-30 1.0
outer loop
vertex 0.0 18.499999999999993 50.0
vertex 11.500000000000002 16.749999999999996 50.0
vertex 1.3944290913027542 18.84679728191707 50.0
endloop
endfacet
facet normal 2.534375913871006e-30 -1.641339443612692e-30 1.0
outer loop
vertex 1.3944290913027542 18.84679728191707 50.0
vertex 11.500000000000002 16.749999999999996 50.0
vertex 2.7480042886971976 19.32901614344685 50.0
endloop
endfacet
facet normal 2.534375913871006e-30 -1.641339443612692e-30 1.0
outer loop
vertex 2.7480042886971976 19.32901614344685 50.0
vertex 11.500000000000002 16.749999999999996 50.0
vertex 4.047608731526464 19.941983628387877 50.0
endloop
endfacet
facet normal 2.534375913871006e-30 -1.641339443612692e-30 1.0
outer loop
vertex 4.047608731526464 19.941983628387877 50.0
vertex 11.500000000000002 16.749999999999996 50.0
vertex 5.280648564333931 20.679759757119772 50.0
endloop
endfacet
facet normal 2.534375913871006e-30 -1.641339443612692e-30 1.0
outer loop
vertex 5.280648564333931 20.679759757119772 50.0
vertex 11.500000000000002 16.749999999999996 50.0
vertex 6.435174977993632 21.535195088152204 50.0
endloop
endfacet
facet normal 2.534375913871006e-30 -1.641339443612692e-30 1.0
outer loop
vertex 6.435174977993632 21.535195088152204 50.0
vertex 11.500000000000002 16.749999999999996 50.0
vertex 7.5000000000000036 22.499999999999993 50.0
endloop
endfacet
facet normal 2.534375913871006e-30 -1.641339443612692e-30 1.0
outer loop
vertex 7.5000000000000036 22.499999999999993 50.0
vertex 11.500000000000002 16.749999999999996 50.0
vertex 8.464804911847793 23.564825022006367 50.0
endloop
endfacet
facet normal 2.534375913871006e-30 -1.641339443612692e-30 1.0
outer loop
vertex 8.464804911847793 23.564825022006367 50.0
vertex 11.500000000000002 16.749999999999996 50.0
vertex 9.320240242880223 24.71935143566607 50.0
endloop
endfacet
facet normal 2.534375913871006e-30 -1.641339443612692e-30 1.0
outer loop
vertex 9.320240242880223 24.71935143566607 50.0
vertex 11.500000000000002 16.749999999999996 50.0
vertex 10.05801637161212 25.952391268473534 50.0
endloop
endfacet
facet normal 2.534375913871006e-30 -1.641339443612692e-30 1.0
outer loop
vertex 10.05801637161212 25.952391268473534 50.0
vertex 11.500000000000002 16.749999999999996 50.0
vertex 10.670983856553146 27.251995711302804 50.0
endloop
endfacet
facet normal 2.534375913871006e-30 -1.641339443612692e-30 1.0
outer loop
vertex 10.670983856553146 27.251995711302804 50.0
vertex 11.500000000000002 16.749999999999996 50.0
vertex 11.153202718082925 28.605570908697246 50.0
endloop
endfacet
facet normal 2.534375913871006e-30 -1.641339443612692e-30 1.0
outer loop
vertex 11.153202718082925 28.605570908697246 50.0
vertex 11.500000000000002 16.749999999999996 50.0
vertex 11.500000000000002 30.0 50.0
endloop
endfacet
facet normal 0.24134989663571427 -0.9704381625811767 0.0
outer loop
vertex 30.0 11.500000000000002 50.0
vertex 28.605570908697253 11.153202718082929 1.127986593019159e-14
vertex 30.0 11.500000000000002 1.127986593019159e-14
endloop
endfacet
facet normal 0.2888225715272255 -0.9573826414639033 0.0
outer loop
vertex 28.605570908697253 11.153202718082929 1.127986593019159e-14
vertex 30.0 11.500000000000002 50.0
vertex 28.605570908697253 11.153202718082929 50.0
endloop
endfacet
facet normal 0.2888225715272255 -0.9573826414639033 0.0
outer loop
vertex 28.605570908697253 11.153202718082929 50.0
vertex 27.251995711302804 10.670983856553146 1.127986593019159e-14
vertex 28.605570908697253 11.153202718082929 1.127986593019159e-14
endloop
endfacet
facet normal 0.3815541342464626 -0.9243464949029842 0.0
outer loop
vertex 27.251995711302804 10.670983856553146 1.127986593019159e-14
vertex 28.605570908697253 11.153202718082929 50.0
vertex 27.251995711302804 10.670983856553146 50.0
endloop
endfacet
facet normal 0.3815541342464626 -0.9243464949029842 0.0
outer loop
vertex 27.251995711302804 10.670983856553146 50.0
vertex 25.952391268473544 10.05801637161212 1.127986593019159e-14
vertex 27.251995711302804 10.670983856553146 1.127986593019159e-14
endloop
endfacet
facet normal 0.4705882352941178 -0.8823529411764706 0.0
outer loop
vertex 25.952391268473544 10.05801637161212 1.127986593019159e-14
vertex 27.251995711302804 10.670983856553146 50.0
vertex 25.952391268473544 10.05801637161212 50.0
endloop
endfacet
facet normal 0.4705882352941178 -0.8823529411764706 0.0
outer loop
vertex 25.952391268473544 10.05801637161212 50.0
vertex 24.719351435666074 9.320240242880223 1.127986593019159e-14
vertex 25.952391268473544 10.05801637161212 1.127986593019159e-14
endloop
endfacet
facet normal 0.5550620870693276 -0.8318089200641228 0.0
outer loop
vertex 24.719351435666074 9.320240242880223 1.127986593019159e-14
vertex 25.952391268473544 10.05801637161212 50.0
vertex 24.719351435666074 9.320240242880223 50.0
endloop
endfacet
facet normal 0.5550620870693276 -0.8318089200641228 0.0
outer loop
vertex 24.719351435666074 9.320240242880223 50.0
vertex 23.564825022006374 8.464804911847793 1.127986593019159e-14
vertex 24.719351435666074 9.320240242880223 1.127986593019159e-14
endloop
endfacet
facet normal 0.6341570932022601 -0.7732042299038852 0.0
outer loop
vertex 23.564825022006374 8.464804911847793 1.127986593019159e-14
vertex 24.719351435666074 9.320240242880223 50.0
vertex 23.564825022006374 8.464804911847793 50.0
endloop
endfacet
facet normal 0.6341570932022601 -0.7732042299038852 0.0
outer loop
vertex 23.564825022006374 8.464804911847793 50.0
vertex 22.5 7.500000000000002 1.127986593019159e-14
vertex 23.564825022006374 8.464804911847793 1.127986593019159e-14
endloop
endfacet
facet normal 0.7071067811865476 -0.7071067811865475 0.0
outer loop
vertex 22.5 7.500000000000002 1.127986593019159e-14
vertex 23.564825022006374 8.464804911847793 50.0
vertex 22.5 7.500000000000002 50.0
endloop
endfacet
facet normal 0.7071067811865476 -0.7071067811865475 0.0
outer loop
vertex 22.5 7.500000000000002 1.127986593019159e-14
vertex 21.535195088152214 6.435174977993632 50.0
vertex 21.535195088152214 6.435174977993632 1.127986593019159e-14
endloop
endfacet
facet normal 0.7732042299038855 -0.6341570932022597 0.0
outer loop
vertex 21.535195088152214 6.435174977993632 50.0
vertex 22.5 7.500000000000002 1.127986593019159e-14
vertex 22.5 7.500000000000002 50.0
endloop
endfacet
facet normal 0.7732042299038855 -0.6341570932022597 0.0
outer loop
vertex 21.535195088152214 6.435174977993632 1.127986593019159e-14
vertex 20.679759757119786 5.280648564333931 50.0
vertex 20.679759757119786 5.280648564333931 1.127986593019159e-14
endloop
endfacet
facet normal 0.8318089200641219 -0.5550620870693286 0.0
outer loop
vertex 20.679759757119786 5.280648564333931 50.0
vertex 21.535195088152214 6.435174977993632 1.127986593019159e-14
vertex 21.535195088152214 6.435174977993632 50.0
endloop
endfacet
facet normal 0.8318089200641219 -0.5550620870693286 0.0
outer loop
vertex 20.679759757119786 5.280648564333931 1.127986593019159e-14
vertex 19.941983628387884 4.047608731526464 50.0
vertex 19.941983628387884 4.047608731526464 1.127986593019159e-14
endloop
endfacet
facet normal 0.882352941176471 -0.4705882352941169 0.0
outer loop
vertex 19.941983628387884 4.047608731526464 50.0
vertex 20.679759757119786 5.280648564333931 1.127986593019159e-14
vertex 20.679759757119786 5.280648564333931 50.0
endloop
endfacet
facet normal 0.882352941176471 -0.4705882352941169 0.0
outer loop
vertex 19.941983628387884 4.047608731526464 1.127986593019159e-14
vertex 19.329016143446864 2.7480042886971976 50.0
vertex 19.329016143446864 2.7480042886971976 1.127986593019159e-14
endloop
endfacet
facet normal 0.9243464949029855 -0.3815541342464595 0.0
outer loop
vertex 19.329016143446864 2.7480042886971976 50.0
vertex 19.941983628387884 4.047608731526464 1.127986593019159e-14
vertex 19.941983628387884 4.047608731526464 50.0
endloop
endfacet
facet normal 0.9243464949029855 -0.3815541342464595 0.0
outer loop
vertex 19.329016143446864 2.7480042886971976 1.127986593019159e-14
vertex 18.846797281917084 1.3944290913027515 50.0
vertex 18.846797281917084 1.3944290913027515 1.127986593019159e-14
endloop
endfacet
facet normal 0.9573826414639025 -0.2888225715272278 0.0
outer loop
vertex 18.846797281917084 1.3944290913027515 50.0
vertex 19.329016143446864 2.7480042886971976 1.127986593019159e-14
vertex 19.329016143446864 2.7480042886971976 50.0
endloop
endfacet
facet normal 0.9573826414639025 -0.2888225715272278 0.0
outer loop
vertex 18.846797281917084 1.3944290913027515 1.127986593019159e-14
vertex 18.5 0.0 50.0
vertex 18.5 0.0 1.127986593019159e-14
endloop
endfacet
facet normal 0.9704381625811752 -0.2413498966357203 -0.0
outer loop
vertex 18.5 0.0 50.0
vertex 18.846797281917084 1.3944290913027515 1.127986593019159e-14
vertex 18.846797281917084 1.3944290913027515 50.0
endloop
endfacet
facet normal 0.9704381625811764 0.2413498966357152 1.5354122350971943e-33
outer loop
vertex 18.5 30.0 2.8199664825478975e-15
vertex 18.846797281917077 28.605570908697242 50.0
vertex 18.846797281917077 28.605570908697242 2.8199664825478975e-15
endloop
endfacet
facet normal 0.9573826414639031 0.2888225715272256 7.686377455018199e-34
outer loop
vertex 18.846797281917077 28.605570908697242 50.0
vertex 18.5 30.0 2.8199664825478975e-15
vertex 18.5 30.0 50.0
endloop
endfacet
facet normal 0.9573826414639031 0.2888225715272256 7.686377455018199e-34
outer loop
vertex 18.846797281917077 28.605570908697242 2.8199664825478975e-15
vertex 19.329016143446857 27.251995711302797 50.0
vertex 19.329016143446857 27.251995711302797 2.8199664825478975e-15
endloop
endfacet
facet normal 0.9243464949029845 0.3815541342464616 0.0
outer loop
vertex 19.329016143446857 27.251995711302797 50.0
vertex 18.846797281917077 28.605570908697242 2.8199664825478975e-15
vertex 18.846797281917077 28.605570908697242 50.0
endloop
endfacet
facet normal 0.9243464949029845 0.3815541342464616 0.0
outer loop
vertex 19.329016143446857 27.251995711302797 2.8199664825478975e-15
vertex 19.941983628387884 25.952391268473534 50.0
vertex 19.941983628387884 25.952391268473534 2.8199664825478975e-15
endloop
endfacet
facet normal 0.8823529411764702 0.47058823529411825 0.0
outer loop
vertex 19.941983628387884 25.952391268473534 50.0
vertex 19.329016143446857 27.251995711302797 2.8199664825478975e-15
vertex 19.329016143446857 27.251995711302797 50.0
endloop
endfacet
facet normal 0.8823529411764702 0.47058823529411825 0.0
outer loop
vertex 19.941983628387884 25.952391268473534 2.8199664825478975e-15
vertex 20.679759757119783 24.71935143566607 50.0
vertex 20.679759757119783 24.71935143566607 2.8199664825478975e-15
endloop
endfacet
facet normal 0.8318089200641218 0.5550620870693291 0.0
outer loop
vertex 20.679759757119783 24.71935143566607 50.0
vertex 19.941983628387884 25.952391268473534 2.8199664825478975e-15
vertex 19.941983628387884 25.952391268473534 50.0
endloop
endfacet
facet normal 0.8318089200641218 0.5550620870693291 0.0
outer loop
vertex 20.679759757119783 24.71935143566607 2.8199664825478975e-15
vertex 21.535195088152214 23.564825022006367 50.0
vertex 21.535195088152214 23.564825022006367 2.8199664825478975e-15
endloop
endfacet
facet normal 0.7732042299038857 0.6341570932022593 0.0
outer loop
vertex 21.535195088152214 23.564825022006367 50.0
vertex 20.679759757119783 24.71935143566607 2.8199664825478975e-15
vertex 20.679759757119783 24.71935143566607 50.0
endloop
endfacet
facet normal 0.7732042299038857 0.6341570932022593 0.0
outer loop
vertex 21.535195088152214 23.564825022006367 2.8199664825478975e-15
vertex 22.5 22.499999999999993 50.0
vertex 22.5 22.499999999999993 2.8199664825478975e-15
endloop
endfacet
facet normal 0.7071067811865472 0.7071067811865476 0.0
outer loop
vertex 22.5 22.499999999999993 50.0
vertex 21.535195088152214 23.564825022006367 2.8199664825478975e-15
vertex 21.535195088152214 23.564825022006367 50.0
endloop
endfacet
facet normal 0.7071067811865472 0.7071067811865476 0.0
outer loop
vertex 22.5 22.499999999999993 50.0
vertex 23.56482502200637 21.53519508815221 2.8199664825478975e-15
vertex 22.5 22.499999999999993 2.8199664825478975e-15
endloop
endfacet
facet normal 0.634157093202259 0.7732042299038858 0.0
outer loop
vertex 23.56482502200637 21.53519508815221 2.8199664825478975e-15
vertex 22.5 22.499999999999993 50.0
vertex 23.56482502200637 21.53519508815221 50.0
endloop
endfacet
facet normal 0.634157093202259 0.7732042299038858 0.0
outer loop
vertex 23.56482502200637 21.53519508815221 50.0
vertex 24.719351435666074 20.67975975711978 2.8199664825478975e-15
vertex 23.56482502200637 21.53519508815221 2.8199664825478975e-15
endloop
endfacet
facet normal 0.5550620870693287 0.8318089200641221 0.0
outer loop
vertex 24.719351435666074 20.67975975711978 2.8199664825478975e-15
vertex 23.56482502200637 21.53519508815221 50.0
vertex 24.719351435666074 20.67975975711978 50.0
endloop
endfacet
facet normal 0.5550620870693287 0.8318089200641221 0.0
outer loop
vertex 24.719351435666074 20.67975975711978 50.0
vertex 25.95239126847354 19.94198362838788 2.8199664825478975e-15
vertex 24.719351435666074 20.67975975711978 2.8199664825478975e-15
endloop
endfacet
facet normal 0.4705882352941171 0.8823529411764708 0.0
outer loop
vertex 25.95239126847354 19.94198362838788 2.8199664825478975e-15
vertex 24.719351435666074 20.67975975711978 50.0
vertex 25.95239126847354 19.94198362838788 50.0
endloop
endfacet
facet normal 0.4705882352941171 0.8823529411764708 0.0
outer loop
vertex 25.95239126847354 19.94198362838788 50.0
vertex 27.251995711302804 19.329016143446857 2.8199664825478975e-15
vertex 25.95239126847354 19.94198362838788 2.8199664825478975e-15
endloop
endfacet
facet normal 0.38155413424646173 0.9243464949029845 0.0
outer loop
vertex 27.251995711302804 19.329016143446857 2.8199664825478975e-15
vertex 25.95239126847354 19.94198362838788 50.0
vertex 27.251995711302804 19.329016143446857 50.0
endloop
endfacet
facet normal 0.38155413424646173 0.9243464949029845 0.0
outer loop
vertex 27.251995711302804 19.329016143446857 50.0
vertex 28.605570908697246 18.846797281917077 2.8199664825478975e-15
vertex 27.251995711302804 19.329016143446857 2.8199664825478975e-15
endloop
endfacet
facet normal 0.2888225715272279 0.9573826414639025 1.5452987795581724e-33
outer loop
vertex 28.605570908697246 18.846797281917077 2.8199664825478975e-15
vertex 27.251995711302804 19.329016143446857 50.0
vertex 28.605570908697246 18.846797281917077 50.0
endloop
endfacet
facet normal 0.2888225715272279 0.9573826414639025 1.5452987795581724e-33
outer loop
vertex 28.605570908697246 18.846797281917077 50.0
vertex 30.0 18.499999999999993 2.8199664825478975e-15
vertex 28.605570908697246 18.846797281917077 2.8199664825478975e-15
endloop
endfacet
facet normal 0.24134989663571796 0.9704381625811757 3.086851598037689e-33
outer loop
vertex 30.0 18.499999999999993 2.8199664825478975e-15
vertex 28.605570908697246 18.846797281917077 50.0
vertex 30.0 18.499999999999993 50.0
endloop
endfacet
facet normal -0.6341570932022607 0.7732042299038847 0.0
outer loop
vertex 6.435174977993632 21.535195088152204 50.0
vertex 7.5000000000000036 22.499999999999993 5.357936316841005e-14
vertex 6.435174977993632 21.535195088152204 5.357936316841005e-14
endloop
endfacet
facet normal -0.707106781186548 0.7071067811865471 0.0
outer loop
vertex 7.5000000000000036 22.499999999999993 5.357936316841005e-14
vertex 6.435174977993632 21.535195088152204 50.0
vertex 7.5000000000000036 22.499999999999993 50.0
endloop
endfacet
facet normal -0.7732042299038855 0.6341570932022598 0.0
outer loop
vertex 8.464804911847793 23.564825022006367 50.0
vertex 7.5000000000000036 22.499999999999993 5.357936316841005e-14
vertex 7.5000000000000036 22.499999999999993 50.0
endloop
endfacet
facet normal -0.707106781186548 0.7071067811865471 0.0
outer loop
vertex 7.5000000000000036 22.499999999999993 5.357936316841005e-14
vertex 8.464804911847793 23.564825022006367 50.0
vertex 8.464804911847793 23.564825022006367 5.357936316841005e-14
endloop
endfacet
facet normal -0.8318089200641223 0.5550620870693284 0.0
outer loop
vertex 9.320240242880223 24.71935143566607 50.0
vertex 8.464804911847793 23.564825022006367 5.357936316841005e-14
vertex 8.464804911847793 23.564825022006367 50.0
endloop
endfacet
facet normal -0.7732042299038855 0.6341570932022598 0.0
outer loop
vertex 8.464804911847793 23.564825022006367 5.357936316841005e-14
vertex 9.320240242880223 24.71935143566607 50.0
vertex 9.320240242880223 24.71935143566607 5.357936316841005e-14
endloop
endfacet
facet normal -0.8823529411764708 0.4705882352941171 0.0
outer loop
vertex 10.05801637161212 25.952391268473534 50.0
vertex 9.320240242880223 24.71935143566607 5.357936316841005e-14
vertex 9.320240242880223 24.71935143566607 50.0
endloop
endfacet
facet normal -0.8318089200641223 0.5550620870693284 0.0
outer loop
vertex 9.320240242880223 24.71935143566607 5.357936316841005e-14
vertex 10.05801637161212 25.952391268473534 50.0
vertex 10.05801637161212 25.952391268473534 5.357936316841005e-14
endloop
endfacet
facet normal -0.9243464949029848 0.3815541342464609 0.0
outer loop
vertex 10.670983856553146 27.251995711302804 50.0
vertex 10.05801637161212 25.952391268473534 5.357936316841005e-14
vertex 10.05801637161212 25.952391268473534 50.0
endloop
endfacet
facet normal -0.8823529411764708 0.4705882352941171 0.0
outer loop
vertex 10.05801637161212 25.952391268473534 5.357936316841005e-14
vertex 10.670983856553146 27.251995711302804 50.0
vertex 10.670983856553146 27.251995711302804 5.357936316841005e-14
endloop
endfacet
facet normal -0.9573826414639031 0.2888225715272256 1.087407344967865e-19
outer loop
vertex 11.153202718082925 28.605570908697246 50.0
vertex 10.670983856553146 27.251995711302804 5.357936316841005e-14
vertex 10.670983856553146 27.251995711302804 50.0
endloop
endfacet
facet normal -0.9243464949029848 0.3815541342464609 0.0
outer loop
vertex 10.670983856553146 27.251995711302804 5.357936316841005e-14
vertex 11.153202718082925 28.605570908697246 50.0
vertex 11.153202718082925 28.605570908697246 5.357936316841005e-14
endloop
endfacet
facet normal -0.9704381625811764 0.24134989663571518 2.1721787041672962e-19
outer loop
vertex 11.500000000000002 30.0 50.0
vertex 11.153202718082925 28.605570908697246 5.357936316841005e-14
vertex 11.153202718082925 28.605570908697246 50.0
endloop
endfacet
facet normal -0.9573826414639031 0.2888225715272256 1.087407344967865e-19
outer loop
vertex 11.153202718082925 28.605570908697246 5.357936316841005e-14
vertex 11.500000000000002 30.0 50.0
vertex 11.500000000000002 30.0 5.357936316841005e-14
endloop
endfacet
facet normal -0.24134989663571427 0.9704381625811767 2.172178704167312e-19
outer loop
vertex 0.0 18.499999999999993 50.0
vertex 1.3944290913027542 18.84679728191707 5.357936316841005e-14
vertex 0.0 18.499999999999993 5.357936316841005e-14
endloop
endfacet
facet normal -0.2888225715272252 0.9573826414639033 1.087407344967873e-19
outer loop
vertex 1.3944290913027542 18.84679728191707 5.357936316841005e-14
vertex 0.0 18.499999999999993 50.0
vertex 1.3944290913027542 18.84679728191707 50.0
endloop
endfacet
facet normal -0.2888225715272252 0.9573826414639033 1.087407344967873e-19
outer loop
vertex 1.3944290913027542 18.84679728191707 50.0
vertex 2.7480042886971976 19.32901614344685 5.357936316841005e-14
vertex 1.3944290913027542 18.84679728191707 5.357936316841005e-14
endloop
endfacet
facet normal -0.3815541342464615 0.9243464949029846 0.0
outer loop
vertex 2.7480042886971976 19.32901614344685 5.357936316841005e-14
vertex 1.3944290913027542 18.84679728191707 50.0
vertex 2.7480042886971976 19.32901614344685 50.0
endloop
endfacet
facet normal -0.3815541342464615 0.9243464949029846 0.0
outer loop
vertex 2.7480042886971976 19.32901614344685 50.0
vertex 4.047608731526464 19.941983628387877 5.357936316841005e-14
vertex 2.7480042886971976 19.32901614344685 5.357936316841005e-14
endloop
endfacet
facet normal -0.4705882352941177 0.8823529411764706 0.0
outer loop
vertex 4.047608731526464 19.941983628387877 5.357936316841005e-14
vertex 2.7480042886971976 19.32901614344685 50.0
vertex 4.047608731526464 19.941983628387877 50.0
endloop
endfacet
facet normal -0.4705882352941177 0.8823529411764706 0.0
outer loop
vertex 4.047608731526464 19.941983628387877 50.0
vertex 5.280648564333931 20.679759757119772 5.357936316841005e-14
vertex 4.047608731526464 19.941983628387877 5.357936316841005e-14
endloop
endfacet
facet normal -0.5550620870693287 0.8318089200641221 0.0
outer loop
vertex 5.280648564333931 20.679759757119772 5.357936316841005e-14
vertex 4.047608731526464 19.941983628387877 50.0
vertex 5.280648564333931 20.679759757119772 50.0
endloop
endfacet
facet normal -0.5550620870693287 0.8318089200641221 0.0
outer loop
vertex 5.280648564333931 20.679759757119772 50.0
vertex 6.435174977993632 21.535195088152204 5.357936316841005e-14
vertex 5.280648564333931 20.679759757119772 5.357936316841005e-14
endloop
endfacet
facet normal -0.6341570932022607 0.7732042299038847 0.0
outer loop
vertex 6.435174977993632 21.535195088152204 5.357936316841005e-14
vertex 5.280648564333931 20.679759757119772 50.0
vertex 6.435174977993632 21.535195088152204 50.0
endloop
endfacet
facet normal -0.7071067811865478 -0.7071067811865472 0.0
outer loop
vertex 7.5000000000000036 7.500000000000002 50.0
vertex 8.464804911847793 6.435174977993629 3.101963130802687e-14
vertex 8.464804911847793 6.435174977993629 50.0
endloop
endfacet
facet normal -0.7732042299038849 -0.6341570932022603 0.0
outer loop
vertex 8.464804911847793 6.435174977993629 3.101963130802687e-14
vertex 7.5000000000000036 7.500000000000002 50.0
vertex 7.5000000000000036 7.500000000000002 3.101963130802687e-14
endloop
endfacet
facet normal -0.7071067811865478 -0.7071067811865472 0.0
outer loop
vertex 7.5000000000000036 7.500000000000002 50.0
vertex 6.435174977993632 8.464804911847791 3.101963130802687e-14
vertex 7.5000000000000036 7.500000000000002 3.101963130802687e-14
endloop
endfacet
facet normal -0.63415709320226 -0.7732042299038852 0.0
outer loop
vertex 6.435174977993632 8.464804911847791 3.101963130802687e-14
vertex 7.5000000000000036 7.500000000000002 50.0
vertex 6.435174977993632 8.464804911847791 50.0
endloop
endfacet
facet normal -0.63415709320226 -0.7732042299038852 0.0
outer loop
vertex 6.435174977993632 8.464804911847791 50.0
vertex 5.280648564333931 9.32024024288022 3.101963130802687e-14
vertex 6.435174977993632 8.464804911847791 3.101963130802687e-14
endloop
endfacet
facet normal -0.5550620870693282 -0.8318089200641221 0.0
outer loop
vertex 5.280648564333931 9.32024024288022 3.101963130802687e-14
vertex 6.435174977993632 8.464804911847791 50.0
vertex 5.280648564333931 9.32024024288022 50.0
endloop
endfacet
facet normal -0.5550620870693282 -0.8318089200641221 0.0
outer loop
vertex 5.280648564333931 9.32024024288022 50.0
vertex 4.047608731526464 10.05801637161212 3.101963130802687e-14
vertex 5.280648564333931 9.32024024288022 3.101963130802687e-14
endloop
endfacet
facet normal -0.4705882352941169 -0.882352941176471 0.0
outer loop
vertex 4.047608731526464 10.05801637161212 3.101963130802687e-14
vertex 5.280648564333931 9.32024024288022 50.0
vertex 4.047608731526464 10.05801637161212 50.0
endloop
endfacet
facet normal -0.4705882352941169 -0.882352941176471 0.0
outer loop
vertex 4.047608731526464 10.05801637161212 50.0
vertex 2.7480042886971976 10.67098385655314 3.101963130802687e-14
vertex 4.047608731526464 10.05801637161212 3.101963130802687e-14
endloop
endfacet
facet normal -0.3815541342464595 -0.9243464949029855 0.0
outer loop
vertex 2.7480042886971976 10.67098385655314 3.101963130802687e-14
vertex 4.047608731526464 10.05801637161212 50.0
vertex 2.7480042886971976 10.67098385655314 50.0
endloop
endfacet
facet normal -0.3815541342464595 -0.9243464949029855 0.0
outer loop
vertex 2.7480042886971976 10.67098385655314 50.0
vertex 1.3944290913027515 11.15320271808292 3.101963130802687e-14
vertex 2.7480042886971976 10.67098385655314 3.101963130802687e-14
endloop
endfacet
facet normal -0.28882257152722735 -0.9573826414639026 7.726493897790869e-34
outer loop
vertex 1.3944290913027515 11.15320271808292 3.101963130802687e-14
vertex 2.7480042886971976 10.67098385655314 50.0
vertex 1.3944290913027515 11.15320271808292 50.0
endloop
endfacet
facet normal -0.28882257152722735 -0.9573826414639026 7.726493897790869e-34
outer loop
vertex 1.3944290913027515 11.15320271808292 50.0
vertex 0.0 11.500000000000002 3.101963130802687e-14
vertex 1.3944290913027515 11.15320271808292 3.101963130802687e-14
endloop
endfacet
facet normal -0.24134989663571932 -0.9704381625811754 1.5434257990188463e-33
outer loop
vertex 0.0 11.500000000000002 3.101963130802687e-14
vertex 1.3944290913027515 11.15320271808292 50.0
vertex 0.0 11.500000000000002 50.0
endloop
endfacet
facet normal -0.9573826414639031 -0.2888225715272257 -7.72649389779088e-34
outer loop
vertex 11.153202718082929 1.39442909130275 50.0
vertex 11.500000000000002 0.0 3.101963130802687e-14
vertex 11.500000000000002 0.0 50.0
endloop
endfacet
facet normal -0.9704381625811767 -0.24134989663571405 -1.543425799018848e-33
outer loop
vertex 11.500000000000002 0.0 3.101963130802687e-14
vertex 11.153202718082929 1.39442909130275 50.0
vertex 11.153202718082929 1.39442909130275 3.101963130802687e-14
endloop
endfacet
facet normal -0.9243464949029843 -0.38155413424646234 0.0
outer loop
vertex 10.670983856553146 2.7480042886971963 50.0
vertex 11.153202718082929 1.39442909130275 3.101963130802687e-14
vertex 11.153202718082929 1.39442909130275 50.0
endloop
endfacet
facet normal -0.9573826414639031 -0.2888225715272257 -7.72649389779088e-34
outer loop
vertex 11.153202718082929 1.39442909130275 3.101963130802687e-14
vertex 10.670983856553146 2.7480042886971963 50.0
vertex 10.670983856553146 2.7480042886971963 3.101963130802687e-14
endloop
endfacet
facet normal -0.8823529411764706 -0.47058823529411736 0.0
outer loop
vertex 10.05801637161212 4.047608731526459 50.0
vertex 10.670983856553146 2.7480042886971963 3.101963130802687e-14
vertex 10.670983856553146 2.7480042886971963 50.0
endloop
endfacet
facet normal -0.9243464949029843 -0.38155413424646234 0.0
outer loop
vertex 10.670983856553146 2.7480042886971963 3.101963130802687e-14
vertex 10.05801637161212 4.047608731526459 50.0
vertex 10.05801637161212 4.047608731526459 3.101963130802687e-14
endloop
endfacet
facet normal -0.8318089200641227 -0.5550620870693278 0.0
outer loop
vertex 9.320240242880223 5.280648564333928 50.0
vertex 10.05801637161212 4.047608731526459 3.101963130802687e-14
vertex 10.05801637161212 4.047608731526459 50.0
endloop
endfacet
facet normal -0.8823529411764706 -0.47058823529411736 0.0
outer loop
vertex 10.05801637161212 4.047608731526459 3.101963130802687e-14
vertex 9.320240242880223 5.280648564333928 50.0
vertex 9.320240242880223 5.280648564333928 3.101963130802687e-14
endloop
endfacet
facet normal -0.7732042299038849 -0.6341570932022603 0.0
outer loop
vertex 8.464804911847793 6.435174977993629 50.0
vertex 9.320240242880223 5.280648564333928 3.101963130802687e-14
vertex 9.320240242880223 5.280648564333928 50.0
endloop
endfacet
facet normal -0.8318089200641227 -0.5550620870693278 0.0
outer loop
vertex 9.320240242880223 5.280648564333928 3.101963130802687e-14
vertex 8.464804911847793 6.435174977993629 50.0
vertex 8.464804911847793 6.435174977993629 3.101963130802687e-14
endloop
endfacet
facet normal -1.0 0.0 0.0
outer loop
vertex 16.75 11.500000000000002 50.0
vertex 16.75 0.0 2.5379698342931078e-14
vertex 16.75 0.0 50.0
endloop
endfacet
facet normal -1.0 0.0 0.0
outer loop
vertex 16.75 0.0 2.5379698342931078e-14
vertex 16.75 11.500000000000002 50.0
vertex 16.75 11.500000000000002 2.5379698342931078e-14
endloop
endfacet
facet normal -0.0 -1.0 -0.0
outer loop
vertex 16.75 11.500000000000002 50.0
vertex 13.250000000000004 11.500000000000002 2.5379698342931078e-14
vertex 16.75 11.500000000000002 2.5379698342931078e-14
endloop
endfacet
facet normal -0.0 -1.0 -0.0
outer loop
vertex 13.250000000000004 11.500000000000002 2.5379698342931078e-14
vertex 16.75 11.500000000000002 50.0
vertex 13.250000000000004 11.500000000000002 50.0
endloop
endfacet
facet normal 1.0 -2.452144767432954e-16 0.0
outer loop
vertex 13.250000000000004 11.500000000000002 2.5379698342931078e-14
vertex 13.250000000000002 6.130361918582385e-17 50.0
vertex 13.250000000000002 6.130361918582385e-17 2.5379698342931078e-14
endloop
endfacet
facet normal 1.0 -2.452144767432954e-16 0.0
outer loop
vertex 13.250000000000002 6.130361918582385e-17 50.0
vertex 13.250000000000004 11.500000000000002 2.5379698342931078e-14
vertex 13.250000000000004 11.500000000000002 50.0
endloop
endfacet
facet normal 0.0 -1.0 0.0
outer loop
vertex 18.5 0.0 50.0
vertex 16.75 0.0 2.5379698342931078e-14
vertex 18.5 0.0 1.127986593019159e-14
endloop
endfacet
facet normal 0.0 -1.0 0.0
outer loop
vertex 16.75 0.0 2.5379698342931078e-14
vertex 18.5 0.0 50.0
vertex 16.75 0.0 50.0
endloop
endfacet
facet normal -2.4521447674329536e-16 -1.0 0.0
outer loop
vertex 30.0 16.749999999999996 50.0
vertex 18.5 16.749999999999996 8.459899447643692e-15
vertex 30.0 16.749999999999996 8.459899447643692e-15
endloop
endfacet
facet normal -2.4521447674329536e-16 -1.0 0.0
outer loop
vertex 18.5 16.749999999999996 8.459899447643692e-15
vertex 30.0 16.749999999999996 50.0
vertex 18.5 16.749999999999996 50.0
endloop
endfacet
facet normal 1.0 0.0 0.0
outer loop
vertex 18.5 16.749999999999996 8.459899447643692e-15
vertex 18.5 13.250000000000004 50.0
vertex 18.5 13.250000000000004 8.459899447643692e-15
endloop
endfacet
facet normal 1.0 0.0 0.0
outer loop
vertex 18.5 13.250000000000004 50.0
vertex 18.5 16.749999999999996 8.459899447643692e-15
vertex 18.5 16.749999999999996 50.0
endloop
endfacet
facet normal 2.4521447674329536e-16 1.0 0.0
outer loop
vertex 18.5 13.250000000000004 50.0
vertex 30.0 13.250000000000002 8.459899447643692e-15
vertex 18.5 13.250000000000004 8.459899447643692e-15
endloop
endfacet
facet normal 2.4521447674329536e-16 1.0 0.0
outer loop
vertex 30.0 13.250000000000002 8.459899447643692e-15
vertex 18.5 13.250000000000004 50.0
vertex 30.0 13.250000000000002 50.0
endloop
endfacet
facet normal 1.0 -0.0 -0.0
outer loop
vertex 30.0 18.499999999999993 2.8199664825478975e-15
vertex 30.0 16.749999999999996 50.0
vertex 30.0 16.749999999999996 8.459899447643692e-15
endloop
endfacet
facet normal 1.0 -0.0 -0.0
outer loop
vertex 30.0 16.749999999999996 50.0
vertex 30.0 18.499999999999993 2.8199664825478975e-15
vertex 30.0 18.499999999999993 50.0
endloop
endfacet
facet normal 1.0 2.4521447674329526e-16 0.0
outer loop
vertex 13.250000000000002 30.0 3.665956427312267e-14
vertex 13.250000000000004 18.499999999999993 50.0
vertex 13.250000000000004 18.499999999999993 3.665956427312267e-14
endloop
endfacet
facet normal 1.0 2.4521447674329526e-16 0.0
outer loop
vertex 13.250000000000004 18.499999999999993 50.0
vertex 13.250000000000002 30.0 3.665956427312267e-14
vertex 13.250000000000002 30.0 50.0
endloop
endfacet
facet normal -0.0 1.0 -0.0
outer loop
vertex 13.250000000000004 18.499999999999993 50.0
vertex 16.75 18.499999999999993 3.665956427312267e-14
vertex 13.250000000000004 18.499999999999993 3.665956427312267e-14
endloop
endfacet
facet normal -0.0 1.0 -0.0
outer loop
vertex 16.75 18.499999999999993 3.665956427312267e-14
vertex 13.250000000000004 18.499999999999993 50.0
vertex 16.75 18.499999999999993 50.0
endloop
endfacet
facet normal -1.0 0.0 0.0
outer loop
vertex 16.75 30.0 50.0
vertex 16.75 18.499999999999993 3.665956427312267e-14
vertex 16.75 18.499999999999993 50.0
endloop
endfacet
facet normal -1.0 0.0 0.0
outer loop
vertex 16.75 18.499999999999993 3.665956427312267e-14
vertex 16.75 30.0 50.0
vertex 16.75 30.0 3.665956427312267e-14
endloop
endfacet
facet normal -0.0 1.0 -0.0
outer loop
vertex 11.500000000000002 30.0 5.357936316841005e-14
vertex 13.250000000000002 30.0 50.0
vertex 13.250000000000002 30.0 3.665956427312267e-14
endloop
endfacet
facet normal -0.0 1.0 -0.0
outer loop
vertex 13.250000000000002 30.0 50.0
vertex 11.500000000000002 30.0 5.357936316841005e-14
vertex 11.500000000000002 30.0 50.0
endloop
endfacet
facet normal -2.4521447674329536e-16 1.0 0.0
outer loop
vertex 6.130361918582384e-17 13.250000000000002 50.0
vertex 11.500000000000002 13.250000000000004 4.511946372076636e-14
vertex 6.130361918582384e-17 13.250000000000002 4.511946372076636e-14
endloop
endfacet
facet normal -2.4521447674329536e-16 1.0 0.0
outer loop
vertex 11.500000000000002 13.250000000000004 4.511946372076636e-14
vertex 6.130361918582384e-17 13.250000000000002 50.0
vertex 11.500000000000002 13.250000000000004 50.0
endloop
endfacet
facet normal -1.0 0.0 -0.0
outer loop
vertex 11.500000000000002 16.749999999999996 50.0
vertex 11.500000000000002 13.250000000000004 4.511946372076636e-14
vertex 11.500000000000002 13.250000000000004 50.0
endloop
endfacet
facet normal -1.0 0.0 -0.0
outer loop
vertex 11.500000000000002 13.250000000000004 4.511946372076636e-14
vertex 11.500000000000002 16.749999999999996 50.0
vertex 11.500000000000002 16.749999999999996 4.511946372076636e-14
endloop
endfacet
facet normal 0.0 -1.0 0.0
outer loop
vertex 11.500000000000002 16.749999999999996 50.0
vertex 0.0 16.749999999999996 4.511946372076636e-14
vertex 11.500000000000002 16.749999999999996 4.511946372076636e-14
endloop
endfacet
facet normal 0.0 -1.0 0.0
outer loop
vertex 0.0 16.749999999999996 4.511946372076636e-14
vertex 11.500000000000002 16.749999999999996 50.0
vertex 0.0 16.749999999999996 50.0
endloop
endfacet
facet normal -1.0 0.0 0.0
outer loop
vertex 6.130361918582384e-17 13.250000000000002 50.0
vertex 0.0 11.500000000000002 3.101963130802687e-14
vertex 0.0 11.500000000000002 50.0
endloop
endfacet
facet normal -1.0 0.0 0.0
outer loop
vertex 0.0 11.500000000000002 3.101963130802687e-14
vertex 6.130361918582384e-17 13.250000000000002 50.0
vertex 6.130361918582384e-17 13.250000000000002 4.511946372076636e-14
endloop
endfacet
facet normal -1.696503176849104e-15 3.7168118788814667e-16 -1.0
outer loop
vertex 13.719277547631833 15.426907484122728 15.000000000000032
vertex 13.6774080789907 14.729351500131887 15.000000000000032
vertex 13.652425319561551 15.080885602186939 15.000000000000032
endloop
endfacet
facet normal -1.696503176849104e-15 3.7168118788814667e-16 -1.0
outer loop
vertex 13.6774080789907 14.729351500131887 15.000000000000032
vertex 13.719277547631833 15.426907484122728 15.000000000000032
vertex 13.79252329215014 14.396261646075052 15.000000000000032
endloop
endfacet
facet normal -1.696503176849104e-15 3.7168118788814667e-16 -1.0
outer loop
vertex 13.79252329215014 14.396261646075052 15.000000000000032
vertex 13.719277547631833 15.426907484122728 15.000000000000032
vertex 13.873408894337082 15.743836326513527 15.000000000000032
endloop
endfacet
facet normal -1.696503176849104e-15 3.7168118788814667e-16 -1.0
outer loop
vertex 13.79252329215014 14.396261646075052 15.000000000000032
vertex 13.873408894337082 15.743836326513527 15.000000000000032
vertex 13.98992604749994 14.104315563113401 15.000000000000032
endloop
endfacet
facet normal -1.696503176849104e-15 3.7168118788814667e-16 -1.0
outer loop
vertex 13.98992604749994 14.104315563113401 15.000000000000032
vertex 13.873408894337082 15.743836326513527 15.000000000000032
vertex 14.104315563113431 16.01007395250008 15.000000000000032
endloop
endfacet
facet normal -1.696503176849104e-15 3.7168118788814667e-16 -1.0
outer loop
vertex 13.98992604749994 14.104315563113401 15.000000000000032
vertex 14.104315563113431 16.01007395250008 15.000000000000032
vertex 14.256163673486494 13.873408894337052 15.000000000000032
endloop
endfacet
facet normal -1.696503176849104e-15 3.7168118788814667e-16 -1.0
outer loop
vertex 14.256163673486494 13.873408894337052 15.000000000000032
vertex 14.104315563113431 16.01007395250008 15.000000000000032
vertex 14.396261646075084 16.20747670784988 15.000000000000032
endloop
endfacet
facet normal -1.696503176849104e-15 3.7168118788814667e-16 -1.0
outer loop
vertex 14.256163673486494 13.873408894337052 15.000000000000032
vertex 14.396261646075084 16.20747670784988 15.000000000000032
vertex 14.573092515877294 13.719277547631803 15.000000000000028
endloop
endfacet
facet normal -1.696503176849104e-15 3.7168118788814667e-16 -1.0
outer loop
vertex 14.573092515877294 13.719277547631803 15.000000000000028
vertex 14.396261646075084 16.20747670784988 15.000000000000032
vertex 14.72935150013192 16.322591921009323 15.000000000000032
endloop
endfacet
facet normal -1.696503176849104e-15 3.7168118788814667e-16 -1.0
outer loop
vertex 14.573092515877294 13.719277547631803 15.000000000000028
vertex 14.72935150013192 16.322591921009323 15.000000000000032
vertex 14.919114397813082 13.652425319561521 15.000000000000028
endloop
endfacet
facet normal -1.696503176849104e-15 3.7168118788814667e-16 -1.0
outer loop
vertex 14.919114397813082 13.652425319561521 15.000000000000028
vertex 14.72935150013192 16.322591921009323 15.000000000000032
vertex 15.080885602186969 16.34757468043847 15.000000000000028
endloop
endfacet
facet normal -1.696503176849104e-15 3.7168118788814667e-16 -1.0
outer loop
vertex 14.919114397813082 13.652425319561521 15.000000000000028
vertex 15.080885602186969 16.34757468043847 15.000000000000028
vertex 15.270648499868134 13.677408078990668 15.000000000000028
endloop
endfacet
facet normal -1.696503176849104e-15 3.7168118788814667e-16 -1.0
outer loop
vertex 15.270648499868134 13.677408078990668 15.000000000000028
vertex 15.080885602186969 16.34757468043847 15.000000000000028
vertex 15.42690748412276 16.280722452368188 15.000000000000028
endloop
endfacet
facet normal -1.696503176849104e-15 3.7168118788814667e-16 -1.0
outer loop
vertex 15.270648499868134 13.677408078990668 15.000000000000028
vertex 15.42690748412276 16.280722452368188 15.000000000000028
vertex 15.603738353924967 13.792523292150108 15.000000000000028
endloop
endfacet
facet normal -1.696503176849104e-15 3.7168118788814667e-16 -1.0
outer loop
vertex 15.603738353924967 13.792523292150108 15.000000000000028
vertex 15.42690748412276 16.280722452368188 15.000000000000028
vertex 15.743836326513557 16.12659110566294 15.000000000000028
endloop
endfacet
facet normal -1.696503176849104e-15 3.7168118788814667e-16 -1.0
outer loop
vertex 15.603738353924967 13.792523292150108 15.000000000000028
vertex 15.743836326513557 16.12659110566294 15.000000000000028
vertex 15.89568443688662 13.98992604749991 15.000000000000028
endloop
endfacet
facet normal -1.696503176849104e-15 3.7168118788814667e-16 -1.0
outer loop
vertex 15.89568443688662 13.98992604749991 15.000000000000028
vertex 15.743836326513557 16.12659110566294 15.000000000000028
vertex 16.01007395250011 15.89568443688659 15.000000000000028
endloop
endfacet
facet normal -1.696503176849104e-15 3.7168118788814667e-16 -1.0
outer loop
vertex 15.89568443688662 13.98992604749991 15.000000000000028
vertex 16.01007395250011 15.89568443688659 15.000000000000028
vertex 16.12659110566297 14.256163673486462 15.000000000000027
endloop
endfacet
facet normal -1.696503176849104e-15 3.7168118788814667e-16 -1.0
outer loop
vertex 16.12659110566297 14.256163673486462 15.000000000000027
vertex 16.01007395250011 15.89568443688659 15.000000000000028
vertex 16.207476707849914 15.603738353924937 15.000000000000028
endloop
endfacet
facet normal -1.696503176849104e-15 3.7168118788814667e-16 -1.0
outer loop
vertex 16.12659110566297 14.256163673486462 15.000000000000027
vertex 16.207476707849914 15.603738353924937 15.000000000000028
vertex 16.28072245236822 14.573092515877262 15.000000000000027
endloop
endfacet
facet normal -1.696503176849104e-15 3.7168118788814667e-16 -1.0
outer loop
vertex 16.28072245236822 14.573092515877262 15.000000000000027
vertex 16.207476707849914 15.603738353924937 15.000000000000028
vertex 16.32259192100935 15.270648499868102 15.000000000000027
endloop
endfacet
facet normal -1.696503176849104e-15 3.7168118788814667e-16 -1.0
outer loop
vertex 16.28072245236822 14.573092515877262 15.000000000000027
vertex 16.32259192100935 15.270648499868102 15.000000000000027
vertex 16.347574680438502 14.919114397813052 15.000000000000027
endloop
endfacet
facet normal 0.8944271909999165 0.44721359549995654 -1.3511776905764258e-15
outer loop
vertex 13.792523292150113 14.39626164607506 3.072874632839413e-14
vertex 13.6774080789907 14.729351500131887 15.000000000000032
vertex 13.79252329215014 14.396261646075052 15.000000000000032
endloop
endfacet
facet normal 0.9796977192661682 0.20048037027267285 -1.5875455109156738e-15
outer loop
vertex 13.6774080789907 14.729351500131887 15.000000000000032
vertex 13.792523292150113 14.39626164607506 3.072874632839413e-14
vertex 13.677408078990673 14.729351500131893 3.104784288585211e-14
endloop
endfacet
facet normal 0.9796977192661682 0.2004803702726728 -1.5875455109156736e-15
outer loop
vertex 13.677408078990673 14.729351500131893 3.104784288585211e-14
vertex 13.652425319561551 15.080885602186939 15.000000000000032
vertex 13.6774080789907 14.729351500131887 15.000000000000032
endloop
endfacet
facet normal 0.9982034669914623 -0.05991526087921789 -1.7157247282290218e-15
outer loop
vertex 13.652425319561551 15.080885602186939 15.000000000000032
vertex 13.677408078990673 14.729351500131893 3.104784288585211e-14
vertex 13.652425319561527 15.080885602186944 3.1220884829225135e-14
endloop
endfacet
facet normal 0.9982034669914622 -0.059915260879217905 -1.7157247282290212e-15
outer loop
vertex 13.652425319561527 15.080885602186944 3.1220884829225135e-14
vertex 13.719277547631833 15.426907484122728 15.000000000000032
vertex 13.652425319561551 15.080885602186939 15.000000000000032
endloop
endfacet
facet normal 0.9486832980505133 -0.31622776601683933 -1.726980140682735e-15
outer loop
vertex 13.719277547631833 15.426907484122728 15.000000000000032
vertex 13.652425319561527 15.080885602186944 3.1220884829225135e-14
vertex 13.719277547631808 15.426907484122733 3.1236079636037647e-14
endloop
endfacet
facet normal 0.9486832980505134 -0.31622776601683933 -1.7269801406827355e-15
outer loop
vertex 13.719277547631808 15.426907484122733 3.1236079636037647e-14
vertex 13.873408894337082 15.743836326513527 15.000000000000032
vertex 13.719277547631833 15.426907484122728 15.000000000000032
endloop
endfacet
facet normal 0.8345119301206994 -0.550989871491505 -1.6205447105185438e-15
outer loop
vertex 13.873408894337082 15.743836326513527 15.000000000000032
vertex 13.719277547631808 15.426907484122733 3.1236079636037647e-14
vertex 13.873408894337057 15.743836326513533 3.109239180531599e-14
endloop
endfacet
facet normal 0.8345119301206995 -0.5509898714915049 -1.620544710518544e-15
outer loop
vertex 13.873408894337057 15.743836326513533 3.109239180531599e-14
vertex 14.104315563113431 16.01007395250008 15.000000000000032
vertex 13.873408894337082 15.743836326513527 15.000000000000032
endloop
endfacet
facet normal 0.6634699532493294 -0.7482029277778408 -1.403671836409271e-15
outer loop
vertex 14.104315563113431 16.01007395250008 15.000000000000032
vertex 13.873408894337057 15.743836326513533 3.109239180531599e-14
vertex 14.104315563113406 16.010073952500086 3.079961342526847e-14
endloop
endfacet
facet normal 0.44721359549995643 -0.8944271909999165 -1.0911410463260934e-15
outer loop
vertex 14.396261646075084 16.20747670784988 15.000000000000032
vertex 14.104315563113406 16.010073952500086 3.079961342526847e-14
vertex 14.39626164607506 16.20747670784989 3.037769685865618e-14
endloop
endfacet
facet normal 0.6634699532493294 -0.7482029277778408 -1.403671836409271e-15
outer loop
vertex 14.104315563113406 16.010073952500086 3.079961342526847e-14
vertex 14.396261646075084 16.20747670784988 15.000000000000032
vertex 14.104315563113431 16.01007395250008 15.000000000000032
endloop
endfacet
facet normal 0.200480370272673 -0.9796977192661683 -7.042507971316318e-16
outer loop
vertex 14.72935150013192 16.322591921009323 15.000000000000032
vertex 14.39626164607506 16.20747670784989 3.037769685865618e-14
vertex 14.729351500131893 16.322591921009327 2.985539502224366e-14
endloop
endfacet
facet normal 0.44721359549995654 -0.8944271909999165 -1.0911410463260935e-15
outer loop
vertex 14.39626164607506 16.20747670784989 3.037769685865618e-14
vertex 14.72935150013192 16.322591921009323 15.000000000000032
vertex 14.396261646075084 16.20747670784988 15.000000000000032
endloop
endfacet
facet normal -0.05991526087921772 -0.9982034669914623 -2.693670199421174e-16
outer loop
vertex 15.080885602186969 16.34757468043847 15.000000000000028
vertex 14.729351500131893 16.322591921009327 2.985539502224366e-14
vertex 15.080885602186944 16.347574680438473 2.926830192303781e-14
endloop
endfacet
facet normal 0.2004803702726728 -0.9796977192661682 -7.042507971316315e-16
outer loop
vertex 14.729351500131893 16.322591921009327 2.985539502224366e-14
vertex 15.080885602186969 16.34757468043847 15.000000000000028
vertex 14.72935150013192 16.322591921009323 15.000000000000032
endloop
endfacet
facet normal -0.31622776601683944 -0.9486832980505132 1.838736745064037e-16
outer loop
vertex 15.42690748412276 16.280722452368188 15.000000000000028
vertex 15.080885602186944 16.347574680438473 2.926830192303781e-14
vertex 15.426907484122733 16.28072245236819 2.865642698553231e-14
endloop
endfacet
facet normal -0.059915260879217905 -0.9982034669914622 -2.6936701994211706e-16
outer loop
vertex 15.080885602186944 16.347574680438473 2.926830192303781e-14
vertex 15.42690748412276 16.280722452368188 15.000000000000028
vertex 15.080885602186969 16.34757468043847 15.000000000000028
endloop
endfacet
facet normal -0.5509898714915049 -0.8345119301206992 6.24583681902926e-16
outer loop
vertex 15.743836326513557 16.12659110566294 15.000000000000028
vertex 15.426907484122733 16.28072245236819 2.865642698553231e-14
vertex 15.743836326513533 16.126591105662943 2.8061468475547003e-14
endloop
endfacet
facet normal -0.31622776601683933 -0.9486832980505134 1.838736745064035e-16
outer loop
vertex 15.426907484122733 16.28072245236819 2.865642698553231e-14
vertex 15.743836326513557 16.12659110566294 15.000000000000028
vertex 15.42690748412276 16.280722452368188 15.000000000000028
endloop
endfacet
facet normal -0.7482029277778408 -0.6634699532493292 1.0227293435511036e-15
outer loop
vertex 16.01007395250011 15.89568443688659 15.000000000000028
vertex 15.743836326513533 16.126591105662943 2.8061468475547003e-14
vertex 16.010073952500086 15.895684436886595 2.7523971832321963e-14
endloop
endfacet
facet normal -0.5509898714915049 -0.8345119301206995 6.245836819029259e-16
outer loop
vertex 15.743836326513533 16.126591105662943 2.8061468475547003e-14
vertex 16.01007395250011 15.89568443688659 15.000000000000028
vertex 15.743836326513557 16.12659110566294 15.000000000000028
endloop
endfacet
facet normal -0.7482029277778408 -0.6634699532493292 1.0227293435511036e-15
outer loop
vertex 16.01007395250011 15.89568443688659 15.000000000000028
vertex 16.20747670784989 15.603738353924943 2.708056656383778e-14
vertex 16.207476707849914 15.603738353924937 15.000000000000028
endloop
endfacet
facet normal -0.8944271909999165 -0.44721359549995654 1.3511776905764258e-15
outer loop
vertex 16.20747670784989 15.603738353924943 2.708056656383778e-14
vertex 16.01007395250011 15.89568443688659 15.000000000000028
vertex 16.010073952500086 15.895684436886595 2.7523971832321963e-14
endloop
endfacet
facet normal -0.8944271909999165 -0.4472135954999569 1.3511776905764256e-15
outer loop
vertex 16.207476707849914 15.603738353924937 15.000000000000028
vertex 16.322591921009327 15.270648499868107 2.6761470006379794e-14
vertex 16.32259192100935 15.270648499868102 15.000000000000027
endloop
endfacet
facet normal -0.9796977192661682 -0.2004803702726728 1.5875455109156736e-15
outer loop
vertex 16.322591921009327 15.270648499868107 2.6761470006379794e-14
vertex 16.207476707849914 15.603738353924937 15.000000000000028
vertex 16.20747670784989 15.603738353924943 2.708056656383778e-14
endloop
endfacet
facet normal -0.9796977192661682 -0.20048037027267307 1.5875455109156736e-15
outer loop
vertex 16.32259192100935 15.270648499868102 15.000000000000027
vertex 16.347574680438473 14.919114397813058 2.6588428063006774e-14
vertex 16.347574680438502 14.919114397813052 15.000000000000027
endloop
endfacet
facet normal -0.9982034669914622 0.059915260879217905 1.7157247282290212e-15
outer loop
vertex 16.347574680438473 14.919114397813058 2.6588428063006774e-14
vertex 16.32259192100935 15.270648499868102 15.000000000000027
vertex 16.322591921009327 15.270648499868107 2.6761470006379794e-14
endloop
endfacet
facet normal -0.9982034669914622 0.05991526087921792 1.7157247282290216e-15
outer loop
vertex 16.347574680438502 14.919114397813052 15.000000000000027
vertex 16.28072245236819 14.573092515877269 2.657323325619426e-14
vertex 16.28072245236822 14.573092515877262 15.000000000000027
endloop
endfacet
facet normal -0.9486832980505134 0.31622776601683933 1.7269801406827355e-15
outer loop
vertex 16.28072245236819 14.573092515877269 2.657323325619426e-14
vertex 16.347574680438502 14.919114397813052 15.000000000000027
vertex 16.347574680438473 14.919114397813058 2.6588428063006774e-14
endloop
endfacet
facet normal -0.9486832980505134 0.31622776601683933 1.7269801406827355e-15
outer loop
vertex 16.28072245236822 14.573092515877262 15.000000000000027
vertex 16.126591105662943 14.25616367348647 2.671692108691592e-14
vertex 16.12659110566297 14.256163673486462 15.000000000000027
endloop
endfacet
facet normal -0.8345119301206995 0.5509898714915049 1.620544710518544e-15
outer loop
vertex 16.126591105662943 14.25616367348647 2.671692108691592e-14
vertex 16.28072245236822 14.573092515877262 15.000000000000027
vertex 16.28072245236819 14.573092515877269 2.657323325619426e-14
endloop
endfacet
facet normal -0.8345119301206992 0.550989871491505 1.6205447105185434e-15
outer loop
vertex 16.12659110566297 14.256163673486462 15.000000000000027
vertex 15.895684436886595 13.989926047499916 2.7009699466963436e-14
vertex 15.89568443688662 13.98992604749991 15.000000000000028
endloop
endfacet
facet normal -0.6634699532493294 0.7482029277778408 1.403671836409271e-15
outer loop
vertex 15.895684436886595 13.989926047499916 2.7009699466963436e-14
vertex 16.12659110566297 14.256163673486462 15.000000000000027
vertex 16.126591105662943 14.25616367348647 2.671692108691592e-14
endloop
endfacet
facet normal -0.44721359549995654 0.8944271909999165 1.0911410463260935e-15
outer loop
vertex 15.603738353924943 13.792523292150113 2.7431616033575727e-14
vertex 15.89568443688662 13.98992604749991 15.000000000000028
vertex 15.895684436886595 13.989926047499916 2.7009699466963436e-14
endloop
endfacet
facet normal -0.6634699532493292 0.7482029277778408 1.4036718364092707e-15
outer loop
vertex 15.89568443688662 13.98992604749991 15.000000000000028
vertex 15.603738353924943 13.792523292150113 2.7431616033575727e-14
vertex 15.603738353924967 13.792523292150108 15.000000000000028
endloop
endfacet
facet normal -0.2004803702726728 0.9796977192661682 7.042507971316315e-16
outer loop
vertex 15.270648499868107 13.677408078990673 2.7953917869988252e-14
vertex 15.603738353924967 13.792523292150108 15.000000000000028
vertex 15.603738353924943 13.792523292150113 2.7431616033575727e-14
endloop
endfacet
facet normal -0.4472135954999566 0.8944271909999165 1.0911410463260937e-15
outer loop
vertex 15.603738353924967 13.792523292150108 15.000000000000028
vertex 15.270648499868107 13.677408078990673 2.7953917869988252e-14
vertex 15.270648499868134 13.677408078990668 15.000000000000028
endloop
endfacet
facet normal 0.059915260879217905 0.9982034669914622 2.6936701994211706e-16
outer loop
vertex 14.919114397813058 13.652425319561527 2.8541010969194097e-14
vertex 15.270648499868134 13.677408078990668 15.000000000000028
vertex 15.270648499868107 13.677408078990673 2.7953917869988252e-14
endloop
endfacet
facet normal -0.2004803702726729 0.9796977192661682 7.042507971316317e-16
outer loop
vertex 15.270648499868134 13.677408078990668 15.000000000000028
vertex 14.919114397813058 13.652425319561527 2.8541010969194097e-14
vertex 14.919114397813082 13.652425319561521 15.000000000000028
endloop
endfacet
facet normal 0.31622776601683933 0.9486832980505134 -1.838736745064035e-16
outer loop
vertex 14.573092515877269 13.719277547631808 2.9152885906699596e-14
vertex 14.919114397813082 13.652425319561521 15.000000000000028
vertex 14.919114397813058 13.652425319561527 2.8541010969194097e-14
endloop
endfacet
facet normal 0.05991526087921775 0.9982034669914623 2.693670199421173e-16
outer loop
vertex 14.919114397813082 13.652425319561521 15.000000000000028
vertex 14.573092515877269 13.719277547631808 2.9152885906699596e-14
vertex 14.573092515877294 13.719277547631803 15.000000000000028
endloop
endfacet
facet normal 0.5509898714915049 0.8345119301206995 -6.245836819029259e-16
outer loop
vertex 14.25616367348647 13.873408894337057 2.97478444166849e-14
vertex 14.573092515877294 13.719277547631803 15.000000000000028
vertex 14.573092515877269 13.719277547631808 2.9152885906699596e-14
endloop
endfacet
facet normal 0.3162277660168395 0.9486832980505133 -1.838736745064038e-16
outer loop
vertex 14.573092515877294 13.719277547631803 15.000000000000028
vertex 14.25616367348647 13.873408894337057 2.97478444166849e-14
vertex 14.256163673486494 13.873408894337052 15.000000000000032
endloop
endfacet
facet normal 0.7482029277778408 0.6634699532493294 -1.0227293435511036e-15
outer loop
vertex 13.989926047499916 14.104315563113406 3.028534105990994e-14
vertex 14.256163673486494 13.873408894337052 15.000000000000032
vertex 14.25616367348647 13.873408894337057 2.97478444166849e-14
endloop
endfacet
facet normal 0.550989871491505 0.8345119301206994 -6.245836819029262e-16
outer loop
vertex 14.256163673486494 13.873408894337052 15.000000000000032
vertex 13.989926047499916 14.104315563113406 3.028534105990994e-14
vertex 13.98992604749994 14.104315563113401 15.000000000000032
endloop
endfacet
facet normal 0.7482029277778408 0.6634699532493294 -1.0227293435511036e-15
outer loop
vertex 13.989926047499916 14.104315563113406 3.028534105990994e-14
vertex 13.79252329215014 14.396261646075052 15.000000000000032
vertex 13.98992604749994 14.104315563113401 15.000000000000032
endloop
endfacet
facet normal 0.8944271909999165 0.4472135954999566 -1.3511776905764256e-15
outer loop
vertex 13.79252329215014 14.396261646075052 15.000000000000032
vertex 13.989926047499916 14.104315563113406 3.028534105990994e-14
vertex 13.792523292150113 14.39626164607506 3.072874632839413e-14
endloop
endfacet
endsolid cruz
