solid esquina
facet normal -1.175594909953654e-15 3.607751803400187e-16 -1.0
outer loop
vertex 18.5 18.499999999999993 2.255973186038318e-14
vertex 0.0 16.749999999999996 4.511946372076636e-14
vertex 0.0 18.499999999999993 5.357936316841005e-14
endloop
endfacet
facet normal -1.175594909953654e-15 3.607751803400187e-16 -1.0
outer loop
vertex 0.0 16.749999999999996 4.511946372076636e-14
vertex 18.5 18.499999999999993 2.255973186038318e-14
vertex 11.500000000000002 16.749999999999996 4.511946372076636e-14
endloop
endfacet
facet normal -1.175594909953654e-15 3.607751803400187e-16 -1.0
outer loop
vertex 11.500000000000002 16.749999999999996 4.511946372076636e-14
vertex 18.5 18.499999999999993 2.255973186038318e-14
vertex 11.500000000000002 13.250000000000004 4.511946372076636e-14
endloop
endfacet
facet normal -1.175594909953654e-15 3.607751803400187e-16 -1.0
outer loop
vertex 11.500000000000002 13.250000000000004 4.511946372076636e-14
vertex 18.5 18.499999999999993 2.255973186038318e-14
vertex 13.250000000000004 11.500000000000002 2.5379698342931078e-14
endloop
endfacet
facet normal -1.175594909953654e-15 3.607751803400187e-16 -1.0
outer loop
vertex 11.500000000000002 13.250000000000004 4.511946372076636e-14
vertex 13.250000000000004 11.500000000000002 2.5379698342931078e-14
vertex 11.500000000000002 0.0 3.101963130802687e-14
endloop
endfacet
facet normal -1.175594909953654e-15 3.607751803400187e-16 -1.0
outer loop
vertex 11.500000000000002 0.0 3.101963130802687e-14
vertex 13.250000000000004 11.500000000000002 2.5379698342931078e-14
vertex 13.250000000000002 6.130361918582385e-17 2.5379698342931078e-14
endloop
endfacet
facet normal -1.175594909953654e-15 3.607751803400187e-16 -1.0
outer loop
vertex 13.250000000000004 11.500000000000002 2.5379698342931078e-14
vertex 18.5 18.499999999999993 2.255973186038318e-14
vertex 16.75 11.500000000000002 2.5379698342931078e-14
endloop
endfacet
facet normal -1.175594909953654e-15 3.607751803400187e-16 -1.0
outer loop
vertex 16.75 11.500000000000002 2.5379698342931078e-14
vertex 18.5 18.499999999999993 2.255973186038318e-14
vertex 16.75 0.0 2.5379698342931078e-14
endloop
endfacet
facet normal -1.175594909953654e-15 3.607751803400187e-16 -1.0
outer loop
vertex 16.75 0.0 2.5379698342931078e-14
vertex 18.5 18.499999999999993 2.255973186038318e-14
vertex 18.5 0.0 1.127986593019159e-14
endloop
endfacet
facet normal -1.175594909953654e-15 3.607751803400187e-16 -1.0
outer loop
vertex 6.130361918582384e-17 13.250000000000002 4.511946372076636e-14
vertex 1.3944290913027515 11.15320271808292 3.101963130802687e-14
vertex 0.0 11.500000000000002 3.101963130802687e-14
endloop
endfacet
facet normal -1.175594909953654e-15 3.607751803400187e-16 -1.0
outer loop
vertex 1.3944290913027515 11.15320271808292 3.101963130802687e-14
vertex 6.130361918582384e-17 13.250000000000002 4.511946372076636e-14
vertex 11.500000000000002 13.250000000000004 4.511946372076636e-14
endloop
endfacet
facet normal -1.175594909953654e-15 3.607751803400187e-16 -1.0
outer loop
vertex 1.3944290913027515 11.15320271808292 3.101963130802687e-14
vertex 11.500000000000002 13.250000000000004 4.511946372076636e-14
vertex 2.7480042886971976 10.67098385655314 3.101963130802687e-14
endloop
endfacet
facet normal -1.175594909953654e-15 3.607751803400187e-16 -1.0
outer loop
vertex 2.7480042886971976 10.67098385655314 3.101963130802687e-14
vertex 11.500000000000002 13.250000000000004 4.511946372076636e-14
vertex 4.047608731526464 10.05801637161212 3.101963130802687e-14
endloop
endfacet
facet normal -1.175594909953654e-15 3.607751803400187e-16 -1.0
outer loop
vertex 4.047608731526464 10.05801637161212 3.101963130802687e-14
vertex 11.500000000000002 13.250000000000004 4.511946372076636e-14
vertex 5.280648564333931 9.32024024288022 3.101963130802687e-14
endloop
endfacet
facet normal -1.175594909953654e-15 3.607751803400187e-16 -1.0
outer loop
vertex 5.280648564333931 9.32024024288022 3.101963130802687e-14
vertex 11.500000000000002 13.250000000000004 4.511946372076636e-14
vertex 6.435174977993632 8.464804911847791 3.101963130802687e-14
endloop
endfacet
facet normal -1.175594909953654e-15 3.607751803400187e-16 -1.0
outer loop
vertex 6.435174977993632 8.464804911847791 3.101963130802687e-14
vertex 11.500000000000002 13.250000000000004 4.511946372076636e-14
vertex 7.5000000000000036 7.500000000000002 3.101963130802687e-14
endloop
endfacet
facet normal -1.175594909953654e-15 3.607751803400187e-16 -1.0
outer loop
vertex 7.5000000000000036 7.500000000000002 3.101963130802687e-14
vertex 11.500000000000002 13.250000000000004 4.511946372076636e-14
vertex 8.464804911847793 6.435174977993629 3.101963130802687e-14
endloop
endfacet
facet normal -1.175594909953654e-15 3.607751803400187e-16 -1.0
outer loop
vertex 8.464804911847793 6.435174977993629 3.101963130802687e-14
vertex 11.500000000000002 13.250000000000004 4.511946372076636e-14
vertex 9.320240242880223 5.280648564333928 3.101963130802687e-14
endloop
endfacet
facet normal -1.175594909953654e-15 3.607751803400187e-16 -1.0
outer loop
vertex 9.320240242880223 5.280648564333928 3.101963130802687e-14
vertex 11.500000000000002 13.250000000000004 4.511946372076636e-14
vertex 10.05801637161212 4.047608731526459 3.101963130802687e-14
endloop
endfacet
facet normal -1.175594909953654e-15 3.607751803400187e-16 -1.0
outer loop
vertex 10.05801637161212 4.047608731526459 3.101963130802687e-14
vertex 11.500000000000002 13.250000000000004 4.511946372076636e-14
vertex 10.670983856553146 2.7480042886971963 3.101963130802687e-14
endloop
endfacet
facet normal -1.175594909953654e-15 3.607751803400187e-16 -1.0
outer loop
vertex 10.670983856553146 2.7480042886971963 3.101963130802687e-14
vertex 11.500000000000002 13.250000000000004 4.511946372076636e-14
vertex 11.153202718082929 1.39442909130275 3.101963130802687e-14
endloop
endfacet
facet normal -1.175594909953654e-15 3.607751803400187e-16 -1.0
outer loop
vertex 11.153202718082929 1.39442909130275 3.101963130802687e-14
vertex 11.500000000000002 13.250000000000004 4.511946372076636e-14
vertex 11.500000000000002 0.0 3.101963130802687e-14
endloop
endfacet
facet normal 0.0 -1.0 0.0
outer loop
vertex 13.250000000000002 6.130361918582385e-17 50.0
vertex 11.500000000000002 0.0 3.101963130802687e-14
vertex 13.250000000000002 6.130361918582385e-17 2.5379698342931078e-14
endloop
endfacet
facet normal 0.0 -1.0 0.0
outer loop
vertex 11.500000000000002 0.0 3.101963130802687e-14
vertex 13.250000000000002 6.130361918582385e-17 50.0
vertex 11.500000000000002 0.0 50.0
endloop
endfacet
facet normal -1.0 0.0 0.0
outer loop
vertex 16.75 11.500000000000002 50.0
vertex 16.75 0.0 2.5379698342931078e-14
vertex 16.75 0.0 50.0
endloop
endfacet
facet normal -1.0 0.0 0.0
outer loop
vertex 16.75 0.0 2.5379698342931078e-14
vertex 16.75 11.500000000000002 50.0
vertex 16.75 11.500000000000002 2.5379698342931078e-14
endloop
endfacet
facet normal -0.0 -1.0 -0.0
outer loop
vertex 16.75 11.500000000000002 50.0
vertex 13.250000000000004 11.500000000000002 2.5379698342931078e-14
vertex 16.75 11.500000000000002 2.5379698342931078e-14
endloop
endfacet
facet normal -0.0 -1.0 -0.0
outer loop
vertex 13.250000000000004 11.500000000000002 2.5379698342931078e-14
vertex 16.75 11.500000000000002 50.0
vertex 13.250000000000004 11.500000000000002 50.0
endloop
endfacet
facet normal 1.0 -2.452144767432954e-16 0.0
outer loop
vertex 13.250000000000004 11.500000000000002 2.5379698342931078e-14
vertex 13.250000000000002 6.130361918582385e-17 50.0
vertex 13.250000000000002 6.130361918582385e-17 2.5379698342931078e-14
endloop
endfacet
facet normal 1.0 -2.452144767432954e-16 0.0
outer loop
vertex 13.250000000000002 6.130361918582385e-17 50.0
vertex 13.250000000000004 11.500000000000002 2.5379698342931078e-14
vertex 13.250000000000004 11.500000000000002 50.0
endloop
endfacet
facet normal 0.0 -1.0 0.0
outer loop
vertex 18.5 0.0 50.0
vertex 16.75 0.0 2.5379698342931078e-14
vertex 18.5 0.0 1.127986593019159e-14
endloop
endfacet
facet normal 0.0 -1.0 0.0
outer loop
vertex 16.75 0.0 2.5379698342931078e-14
vertex 18.5 0.0 50.0
vertex 16.75 0.0 50.0
endloop
endfacet
facet normal -0.0 1.0 -0.0
outer loop
vertex 0.0 18.499999999999993 5.357936316841005e-14
vertex 18.5 18.499999999999993 50.0
vertex 18.5 18.499999999999993 2.255973186038318e-14
endloop
endfacet
facet normal -0.0 1.0 -0.0
outer loop
vertex 18.5 18.499999999999993 50.0
vertex 0.0 18.499999999999993 5.357936316841005e-14
vertex 0.0 18.499999999999993 50.0
endloop
endfacet
facet normal -1.0 0.0 -0.0
outer loop
vertex 11.500000000000002 16.749999999999996 50.0
vertex 11.500000000000002 13.250000000000004 4.511946372076636e-14
vertex 11.500000000000002 13.250000000000004 50.0
endloop
endfacet
facet normal -1.0 0.0 -0.0
outer loop
vertex 11.500000000000002 13.250000000000004 4.511946372076636e-14
vertex 11.500000000000002 16.749999999999996 50.0
vertex 11.500000000000002 16.749999999999996 4.511946372076636e-14
endloop
endfacet
facet normal -0.9573826414639031 -0.2888225715272257 -7.72649389779088e-34
outer loop
vertex 11.153202718082929 1.39442909130275 50.0
vertex 11.500000000000002 0.0 3.101963130802687e-14
vertex 11.500000000000002 0.0 50.0
endloop
endfacet
facet normal -0.9704381625811767 -0.24134989663571405 -1.543425799018848e-33
outer loop
vertex 11.500000000000002 0.0 3.101963130802687e-14
vertex 11.153202718082929 1.39442909130275 50.0
vertex 11.153202718082929 1.39442909130275 3.101963130802687e-14
endloop
endfacet
facet normal -0.9243464949029843 -0.38155413424646234 0.0
outer loop
vertex 10.670983856553146 2.7480042886971963 50.0
vertex 11.153202718082929 1.39442909130275 3.101963130802687e-14
vertex 11.153202718082929 1.39442909130275 50.0
endloop
endfacet
facet normal -0.9573826414639031 -0.2888225715272257 -7.72649389779088e-34
outer loop
vertex 11.153202718082929 1.39442909130275 3.101963130802687e-14
vertex 10.670983856553146 2.7480042886971963 50.0
vertex 10.670983856553146 2.7480042886971963 3.101963130802687e-14
endloop
endfacet
facet normal -0.7071067811865478 -0.7071067811865472 0.0
outer loop
vertex 7.5000000000000036 7.500000000000002 50.0
vertex 8.464804911847793 6.435174977993629 3.101963130802687e-14
vertex 8.464804911847793 6.435174977993629 50.0
endloop
endfacet
facet normal -0.7732042299038849 -0.6341570932022603 0.0
outer loop
vertex 8.464804911847793 6.435174977993629 3.101963130802687e-14
vertex 7.5000000000000036 7.500000000000002 50.0
vertex 7.5000000000000036 7.500000000000002 3.101963130802687e-14
endloop
endfacet
facet normal -0.7732042299038849 -0.6341570932022603 0.0
outer loop
vertex 8.464804911847793 6.435174977993629 50.0
vertex 9.320240242880223 5.280648564333928 3.101963130802687e-14
vertex 9.320240242880223 5.280648564333928 50.0
endloop
endfacet
facet normal -0.8318089200641227 -0.5550620870693278 0.0
outer loop
vertex 9.320240242880223 5.280648564333928 3.101963130802687e-14
vertex 8.464804911847793 6.435174977993629 50.0
vertex 8.464804911847793 6.435174977993629 3.101963130802687e-14
endloop
endfacet
facet normal -0.7071067811865478 -0.7071067811865472 0.0
outer loop
vertex 7.5000000000000036 7.500000000000002 50.0
vertex 6.435174977993632 8.464804911847791 3.101963130802687e-14
vertex 7.5000000000000036 7.500000000000002 3.101963130802687e-14
endloop
endfacet
facet normal -0.63415709320226 -0.7732042299038852 0.0
outer loop
vertex 6.435174977993632 8.464804911847791 3.101963130802687e-14
vertex 7.5000000000000036 7.500000000000002 50.0
vertex 6.435174977993632 8.464804911847791 50.0
endloop
endfacet
facet normal -0.3815541342464595 -0.9243464949029855 0.0
outer loop
vertex 2.7480042886971976 10.67098385655314 50.0
vertex 1.3944290913027515 11.15320271808292 3.101963130802687e-14
vertex 2.7480042886971976 10.67098385655314 3.101963130802687e-14
endloop
endfacet
facet normal -0.28882257152722735 -0.9573826414639026 7.726493897790869e-34
outer loop
vertex 1.3944290913027515 11.15320271808292 3.101963130802687e-14
vertex 2.7480042886971976 10.67098385655314 50.0
vertex 1.3944290913027515 11.15320271808292 50.0
endloop
endfacet
facet normal -0.4705882352941169 -0.882352941176471 0.0
outer loop
vertex 4.047608731526464 10.05801637161212 50.0
vertex 2.7480042886971976 10.67098385655314 3.101963130802687e-14
vertex 4.047608731526464 10.05801637161212 3.101963130802687e-14
endloop
endfacet
facet normal -0.3815541342464595 -0.9243464949029855 0.0
outer loop
vertex 2.7480042886971976 10.67098385655314 3.101963130802687e-14
vertex 4.047608731526464 10.05801637161212 50.0
vertex 2.7480042886971976 10.67098385655314 50.0
endloop
endfacet
facet normal -0.28882257152722735 -0.9573826414639026 7.726493897790869e-34
outer loop
vertex 1.3944290913027515 11.15320271808292 50.0
vertex 0.0 11.500000000000002 3.101963130802687e-14
vertex 1.3944290913027515 11.15320271808292 3.101963130802687e-14
endloop
endfacet
facet normal -0.24134989663571932 -0.9704381625811754 1.5434257990188463e-33
outer loop
vertex 0.0 11.500000000000002 3.101963130802687e-14
vertex 1.3944290913027515 11.15320271808292 50.0
vertex 0.0 11.500000000000002 50.0
endloop
endfacet
facet normal -0.8823529411764706 -0.47058823529411736 0.0
outer loop
vertex 10.05801637161212 4.047608731526459 50.0
vertex 10.670983856553146 2.7480042886971963 3.101963130802687e-14
vertex 10.670983856553146 2.7480042886971963 50.0
endloop
endfacet
facet normal -0.9243464949029843 -0.38155413424646234 0.0
outer loop
vertex 10.670983856553146 2.7480042886971963 3.101963130802687e-14
vertex 10.05801637161212 4.047608731526459 50.0
vertex 10.05801637161212 4.047608731526459 3.101963130802687e-14
endloop
endfacet
facet normal -0.8318089200641227 -0.5550620870693278 0.0
outer loop
vertex 9.320240242880223 5.280648564333928 50.0
vertex 10.05801637161212 4.047608731526459 3.101963130802687e-14
vertex 10.05801637161212 4.047608731526459 50.0
endloop
endfacet
facet normal -0.8823529411764706 -0.47058823529411736 0.0
outer loop
vertex 10.05801637161212 4.047608731526459 3.101963130802687e-14
vertex 9.320240242880223 5.280648564333928 50.0
vertex 9.320240242880223 5.280648564333928 3.101963130802687e-14
endloop
endfacet
facet normal -0.63415709320226 -0.7732042299038852 0.0
outer loop
vertex 6.435174977993632 8.464804911847791 50.0
vertex 5.280648564333931 9.32024024288022 3.101963130802687e-14
vertex 6.435174977993632 8.464804911847791 3.101963130802687e-14
endloop
endfacet
facet normal -0.5550620870693282 -0.8318089200641221 0.0
outer loop
vertex 5.280648564333931 9.32024024288022 3.101963130802687e-14
vertex 6.435174977993632 8.464804911847791 50.0
vertex 5.280648564333931 9.32024024288022 50.0
endloop
endfacet
facet normal -0.5550620870693282 -0.8318089200641221 0.0
outer loop
vertex 5.280648564333931 9.32024024288022 50.0
vertex 4.047608731526464 10.05801637161212 3.101963130802687e-14
vertex 5.280648564333931 9.32024024288022 3.101963130802687e-14
endloop
endfacet
facet normal -0.4705882352941169 -0.882352941176471 0.0
outer loop
vertex 4.047608731526464 10.05801637161212 3.101963130802687e-14
vertex 5.280648564333931 9.32024024288022 50.0
vertex 4.047608731526464 10.05801637161212 50.0
endloop
endfacet
facet normal -2.4521447674329536e-16 1.0 0.0
outer loop
vertex 6.130361918582384e-17 13.250000000000002 50.0
vertex 11.500000000000002 13.250000000000004 4.511946372076636e-14
vertex 6.130361918582384e-17 13.250000000000002 4.511946372076636e-14
endloop
endfacet
facet normal -2.4521447674329536e-16 1.0 0.0
outer loop
vertex 11.500000000000002 13.250000000000004 4.511946372076636e-14
vertex 6.130361918582384e-17 13.250000000000002 50.0
vertex 11.500000000000002 13.250000000000004 50.0
endloop
endfacet
facet normal -1.0 0.0 0.0
outer loop
vertex 6.130361918582384e-17 13.250000000000002 50.0
vertex 0.0 11.500000000000002 3.101963130802687e-14
vertex 0.0 11.500000000000002 50.0
endloop
endfacet
facet normal -1.0 0.0 0.0
outer loop
vertex 0.0 11.500000000000002 3.101963130802687e-14
vertex 6.130361918582384e-17 13.250000000000002 50.0
vertex 6.130361918582384e-17 13.250000000000002 4.511946372076636e-14
endloop
endfacet
facet normal -0.0 -0.0 1.0
outer loop
vertex 1.3944290913027515 11.15320271808292 50.0
vertex 6.130361918582384e-17 13.250000000000002 50.0
vertex 0.0 11.500000000000002 50.0
endloop
endfacet
facet normal -0.0 -0.0 1.0
outer loop
vertex 6.130361918582384e-17 13.250000000000002 50.0
vertex 1.3944290913027515 11.15320271808292 50.0
vertex 11.500000000000002 13.250000000000004 50.0
endloop
endfacet
facet normal -0.0 -0.0 1.0
outer loop
vertex 11.500000000000002 13.250000000000004 50.0
vertex 1.3944290913027515 11.15320271808292 50.0
vertex 2.7480042886971976 10.67098385655314 50.0
endloop
endfacet
facet normal -0.0 -0.0 1.0
outer loop
vertex 11.500000000000002 13.250000000000004 50.0
vertex 2.7480042886971976 10.67098385655314 50.0
vertex 4.047608731526464 10.05801637161212 50.0
endloop
endfacet
facet normal -0.0 -0.0 1.0
outer loop
vertex 11.500000000000002 13.250000000000004 50.0
vertex 4.047608731526464 10.05801637161212 50.0
vertex 5.280648564333931 9.32024024288022 50.0
endloop
endfacet
facet normal -0.0 -0.0 1.0
outer loop
vertex 11.500000000000002 13.250000000000004 50.0
vertex 5.280648564333931 9.32024024288022 50.0
vertex 6.435174977993632 8.464804911847791 50.0
endloop
endfacet
facet normal -0.0 -0.0 1.0
outer loop
vertex 11.500000000000002 13.250000000000004 50.0
vertex 6.435174977993632 8.464804911847791 50.0
vertex 7.5000000000000036 7.500000000000002 50.0
endloop
endfacet
facet normal -0.0 -0.0 1.0
outer loop
vertex 11.500000000000002 13.250000000000004 50.0
vertex 7.5000000000000036 7.500000000000002 50.0
vertex 8.464804911847793 6.435174977993629 50.0
endloop
endfacet
facet normal -0.0 -0.0 1.0
outer loop
vertex 11.500000000000002 13.250000000000004 50.0
vertex 8.464804911847793 6.435174977993629 50.0
vertex 9.320240242880223 5.280648564333928 50.0
endloop
endfacet
facet normal -0.0 -0.0 1.0
outer loop
vertex 11.500000000000002 13.250000000000004 50.0
vertex 9.320240242880223 5.280648564333928 50.0
vertex 10.05801637161212 4.047608731526459 50.0
endloop
endfacet
facet normal -0.0 -0.0 1.0
outer loop
vertex 11.500000000000002 13.250000000000004 50.0
vertex 10.05801637161212 4.047608731526459 50.0
vertex 10.670983856553146 2.7480042886971963 50.0
endloop
endfacet
facet normal -0.0 -0.0 1.0
outer loop
vertex 11.500000000000002 13.250000000000004 50.0
vertex 10.670983856553146 2.7480042886971963 50.0
vertex 11.153202718082929 1.39442909130275 50.0
endloop
endfacet
facet normal -0.0 -0.0 1.0
outer loop
vertex 11.500000000000002 13.250000000000004 50.0
vertex 11.153202718082929 1.39442909130275 50.0
vertex 11.500000000000002 0.0 50.0
endloop
endfacet
facet normal -0.0 -0.0 1.0
outer loop
vertex 11.500000000000002 13.250000000000004 50.0
vertex 11.500000000000002 0.0 50.0
vertex 13.250000000000002 6.130361918582385e-17 50.0
endloop
endfacet
facet normal -0.0 -0.0 1.0
outer loop
vertex 11.500000000000002 13.250000000000004 50.0
vertex 13.250000000000002 6.130361918582385e-17 50.0
vertex 11.500000000000002 16.749999999999996 50.0
endloop
endfacet
facet normal -0.0 -0.0 1.0
outer loop
vertex 18.5 0.0 50.0
vertex 16.75 11.500000000000002 50.0
vertex 16.75 0.0 50.0
endloop
endfacet
facet normal -0.0 -0.0 1.0
outer loop
vertex 11.500000000000002 16.749999999999996 50.0
vertex 0.0 18.499999999999993 50.0
vertex 0.0 16.749999999999996 50.0
endloop
endfacet
facet normal -0.0 -0.0 1.0
outer loop
vertex 0.0 18.499999999999993 50.0
vertex 11.500000000000002 16.749999999999996 50.0
vertex 18.5 18.499999999999993 50.0
endloop
endfacet
facet normal -0.0 -0.0 1.0
outer loop
vertex 18.5 18.499999999999993 50.0
vertex 11.500000000000002 16.749999999999996 50.0
vertex 13.250000000000004 11.500000000000002 50.0
endloop
endfacet
facet normal -0.0 -0.0 1.0
outer loop
vertex 13.250000000000004 11.500000000000002 50.0
vertex 11.500000000000002 16.749999999999996 50.0
vertex 13.250000000000002 6.130361918582385e-17 50.0
endloop
endfacet
facet normal -0.0 -0.0 1.0
outer loop
vertex 18.5 18.499999999999993 50.0
vertex 13.250000000000004 11.500000000000002 50.0
vertex 16.75 11.500000000000002 50.0
endloop
endfacet
facet normal -0.0 -0.0 1.0
outer loop
vertex 18.5 18.499999999999993 50.0
vertex 16.75 11.500000000000002 50.0
vertex 18.5 0.0 50.0
endloop
endfacet
facet normal 0.0 -1.0 0.0
outer loop
vertex 11.500000000000002 16.749999999999996 50.0
vertex 0.0 16.749999999999996 4.511946372076636e-14
vertex 11.500000000000002 16.749999999999996 4.511946372076636e-14
endloop
endfacet
facet normal 0.0 -1.0 0.0
outer loop
vertex 0.0 16.749999999999996 4.511946372076636e-14
vertex 11.500000000000002 16.749999999999996 50.0
vertex 0.0 16.749999999999996 50.0
endloop
endfacet
facet normal -1.0 0.0 0.0
outer loop
vertex 0.0 18.499999999999993 50.0
vertex 0.0 16.749999999999996 4.511946372076636e-14
vertex 0.0 16.749999999999996 50.0
endloop
endfacet
facet normal -1.0 0.0 0.0
outer loop
vertex 0.0 16.749999999999996 4.511946372076636e-14
vertex 0.0 18.499999999999993 50.0
vertex 0.0 18.499999999999993 5.357936316841005e-14
endloop
endfacet
facet normal 1.0 -0.0 -0.0
outer loop
vertex 18.5 18.499999999999993 2.255973186038318e-14
vertex 18.5 0.0 50.0
vertex 18.5 0.0 1.127986593019159e-14
endloop
endfacet
facet normal 1.0 -0.0 -0.0
outer loop
vertex 18.5 0.0 50.0
vertex 18.5 18.499999999999993 2.255973186038318e-14
vertex 18.5 18.499999999999993 50.0
endloop
endfacet
endsolid esquina
