solid esquina
facet normal -1.175594909953654e-15 3.607751803400187e-16 -1.0
outer loop
vertex 18.5 18.499999999999993 2.255973186038318e-14
vertex 0.0 16.749999999999996 4.511946372076636e-14
vertex 0.0 18.499999999999993 5.357936316841005e-14
endloop
endfacet
facet normal -1.175594909953654e-15 3.607751803400187e-16 -1.0
outer loop
vertex 0.0 16.749999999999996 4.511946372076636e-14
vertex 18.5 18.499999999999993 2.255973186038318e-14
vertex 11.500000000000002 16.749999999999996 4.511946372076636e-14
endloop
endfacet
facet normal -1.175594909953654e-15 3.607751803400187e-16 -1.0
outer loop
vertex 11.500000000000002 16.749999999999996 4.511946372076636e-14
vertex 18.5 18.499999999999993 2.255973186038318e-14
vertex 14.325000000000001 16.16913429510899 3.3292439939360696e-14
endloop
endfacet
facet normal -1.175594909953654e-15 3.607751803400187e-16 -1.0
outer loop
vertex 11.500000000000002 16.749999999999996 4.511946372076636e-14
vertex 14.325000000000001 16.16913429510899 3.3292439939360696e-14
vertex 14.045405845398163 15.954594154601835 3.354372864648177e-14
endloop
endfacet
facet normal -1.175594909953654e-15 3.607751803400187e-16 -1.0
outer loop
vertex 11.500000000000002 16.749999999999996 4.511946372076636e-14
vertex 14.045405845398163 15.954594154601835 3.354372864648177e-14
vertex 11.500000000000002 13.250000000000004 4.511946372076636e-14
endloop
endfacet
facet normal -1.175594909953654e-15 3.607751803400187e-16 -1.0
outer loop
vertex 11.500000000000002 13.250000000000004 4.511946372076636e-14
vertex 14.045405845398163 15.954594154601835 3.354372864648177e-14
vertex 13.83086570489101 15.674999999999997 3.369507031209423e-14
endloop
endfacet
facet normal -1.175594909953654e-15 3.607751803400187e-16 -1.0
outer loop
vertex 11.500000000000002 13.250000000000004 4.511946372076636e-14
vertex 13.83086570489101 15.674999999999997 3.369507031209423e-14
vertex 13.696000134509758 15.349405710888401 3.3736151251790506e-14
endloop
endfacet
facet normal -1.175594909953654e-15 3.607751803400187e-16 -1.0
outer loop
vertex 11.500000000000002 13.250000000000004 4.511946372076636e-14
vertex 13.696000134509758 15.349405710888401 3.3736151251790506e-14
vertex 11.500000000000002 0.0 3.101963130802687e-14
endloop
endfacet
facet normal -1.175594909953654e-15 3.607751803400187e-16 -1.0
outer loop
vertex 11.500000000000002 0.0 3.101963130802687e-14
vertex 13.696000134509758 15.349405710888401 3.3736151251790506e-14
vertex 13.650000000000004 14.999999999999998 3.366417186741976e-14
endloop
endfacet
facet normal -1.175594909953654e-15 3.607751803400187e-16 -1.0
outer loop
vertex 11.500000000000002 0.0 3.101963130802687e-14
vertex 13.650000000000004 14.999999999999998 3.366417186741976e-14
vertex 13.250000000000004 11.500000000000002 2.5379698342931078e-14
endloop
endfacet
facet normal -1.175594909953654e-15 3.607751803400187e-16 -1.0
outer loop
vertex 11.500000000000002 0.0 3.101963130802687e-14
vertex 13.250000000000004 11.500000000000002 2.5379698342931078e-14
vertex 13.250000000000002 6.130361918582385e-17 2.5379698342931078e-14
endloop
endfacet
facet normal -1.175594909953654e-15 3.607751803400187e-16 -1.0
outer loop
vertex 14.325000000000001 16.16913429510899 3.3292439939360696e-14
vertex 18.5 18.499999999999993 2.255973186038318e-14
vertex 14.6505942891116 16.30399986549024 3.295832910084708e-14
endloop
endfacet
facet normal -1.175594909953654e-15 3.607751803400187e-16 -1.0
outer loop
vertex 14.6505942891116 16.30399986549024 3.295832910084708e-14
vertex 18.5 18.499999999999993 2.255973186038318e-14
vertex 15.0 16.349999999999994 3.256416523244136e-14
endloop
endfacet
facet normal -1.175594909953654e-15 3.607751803400187e-16 -1.0
outer loop
vertex 15.0 16.349999999999994 3.256416523244136e-14
vertex 18.5 18.499999999999993 2.255973186038318e-14
vertex 15.349405710888405 16.30399986549024 3.213680995038879e-14
endloop
endfacet
facet normal -1.175594909953654e-15 3.607751803400187e-16 -1.0
outer loop
vertex 15.349405710888405 16.30399986549024 3.213680995038879e-14
vertex 18.5 18.499999999999993 2.255973186038318e-14
vertex 15.674999999999999 16.16913429510899 3.170538681092327e-14
endloop
endfacet
facet normal -1.175594909953654e-15 3.607751803400187e-16 -1.0
outer loop
vertex 15.674999999999999 16.16913429510899 3.170538681092327e-14
vertex 18.5 18.499999999999993 2.255973186038318e-14
vertex 15.954594154601839 15.954594154601835 3.129929658803891e-14
endloop
endfacet
facet normal -1.175594909953654e-15 3.607751803400187e-16 -1.0
outer loop
vertex 15.954594154601839 15.954594154601835 3.129929658803891e-14
vertex 18.5 18.499999999999993 2.255973186038318e-14
vertex 16.169134295108993 15.674999999999997 3.094621365932946e-14
endloop
endfacet
facet normal -1.175594909953654e-15 3.607751803400187e-16 -1.0
outer loop
vertex 16.169134295108993 15.674999999999997 3.094621365932946e-14
vertex 18.5 18.499999999999993 2.255973186038318e-14
vertex 16.303999865490244 15.3494057108884 3.067020004288935e-14
endloop
endfacet
facet normal -1.175594909953654e-15 3.607751803400187e-16 -1.0
outer loop
vertex 16.303999865490244 15.3494057108884 3.067020004288935e-14
vertex 18.5 18.499999999999993 2.255973186038318e-14
vertex 16.349999999999998 14.999999999999998 3.0490065610544905e-14
endloop
endfacet
facet normal -1.175594909953654e-15 3.607751803400187e-16 -1.0
outer loop
vertex 16.349999999999998 14.999999999999998 3.0490065610544905e-14
vertex 18.5 18.499999999999993 2.255973186038318e-14
vertex 16.75 11.500000000000002 2.5379698342931078e-14
endloop
endfacet
facet normal -1.175594909953654e-15 3.607751803400187e-16 -1.0
outer loop
vertex 16.75 11.500000000000002 2.5379698342931078e-14
vertex 18.5 18.499999999999993 2.255973186038318e-14
vertex 16.75 0.0 2.5379698342931078e-14
endloop
endfacet
facet normal -1.175594909953654e-15 3.607751803400187e-16 -1.0
outer loop
vertex 16.75 0.0 2.5379698342931078e-14
vertex 18.5 18.499999999999993 2.255973186038318e-14
vertex 18.5 0.0 1.127986593019159e-14
endloop
endfacet
facet normal -1.175594909953654e-15 3.607751803400187e-16 -1.0
outer loop
vertex 13.250000000000004 11.500000000000002 2.5379698342931078e-14
vertex 14.045405845398163 14.04540584539816 3.285494088992576e-14
vertex 16.75 11.500000000000002 2.5379698342931078e-14
endloop
endfacet
facet normal -1.175594909953654e-15 3.607751803400187e-16 -1.0
outer loop
vertex 14.045405845398163 14.04540584539816 3.285494088992576e-14
vertex 13.250000000000004 11.500000000000002 2.5379698342931078e-14
vertex 13.83086570489101 14.325 3.3208023818635205e-14
endloop
endfacet
facet normal -1.175594909953654e-15 3.607751803400187e-16 -1.0
outer loop
vertex 13.83086570489101 14.325 3.3208023818635205e-14
vertex 13.250000000000004 11.500000000000002 2.5379698342931078e-14
vertex 13.696000134509758 14.650594289111597 3.3484037435075317e-14
endloop
endfacet
facet normal -1.175594909953654e-15 3.607751803400187e-16 -1.0
outer loop
vertex 13.696000134509758 14.650594289111597 3.3484037435075317e-14
vertex 13.250000000000004 11.500000000000002 2.5379698342931078e-14
vertex 13.650000000000004 14.999999999999998 3.366417186741976e-14
endloop
endfacet
facet normal -1.175594909953654e-15 3.607751803400187e-16 -1.0
outer loop
vertex 16.75 11.500000000000002 2.5379698342931078e-14
vertex 14.045405845398163 14.04540584539816 3.285494088992576e-14
vertex 14.325000000000001 13.830865704891007 3.24488506670414e-14
endloop
endfacet
facet normal -1.175594909953654e-15 3.607751803400187e-16 -1.0
outer loop
vertex 16.75 11.500000000000002 2.5379698342931078e-14
vertex 14.325000000000001 13.830865704891007 3.24488506670414e-14
vertex 14.650594289111597 13.696000134509756 3.2017427527575874e-14
endloop
endfacet
facet normal -1.175594909953654e-15 3.607751803400187e-16 -1.0
outer loop
vertex 16.75 11.500000000000002 2.5379698342931078e-14
vertex 14.650594289111597 13.696000134509756 3.2017427527575874e-14
vertex 15.0 13.65 3.159007224552331e-14
endloop
endfacet
facet normal -1.175594909953654e-15 3.607751803400187e-16 -1.0
outer loop
vertex 16.75 11.500000000000002 2.5379698342931078e-14
vertex 15.0 13.65 3.159007224552331e-14
vertex 15.349405710888401 13.696000134509756 3.119590837711759e-14
endloop
endfacet
facet normal -1.175594909953654e-15 3.607751803400187e-16 -1.0
outer loop
vertex 16.75 11.500000000000002 2.5379698342931078e-14
vertex 15.349405710888401 13.696000134509756 3.119590837711759e-14
vertex 15.674999999999999 13.830865704891007 3.086179753860397e-14
endloop
endfacet
facet normal -1.175594909953654e-15 3.607751803400187e-16 -1.0
outer loop
vertex 16.75 11.500000000000002 2.5379698342931078e-14
vertex 15.674999999999999 13.830865704891007 3.086179753860397e-14
vertex 15.954594154601839 14.04540584539816 3.0610508831482894e-14
endloop
endfacet
facet normal -1.175594909953654e-15 3.607751803400187e-16 -1.0
outer loop
vertex 16.75 11.500000000000002 2.5379698342931078e-14
vertex 15.954594154601839 14.04540584539816 3.0610508831482894e-14
vertex 16.16913429510899 14.325 3.045916716587044e-14
endloop
endfacet
facet normal -1.175594909953654e-15 3.607751803400187e-16 -1.0
outer loop
vertex 16.75 11.500000000000002 2.5379698342931078e-14
vertex 16.16913429510899 14.325 3.045916716587044e-14
vertex 16.30399986549024 14.650594289111593 3.041808622617416e-14
endloop
endfacet
facet normal -1.175594909953654e-15 3.607751803400187e-16 -1.0
outer loop
vertex 16.75 11.500000000000002 2.5379698342931078e-14
vertex 16.30399986549024 14.650594289111593 3.041808622617416e-14
vertex 16.349999999999998 14.999999999999998 3.0490065610544905e-14
endloop
endfacet
facet normal -1.175594909953654e-15 3.607751803400187e-16 -1.0
outer loop
vertex 6.130361918582384e-17 13.250000000000002 4.511946372076636e-14
vertex 1.3944290913027515 11.15320271808292 3.101963130802687e-14
vertex 0.0 11.500000000000002 3.101963130802687e-14
endloop
endfacet
facet normal -1.175594909953654e-15 3.607751803400187e-16 -1.0
outer loop
vertex 1.3944290913027515 11.15320271808292 3.101963130802687e-14
vertex 6.130361918582384e-17 13.250000000000002 4.511946372076636e-14
vertex 11.500000000000002 13.250000000000004 4.511946372076636e-14
endloop
endfacet
facet normal -1.175594909953654e-15 3.607751803400187e-16 -1.0
outer loop
vertex 1.3944290913027515 11.15320271808292 3.101963130802687e-14
vertex 11.500000000000002 13.250000000000004 4.511946372076636e-14
vertex 2.7480042886971976 10.67098385655314 3.101963130802687e-14
endloop
endfacet
facet normal -1.175594909953654e-15 3.607751803400187e-16 -1.0
outer loop
vertex 2.7480042886971976 10.67098385655314 3.101963130802687e-14
vertex 11.500000000000002 13.250000000000004 4.511946372076636e-14
vertex 4.047608731526464 10.05801637161212 3.101963130802687e-14
endloop
endfacet
facet normal -1.175594909953654e-15 3.607751803400187e-16 -1.0
outer loop
vertex 4.047608731526464 10.05801637161212 3.101963130802687e-14
vertex 11.500000000000002 13.250000000000004 4.511946372076636e-14
vertex 5.280648564333931 9.32024024288022 3.101963130802687e-14
endloop
endfacet
facet normal -1.175594909953654e-15 3.607751803400187e-16 -1.0
outer loop
vertex 5.280648564333931 9.32024024288022 3.101963130802687e-14
vertex 11.500000000000002 13.250000000000004 4.511946372076636e-14
vertex 6.435174977993632 8.464804911847791 3.101963130802687e-14
endloop
endfacet
facet normal -1.175594909953654e-15 3.607751803400187e-16 -1.0
outer loop
vertex 6.435174977993632 8.464804911847791 3.101963130802687e-14
vertex 11.500000000000002 13.250000000000004 4.511946372076636e-14
vertex 7.5000000000000036 7.500000000000002 3.101963130802687e-14
endloop
endfacet
facet normal -1.175594909953654e-15 3.607751803400187e-16 -1.0
outer loop
vertex 7.5000000000000036 7.500000000000002 3.101963130802687e-14
vertex 11.500000000000002 13.250000000000004 4.511946372076636e-14
vertex 8.464804911847793 6.435174977993629 3.101963130802687e-14
endloop
endfacet
facet normal -1.175594909953654e-15 3.607751803400187e-16 -1.0
outer loop
vertex 8.464804911847793 6.435174977993629 3.101963130802687e-14
vertex 11.500000000000002 13.250000000000004 4.511946372076636e-14
vertex 9.320240242880223 5.280648564333928 3.101963130802687e-14
endloop
endfacet
facet normal -1.175594909953654e-15 3.607751803400187e-16 -1.0
outer loop
vertex 9.320240242880223 5.280648564333928 3.101963130802687e-14
vertex 11.500000000000002 13.250000000000004 4.511946372076636e-14
vertex 10.05801637161212 4.047608731526459 3.101963130802687e-14
endloop
endfacet
facet normal -1.175594909953654e-15 3.607751803400187e-16 -1.0
outer loop
vertex 10.05801637161212 4.047608731526459 3.101963130802687e-14
vertex 11.500000000000002 13.250000000000004 4.511946372076636e-14
vertex 10.670983856553146 2.7480042886971963 3.101963130802687e-14
endloop
endfacet
facet normal -1.175594909953654e-15 3.607751803400187e-16 -1.0
outer loop
vertex 10.670983856553146 2.7480042886971963 3.101963130802687e-14
vertex 11.500000000000002 13.250000000000004 4.511946372076636e-14
vertex 11.153202718082929 1.39442909130275 3.101963130802687e-14
endloop
endfacet
facet normal -1.175594909953654e-15 3.607751803400187e-16 -1.0
outer loop
vertex 11.153202718082929 1.39442909130275 3.101963130802687e-14
vertex 11.500000000000002 13.250000000000004 4.511946372076636e-14
vertex 11.500000000000002 0.0 3.101963130802687e-14
endloop
endfacet
facet normal 0.0 -1.0 0.0
outer loop
vertex 13.250000000000002 6.130361918582385e-17 50.0
vertex 11.500000000000002 0.0 3.101963130802687e-14
vertex 13.250000000000002 6.130361918582385e-17 2.5379698342931078e-14
endloop
endfacet
facet normal 0.0 -1.0 0.0
outer loop
vertex 11.500000000000002 0.0 3.101963130802687e-14
vertex 13.250000000000002 6.130361918582385e-17 50.0
vertex 11.500000000000002 0.0 50.0
endloop
endfacet
facet normal -1.0 0.0 0.0
outer loop
vertex 16.75 11.500000000000002 50.0
vertex 16.75 0.0 2.5379698342931078e-14
vertex 16.75 0.0 50.0
endloop
endfacet
facet normal -1.0 0.0 0.0
outer loop
vertex 16.75 0.0 2.5379698342931078e-14
vertex 16.75 11.500000000000002 50.0
vertex 16.75 11.500000000000002 2.5379698342931078e-14
endloop
endfacet
facet normal -0.0 -1.0 -0.0
outer loop
vertex 16.75 11.500000000000002 50.0
vertex 13.250000000000004 11.500000000000002 2.5379698342931078e-14
vertex 16.75 11.500000000000002 2.5379698342931078e-14
endloop
endfacet
facet normal -0.0 -1.0 -0.0
outer loop
vertex 13.250000000000004 11.500000000000002 2.5379698342931078e-14
vertex 16.75 11.500000000000002 50.0
vertex 13.250000000000004 11.500000000000002 50.0
endloop
endfacet
facet normal 1.0 -2.452144767432954e-16 0.0
outer loop
vertex 13.250000000000004 11.500000000000002 2.5379698342931078e-14
vertex 13.250000000000002 6.130361918582385e-17 50.0
vertex 13.250000000000002 6.130361918582385e-17 2.5379698342931078e-14
endloop
endfacet
facet normal 1.0 -2.452144767432954e-16 0.0
outer loop
vertex 13.250000000000002 6.130361918582385e-17 50.0
vertex 13.250000000000004 11.500000000000002 2.5379698342931078e-14
vertex 13.250000000000004 11.500000000000002 50.0
endloop
endfacet
facet normal 0.0 -1.0 0.0
outer loop
vertex 18.5 0.0 50.0
vertex 16.75 0.0 2.5379698342931078e-14
vertex 18.5 0.0 1.127986593019159e-14
endloop
endfacet
facet normal 0.0 -1.0 0.0
outer loop
vertex 16.75 0.0 2.5379698342931078e-14
vertex 18.5 0.0 50.0
vertex 16.75 0.0 50.0
endloop
endfacet
facet normal -0.0 1.0 -0.0
outer loop
vertex 0.0 18.499999999999993 5.357936316841005e-14
vertex 18.5 18.499999999999993 50.0
vertex 18.5 18.499999999999993 2.255973186038318e-14
endloop
endfacet
facet normal -0.0 1.0 -0.0
outer loop
vertex 18.5 18.499999999999993 50.0
vertex 0.0 18.499999999999993 5.357936316841005e-14
vertex 0.0 18.499999999999993 50.0
endloop
endfacet
facet normal -1.0 0.0 -0.0
outer loop
vertex 11.500000000000002 16.749999999999996 50.0
vertex 11.500000000000002 13.250000000000004 4.511946372076636e-14
vertex 11.500000000000002 13.250000000000004 50.0
endloop
endfacet
facet normal -1.0 0.0 -0.0
outer loop
vertex 11.500000000000002 13.250000000000004 4.511946372076636e-14
vertex 11.500000000000002 16.749999999999996 50.0
vertex 11.500000000000002 16.749999999999996 4.511946372076636e-14
endloop
endfacet
facet normal -0.9573826414639031 -0.2888225715272257 -7.72649389779088e-34
outer loop
vertex 11.153202718082929 1.39442909130275 50.0
vertex 11.500000000000002 0.0 3.101963130802687e-14
vertex 11.500000000000002 0.0 50.0
endloop
endfacet
facet normal -0.9704381625811767 -0.24134989663571405 -1.543425799018848e-33
outer loop
vertex 11.500000000000002 0.0 3.101963130802687e-14
vertex 11.153202718082929 1.39442909130275 50.0
vertex 11.153202718082929 1.39442909130275 3.101963130802687e-14
endloop
endfacet
facet normal -0.9243464949029843 -0.38155413424646234 0.0
outer loop
vertex 10.670983856553146 2.7480042886971963 50.0
vertex 11.153202718082929 1.39442909130275 3.101963130802687e-14
vertex 11.153202718082929 1.39442909130275 50.0
endloop
endfacet
facet normal -0.9573826414639031 -0.2888225715272257 -7.72649389779088e-34
outer loop
vertex 11.153202718082929 1.39442909130275 3.101963130802687e-14
vertex 10.670983856553146 2.7480042886971963 50.0
vertex 10.670983856553146 2.7480042886971963 3.101963130802687e-14
endloop
endfacet
facet normal -0.7071067811865478 -0.7071067811865472 0.0
outer loop
vertex 7.5000000000000036 7.500000000000002 50.0
vertex 8.464804911847793 6.435174977993629 3.101963130802687e-14
vertex 8.464804911847793 6.435174977993629 50.0
endloop
endfacet
facet normal -0.7732042299038849 -0.6341570932022603 0.0
outer loop
vertex 8.464804911847793 6.435174977993629 3.101963130802687e-14
vertex 7.5000000000000036 7.500000000000002 50.0
vertex 7.5000000000000036 7.500000000000002 3.101963130802687e-14
endloop
endfacet
facet normal -0.7732042299038849 -0.6341570932022603 0.0
outer loop
vertex 8.464804911847793 6.435174977993629 50.0
vertex 9.320240242880223 5.280648564333928 3.101963130802687e-14
vertex 9.320240242880223 5.280648564333928 50.0
endloop
endfacet
facet normal -0.8318089200641227 -0.5550620870693278 0.0
outer loop
vertex 9.320240242880223 5.280648564333928 3.101963130802687e-14
vertex 8.464804911847793 6.435174977993629 50.0
vertex 8.464804911847793 6.435174977993629 3.101963130802687e-14
endloop
endfacet
facet normal -0.7071067811865478 -0.7071067811865472 0.0
outer loop
vertex 7.5000000000000036 7.500000000000002 50.0
vertex 6.435174977993632 8.464804911847791 3.101963130802687e-14
vertex 7.5000000000000036 7.500000000000002 3.101963130802687e-14
endloop
endfacet
facet normal -0.63415709320226 -0.7732042299038852 0.0
outer loop
vertex 6.435174977993632 8.464804911847791 3.101963130802687e-14
vertex 7.5000000000000036 7.500000000000002 50.0
vertex 6.435174977993632 8.464804911847791 50.0
endloop
endfacet
facet normal -0.3815541342464595 -0.9243464949029855 0.0
outer loop
vertex 2.7480042886971976 10.67098385655314 50.0
vertex 1.3944290913027515 11.15320271808292 3.101963130802687e-14
vertex 2.7480042886971976 10.67098385655314 3.101963130802687e-14
endloop
endfacet
facet normal -0.28882257152722735 -0.9573826414639026 7.726493897790869e-34
outer loop
vertex 1.3944290913027515 11.15320271808292 3.101963130802687e-14
vertex 2.7480042886971976 10.67098385655314 50.0
vertex 1.3944290913027515 11.15320271808292 50.0
endloop
endfacet
facet normal -0.4705882352941169 -0.882352941176471 0.0
outer loop
vertex 4.047608731526464 10.05801637161212 50.0
vertex 2.7480042886971976 10.67098385655314 3.101963130802687e-14
vertex 4.047608731526464 10.05801637161212 3.101963130802687e-14
endloop
endfacet
facet normal -0.3815541342464595 -0.9243464949029855 0.0
outer loop
vertex 2.7480042886971976 10.67098385655314 3.101963130802687e-14
vertex 4.047608731526464 10.05801637161212 50.0
vertex 2.7480042886971976 10.67098385655314 50.0
endloop
endfacet
facet normal -0.28882257152722735 -0.9573826414639026 7.726493897790869e-34
outer loop
vertex 1.3944290913027515 11.15320271808292 50.0
vertex 0.0 11.500000000000002 3.101963130802687e-14
vertex 1.3944290913027515 11.15320271808292 3.101963130802687e-14
endloop
endfacet
facet normal -0.24134989663571932 -0.9704381625811754 1.5434257990188463e-33
outer loop
vertex 0.0 11.500000000000002 3.101963130802687e-14
vertex 1.3944290913027515 11.15320271808292 50.0
vertex 0.0 11.500000000000002 50.0
endloop
endfacet
facet normal -0.8823529411764706 -0.47058823529411736 0.0
outer loop
vertex 10.05801637161212 4.047608731526459 50.0
vertex 10.670983856553146 2.7480042886971963 3.101963130802687e-14
vertex 10.670983856553146 2.7480042886971963 50.0
endloop
endfacet
facet normal -0.9243464949029843 -0.38155413424646234 0.0
outer loop
vertex 10.670983856553146 2.7480042886971963 3.101963130802687e-14
vertex 10.05801637161212 4.047608731526459 50.0
vertex 10.05801637161212 4.047608731526459 3.101963130802687e-14
endloop
endfacet
facet normal -0.8318089200641227 -0.5550620870693278 0.0
outer loop
vertex 9.320240242880223 5.280648564333928 50.0
vertex 10.05801637161212 4.047608731526459 3.101963130802687e-14
vertex 10.05801637161212 4.047608731526459 50.0
endloop
endfacet
facet normal -0.8823529411764706 -0.47058823529411736 0.0
outer loop
vertex 10.05801637161212 4.047608731526459 3.101963130802687e-14
vertex 9.320240242880223 5.280648564333928 50.0
vertex 9.320240242880223 5.280648564333928 3.101963130802687e-14
endloop
endfacet
facet normal -0.63415709320226 -0.7732042299038852 0.0
outer loop
vertex 6.435174977993632 8.464804911847791 50.0
vertex 5.280648564333931 9.32024024288022 3.101963130802687e-14
vertex 6.435174977993632 8.464804911847791 3.101963130802687e-14
endloop
endfacet
facet normal -0.5550620870693282 -0.8318089200641221 0.0
outer loop
vertex 5.280648564333931 9.32024024288022 3.101963130802687e-14
vertex 6.435174977993632 8.464804911847791 50.0
vertex 5.280648564333931 9.32024024288022 50.0
endloop
endfacet
facet normal -0.5550620870693282 -0.8318089200641221 0.0
outer loop
vertex 5.280648564333931 9.32024024288022 50.0
vertex 4.047608731526464 10.05801637161212 3.101963130802687e-14
vertex 5.280648564333931 9.32024024288022 3.101963130802687e-14
endloop
endfacet
facet normal -0.4705882352941169 -0.882352941176471 0.0
outer loop
vertex 4.047608731526464 10.05801637161212 3.101963130802687e-14
vertex 5.280648564333931 9.32024024288022 50.0
vertex 4.047608731526464 10.05801637161212 50.0
endloop
endfacet
facet normal -2.4521447674329536e-16 1.0 0.0
outer loop
vertex 6.130361918582384e-17 13.250000000000002 50.0
vertex 11.500000000000002 13.250000000000004 4.511946372076636e-14
vertex 6.130361918582384e-17 13.250000000000002 4.511946372076636e-14
endloop
endfacet
facet normal -2.4521447674329536e-16 1.0 0.0
outer loop
vertex 11.500000000000002 13.250000000000004 4.511946372076636e-14
vertex 6.130361918582384e-17 13.250000000000002 50.0
vertex 11.500000000000002 13.250000000000004 50.0
endloop
endfacet
facet normal -1.0 0.0 0.0
outer loop
vertex 6.130361918582384e-17 13.250000000000002 50.0
vertex 0.0 11.500000000000002 3.101963130802687e-14
vertex 0.0 11.500000000000002 50.0
endloop
endfacet
facet normal -1.0 0.0 0.0
outer loop
vertex 0.0 11.500000000000002 3.101963130802687e-14
vertex 6.130361918582384e-17 13.250000000000002 50.0
vertex 6.130361918582384e-17 13.250000000000002 4.511946372076636e-14
endloop
endfacet
facet normal -0.0 -0.0 1.0
outer loop
vertex 1.3944290913027515 11.15320271808292 50.0
vertex 6.130361918582384e-17 13.250000000000002 50.0
vertex 0.0 11.500000000000002 50.0
endloop
endfacet
facet normal -0.0 -0.0 1.0
outer loop
vertex 6.130361918582384e-17 13.250000000000002 50.0
vertex 1.3944290913027515 11.15320271808292 50.0
vertex 11.500000000000002 13.250000000000004 50.0
endloop
endfacet
facet normal -0.0 -0.0 1.0
outer loop
vertex 11.500000000000002 13.250000000000004 50.0
vertex 1.3944290913027515 11.15320271808292 50.0
vertex 2.7480042886971976 10.67098385655314 50.0
endloop
endfacet
facet normal -0.0 -0.0 1.0
outer loop
vertex 11.500000000000002 13.250000000000004 50.0
vertex 2.7480042886971976 10.67098385655314 50.0
vertex 4.047608731526464 10.05801637161212 50.0
endloop
endfacet
facet normal -0.0 -0.0 1.0
outer loop
vertex 11.500000000000002 13.250000000000004 50.0
vertex 4.047608731526464 10.05801637161212 50.0
vertex 5.280648564333931 9.32024024288022 50.0
endloop
endfacet
facet normal -0.0 -0.0 1.0
outer loop
vertex 11.500000000000002 13.250000000000004 50.0
vertex 5.280648564333931 9.32024024288022 50.0
vertex 6.435174977993632 8.464804911847791 50.0
endloop
endfacet
facet normal -0.0 -0.0 1.0
outer loop
vertex 11.500000000000002 13.250000000000004 50.0
vertex 6.435174977993632 8.464804911847791 50.0
vertex 7.5000000000000036 7.500000000000002 50.0
endloop
endfacet
facet normal -0.0 -0.0 1.0
outer loop
vertex 11.500000000000002 13.250000000000004 50.0
vertex 7.5000000000000036 7.500000000000002 50.0
vertex 8.464804911847793 6.435174977993629 50.0
endloop
endfacet
facet normal -0.0 -0.0 1.0
outer loop
vertex 11.500000000000002 13.250000000000004 50.0
vertex 8.464804911847793 6.435174977993629 50.0
vertex 9.320240242880223 5.280648564333928 50.0
endloop
endfacet
facet normal -0.0 -0.0 1.0
outer loop
vertex 11.500000000000002 13.250000000000004 50.0
vertex 9.320240242880223 5.280648564333928 50.0
vertex 10.05801637161212 4.047608731526459 50.0
endloop
endfacet
facet normal -0.0 -0.0 1.0
outer loop
vertex 11.500000000000002 13.250000000000004 50.0
vertex 10.05801637161212 4.047608731526459 50.0
vertex 10.670983856553146 2.7480042886971963 50.0
endloop
endfacet
facet normal -0.0 -0.0 1.0
outer loop
vertex 11.500000000000002 13.250000000000004 50.0
vertex 10.670983856553146 2.7480042886971963 50.0
vertex 11.153202718082929 1.39442909130275 50.0
endloop
endfacet
facet normal -0.0 -0.0 1.0
outer loop
vertex 11.500000000000002 13.250000000000004 50.0
vertex 11.153202718082929 1.39442909130275 50.0
vertex 11.500000000000002 0.0 50.0
endloop
endfacet
facet normal -0.0 -0.0 1.0
outer loop
vertex 11.500000000000002 13.250000000000004 50.0
vertex 11.500000000000002 0.0 50.0
vertex 13.250000000000002 6.130361918582385e-17 50.0
endloop
endfacet
facet normal -0.0 -0.0 1.0
outer loop
vertex 11.500000000000002 13.250000000000004 50.0
vertex 13.250000000000002 6.130361918582385e-17 50.0
vertex 11.500000000000002 16.749999999999996 50.0
endloop
endfacet
facet normal -0.0 -0.0 1.0
outer loop
vertex 18.5 0.0 50.0
vertex 16.75 11.500000000000002 50.0
vertex 16.75 0.0 50.0
endloop
endfacet
facet normal -0.0 -0.0 1.0
outer loop
vertex 11.500000000000002 16.749999999999996 50.0
vertex 0.0 18.499999999999993 50.0
vertex 0.0 16.749999999999996 50.0
endloop
endfacet
facet normal -0.0 -0.0 1.0
outer loop
vertex 0.0 18.499999999999993 50.0
vertex 11.500000000000002 16.749999999999996 50.0
vertex 18.5 18.499999999999993 50.0
endloop
endfacet
facet normal -0.0 -0.0 1.0
outer loop
vertex 18.5 18.499999999999993 50.0
vertex 11.500000000000002 16.749999999999996 50.0
vertex 13.250000000000004 11.500000000000002 50.0
endloop
endfacet
facet normal -0.0 -0.0 1.0
outer loop
vertex 13.250000000000004 11.500000000000002 50.0
vertex 11.500000000000002 16.749999999999996 50.0
vertex 13.250000000000002 6.130361918582385e-17 50.0
endloop
endfacet
facet normal -0.0 -0.0 1.0
outer loop
vertex 18.5 18.499999999999993 50.0
vertex 13.250000000000004 11.500000000000002 50.0
vertex 16.75 11.500000000000002 50.0
endloop
endfacet
facet normal -0.0 -0.0 1.0
outer loop
vertex 18.5 18.499999999999993 50.0
vertex 16.75 11.500000000000002 50.0
vertex 18.5 0.0 50.0
endloop
endfacet
facet normal 0.0 -1.0 0.0
outer loop
vertex 11.500000000000002 16.749999999999996 50.0
vertex 0.0 16.749999999999996 4.511946372076636e-14
vertex 11.500000000000002 16.749999999999996 4.511946372076636e-14
endloop
endfacet
facet normal 0.0 -1.0 0.0
outer loop
vertex 0.0 16.749999999999996 4.511946372076636e-14
vertex 11.500000000000002 16.749999999999996 50.0
vertex 0.0 16.749999999999996 50.0
endloop
endfacet
facet normal -1.0 0.0 0.0
outer loop
vertex 0.0 18.499999999999993 50.0
vertex 0.0 16.749999999999996 4.511946372076636e-14
vertex 0.0 16.749999999999996 50.0
endloop
endfacet
facet normal -1.0 0.0 0.0
outer loop
vertex 0.0 16.749999999999996 4.511946372076636e-14
vertex 0.0 18.499999999999993 50.0
vertex 0.0 18.499999999999993 5.357936316841005e-14
endloop
endfacet
facet normal 1.0 -0.0 -0.0
outer loop
vertex 18.5 18.499999999999993 2.255973186038318e-14
vertex 18.5 0.0 50.0
vertex 18.5 0.0 1.127986593019159e-14
endloop
endfacet
facet normal 1.0 -0.0 -0.0
outer loop
vertex 18.5 0.0 50.0
vertex 18.5 18.499999999999993 2.255973186038318e-14
vertex 18.5 18.499999999999993 50.0
endloop
endfacet
facet normal -1.1755949099536534e-15 3.607751803400199e-16 -1.0
outer loop
vertex 13.696000134509775 15.349405710888396 15.000000000000034
vertex 13.696000134509775 14.650594289111591 15.000000000000034
vertex 13.65000000000002 14.999999999999993 15.000000000000034
endloop
endfacet
facet normal -1.1755949099536534e-15 3.607751803400199e-16 -1.0
outer loop
vertex 13.696000134509775 14.650594289111591 15.000000000000034
vertex 13.696000134509775 15.349405710888396 15.000000000000034
vertex 13.830865704891027 15.674999999999992 15.000000000000034
endloop
endfacet
facet normal -1.1755949099536534e-15 3.607751803400199e-16 -1.0
outer loop
vertex 13.696000134509775 14.650594289111591 15.000000000000034
vertex 13.830865704891027 15.674999999999992 15.000000000000034
vertex 13.830865704891027 14.324999999999994 15.000000000000034
endloop
endfacet
facet normal -1.1755949099536534e-15 3.607751803400199e-16 -1.0
outer loop
vertex 13.830865704891027 14.324999999999994 15.000000000000034
vertex 13.830865704891027 15.674999999999992 15.000000000000034
vertex 14.045405845398179 15.95459415460183 15.000000000000034
endloop
endfacet
facet normal -1.1755949099536534e-15 3.607751803400199e-16 -1.0
outer loop
vertex 13.830865704891027 14.324999999999994 15.000000000000034
vertex 14.045405845398179 15.95459415460183 15.000000000000034
vertex 14.045405845398179 14.045405845398154 15.000000000000034
endloop
endfacet
facet normal -1.1755949099536534e-15 3.607751803400199e-16 -1.0
outer loop
vertex 14.045405845398179 14.045405845398154 15.000000000000034
vertex 14.045405845398179 15.95459415460183 15.000000000000034
vertex 14.325000000000019 16.169134295108982 15.000000000000034
endloop
endfacet
facet normal -1.1755949099536534e-15 3.607751803400199e-16 -1.0
outer loop
vertex 14.045405845398179 14.045405845398154 15.000000000000034
vertex 14.325000000000019 16.169134295108982 15.000000000000034
vertex 14.325000000000019 13.830865704891002 15.000000000000034
endloop
endfacet
facet normal -1.1755949099536534e-15 3.607751803400199e-16 -1.0
outer loop
vertex 14.325000000000019 13.830865704891002 15.000000000000034
vertex 14.325000000000019 16.169134295108982 15.000000000000034
vertex 14.650594289111616 16.303999865490233 15.000000000000034
endloop
endfacet
facet normal -1.1755949099536534e-15 3.607751803400199e-16 -1.0
outer loop
vertex 14.325000000000019 13.830865704891002 15.000000000000034
vertex 14.650594289111616 16.303999865490233 15.000000000000034
vertex 14.650594289111613 13.69600013450975 15.000000000000032
endloop
endfacet
facet normal -1.1755949099536534e-15 3.607751803400199e-16 -1.0
outer loop
vertex 14.650594289111613 13.69600013450975 15.000000000000032
vertex 14.650594289111616 16.303999865490233 15.000000000000034
vertex 15.000000000000018 13.649999999999995 15.000000000000032
endloop
endfacet
facet normal -1.1755949099536534e-15 3.607751803400199e-16 -1.0
outer loop
vertex 15.000000000000018 13.649999999999995 15.000000000000032
vertex 14.650594289111616 16.303999865490233 15.000000000000034
vertex 15.000000000000018 16.34999999999999 15.000000000000034
endloop
endfacet
facet normal -1.1755949099536534e-15 3.607751803400199e-16 -1.0
outer loop
vertex 15.000000000000018 13.649999999999995 15.000000000000032
vertex 15.000000000000018 16.34999999999999 15.000000000000034
vertex 15.349405710888421 16.303999865490233 15.000000000000032
endloop
endfacet
facet normal -1.1755949099536534e-15 3.607751803400199e-16 -1.0
outer loop
vertex 15.000000000000018 13.649999999999995 15.000000000000032
vertex 15.349405710888421 16.303999865490233 15.000000000000032
vertex 15.34940571088842 13.69600013450975 15.000000000000032
endloop
endfacet
facet normal -1.1755949099536534e-15 3.607751803400199e-16 -1.0
outer loop
vertex 15.34940571088842 13.69600013450975 15.000000000000032
vertex 15.349405710888421 16.303999865490233 15.000000000000032
vertex 15.675000000000017 13.830865704891002 15.000000000000032
endloop
endfacet
facet normal -1.1755949099536534e-15 3.607751803400199e-16 -1.0
outer loop
vertex 15.675000000000017 13.830865704891002 15.000000000000032
vertex 15.349405710888421 16.303999865490233 15.000000000000032
vertex 15.675000000000017 16.169134295108982 15.000000000000032
endloop
endfacet
facet normal -1.1755949099536534e-15 3.607751803400199e-16 -1.0
outer loop
vertex 15.675000000000017 13.830865704891002 15.000000000000032
vertex 15.675000000000017 16.169134295108982 15.000000000000032
vertex 15.954594154601855 15.95459415460183 15.000000000000032
endloop
endfacet
facet normal -1.1755949099536534e-15 3.607751803400199e-16 -1.0
outer loop
vertex 15.675000000000017 13.830865704891002 15.000000000000032
vertex 15.954594154601855 15.95459415460183 15.000000000000032
vertex 15.954594154601855 14.045405845398154 15.000000000000032
endloop
endfacet
facet normal -1.1755949099536534e-15 3.607751803400199e-16 -1.0
outer loop
vertex 15.954594154601855 14.045405845398154 15.000000000000032
vertex 15.954594154601855 15.95459415460183 15.000000000000032
vertex 16.16913429510901 15.674999999999992 15.000000000000032
endloop
endfacet
facet normal -1.1755949099536534e-15 3.607751803400199e-16 -1.0
outer loop
vertex 15.954594154601855 14.045405845398154 15.000000000000032
vertex 16.16913429510901 15.674999999999992 15.000000000000032
vertex 16.169134295109007 14.324999999999994 15.000000000000032
endloop
endfacet
facet normal -1.1755949099536534e-15 3.607751803400199e-16 -1.0
outer loop
vertex 16.169134295109007 14.324999999999994 15.000000000000032
vertex 16.16913429510901 15.674999999999992 15.000000000000032
vertex 16.30399986549026 14.650594289111588 15.000000000000032
endloop
endfacet
facet normal -1.1755949099536534e-15 3.607751803400199e-16 -1.0
outer loop
vertex 16.30399986549026 14.650594289111588 15.000000000000032
vertex 16.16913429510901 15.674999999999992 15.000000000000032
vertex 16.30399986549026 15.349405710888394 15.000000000000032
endloop
endfacet
facet normal -1.1755949099536534e-15 3.607751803400199e-16 -1.0
outer loop
vertex 16.30399986549026 14.650594289111588 15.000000000000032
vertex 16.30399986549026 15.349405710888394 15.000000000000032
vertex 16.350000000000016 14.999999999999993 15.000000000000032
endloop
endfacet
facet normal 1.0 5.346665937388139e-16 -1.1755949099536532e-15
outer loop
vertex 13.650000000000004 14.999999999999998 3.366417186741976e-14
vertex 13.696000134509775 15.349405710888396 15.000000000000034
vertex 13.65000000000002 14.999999999999993 15.000000000000034
endloop
endfacet
facet normal 0.9659258262890683 -0.2588190451025207 -1.2289129724504991e-15
outer loop
vertex 13.696000134509775 15.349405710888396 15.000000000000034
vertex 13.650000000000004 14.999999999999998 3.366417186741976e-14
vertex 13.696000134509758 15.349405710888401 3.3736151251790506e-14
endloop
endfacet
facet normal 0.9659258262890684 -0.2588190451025207 -1.228912972450499e-15
outer loop
vertex 13.696000134509758 15.349405710888401 3.3736151251790506e-14
vertex 13.830865704891027 15.674999999999992 15.000000000000034
vertex 13.696000134509775 15.349405710888396 15.000000000000034
endloop
endfacet
facet normal 0.8660254037844374 -0.5000000000000022 -1.1984826467495527e-15
outer loop
vertex 13.830865704891027 15.674999999999992 15.000000000000034
vertex 13.696000134509758 15.349405710888401 3.3736151251790506e-14
vertex 13.83086570489101 15.674999999999997 3.369507031209423e-14
endloop
endfacet
facet normal 0.8660254037844374 -0.5000000000000021 -1.1984826467495525e-15
outer loop
vertex 13.83086570489101 15.674999999999997 3.369507031209423e-14
vertex 14.045405845398179 15.95459415460183 15.000000000000034
vertex 13.830865704891027 15.674999999999992 15.000000000000034
endloop
endfacet
facet normal 0.7071067811865476 -0.7071067811865476 -1.0863777092588446e-15
outer loop
vertex 14.045405845398179 15.95459415460183 15.000000000000034
vertex 13.83086570489101 15.674999999999997 3.369507031209423e-14
vertex 14.045405845398163 15.954594154601835 3.354372864648177e-14
endloop
endfacet
facet normal 0.5000000000000008 -0.8660254037844382 -9.00237926206197e-16
outer loop
vertex 14.325000000000019 16.169134295108982 15.000000000000034
vertex 14.045405845398163 15.954594154601835 3.354372864648177e-14
vertex 14.325000000000001 16.16913429510899 3.3292439939360696e-14
endloop
endfacet
facet normal 0.7071067811865475 -0.7071067811865475 -1.0863777092588444e-15
outer loop
vertex 14.045405845398163 15.954594154601835 3.354372864648177e-14
vertex 14.325000000000019 16.169134295108982 15.000000000000034
vertex 14.045405845398179 15.95459415460183 15.000000000000034
endloop
endfacet
facet normal 0.25881904510251963 -0.9659258262890685 -6.527484161961087e-16
outer loop
vertex 14.650594289111616 16.303999865490233 15.000000000000034
vertex 14.325000000000001 16.16913429510899 3.3292439939360696e-14
vertex 14.6505942891116 16.30399986549024 3.295832910084708e-14
endloop
endfacet
facet normal 0.5000000000000008 -0.8660254037844382 -9.00237926206197e-16
outer loop
vertex 14.325000000000001 16.16913429510899 3.3292439939360696e-14
vertex 14.650594289111616 16.303999865490233 15.000000000000034
vertex 14.325000000000019 16.169134295108982 15.000000000000034
endloop
endfacet
facet normal 7.752665609212821e-16 -1.0 -3.6077518034002084e-16
outer loop
vertex 15.000000000000018 16.34999999999999 15.000000000000034
vertex 14.6505942891116 16.30399986549024 3.295832910084708e-14
vertex 15.0 16.349999999999994 3.256416523244136e-14
endloop
endfacet
facet normal 0.2588190451025197 -0.9659258262890685 -6.527484161961087e-16
outer loop
vertex 14.6505942891116 16.30399986549024 3.295832910084708e-14
vertex 15.000000000000018 16.34999999999999 15.000000000000034
vertex 14.650594289111616 16.303999865490233 15.000000000000034
endloop
endfacet
facet normal -0.2588190451025204 -0.9659258262890683 -4.421571215293322e-17
outer loop
vertex 15.349405710888421 16.303999865490233 15.000000000000032
vertex 15.0 16.349999999999994 3.256416523244136e-14
vertex 15.349405710888405 16.30399986549024 3.213680995038879e-14
endloop
endfacet
facet normal 5.346665937388139e-16 -1.0 -3.6077518034002054e-16
outer loop
vertex 15.0 16.349999999999994 3.256416523244136e-14
vertex 15.349405710888421 16.303999865490233 15.000000000000032
vertex 15.000000000000018 16.34999999999999 15.000000000000034
endloop
endfacet
facet normal -0.5000000000000023 -0.8660254037844374 2.7535698374746036e-16
outer loop
vertex 15.675000000000017 16.169134295108982 15.000000000000032
vertex 15.349405710888405 16.30399986549024 3.213680995038879e-14
vertex 15.674999999999999 16.16913429510899 3.170538681092327e-14
endloop
endfacet
facet normal -0.2588190451025207 -0.9659258262890684 -4.421571215293293e-17
outer loop
vertex 15.349405710888405 16.30399986549024 3.213680995038879e-14
vertex 15.675000000000017 16.169134295108982 15.000000000000032
vertex 15.349405710888421 16.303999865490233 15.000000000000032
endloop
endfacet
facet normal -0.7071067811865454 -0.7071067811865497 5.76164556254386e-16
outer loop
vertex 15.954594154601855 15.95459415460183 15.000000000000032
vertex 15.674999999999999 16.16913429510899 3.170538681092327e-14
vertex 15.954594154601839 15.954594154601835 3.129929658803891e-14
endloop
endfacet
facet normal -0.5000000000000021 -0.8660254037844374 2.753569837474602e-16
outer loop
vertex 15.674999999999999 16.16913429510899 3.170538681092327e-14
vertex 15.954594154601855 15.95459415460183 15.000000000000032
vertex 15.675000000000017 16.169134295108982 15.000000000000032
endloop
endfacet
facet normal -0.7071067811865454 -0.7071067811865497 5.76164556254386e-16
outer loop
vertex 15.954594154601855 15.95459415460183 15.000000000000032
vertex 16.169134295108993 15.674999999999997 3.094621365932946e-14
vertex 16.16913429510901 15.674999999999992 15.000000000000032
endloop
endfacet
facet normal -0.8660254037844384 -0.5000000000000003 8.37707466409533e-16
outer loop
vertex 16.169134295108993 15.674999999999997 3.094621365932946e-14
vertex 15.954594154601855 15.95459415460183 15.000000000000032
vertex 15.954594154601839 15.954594154601835 3.129929658803891e-14
endloop
endfacet
facet normal -0.8660254037844386 -0.5000000000000003 8.377074664095332e-16
outer loop
vertex 16.16913429510901 15.674999999999992 15.000000000000032
vertex 16.303999865490244 15.3494057108884 3.067020004288935e-14
vertex 16.30399986549026 15.349405710888394 15.000000000000032
endloop
endfacet
facet normal -0.9659258262890695 -0.2588190451025162 1.0421619971059147e-15
outer loop
vertex 16.303999865490244 15.3494057108884 3.067020004288935e-14
vertex 16.16913429510901 15.674999999999992 15.000000000000032
vertex 16.169134295108993 15.674999999999997 3.094621365932946e-14
endloop
endfacet
facet normal -0.9659258262890695 -0.25881904510251613 1.0421619971059147e-15
outer loop
vertex 16.30399986549026 15.349405710888394 15.000000000000032
vertex 16.349999999999998 14.999999999999998 3.0490065610544905e-14
vertex 16.350000000000016 14.999999999999993 15.000000000000032
endloop
endfacet
facet normal -1.0 3.4307773098240574e-15 1.1755949099536548e-15
outer loop
vertex 16.349999999999998 14.999999999999998 3.0490065610544905e-14
vertex 16.30399986549026 15.349405710888394 15.000000000000032
vertex 16.303999865490244 15.3494057108884 3.067020004288935e-14
endloop
endfacet
facet normal -1.0 3.4575106395109977e-15 1.1755949099536548e-15
outer loop
vertex 16.350000000000016 14.999999999999993 15.000000000000032
vertex 16.30399986549024 14.650594289111593 3.041808622617416e-14
vertex 16.30399986549026 14.650594289111588 15.000000000000032
endloop
endfacet
facet normal -0.9659258262890682 0.2588190451025209 1.228912972450499e-15
outer loop
vertex 16.30399986549024 14.650594289111593 3.041808622617416e-14
vertex 16.350000000000016 14.999999999999993 15.000000000000032
vertex 16.349999999999998 14.999999999999998 3.0490065610544905e-14
endloop
endfacet
facet normal -0.9659258262890682 0.2588190451025209 1.228912972450499e-15
outer loop
vertex 16.30399986549026 14.650594289111588 15.000000000000032
vertex 16.16913429510899 14.325 3.045916716587044e-14
vertex 16.169134295109007 14.324999999999994 15.000000000000032
endloop
endfacet
facet normal -0.8660254037844394 0.49999999999999906 1.1984826467495537e-15
outer loop
vertex 16.16913429510899 14.325 3.045916716587044e-14
vertex 16.30399986549026 14.650594289111588 15.000000000000032
vertex 16.30399986549024 14.650594289111593 3.041808622617416e-14
endloop
endfacet
facet normal -0.8660254037844394 0.49999999999999906 1.1984826467495537e-15
outer loop
vertex 16.169134295109007 14.324999999999994 15.000000000000032
vertex 15.954594154601839 14.04540584539816 3.0610508831482894e-14
vertex 15.954594154601855 14.045405845398154 15.000000000000032
endloop
endfacet
facet normal -0.7071067811865475 0.7071067811865475 1.0863777092588444e-15
outer loop
vertex 15.954594154601839 14.04540584539816 3.0610508831482894e-14
vertex 16.169134295109007 14.324999999999994 15.000000000000032
vertex 16.16913429510899 14.325 3.045916716587044e-14
endloop
endfacet
facet normal -0.5000000000000008 0.8660254037844382 9.00237926206197e-16
outer loop
vertex 15.674999999999999 13.830865704891007 3.086179753860397e-14
vertex 15.954594154601855 14.045405845398154 15.000000000000032
vertex 15.954594154601839 14.04540584539816 3.0610508831482894e-14
endloop
endfacet
facet normal -0.7071067811865476 0.7071067811865476 1.086377709258845e-15
outer loop
vertex 15.954594154601855 14.045405845398154 15.000000000000032
vertex 15.674999999999999 13.830865704891007 3.086179753860397e-14
vertex 15.675000000000017 13.830865704891002 15.000000000000032
endloop
endfacet
facet normal -0.2588190451025197 0.9659258262890685 6.527484161961087e-16
outer loop
vertex 15.349405710888401 13.696000134509756 3.119590837711759e-14
vertex 15.675000000000017 13.830865704891002 15.000000000000032
vertex 15.674999999999999 13.830865704891007 3.086179753860397e-14
endloop
endfacet
facet normal -0.5000000000000009 0.866025403784438 9.002379262061971e-16
outer loop
vertex 15.675000000000017 13.830865704891002 15.000000000000032
vertex 15.349405710888401 13.696000134509756 3.119590837711759e-14
vertex 15.34940571088842 13.69600013450975 15.000000000000032
endloop
endfacet
facet normal -5.346665937388139e-16 1.0 3.6077518034002054e-16
outer loop
vertex 15.0 13.65 3.159007224552331e-14
vertex 15.34940571088842 13.69600013450975 15.000000000000032
vertex 15.349405710888401 13.696000134509756 3.119590837711759e-14
endloop
endfacet
facet normal -0.25881904510251985 0.9659258262890686 6.527484161961089e-16
outer loop
vertex 15.34940571088842 13.69600013450975 15.000000000000032
vertex 15.0 13.65 3.159007224552331e-14
vertex 15.000000000000018 13.649999999999995 15.000000000000032
endloop
endfacet
facet normal 0.2588190451025207 0.9659258262890684 4.421571215293293e-17
outer loop
vertex 14.650594289111597 13.696000134509756 3.2017427527575874e-14
vertex 15.000000000000018 13.649999999999995 15.000000000000032
vertex 15.0 13.65 3.159007224552331e-14
endloop
endfacet
facet normal -6.237776926952828e-16 1.0 3.607751803400207e-16
outer loop
vertex 15.000000000000018 13.649999999999995 15.000000000000032
vertex 14.650594289111597 13.696000134509756 3.2017427527575874e-14
vertex 14.650594289111613 13.69600013450975 15.000000000000032
endloop
endfacet
facet normal 0.5000000000000021 0.8660254037844374 -2.753569837474602e-16
outer loop
vertex 14.325000000000001 13.830865704891007 3.24488506670414e-14
vertex 14.650594289111613 13.69600013450975 15.000000000000032
vertex 14.650594289111597 13.696000134509756 3.2017427527575874e-14
endloop
endfacet
facet normal 0.258819045102521 0.9659258262890684 4.421571215293267e-17
outer loop
vertex 14.650594289111613 13.69600013450975 15.000000000000032
vertex 14.325000000000001 13.830865704891007 3.24488506670414e-14
vertex 14.325000000000019 13.830865704891002 15.000000000000034
endloop
endfacet
facet normal 0.7071067811865475 0.7071067811865475 -5.761645562543893e-16
outer loop
vertex 14.045405845398163 14.04540584539816 3.285494088992576e-14
vertex 14.325000000000019 13.830865704891002 15.000000000000034
vertex 14.325000000000001 13.830865704891007 3.24488506670414e-14
endloop
endfacet
facet normal 0.5000000000000023 0.8660254037844373 -2.753569837474605e-16
outer loop
vertex 14.325000000000019 13.830865704891002 15.000000000000034
vertex 14.045405845398163 14.04540584539816 3.285494088992576e-14
vertex 14.045405845398179 14.045405845398154 15.000000000000034
endloop
endfacet
facet normal 0.7071067811865475 0.7071067811865475 -5.761645562543893e-16
outer loop
vertex 14.045405845398163 14.04540584539816 3.285494088992576e-14
vertex 13.830865704891027 14.324999999999994 15.000000000000034
vertex 14.045405845398179 14.045405845398154 15.000000000000034
endloop
endfacet
facet normal 0.866025403784438 0.5000000000000009 -8.377074664095324e-16
outer loop
vertex 13.830865704891027 14.324999999999994 15.000000000000034
vertex 14.045405845398163 14.04540584539816 3.285494088992576e-14
vertex 13.83086570489101 14.325 3.3208023818635205e-14
endloop
endfacet
facet normal 0.8660254037844382 0.5000000000000008 -8.377074664095324e-16
outer loop
vertex 13.83086570489101 14.325 3.3208023818635205e-14
vertex 13.696000134509775 14.650594289111591 15.000000000000034
vertex 13.830865704891027 14.324999999999994 15.000000000000034
endloop
endfacet
facet normal 0.9659258262890686 0.25881904510251985 -1.0421619971059127e-15
outer loop
vertex 13.696000134509775 14.650594289111591 15.000000000000034
vertex 13.83086570489101 14.325 3.3208023818635205e-14
vertex 13.696000134509758 14.650594289111597 3.3484037435075317e-14
endloop
endfacet
facet normal 0.9659258262890685 0.2588190451025197 -1.0421619971059123e-15
outer loop
vertex 13.696000134509758 14.650594289111597 3.3484037435075317e-14
vertex 13.65000000000002 14.999999999999993 15.000000000000034
vertex 13.696000134509775 14.650594289111591 15.000000000000034
endloop
endfacet
facet normal 1.0 5.703110333214013e-16 -1.1755949099536532e-15
outer loop
vertex 13.65000000000002 14.999999999999993 15.000000000000034
vertex 13.696000134509758 14.650594289111597 3.3484037435075317e-14
vertex 13.650000000000004 14.999999999999998 3.366417186741976e-14
endloop
endfacet
endsolid esquina
