solid extremo
facet normal -1.279668393410836e-15 -3.564729470908607e-16 -1.0
outer loop
vertex 18.5 18.499999999999993 1.973976537783528e-14
vertex 0.0 16.699999999999996 4.511946372076636e-14
vertex 0.0 18.499999999999993 5.357936316841005e-14
endloop
endfacet
facet normal -1.279668393410836e-15 -3.564729470908607e-16 -1.0
outer loop
vertex 0.0 16.699999999999996 4.511946372076636e-14
vertex 18.5 18.499999999999993 1.973976537783528e-14
vertex 11.500000000000002 16.699999999999996 4.511946372076636e-14
endloop
endfacet
facet normal -1.279668393410836e-15 -3.564729470908607e-16 -1.0
outer loop
vertex 11.500000000000002 16.699999999999996 4.511946372076636e-14
vertex 18.5 18.499999999999993 1.973976537783528e-14
vertex 14.325 16.16913429510899 3.761256066792616e-14
endloop
endfacet
facet normal -1.279668393410836e-15 -3.564729470908607e-16 -1.0
outer loop
vertex 11.500000000000002 16.699999999999996 4.511946372076636e-14
vertex 14.325 16.16913429510899 3.761256066792616e-14
vertex 14.04540584539816 15.954594154601835 3.804682622670842e-14
endloop
endfacet
facet normal -1.279668393410836e-15 -3.564729470908607e-16 -1.0
outer loop
vertex 11.500000000000002 16.699999999999996 4.511946372076636e-14
vertex 14.04540584539816 15.954594154601835 3.804682622670842e-14
vertex 11.500000000000002 13.300000000000004 4.511946372076636e-14
endloop
endfacet
facet normal -1.279668393410836e-15 -3.564729470908607e-16 -1.0
outer loop
vertex 11.500000000000002 13.300000000000004 4.511946372076636e-14
vertex 14.04540584539816 15.954594154601835 3.804682622670842e-14
vertex 13.830865704891007 15.674999999999997 3.8421034215913646e-14
endloop
endfacet
facet normal -1.279668393410836e-15 -3.564729470908607e-16 -1.0
outer loop
vertex 11.500000000000002 13.300000000000004 4.511946372076636e-14
vertex 13.830865704891007 15.674999999999997 3.8421034215913646e-14
vertex 13.696000134509758 15.3494057108884 3.8709682979485414e-14
endloop
endfacet
facet normal -1.279668393410836e-15 -3.564729470908607e-16 -1.0
outer loop
vertex 11.500000000000002 13.300000000000004 4.511946372076636e-14
vertex 13.696000134509758 15.3494057108884 3.8709682979485414e-14
vertex 13.65 14.999999999999998 3.889310158120097e-14
endloop
endfacet
facet normal -1.279668393410836e-15 -3.564729470908607e-16 -1.0
outer loop
vertex 14.325 16.16913429510899 3.761256066792616e-14
vertex 18.5 18.499999999999993 1.973976537783528e-14
vertex 14.650594289111597 16.30399986549024 3.714783201974008e-14
endloop
endfacet
facet normal -1.279668393410836e-15 -3.564729470908607e-16 -1.0
outer loop
vertex 14.650594289111597 16.30399986549024 3.714783201974008e-14
vertex 18.5 18.499999999999993 1.973976537783528e-14
vertex 14.999999999999998 16.349999999999998 3.668431077152368e-14
endloop
endfacet
facet normal -1.279668393410836e-15 -3.564729470908607e-16 -1.0
outer loop
vertex 14.999999999999998 16.349999999999998 3.668431077152368e-14
vertex 18.5 18.499999999999993 1.973976537783528e-14
vertex 15.349405710888401 16.30399986549024 3.625358513033782e-14
endloop
endfacet
facet normal -1.279668393410836e-15 -3.564729470908607e-16 -1.0
outer loop
vertex 15.349405710888401 16.30399986549024 3.625358513033782e-14
vertex 18.5 18.499999999999993 1.973976537783528e-14
vertex 15.674999999999999 16.16913429510899 3.588500833682153e-14
endloop
endfacet
facet normal -1.279668393410836e-15 -3.564729470908607e-16 -1.0
outer loop
vertex 15.674999999999999 16.16913429510899 3.588500833682153e-14
vertex 18.5 18.499999999999993 1.973976537783528e-14
vertex 15.954594154601839 15.954594154601839 3.560369829035101e-14
endloop
endfacet
facet normal -1.279668393410836e-15 -3.564729470908607e-16 -1.0
outer loop
vertex 15.954594154601839 15.954594154601839 3.560369829035101e-14
vertex 18.5 18.499999999999993 1.973976537783528e-14
vertex 16.16913429510899 15.674999999999999 3.5428825805706383e-14
endloop
endfacet
facet normal -1.279668393410836e-15 -3.564729470908607e-16 -1.0
outer loop
vertex 16.16913429510899 15.674999999999999 3.5428825805706383e-14
vertex 18.5 18.499999999999993 1.973976537783528e-14
vertex 16.303999865490244 15.349405710888401 3.537230815372574e-14
endloop
endfacet
facet normal -1.279668393410836e-15 -3.564729470908607e-16 -1.0
outer loop
vertex 16.303999865490244 15.349405710888401 3.537230815372574e-14
vertex 18.5 18.499999999999993 1.973976537783528e-14
vertex 16.35 15.0 3.543799691899173e-14
endloop
endfacet
facet normal -1.279668393410836e-15 -3.564729470908607e-16 -1.0
outer loop
vertex 4.904289534865907e-17 13.3 4.511946372076636e-14
vertex 18.5 11.500000000000002 4.511946372076636e-14
vertex 0.0 11.500000000000002 3.101963130802687e-14
endloop
endfacet
facet normal -1.279668393410836e-15 -3.564729470908607e-16 -1.0
outer loop
vertex 18.5 11.500000000000002 4.511946372076636e-14
vertex 4.904289534865907e-17 13.3 4.511946372076636e-14
vertex 11.500000000000002 13.300000000000004 4.511946372076636e-14
endloop
endfacet
facet normal -1.279668393410836e-15 -3.564729470908607e-16 -1.0
outer loop
vertex 18.5 11.500000000000002 4.511946372076636e-14
vertex 11.500000000000002 13.300000000000004 4.511946372076636e-14
vertex 14.325000000000001 13.830865704891005 3.844609016337116e-14
endloop
endfacet
facet normal -1.279668393410836e-15 -3.564729470908607e-16 -1.0
outer loop
vertex 14.325000000000001 13.830865704891005 3.844609016337116e-14
vertex 11.500000000000002 13.300000000000004 4.511946372076636e-14
vertex 14.045405845398163 14.045405845398157 3.872740020984168e-14
endloop
endfacet
facet normal -1.279668393410836e-15 -3.564729470908607e-16 -1.0
outer loop
vertex 14.045405845398163 14.045405845398157 3.872740020984168e-14
vertex 11.500000000000002 13.300000000000004 4.511946372076636e-14
vertex 13.830865704891007 14.324999999999996 3.8902272694486305e-14
endloop
endfacet
facet normal -1.279668393410836e-15 -3.564729470908607e-16 -1.0
outer loop
vertex 13.830865704891007 14.324999999999996 3.8902272694486305e-14
vertex 11.500000000000002 13.300000000000004 4.511946372076636e-14
vertex 13.696000134509758 14.650594289111593 3.895879034646695e-14
endloop
endfacet
facet normal -1.279668393410836e-15 -3.564729470908607e-16 -1.0
outer loop
vertex 13.696000134509758 14.650594289111593 3.895879034646695e-14
vertex 11.500000000000002 13.300000000000004 4.511946372076636e-14
vertex 13.65 14.999999999999998 3.889310158120097e-14
endloop
endfacet
facet normal -1.279668393410836e-15 -3.564729470908607e-16 -1.0
outer loop
vertex 18.5 11.500000000000002 4.511946372076636e-14
vertex 14.325000000000001 13.830865704891005 3.844609016337116e-14
vertex 14.6505942891116 13.696000134509756 3.807751336985488e-14
endloop
endfacet
facet normal -1.279668393410836e-15 -3.564729470908607e-16 -1.0
outer loop
vertex 18.5 11.500000000000002 4.511946372076636e-14
vertex 14.6505942891116 13.696000134509756 3.807751336985488e-14
vertex 15.000000000000004 13.649999999999997 3.7646787728669014e-14
endloop
endfacet
facet normal -1.279668393410836e-15 -3.564729470908607e-16 -1.0
outer loop
vertex 18.5 11.500000000000002 4.511946372076636e-14
vertex 15.000000000000004 13.649999999999997 3.7646787728669014e-14
vertex 15.349405710888405 13.696000134509756 3.7183266480452615e-14
endloop
endfacet
facet normal -1.279668393410836e-15 -3.564729470908607e-16 -1.0
outer loop
vertex 18.5 11.500000000000002 4.511946372076636e-14
vertex 15.349405710888405 13.696000134509756 3.7183266480452615e-14
vertex 15.675000000000002 13.830865704891005 3.6718537832266536e-14
endloop
endfacet
facet normal -1.279668393410836e-15 -3.564729470908607e-16 -1.0
outer loop
vertex 18.5 11.500000000000002 4.511946372076636e-14
vertex 15.675000000000002 13.830865704891005 3.6718537832266536e-14
vertex 15.95459415460184 14.04540584539816 3.628427227348427e-14
endloop
endfacet
facet normal -1.279668393410836e-15 -3.564729470908607e-16 -1.0
outer loop
vertex 18.5 11.500000000000002 4.511946372076636e-14
vertex 15.95459415460184 14.04540584539816 3.628427227348427e-14
vertex 16.169134295108993 14.325 3.591006428427905e-14
endloop
endfacet
facet normal -1.279668393410836e-15 -3.564729470908607e-16 -1.0
outer loop
vertex 18.5 11.500000000000002 4.511946372076636e-14
vertex 16.169134295108993 14.325 3.591006428427905e-14
vertex 16.303999865490244 14.650594289111597 3.5621415520707275e-14
endloop
endfacet
facet normal -1.279668393410836e-15 -3.564729470908607e-16 -1.0
outer loop
vertex 18.5 11.500000000000002 4.511946372076636e-14
vertex 16.303999865490244 14.650594289111597 3.5621415520707275e-14
vertex 16.35 15.0 3.543799691899173e-14
endloop
endfacet
facet normal -1.279668393410836e-15 -3.564729470908607e-16 -1.0
outer loop
vertex 18.5 11.500000000000002 4.511946372076636e-14
vertex 16.35 15.0 3.543799691899173e-14
vertex 18.5 18.499999999999993 1.973976537783528e-14
endloop
endfacet
facet normal -1.0 0.0 0.0
outer loop
vertex 0.0 18.499999999999993 50.0
vertex 0.0 16.699999999999996 4.511946372076636e-14
vertex 0.0 16.699999999999996 50.0
endloop
endfacet
facet normal -1.0 0.0 0.0
outer loop
vertex 0.0 16.699999999999996 4.511946372076636e-14
vertex 0.0 18.499999999999993 50.0
vertex 0.0 18.499999999999993 5.357936316841005e-14
endloop
endfacet
facet normal -2.4521447674329536e-16 1.0 0.0
outer loop
vertex 4.904289534865907e-17 13.3 50.0
vertex 11.500000000000002 13.300000000000004 4.511946372076636e-14
vertex 4.904289534865907e-17 13.3 4.511946372076636e-14
endloop
endfacet
facet normal -2.4521447674329536e-16 1.0 0.0
outer loop
vertex 11.500000000000002 13.300000000000004 4.511946372076636e-14
vertex 4.904289534865907e-17 13.3 50.0
vertex 11.500000000000002 13.300000000000004 50.0
endloop
endfacet
facet normal -1.0 0.0 -0.0
outer loop
vertex 11.500000000000002 16.699999999999996 50.0
vertex 11.500000000000002 13.300000000000004 4.511946372076636e-14
vertex 11.500000000000002 13.300000000000004 50.0
endloop
endfacet
facet normal -1.0 0.0 -0.0
outer loop
vertex 11.500000000000002 13.300000000000004 4.511946372076636e-14
vertex 11.500000000000002 16.699999999999996 50.0
vertex 11.500000000000002 16.699999999999996 4.511946372076636e-14
endloop
endfacet
facet normal 0.0 -1.0 0.0
outer loop
vertex 11.500000000000002 16.699999999999996 50.0
vertex 0.0 16.699999999999996 4.511946372076636e-14
vertex 11.500000000000002 16.699999999999996 4.511946372076636e-14
endloop
endfacet
facet normal 0.0 -1.0 0.0
outer loop
vertex 0.0 16.699999999999996 4.511946372076636e-14
vertex 11.500000000000002 16.699999999999996 50.0
vertex 0.0 16.699999999999996 50.0
endloop
endfacet
facet normal -1.0 3.503063953475649e-17 2.364671427571149e-35
outer loop
vertex 4.904289534865907e-17 13.3 50.0
vertex 0.0 11.500000000000002 3.101963130802687e-14
vertex 0.0 11.500000000000002 50.0
endloop
endfacet
facet normal -1.0 3.503063953475649e-17 2.364671427571149e-35
outer loop
vertex 0.0 11.500000000000002 3.101963130802687e-14
vertex 4.904289534865907e-17 13.3 50.0
vertex 4.904289534865907e-17 13.3 4.511946372076636e-14
endloop
endfacet
facet normal -0.0 1.0 -0.0
outer loop
vertex 0.0 18.499999999999993 5.357936316841005e-14
vertex 18.5 18.499999999999993 50.0
vertex 18.5 18.499999999999993 1.973976537783528e-14
endloop
endfacet
facet normal -0.0 1.0 -0.0
outer loop
vertex 18.5 18.499999999999993 50.0
vertex 0.0 18.499999999999993 5.357936316841005e-14
vertex 0.0 18.499999999999993 50.0
endloop
endfacet
facet normal 0.0 -1.0 0.0
outer loop
vertex 18.5 11.500000000000002 4.511946372076636e-14
vertex 0.0 11.500000000000002 50.0
vertex 0.0 11.500000000000002 3.101963130802687e-14
endloop
endfacet
facet normal 0.0 -1.0 0.0
outer loop
vertex 0.0 11.500000000000002 50.0
vertex 18.5 11.500000000000002 4.511946372076636e-14
vertex 18.5 11.500000000000002 50.0
endloop
endfacet
facet normal -0.0 -0.0 1.0
outer loop
vertex 18.5 11.500000000000002 50.0
vertex 4.904289534865907e-17 13.3 50.0
vertex 0.0 11.500000000000002 50.0
endloop
endfacet
facet normal -0.0 -0.0 1.0
outer loop
vertex 4.904289534865907e-17 13.3 50.0
vertex 18.5 11.500000000000002 50.0
vertex 11.500000000000002 13.300000000000004 50.0
endloop
endfacet
facet normal -0.0 -0.0 1.0
outer loop
vertex 11.500000000000002 13.300000000000004 50.0
vertex 18.5 11.500000000000002 50.0
vertex 11.500000000000002 16.699999999999996 50.0
endloop
endfacet
facet normal -0.0 -0.0 1.0
outer loop
vertex 11.500000000000002 16.699999999999996 50.0
vertex 0.0 18.499999999999993 50.0
vertex 0.0 16.699999999999996 50.0
endloop
endfacet
facet normal -0.0 -0.0 1.0
outer loop
vertex 0.0 18.499999999999993 50.0
vertex 11.500000000000002 16.699999999999996 50.0
vertex 18.5 18.499999999999993 50.0
endloop
endfacet
facet normal -0.0 -0.0 1.0
outer loop
vertex 18.5 18.499999999999993 50.0
vertex 11.500000000000002 16.699999999999996 50.0
vertex 18.5 11.500000000000002 50.0
endloop
endfacet
facet normal 1.0 -0.0 -0.0
outer loop
vertex 18.5 18.499999999999993 1.973976537783528e-14
vertex 18.5 11.500000000000002 50.0
vertex 18.5 11.500000000000002 4.511946372076636e-14
endloop
endfacet
facet normal 1.0 -0.0 -0.0
outer loop
vertex 18.5 11.500000000000002 50.0
vertex 18.5 18.499999999999993 1.973976537783528e-14
vertex 18.5 18.499999999999993 50.0
endloop
endfacet
facet normal -1.2796683934108305e-15 -3.5647294709086653e-16 -1.0
outer loop
vertex 13.696000134509779 15.349405710888405 15.00000000000004
vertex 13.696000134509779 14.6505942891116 15.00000000000004
vertex 13.65000000000002 15.000000000000004 15.00000000000004
endloop
endfacet
facet normal -1.2796683934108305e-15 -3.5647294709086653e-16 -1.0
outer loop
vertex 13.696000134509779 14.6505942891116 15.00000000000004
vertex 13.696000134509779 15.349405710888405 15.00000000000004
vertex 13.830865704891027 15.675000000000002 15.00000000000004
endloop
endfacet
facet normal -1.2796683934108305e-15 -3.5647294709086653e-16 -1.0
outer loop
vertex 13.696000134509779 14.6505942891116 15.00000000000004
vertex 13.830865704891027 15.675000000000002 15.00000000000004
vertex 13.830865704891027 14.325000000000001 15.00000000000004
endloop
endfacet
facet normal -1.2796683934108305e-15 -3.5647294709086653e-16 -1.0
outer loop
vertex 13.830865704891027 14.325000000000001 15.00000000000004
vertex 13.830865704891027 15.675000000000002 15.00000000000004
vertex 14.045405845398179 15.95459415460184 15.000000000000037
endloop
endfacet
facet normal -1.2796683934108305e-15 -3.5647294709086653e-16 -1.0
outer loop
vertex 13.830865704891027 14.325000000000001 15.00000000000004
vertex 14.045405845398179 15.95459415460184 15.000000000000037
vertex 14.045405845398182 14.045405845398163 15.00000000000004
endloop
endfacet
facet normal -1.2796683934108305e-15 -3.5647294709086653e-16 -1.0
outer loop
vertex 14.045405845398182 14.045405845398163 15.00000000000004
vertex 14.045405845398179 15.95459415460184 15.000000000000037
vertex 14.325000000000019 16.169134295108993 15.000000000000037
endloop
endfacet
facet normal -1.2796683934108305e-15 -3.5647294709086653e-16 -1.0
outer loop
vertex 14.045405845398182 14.045405845398163 15.00000000000004
vertex 14.325000000000019 16.169134295108993 15.000000000000037
vertex 14.325000000000022 13.83086570489101 15.00000000000004
endloop
endfacet
facet normal -1.2796683934108305e-15 -3.5647294709086653e-16 -1.0
outer loop
vertex 14.325000000000022 13.83086570489101 15.00000000000004
vertex 14.325000000000019 16.169134295108993 15.000000000000037
vertex 14.650594289111616 16.303999865490244 15.000000000000037
endloop
endfacet
facet normal -1.2796683934108305e-15 -3.5647294709086653e-16 -1.0
outer loop
vertex 14.325000000000022 13.83086570489101 15.00000000000004
vertex 14.650594289111616 16.303999865490244 15.000000000000037
vertex 14.65059428911162 13.696000134509761 15.00000000000004
endloop
endfacet
facet normal -1.2796683934108305e-15 -3.5647294709086653e-16 -1.0
outer loop
vertex 14.65059428911162 13.696000134509761 15.00000000000004
vertex 14.650594289111616 16.303999865490244 15.000000000000037
vertex 15.000000000000018 16.350000000000005 15.000000000000037
endloop
endfacet
facet normal -1.2796683934108305e-15 -3.5647294709086653e-16 -1.0
outer loop
vertex 14.65059428911162 13.696000134509761 15.00000000000004
vertex 15.000000000000018 16.350000000000005 15.000000000000037
vertex 15.000000000000023 13.650000000000004 15.000000000000037
endloop
endfacet
facet normal -1.2796683934108305e-15 -3.5647294709086653e-16 -1.0
outer loop
vertex 15.000000000000023 13.650000000000004 15.000000000000037
vertex 15.000000000000018 16.350000000000005 15.000000000000037
vertex 15.349405710888421 16.303999865490244 15.000000000000037
endloop
endfacet
facet normal -1.2796683934108305e-15 -3.5647294709086653e-16 -1.0
outer loop
vertex 15.000000000000023 13.650000000000004 15.000000000000037
vertex 15.349405710888421 16.303999865490244 15.000000000000037
vertex 15.349405710888425 13.696000134509761 15.000000000000037
endloop
endfacet
facet normal -1.2796683934108305e-15 -3.5647294709086653e-16 -1.0
outer loop
vertex 15.349405710888425 13.696000134509761 15.000000000000037
vertex 15.349405710888421 16.303999865490244 15.000000000000037
vertex 15.675000000000018 16.169134295108996 15.000000000000037
endloop
endfacet
facet normal -1.2796683934108305e-15 -3.5647294709086653e-16 -1.0
outer loop
vertex 15.349405710888425 13.696000134509761 15.000000000000037
vertex 15.675000000000018 16.169134295108996 15.000000000000037
vertex 15.675000000000022 13.83086570489101 15.000000000000037
endloop
endfacet
facet normal -1.2796683934108305e-15 -3.5647294709086653e-16 -1.0
outer loop
vertex 15.675000000000022 13.83086570489101 15.000000000000037
vertex 15.675000000000018 16.169134295108996 15.000000000000037
vertex 15.954594154601859 15.954594154601844 15.000000000000037
endloop
endfacet
facet normal -1.2796683934108305e-15 -3.5647294709086653e-16 -1.0
outer loop
vertex 15.675000000000022 13.83086570489101 15.000000000000037
vertex 15.954594154601859 15.954594154601844 15.000000000000037
vertex 15.954594154601862 14.045405845398165 15.000000000000037
endloop
endfacet
facet normal -1.2796683934108305e-15 -3.5647294709086653e-16 -1.0
outer loop
vertex 15.954594154601862 14.045405845398165 15.000000000000037
vertex 15.954594154601859 15.954594154601844 15.000000000000037
vertex 16.16913429510901 15.675000000000004 15.000000000000037
endloop
endfacet
facet normal -1.2796683934108305e-15 -3.5647294709086653e-16 -1.0
outer loop
vertex 15.954594154601862 14.045405845398165 15.000000000000037
vertex 16.16913429510901 15.675000000000004 15.000000000000037
vertex 16.169134295109014 14.325000000000005 15.000000000000037
endloop
endfacet
facet normal -1.2796683934108305e-15 -3.5647294709086653e-16 -1.0
outer loop
vertex 16.169134295109014 14.325000000000005 15.000000000000037
vertex 16.16913429510901 15.675000000000004 15.000000000000037
vertex 16.303999865490262 15.349405710888407 15.000000000000037
endloop
endfacet
facet normal -1.2796683934108305e-15 -3.5647294709086653e-16 -1.0
outer loop
vertex 16.169134295109014 14.325000000000005 15.000000000000037
vertex 16.303999865490262 15.349405710888407 15.000000000000037
vertex 16.303999865490262 14.650594289111602 15.000000000000037
endloop
endfacet
facet normal -1.2796683934108305e-15 -3.5647294709086653e-16 -1.0
outer loop
vertex 16.303999865490262 14.650594289111602 15.000000000000037
vertex 16.303999865490262 15.349405710888407 15.000000000000037
vertex 16.35000000000002 15.000000000000007 15.000000000000037
endloop
endfacet
facet normal -1.0 -5.70311033321402e-16 1.2796683934108307e-15
outer loop
vertex 16.35000000000002 15.000000000000007 15.000000000000037
vertex 16.303999865490244 15.349405710888401 3.537230815372574e-14
vertex 16.35 15.0 3.543799691899173e-14
endloop
endfacet
facet normal -0.9659258262890675 -0.25881904510252357 1.3283267380523007e-15
outer loop
vertex 16.303999865490244 15.349405710888401 3.537230815372574e-14
vertex 16.35000000000002 15.000000000000007 15.000000000000037
vertex 16.303999865490262 15.349405710888407 15.000000000000037
endloop
endfacet
facet normal -0.9659258262890685 0.2588190451025194 1.1438027625104223e-15
outer loop
vertex 16.303999865490262 14.650594289111602 15.000000000000037
vertex 16.35 15.0 3.543799691899173e-14
vertex 16.303999865490244 14.650594289111597 3.5621415520707275e-14
endloop
endfacet
facet normal -1.0 -5.435777036344612e-16 1.2796683934108307e-15
outer loop
vertex 16.35 15.0 3.543799691899173e-14
vertex 16.303999865490262 14.650594289111602 15.000000000000037
vertex 16.35000000000002 15.000000000000007 15.000000000000037
endloop
endfacet
facet normal -0.86602540378444 0.49999999999999756 9.299888635683677e-16
outer loop
vertex 16.169134295109014 14.325000000000005 15.000000000000037
vertex 16.303999865490244 14.650594289111597 3.5621415520707275e-14
vertex 16.169134295108993 14.325 3.591006428427905e-14
endloop
endfacet
facet normal -0.9659258262890685 0.25881904510251946 1.1438027625104223e-15
outer loop
vertex 16.303999865490244 14.650594289111597 3.5621415520707275e-14
vertex 16.169134295109014 14.325000000000005 15.000000000000037
vertex 16.303999865490262 14.650594289111602 15.000000000000037
endloop
endfacet
facet normal -0.7071067811865499 0.7071067811865451 6.527977604533915e-16
outer loop
vertex 15.954594154601862 14.045405845398165 15.000000000000037
vertex 16.169134295108993 14.325 3.591006428427905e-14
vertex 15.95459415460184 14.04540584539816 3.628427227348427e-14
endloop
endfacet
facet normal -0.86602540378444 0.49999999999999767 9.299888635683677e-16
outer loop
vertex 16.169134295108993 14.325 3.591006428427905e-14
vertex 15.954594154601862 14.045405845398165 15.000000000000037
vertex 16.169134295109014 14.325000000000005 15.000000000000037
endloop
endfacet
facet normal -0.5000000000000003 0.8660254037844384 3.3111956876281926e-16
outer loop
vertex 15.675000000000002 13.830865704891005 3.6718537832266536e-14
vertex 15.954594154601862 14.045405845398165 15.000000000000037
vertex 15.95459415460184 14.04540584539816 3.628427227348427e-14
endloop
endfacet
facet normal -0.7071067811865499 0.7071067811865451 6.527977604533915e-16
outer loop
vertex 15.954594154601862 14.045405845398165 15.000000000000037
vertex 15.675000000000002 13.830865704891005 3.6718537832266536e-14
vertex 15.675000000000022 13.83086570489101 15.000000000000037
endloop
endfacet
facet normal -0.25881904510252 0.9659258262890685 -1.3123874337977576e-17
outer loop
vertex 15.349405710888405 13.696000134509756 3.7183266480452615e-14
vertex 15.675000000000022 13.83086570489101 15.000000000000037
vertex 15.675000000000002 13.830865704891005 3.6718537832266536e-14
endloop
endfacet
facet normal -0.5000000000000003 0.8660254037844384 3.311195687628194e-16
outer loop
vertex 15.675000000000022 13.83086570489101 15.000000000000037
vertex 15.349405710888405 13.696000134509756 3.7183266480452615e-14
vertex 15.349405710888425 13.696000134509761 15.000000000000037
endloop
endfacet
facet normal -5.435777036344612e-16 1.0 -3.5647294709086583e-16
outer loop
vertex 15.000000000000004 13.649999999999997 3.7646787728669014e-14
vertex 15.349405710888425 13.696000134509761 15.000000000000037
vertex 15.349405710888405 13.696000134509756 3.7183266480452615e-14
endloop
endfacet
facet normal -0.25881904510252013 0.9659258262890685 -1.3123874337977433e-17
outer loop
vertex 15.349405710888425 13.696000134509761 15.000000000000037
vertex 15.000000000000004 13.649999999999997 3.7646787728669014e-14
vertex 15.000000000000023 13.650000000000004 15.000000000000037
endloop
endfacet
facet normal 0.25881904510251946 0.9659258262890685 -6.755289775989111e-16
outer loop
vertex 14.6505942891116 13.696000134509756 3.807751336985488e-14
vertex 15.000000000000023 13.650000000000004 15.000000000000037
vertex 15.000000000000004 13.649999999999997 3.7646787728669014e-14
endloop
endfacet
facet normal -3.207999562432878e-16 1.0 -3.5647294709086613e-16
outer loop
vertex 15.000000000000023 13.650000000000004 15.000000000000037
vertex 14.6505942891116 13.696000134509756 3.807751336985488e-14
vertex 14.65059428911162 13.696000134509761 15.00000000000004
endloop
endfacet
facet normal 0.49999999999999767 0.86602540378444 -9.485488246480093e-16
outer loop
vertex 14.325000000000001 13.830865704891005 3.844609016337116e-14
vertex 14.65059428911162 13.696000134509761 15.00000000000004
vertex 14.6505942891116 13.696000134509756 3.807751336985488e-14
endloop
endfacet
facet normal 0.25881904510251974 0.9659258262890685 -6.755289775989114e-16
outer loop
vertex 14.65059428911162 13.696000134509761 15.00000000000004
vertex 14.325000000000001 13.830865704891005 3.844609016337116e-14
vertex 14.325000000000022 13.83086570489101 15.00000000000004
endloop
endfacet
facet normal 0.7071067811865454 0.7071067811865497 -1.1569266368483956e-15
outer loop
vertex 14.045405845398163 14.045405845398157 3.872740020984168e-14
vertex 14.325000000000022 13.83086570489101 15.00000000000004
vertex 14.325000000000001 13.830865704891005 3.844609016337116e-14
endloop
endfacet
facet normal 0.4999999999999976 0.8660254037844399 -9.485488246480093e-16
outer loop
vertex 14.325000000000022 13.83086570489101 15.00000000000004
vertex 14.045405845398163 14.045405845398157 3.872740020984168e-14
vertex 14.045405845398182 14.045405845398163 15.00000000000004
endloop
endfacet
facet normal 0.8660254037844384 0.5000000000000003 -1.286461810659231e-15
outer loop
vertex 13.830865704891007 14.324999999999996 3.8902272694486305e-14
vertex 14.045405845398182 14.045405845398163 15.00000000000004
vertex 14.045405845398163 14.045405845398157 3.872740020984168e-14
endloop
endfacet
facet normal 0.7071067811865452 0.7071067811865498 -1.1569266368483956e-15
outer loop
vertex 14.045405845398182 14.045405845398163 15.00000000000004
vertex 13.830865704891007 14.324999999999996 3.8902272694486305e-14
vertex 13.830865704891027 14.325000000000001 15.00000000000004
endloop
endfacet
facet normal 0.9659258262890685 0.25881904510251946 -1.3283267380523003e-15
outer loop
vertex 13.696000134509758 14.650594289111593 3.895879034646695e-14
vertex 13.830865704891027 14.325000000000001 15.00000000000004
vertex 13.830865704891007 14.324999999999996 3.8902272694486305e-14
endloop
endfacet
facet normal 0.8660254037844384 0.5000000000000003 -1.286461810659231e-15
outer loop
vertex 13.830865704891027 14.325000000000001 15.00000000000004
vertex 13.696000134509758 14.650594289111593 3.895879034646695e-14
vertex 13.696000134509779 14.6505942891116 15.00000000000004
endloop
endfacet
facet normal 1.0 -5.435777036344612e-16 -1.2796683934108303e-15
outer loop
vertex 13.65 14.999999999999998 3.889310158120097e-14
vertex 13.696000134509779 14.6505942891116 15.00000000000004
vertex 13.696000134509758 14.650594289111593 3.895879034646695e-14
endloop
endfacet
facet normal 0.9659258262890685 0.25881904510251946 -1.3283267380523003e-15
outer loop
vertex 13.696000134509779 14.6505942891116 15.00000000000004
vertex 13.65 14.999999999999998 3.889310158120097e-14
vertex 13.65000000000002 15.000000000000004 15.00000000000004
endloop
endfacet
facet normal 0.9659258262890685 -0.25881904510252 -1.1438027625104221e-15
outer loop
vertex 13.696000134509758 15.3494057108884 3.8709682979485414e-14
vertex 13.65000000000002 15.000000000000004 15.00000000000004
vertex 13.65 14.999999999999998 3.889310158120097e-14
endloop
endfacet
facet normal 1.0 -5.792221432170488e-16 -1.27966839341083e-15
outer loop
vertex 13.65000000000002 15.000000000000004 15.00000000000004
vertex 13.696000134509758 15.3494057108884 3.8709682979485414e-14
vertex 13.696000134509779 15.349405710888405 15.00000000000004
endloop
endfacet
facet normal 0.86602540378444 -0.49999999999999767 -9.299888635683677e-16
outer loop
vertex 13.830865704891007 15.674999999999997 3.8421034215913646e-14
vertex 13.696000134509779 15.349405710888405 15.00000000000004
vertex 13.696000134509758 15.3494057108884 3.8709682979485414e-14
endloop
endfacet
facet normal 0.9659258262890685 -0.2588190451025201 -1.143802762510422e-15
outer loop
vertex 13.696000134509779 15.349405710888405 15.00000000000004
vertex 13.830865704891007 15.674999999999997 3.8421034215913646e-14
vertex 13.830865704891027 15.675000000000002 15.00000000000004
endloop
endfacet
facet normal 0.7071067811865475 -0.7071067811865475 -6.527977604533876e-16
outer loop
vertex 14.04540584539816 15.954594154601835 3.804682622670842e-14
vertex 13.830865704891027 15.675000000000002 15.00000000000004
vertex 13.830865704891007 15.674999999999997 3.8421034215913646e-14
endloop
endfacet
facet normal 0.8660254037844402 -0.49999999999999745 -9.299888635683677e-16
outer loop
vertex 13.830865704891027 15.675000000000002 15.00000000000004
vertex 14.04540584539816 15.954594154601835 3.804682622670842e-14
vertex 14.045405845398179 15.95459415460184 15.000000000000037
endloop
endfacet
facet normal 0.5000000000000007 -0.8660254037844382 -3.311195687628198e-16
outer loop
vertex 14.325000000000019 16.169134295108993 15.000000000000037
vertex 14.04540584539816 15.954594154601835 3.804682622670842e-14
vertex 14.325 16.16913429510899 3.761256066792616e-14
endloop
endfacet
facet normal 0.7071067811865475 -0.7071067811865475 -6.527977604533876e-16
outer loop
vertex 14.04540584539816 15.954594154601835 3.804682622670842e-14
vertex 14.325000000000019 16.169134295108993 15.000000000000037
vertex 14.045405845398179 15.95459415460184 15.000000000000037
endloop
endfacet
facet normal 0.25881904510252346 -0.9659258262890675 1.3123874337972832e-17
outer loop
vertex 14.650594289111616 16.303999865490244 15.000000000000037
vertex 14.325 16.16913429510899 3.761256066792616e-14
vertex 14.650594289111597 16.30399986549024 3.714783201974008e-14
endloop
endfacet
facet normal 0.5000000000000008 -0.8660254037844382 -3.311195687628199e-16
outer loop
vertex 14.325 16.16913429510899 3.761256066792616e-14
vertex 14.650594289111616 16.303999865490244 15.000000000000037
vertex 14.325000000000019 16.169134295108993 15.000000000000037
endloop
endfacet
facet normal 4.3664438488669835e-16 -1.0 3.5647294709086593e-16
outer loop
vertex 15.000000000000018 16.350000000000005 15.000000000000037
vertex 14.650594289111597 16.30399986549024 3.714783201974008e-14
vertex 14.999999999999998 16.349999999999998 3.668431077152368e-14
endloop
endfacet
facet normal 0.25881904510252357 -0.9659258262890675 1.3123874337972689e-17
outer loop
vertex 14.650594289111597 16.30399986549024 3.714783201974008e-14
vertex 15.000000000000018 16.350000000000005 15.000000000000037
vertex 14.650594289111616 16.303999865490244 15.000000000000037
endloop
endfacet
facet normal -0.2588190451025196 -0.9659258262890685 6.755289775989112e-16
outer loop
vertex 15.349405710888421 16.303999865490244 15.000000000000037
vertex 14.999999999999998 16.349999999999998 3.668431077152368e-14
vertex 15.349405710888401 16.30399986549024 3.625358513033782e-14
endloop
endfacet
facet normal 5.435777036344612e-16 -1.0 3.5647294709086583e-16
outer loop
vertex 14.999999999999998 16.349999999999998 3.668431077152368e-14
vertex 15.349405710888421 16.303999865490244 15.000000000000037
vertex 15.000000000000018 16.350000000000005 15.000000000000037
endloop
endfacet
facet normal -0.49999999999999767 -0.8660254037844399 9.485488246480093e-16
outer loop
vertex 15.675000000000018 16.169134295108996 15.000000000000037
vertex 15.349405710888401 16.30399986549024 3.625358513033782e-14
vertex 15.674999999999999 16.16913429510899 3.588500833682153e-14
endloop
endfacet
facet normal -0.25881904510251946 -0.9659258262890685 6.755289775989111e-16
outer loop
vertex 15.349405710888401 16.30399986549024 3.625358513033782e-14
vertex 15.675000000000018 16.169134295108996 15.000000000000037
vertex 15.349405710888421 16.303999865490244 15.000000000000037
endloop
endfacet
facet normal -0.7071067811865477 -0.7071067811865475 1.156926636848398e-15
outer loop
vertex 15.954594154601859 15.954594154601844 15.000000000000037
vertex 15.674999999999999 16.16913429510899 3.588500833682153e-14
vertex 15.954594154601839 15.954594154601839 3.560369829035101e-14
endloop
endfacet
facet normal -0.49999999999999767 -0.86602540378444 9.485488246480093e-16
outer loop
vertex 15.674999999999999 16.16913429510899 3.588500833682153e-14
vertex 15.954594154601859 15.954594154601844 15.000000000000037
vertex 15.675000000000018 16.169134295108996 15.000000000000037
endloop
endfacet
facet normal -0.8660254037844382 -0.5000000000000008 1.2864618106592312e-15
outer loop
vertex 16.16913429510901 15.675000000000004 15.000000000000037
vertex 15.954594154601839 15.954594154601839 3.560369829035101e-14
vertex 16.16913429510899 15.674999999999999 3.5428825805706383e-14
endloop
endfacet
facet normal -0.7071067811865475 -0.7071067811865475 1.1569266368483978e-15
outer loop
vertex 15.954594154601839 15.954594154601839 3.560369829035101e-14
vertex 16.16913429510901 15.675000000000004 15.000000000000037
vertex 15.954594154601859 15.954594154601844 15.000000000000037
endloop
endfacet
facet normal -0.9659258262890675 -0.25881904510252357 1.3283267380523003e-15
outer loop
vertex 16.303999865490262 15.349405710888407 15.000000000000037
vertex 16.16913429510899 15.674999999999999 3.5428825805706383e-14
vertex 16.303999865490244 15.349405710888401 3.537230815372574e-14
endloop
endfacet
facet normal -0.8660254037844382 -0.5000000000000008 1.2864618106592312e-15
outer loop
vertex 16.16913429510899 15.674999999999999 3.5428825805706383e-14
vertex 16.303999865490262 15.349405710888407 15.000000000000037
vertex 16.16913429510901 15.675000000000004 15.000000000000037
endloop
endfacet
endsolid extremo
