solid lateral
facet normal -1.3140840442283184e-15 9.622111270818506e-16 -1.0
outer loop
vertex 6.130361918582384e-17 13.250000000000002 4.511946372076636e-14
vertex 1.3944290913027515 11.15320271808292 3.101963130802687e-14
vertex 0.0 11.500000000000002 3.101963130802687e-14
endloop
endfacet
facet normal -1.3140840442283184e-15 9.622111270818506e-16 -1.0
outer loop
vertex 1.3944290913027515 11.15320271808292 3.101963130802687e-14
vertex 6.130361918582384e-17 13.250000000000002 4.511946372076636e-14
vertex 11.500000000000002 13.250000000000004 4.511946372076636e-14
endloop
endfacet
facet normal -1.3140840442283184e-15 9.622111270818506e-16 -1.0
outer loop
vertex 1.3944290913027515 11.15320271808292 3.101963130802687e-14
vertex 11.500000000000002 13.250000000000004 4.511946372076636e-14
vertex 2.7480042886971976 10.67098385655314 3.101963130802687e-14
endloop
endfacet
facet normal -1.3140840442283184e-15 9.622111270818506e-16 -1.0
outer loop
vertex 2.7480042886971976 10.67098385655314 3.101963130802687e-14
vertex 11.500000000000002 13.250000000000004 4.511946372076636e-14
vertex 4.047608731526464 10.05801637161212 3.101963130802687e-14
endloop
endfacet
facet normal -1.3140840442283184e-15 9.622111270818506e-16 -1.0
outer loop
vertex 4.047608731526464 10.05801637161212 3.101963130802687e-14
vertex 11.500000000000002 13.250000000000004 4.511946372076636e-14
vertex 5.280648564333931 9.32024024288022 3.101963130802687e-14
endloop
endfacet
facet normal -1.3140840442283184e-15 9.622111270818506e-16 -1.0
outer loop
vertex 5.280648564333931 9.32024024288022 3.101963130802687e-14
vertex 11.500000000000002 13.250000000000004 4.511946372076636e-14
vertex 6.435174977993632 8.464804911847791 3.101963130802687e-14
endloop
endfacet
facet normal -1.3140840442283184e-15 9.622111270818506e-16 -1.0
outer loop
vertex 6.435174977993632 8.464804911847791 3.101963130802687e-14
vertex 11.500000000000002 13.250000000000004 4.511946372076636e-14
vertex 7.5000000000000036 7.500000000000002 3.101963130802687e-14
endloop
endfacet
facet normal -1.3140840442283184e-15 9.622111270818506e-16 -1.0
outer loop
vertex 7.5000000000000036 7.500000000000002 3.101963130802687e-14
vertex 11.500000000000002 13.250000000000004 4.511946372076636e-14
vertex 8.464804911847793 6.435174977993629 3.101963130802687e-14
endloop
endfacet
facet normal -1.3140840442283184e-15 9.622111270818506e-16 -1.0
outer loop
vertex 8.464804911847793 6.435174977993629 3.101963130802687e-14
vertex 11.500000000000002 13.250000000000004 4.511946372076636e-14
vertex 9.320240242880223 5.280648564333928 3.101963130802687e-14
endloop
endfacet
facet normal -1.3140840442283184e-15 9.622111270818506e-16 -1.0
outer loop
vertex 9.320240242880223 5.280648564333928 3.101963130802687e-14
vertex 11.500000000000002 13.250000000000004 4.511946372076636e-14
vertex 10.05801637161212 4.047608731526459 3.101963130802687e-14
endloop
endfacet
facet normal -1.3140840442283184e-15 9.622111270818506e-16 -1.0
outer loop
vertex 10.05801637161212 4.047608731526459 3.101963130802687e-14
vertex 11.500000000000002 13.250000000000004 4.511946372076636e-14
vertex 10.670983856553146 2.7480042886971963 3.101963130802687e-14
endloop
endfacet
facet normal -1.3140840442283184e-15 9.622111270818506e-16 -1.0
outer loop
vertex 10.670983856553146 2.7480042886971963 3.101963130802687e-14
vertex 11.500000000000002 13.250000000000004 4.511946372076636e-14
vertex 11.153202718082929 1.39442909130275 3.101963130802687e-14
endloop
endfacet
facet normal -1.3140840442283184e-15 9.622111270818506e-16 -1.0
outer loop
vertex 11.153202718082929 1.39442909130275 3.101963130802687e-14
vertex 11.500000000000002 13.250000000000004 4.511946372076636e-14
vertex 11.500000000000002 0.0 3.101963130802687e-14
endloop
endfacet
facet normal -1.3140840442283184e-15 9.622111270818506e-16 -1.0
outer loop
vertex 30.0 18.499999999999993 2.8199664825478975e-15
vertex 0.0 16.749999999999996 4.511946372076636e-14
vertex 0.0 18.499999999999993 5.357936316841005e-14
endloop
endfacet
facet normal -1.3140840442283184e-15 9.622111270818506e-16 -1.0
outer loop
vertex 0.0 16.749999999999996 4.511946372076636e-14
vertex 30.0 18.499999999999993 2.8199664825478975e-15
vertex 11.500000000000002 16.749999999999996 4.511946372076636e-14
endloop
endfacet
facet normal -1.3140840442283184e-15 9.622111270818506e-16 -1.0
outer loop
vertex 11.500000000000002 16.749999999999996 4.511946372076636e-14
vertex 30.0 18.499999999999993 2.8199664825478975e-15
vertex 18.5 16.749999999999996 8.459899447643692e-15
endloop
endfacet
facet normal -1.3140840442283184e-15 9.622111270818506e-16 -1.0
outer loop
vertex 11.500000000000002 16.749999999999996 4.511946372076636e-14
vertex 18.5 16.749999999999996 8.459899447643692e-15
vertex 11.500000000000002 13.250000000000004 4.511946372076636e-14
endloop
endfacet
facet normal -1.3140840442283184e-15 9.622111270818506e-16 -1.0
outer loop
vertex 11.500000000000002 13.250000000000004 4.511946372076636e-14
vertex 18.5 16.749999999999996 8.459899447643692e-15
vertex 13.250000000000004 11.500000000000002 2.5379698342931078e-14
endloop
endfacet
facet normal -1.3140840442283184e-15 9.622111270818506e-16 -1.0
outer loop
vertex 11.500000000000002 13.250000000000004 4.511946372076636e-14
vertex 13.250000000000004 11.500000000000002 2.5379698342931078e-14
vertex 11.500000000000002 0.0 3.101963130802687e-14
endloop
endfacet
facet normal -1.3140840442283184e-15 9.622111270818506e-16 -1.0
outer loop
vertex 11.500000000000002 0.0 3.101963130802687e-14
vertex 13.250000000000004 11.500000000000002 2.5379698342931078e-14
vertex 13.250000000000002 6.130361918582385e-17 2.5379698342931078e-14
endloop
endfacet
facet normal -1.3140840442283184e-15 9.622111270818506e-16 -1.0
outer loop
vertex 13.250000000000004 11.500000000000002 2.5379698342931078e-14
vertex 18.5 16.749999999999996 8.459899447643692e-15
vertex 16.75 11.500000000000002 2.5379698342931078e-14
endloop
endfacet
facet normal -1.3140840442283184e-15 9.622111270818506e-16 -1.0
outer loop
vertex 16.75 11.500000000000002 2.5379698342931078e-14
vertex 18.5 16.749999999999996 8.459899447643692e-15
vertex 16.75 0.0 2.5379698342931078e-14
endloop
endfacet
facet normal -1.3140840442283184e-15 9.622111270818506e-16 -1.0
outer loop
vertex 18.5 16.749999999999996 8.459899447643692e-15
vertex 30.0 18.499999999999993 2.8199664825478975e-15
vertex 30.0 16.749999999999996 8.459899447643692e-15
endloop
endfacet
facet normal -1.3140840442283184e-15 9.622111270818506e-16 -1.0
outer loop
vertex 18.5 16.749999999999996 8.459899447643692e-15
vertex 18.5 0.0 1.127986593019159e-14
vertex 16.75 0.0 2.5379698342931078e-14
endloop
endfacet
facet normal -1.3140840442283184e-15 9.622111270818506e-16 -1.0
outer loop
vertex 18.5 0.0 1.127986593019159e-14
vertex 18.5 16.749999999999996 8.459899447643692e-15
vertex 18.5 13.250000000000004 8.459899447643692e-15
endloop
endfacet
facet normal -1.3140840442283184e-15 9.622111270818506e-16 -1.0
outer loop
vertex 18.5 0.0 1.127986593019159e-14
vertex 18.5 13.250000000000004 8.459899447643692e-15
vertex 18.846797281917084 1.3944290913027515 1.127986593019159e-14
endloop
endfacet
facet normal -1.3140840442283184e-15 9.622111270818506e-16 -1.0
outer loop
vertex 18.846797281917084 1.3944290913027515 1.127986593019159e-14
vertex 18.5 13.250000000000004 8.459899447643692e-15
vertex 19.329016143446864 2.7480042886971976 1.127986593019159e-14
endloop
endfacet
facet normal -1.3140840442283184e-15 9.622111270818506e-16 -1.0
outer loop
vertex 19.329016143446864 2.7480042886971976 1.127986593019159e-14
vertex 18.5 13.250000000000004 8.459899447643692e-15
vertex 19.941983628387884 4.047608731526464 1.127986593019159e-14
endloop
endfacet
facet normal -1.3140840442283184e-15 9.622111270818506e-16 -1.0
outer loop
vertex 19.941983628387884 4.047608731526464 1.127986593019159e-14
vertex 18.5 13.250000000000004 8.459899447643692e-15
vertex 20.679759757119786 5.280648564333931 1.127986593019159e-14
endloop
endfacet
facet normal -1.3140840442283184e-15 9.622111270818506e-16 -1.0
outer loop
vertex 20.679759757119786 5.280648564333931 1.127986593019159e-14
vertex 18.5 13.250000000000004 8.459899447643692e-15
vertex 21.535195088152214 6.435174977993632 1.127986593019159e-14
endloop
endfacet
facet normal -1.3140840442283184e-15 9.622111270818506e-16 -1.0
outer loop
vertex 21.535195088152214 6.435174977993632 1.127986593019159e-14
vertex 18.5 13.250000000000004 8.459899447643692e-15
vertex 22.5 7.500000000000002 1.127986593019159e-14
endloop
endfacet
facet normal -1.3140840442283184e-15 9.622111270818506e-16 -1.0
outer loop
vertex 22.5 7.500000000000002 1.127986593019159e-14
vertex 18.5 13.250000000000004 8.459899447643692e-15
vertex 23.564825022006374 8.464804911847793 1.127986593019159e-14
endloop
endfacet
facet normal -1.3140840442283184e-15 9.622111270818506e-16 -1.0
outer loop
vertex 23.564825022006374 8.464804911847793 1.127986593019159e-14
vertex 18.5 13.250000000000004 8.459899447643692e-15
vertex 30.0 13.250000000000002 8.459899447643692e-15
endloop
endfacet
facet normal -1.3140840442283184e-15 9.622111270818506e-16 -1.0
outer loop
vertex 23.564825022006374 8.464804911847793 1.127986593019159e-14
vertex 30.0 13.250000000000002 8.459899447643692e-15
vertex 24.719351435666074 9.320240242880223 1.127986593019159e-14
endloop
endfacet
facet normal -1.3140840442283184e-15 9.622111270818506e-16 -1.0
outer loop
vertex 24.719351435666074 9.320240242880223 1.127986593019159e-14
vertex 30.0 13.250000000000002 8.459899447643692e-15
vertex 25.952391268473544 10.05801637161212 1.127986593019159e-14
endloop
endfacet
facet normal -1.3140840442283184e-15 9.622111270818506e-16 -1.0
outer loop
vertex 25.952391268473544 10.05801637161212 1.127986593019159e-14
vertex 30.0 13.250000000000002 8.459899447643692e-15
vertex 27.251995711302804 10.670983856553146 1.127986593019159e-14
endloop
endfacet
facet normal -1.3140840442283184e-15 9.622111270818506e-16 -1.0
outer loop
vertex 27.251995711302804 10.670983856553146 1.127986593019159e-14
vertex 30.0 13.250000000000002 8.459899447643692e-15
vertex 28.605570908697253 11.153202718082929 1.127986593019159e-14
endloop
endfacet
facet normal -1.3140840442283184e-15 9.622111270818506e-16 -1.0
outer loop
vertex 28.605570908697253 11.153202718082929 1.127986593019159e-14
vertex 30.0 13.250000000000002 8.459899447643692e-15
vertex 30.0 11.500000000000002 1.127986593019159e-14
endloop
endfacet
facet normal 1.0 -0.0 -0.0
outer loop
vertex 30.0 13.250000000000002 8.459899447643692e-15
vertex 30.0 11.500000000000002 50.0
vertex 30.0 11.500000000000002 1.127986593019159e-14
endloop
endfacet
facet normal 1.0 -0.0 -0.0
outer loop
vertex 30.0 11.500000000000002 50.0
vertex 30.0 13.250000000000002 8.459899447643692e-15
vertex 30.0 13.250000000000002 50.0
endloop
endfacet
facet normal 0.0 -1.0 0.0
outer loop
vertex 13.250000000000002 6.130361918582385e-17 50.0
vertex 11.500000000000002 0.0 3.101963130802687e-14
vertex 13.250000000000002 6.130361918582385e-17 2.5379698342931078e-14
endloop
endfacet
facet normal 0.0 -1.0 0.0
outer loop
vertex 11.500000000000002 0.0 3.101963130802687e-14
vertex 13.250000000000002 6.130361918582385e-17 50.0
vertex 11.500000000000002 0.0 50.0
endloop
endfacet
facet normal -1.0 0.0 0.0
outer loop
vertex 0.0 18.499999999999993 50.0
vertex 0.0 16.749999999999996 4.511946372076636e-14
vertex 0.0 16.749999999999996 50.0
endloop
endfacet
facet normal -1.0 0.0 0.0
outer loop
vertex 0.0 16.749999999999996 4.511946372076636e-14
vertex 0.0 18.499999999999993 50.0
vertex 0.0 18.499999999999993 5.357936316841005e-14
endloop
endfacet
facet normal 1.0584148384888932e-30 -3.2472558070681497e-31 1.0
outer loop
vertex 1.3944290913027515 11.15320271808292 50.0
vertex 6.130361918582384e-17 13.250000000000002 50.0
vertex 0.0 11.500000000000002 50.0
endloop
endfacet
facet normal 1.0584148384888932e-30 -3.2472558070681497e-31 1.0
outer loop
vertex 6.130361918582384e-17 13.250000000000002 50.0
vertex 1.3944290913027515 11.15320271808292 50.0
vertex 11.500000000000002 13.250000000000004 50.0
endloop
endfacet
facet normal 1.0584148384888932e-30 -3.2472558070681497e-31 1.0
outer loop
vertex 11.500000000000002 13.250000000000004 50.0
vertex 1.3944290913027515 11.15320271808292 50.0
vertex 2.7480042886971976 10.67098385655314 50.0
endloop
endfacet
facet normal 1.0584148384888932e-30 -3.2472558070681497e-31 1.0
outer loop
vertex 11.500000000000002 13.250000000000004 50.0
vertex 2.7480042886971976 10.67098385655314 50.0
vertex 4.047608731526464 10.05801637161212 50.0
endloop
endfacet
facet normal 1.0584148384888932e-30 -3.2472558070681497e-31 1.0
outer loop
vertex 11.500000000000002 13.250000000000004 50.0
vertex 4.047608731526464 10.05801637161212 50.0
vertex 5.280648564333931 9.32024024288022 50.0
endloop
endfacet
facet normal 1.0584148384888932e-30 -3.2472558070681497e-31 1.0
outer loop
vertex 11.500000000000002 13.250000000000004 50.0
vertex 5.280648564333931 9.32024024288022 50.0
vertex 6.435174977993632 8.464804911847791 50.0
endloop
endfacet
facet normal 1.0584148384888932e-30 -3.2472558070681497e-31 1.0
outer loop
vertex 11.500000000000002 13.250000000000004 50.0
vertex 6.435174977993632 8.464804911847791 50.0
vertex 7.5000000000000036 7.500000000000002 50.0
endloop
endfacet
facet normal 1.0584148384888932e-30 -3.2472558070681497e-31 1.0
outer loop
vertex 11.500000000000002 13.250000000000004 50.0
vertex 7.5000000000000036 7.500000000000002 50.0
vertex 8.464804911847793 6.435174977993629 50.0
endloop
endfacet
facet normal 1.0584148384888932e-30 -3.2472558070681497e-31 1.0
outer loop
vertex 11.500000000000002 13.250000000000004 50.0
vertex 8.464804911847793 6.435174977993629 50.0
vertex 9.320240242880223 5.280648564333928 50.0
endloop
endfacet
facet normal 1.0584148384888932e-30 -3.2472558070681497e-31 1.0
outer loop
vertex 11.500000000000002 13.250000000000004 50.0
vertex 9.320240242880223 5.280648564333928 50.0
vertex 10.05801637161212 4.047608731526459 50.0
endloop
endfacet
facet normal 1.0584148384888932e-30 -3.2472558070681497e-31 1.0
outer loop
vertex 11.500000000000002 13.250000000000004 50.0
vertex 10.05801637161212 4.047608731526459 50.0
vertex 10.670983856553146 2.7480042886971963 50.0
endloop
endfacet
facet normal 1.0584148384888932e-30 -3.2472558070681497e-31 1.0
outer loop
vertex 11.500000000000002 13.250000000000004 50.0
vertex 10.670983856553146 2.7480042886971963 50.0
vertex 11.153202718082929 1.39442909130275 50.0
endloop
endfacet
facet normal 1.0584148384888932e-30 -3.2472558070681497e-31 1.0
outer loop
vertex 11.500000000000002 13.250000000000004 50.0
vertex 11.153202718082929 1.39442909130275 50.0
vertex 11.500000000000002 0.0 50.0
endloop
endfacet
facet normal 1.0584148384888932e-30 -3.2472558070681497e-31 1.0
outer loop
vertex 11.500000000000002 13.250000000000004 50.0
vertex 11.500000000000002 0.0 50.0
vertex 13.250000000000002 6.130361918582385e-17 50.0
endloop
endfacet
facet normal 1.0584148384888932e-30 -3.2472558070681497e-31 1.0
outer loop
vertex 11.500000000000002 13.250000000000004 50.0
vertex 13.250000000000002 6.130361918582385e-17 50.0
vertex 11.500000000000002 16.749999999999996 50.0
endloop
endfacet
facet normal 1.0584148384888932e-30 -3.2472558070681497e-31 1.0
outer loop
vertex 18.5 0.0 50.0
vertex 16.75 11.500000000000002 50.0
vertex 16.75 0.0 50.0
endloop
endfacet
facet normal 1.0584148384888932e-30 -3.2472558070681497e-31 1.0
outer loop
vertex 18.846797281917084 1.3944290913027515 50.0
vertex 18.5 13.250000000000004 50.0
vertex 18.5 0.0 50.0
endloop
endfacet
facet normal 1.0584148384888932e-30 -3.2472558070681497e-31 1.0
outer loop
vertex 18.5 13.250000000000004 50.0
vertex 18.846797281917084 1.3944290913027515 50.0
vertex 19.329016143446864 2.7480042886971976 50.0
endloop
endfacet
facet normal 1.0584148384888932e-30 -3.2472558070681497e-31 1.0
outer loop
vertex 18.5 13.250000000000004 50.0
vertex 19.329016143446864 2.7480042886971976 50.0
vertex 19.941983628387884 4.047608731526464 50.0
endloop
endfacet
facet normal 1.0584148384888932e-30 -3.2472558070681497e-31 1.0
outer loop
vertex 18.5 13.250000000000004 50.0
vertex 19.941983628387884 4.047608731526464 50.0
vertex 20.679759757119786 5.280648564333931 50.0
endloop
endfacet
facet normal 1.0584148384888932e-30 -3.2472558070681497e-31 1.0
outer loop
vertex 18.5 13.250000000000004 50.0
vertex 20.679759757119786 5.280648564333931 50.0
vertex 21.535195088152214 6.435174977993632 50.0
endloop
endfacet
facet normal 1.0584148384888932e-30 -3.2472558070681497e-31 1.0
outer loop
vertex 18.5 13.250000000000004 50.0
vertex 21.535195088152214 6.435174977993632 50.0
vertex 22.5 7.500000000000002 50.0
endloop
endfacet
facet normal 1.0584148384888932e-30 -3.2472558070681497e-31 1.0
outer loop
vertex 18.5 13.250000000000004 50.0
vertex 22.5 7.500000000000002 50.0
vertex 23.564825022006374 8.464804911847793 50.0
endloop
endfacet
facet normal 1.0584148384888932e-30 -3.2472558070681497e-31 1.0
outer loop
vertex 18.5 13.250000000000004 50.0
vertex 23.564825022006374 8.464804911847793 50.0
vertex 30.0 13.250000000000002 50.0
endloop
endfacet
facet normal 1.0584148384888932e-30 -3.2472558070681497e-31 1.0
outer loop
vertex 30.0 13.250000000000002 50.0
vertex 23.564825022006374 8.464804911847793 50.0
vertex 24.719351435666074 9.320240242880223 50.0
endloop
endfacet
facet normal 1.0584148384888932e-30 -3.2472558070681497e-31 1.0
outer loop
vertex 30.0 13.250000000000002 50.0
vertex 24.719351435666074 9.320240242880223 50.0
vertex 25.952391268473544 10.05801637161212 50.0
endloop
endfacet
facet normal 1.0584148384888932e-30 -3.2472558070681497e-31 1.0
outer loop
vertex 30.0 13.250000000000002 50.0
vertex 25.952391268473544 10.05801637161212 50.0
vertex 27.251995711302804 10.670983856553146 50.0
endloop
endfacet
facet normal 1.0584148384888932e-30 -3.2472558070681497e-31 1.0
outer loop
vertex 30.0 13.250000000000002 50.0
vertex 27.251995711302804 10.670983856553146 50.0
vertex 28.605570908697253 11.153202718082929 50.0
endloop
endfacet
facet normal 1.0584148384888932e-30 -3.2472558070681497e-31 1.0
outer loop
vertex 30.0 13.250000000000002 50.0
vertex 28.605570908697253 11.153202718082929 50.0
vertex 30.0 11.500000000000002 50.0
endloop
endfacet
facet normal 1.0584148384888932e-30 -3.2472558070681497e-31 1.0
outer loop
vertex 11.500000000000002 16.749999999999996 50.0
vertex 0.0 18.499999999999993 50.0
vertex 0.0 16.749999999999996 50.0
endloop
endfacet
facet normal 1.0584148384888932e-30 -3.2472558070681497e-31 1.0
outer loop
vertex 0.0 18.499999999999993 50.0
vertex 11.500000000000002 16.749999999999996 50.0
vertex 30.0 18.499999999999993 50.0
endloop
endfacet
facet normal 1.0584148384888932e-30 -3.2472558070681497e-31 1.0
outer loop
vertex 30.0 18.499999999999993 50.0
vertex 11.500000000000002 16.749999999999996 50.0
vertex 18.5 16.749999999999996 50.0
endloop
endfacet
facet normal 1.0584148384888932e-30 -3.2472558070681497e-31 1.0
outer loop
vertex 18.5 16.749999999999996 50.0
vertex 11.500000000000002 16.749999999999996 50.0
vertex 13.250000000000004 11.500000000000002 50.0
endloop
endfacet
facet normal 1.0584148384888932e-30 -3.2472558070681497e-31 1.0
outer loop
vertex 13.250000000000004 11.500000000000002 50.0
vertex 11.500000000000002 16.749999999999996 50.0
vertex 13.250000000000002 6.130361918582385e-17 50.0
endloop
endfacet
facet normal 1.0584148384888932e-30 -3.2472558070681497e-31 1.0
outer loop
vertex 18.5 16.749999999999996 50.0
vertex 13.250000000000004 11.500000000000002 50.0
vertex 16.75 11.500000000000002 50.0
endloop
endfacet
facet normal 1.0584148384888932e-30 -3.2472558070681497e-31 1.0
outer loop
vertex 18.5 16.749999999999996 50.0
vertex 16.75 11.500000000000002 50.0
vertex 18.5 0.0 50.0
endloop
endfacet
facet normal 1.0584148384888932e-30 -3.2472558070681497e-31 1.0
outer loop
vertex 18.5 16.749999999999996 50.0
vertex 18.5 0.0 50.0
vertex 18.5 13.250000000000004 50.0
endloop
endfacet
facet normal 1.0584148384888932e-30 -3.2472558070681497e-31 1.0
outer loop
vertex 30.0 18.499999999999993 50.0
vertex 18.5 16.749999999999996 50.0
vertex 30.0 16.749999999999996 50.0
endloop
endfacet
facet normal 0.24134989663571427 -0.9704381625811767 0.0
outer loop
vertex 30.0 11.500000000000002 50.0
vertex 28.605570908697253 11.153202718082929 1.127986593019159e-14
vertex 30.0 11.500000000000002 1.127986593019159e-14
endloop
endfacet
facet normal 0.2888225715272255 -0.9573826414639033 0.0
outer loop
vertex 28.605570908697253 11.153202718082929 1.127986593019159e-14
vertex 30.0 11.500000000000002 50.0
vertex 28.605570908697253 11.153202718082929 50.0
endloop
endfacet
facet normal 0.2888225715272255 -0.9573826414639033 0.0
outer loop
vertex 28.605570908697253 11.153202718082929 50.0
vertex 27.251995711302804 10.670983856553146 1.127986593019159e-14
vertex 28.605570908697253 11.153202718082929 1.127986593019159e-14
endloop
endfacet
facet normal 0.3815541342464626 -0.9243464949029842 0.0
outer loop
vertex 27.251995711302804 10.670983856553146 1.127986593019159e-14
vertex 28.605570908697253 11.153202718082929 50.0
vertex 27.251995711302804 10.670983856553146 50.0
endloop
endfacet
facet normal 0.3815541342464626 -0.9243464949029842 0.0
outer loop
vertex 27.251995711302804 10.670983856553146 50.0
vertex 25.952391268473544 10.05801637161212 1.127986593019159e-14
vertex 27.251995711302804 10.670983856553146 1.127986593019159e-14
endloop
endfacet
facet normal 0.4705882352941178 -0.8823529411764706 0.0
outer loop
vertex 25.952391268473544 10.05801637161212 1.127986593019159e-14
vertex 27.251995711302804 10.670983856553146 50.0
vertex 25.952391268473544 10.05801637161212 50.0
endloop
endfacet
facet normal 0.4705882352941178 -0.8823529411764706 0.0
outer loop
vertex 25.952391268473544 10.05801637161212 50.0
vertex 24.719351435666074 9.320240242880223 1.127986593019159e-14
vertex 25.952391268473544 10.05801637161212 1.127986593019159e-14
endloop
endfacet
facet normal 0.5550620870693276 -0.8318089200641228 0.0
outer loop
vertex 24.719351435666074 9.320240242880223 1.127986593019159e-14
vertex 25.952391268473544 10.05801637161212 50.0
vertex 24.719351435666074 9.320240242880223 50.0
endloop
endfacet
facet normal 0.5550620870693276 -0.8318089200641228 0.0
outer loop
vertex 24.719351435666074 9.320240242880223 50.0
vertex 23.564825022006374 8.464804911847793 1.127986593019159e-14
vertex 24.719351435666074 9.320240242880223 1.127986593019159e-14
endloop
endfacet
facet normal 0.6341570932022601 -0.7732042299038852 0.0
outer loop
vertex 23.564825022006374 8.464804911847793 1.127986593019159e-14
vertex 24.719351435666074 9.320240242880223 50.0
vertex 23.564825022006374 8.464804911847793 50.0
endloop
endfacet
facet normal 0.6341570932022601 -0.7732042299038852 0.0
outer loop
vertex 23.564825022006374 8.464804911847793 50.0
vertex 22.5 7.500000000000002 1.127986593019159e-14
vertex 23.564825022006374 8.464804911847793 1.127986593019159e-14
endloop
endfacet
facet normal 0.7071067811865476 -0.7071067811865475 0.0
outer loop
vertex 22.5 7.500000000000002 1.127986593019159e-14
vertex 23.564825022006374 8.464804911847793 50.0
vertex 22.5 7.500000000000002 50.0
endloop
endfacet
facet normal 0.7071067811865476 -0.7071067811865475 0.0
outer loop
vertex 22.5 7.500000000000002 1.127986593019159e-14
vertex 21.535195088152214 6.435174977993632 50.0
vertex 21.535195088152214 6.435174977993632 1.127986593019159e-14
endloop
endfacet
facet normal 0.7732042299038855 -0.6341570932022597 0.0
outer loop
vertex 21.535195088152214 6.435174977993632 50.0
vertex 22.5 7.500000000000002 1.127986593019159e-14
vertex 22.5 7.500000000000002 50.0
endloop
endfacet
facet normal 0.7732042299038855 -0.6341570932022597 0.0
outer loop
vertex 21.535195088152214 6.435174977993632 1.127986593019159e-14
vertex 20.679759757119786 5.280648564333931 50.0
vertex 20.679759757119786 5.280648564333931 1.127986593019159e-14
endloop
endfacet
facet normal 0.8318089200641219 -0.5550620870693286 0.0
outer loop
vertex 20.679759757119786 5.280648564333931 50.0
vertex 21.535195088152214 6.435174977993632 1.127986593019159e-14
vertex 21.535195088152214 6.435174977993632 50.0
endloop
endfacet
facet normal 0.8318089200641219 -0.5550620870693286 0.0
outer loop
vertex 20.679759757119786 5.280648564333931 1.127986593019159e-14
vertex 19.941983628387884 4.047608731526464 50.0
vertex 19.941983628387884 4.047608731526464 1.127986593019159e-14
endloop
endfacet
facet normal 0.882352941176471 -0.4705882352941169 0.0
outer loop
vertex 19.941983628387884 4.047608731526464 50.0
vertex 20.679759757119786 5.280648564333931 1.127986593019159e-14
vertex 20.679759757119786 5.280648564333931 50.0
endloop
endfacet
facet normal 0.882352941176471 -0.4705882352941169 0.0
outer loop
vertex 19.941983628387884 4.047608731526464 1.127986593019159e-14
vertex 19.329016143446864 2.7480042886971976 50.0
vertex 19.329016143446864 2.7480042886971976 1.127986593019159e-14
endloop
endfacet
facet normal 0.9243464949029855 -0.3815541342464595 0.0
outer loop
vertex 19.329016143446864 2.7480042886971976 50.0
vertex 19.941983628387884 4.047608731526464 1.127986593019159e-14
vertex 19.941983628387884 4.047608731526464 50.0
endloop
endfacet
facet normal 0.9243464949029855 -0.3815541342464595 0.0
outer loop
vertex 19.329016143446864 2.7480042886971976 1.127986593019159e-14
vertex 18.846797281917084 1.3944290913027515 50.0
vertex 18.846797281917084 1.3944290913027515 1.127986593019159e-14
endloop
endfacet
facet normal 0.9573826414639025 -0.2888225715272278 0.0
outer loop
vertex 18.846797281917084 1.3944290913027515 50.0
vertex 19.329016143446864 2.7480042886971976 1.127986593019159e-14
vertex 19.329016143446864 2.7480042886971976 50.0
endloop
endfacet
facet normal 0.9573826414639025 -0.2888225715272278 0.0
outer loop
vertex 18.846797281917084 1.3944290913027515 1.127986593019159e-14
vertex 18.5 0.0 50.0
vertex 18.5 0.0 1.127986593019159e-14
endloop
endfacet
facet normal 0.9704381625811752 -0.2413498966357203 -0.0
outer loop
vertex 18.5 0.0 50.0
vertex 18.846797281917084 1.3944290913027515 1.127986593019159e-14
vertex 18.846797281917084 1.3944290913027515 50.0
endloop
endfacet
facet normal -0.7071067811865478 -0.7071067811865472 0.0
outer loop
vertex 7.5000000000000036 7.500000000000002 50.0
vertex 8.464804911847793 6.435174977993629 3.101963130802687e-14
vertex 8.464804911847793 6.435174977993629 50.0
endloop
endfacet
facet normal -0.7732042299038849 -0.6341570932022603 0.0
outer loop
vertex 8.464804911847793 6.435174977993629 3.101963130802687e-14
vertex 7.5000000000000036 7.500000000000002 50.0
vertex 7.5000000000000036 7.500000000000002 3.101963130802687e-14
endloop
endfacet
facet normal -0.7071067811865478 -0.7071067811865472 0.0
outer loop
vertex 7.5000000000000036 7.500000000000002 50.0
vertex 6.435174977993632 8.464804911847791 3.101963130802687e-14
vertex 7.5000000000000036 7.500000000000002 3.101963130802687e-14
endloop
endfacet
facet normal -0.63415709320226 -0.7732042299038852 0.0
outer loop
vertex 6.435174977993632 8.464804911847791 3.101963130802687e-14
vertex 7.5000000000000036 7.500000000000002 50.0
vertex 6.435174977993632 8.464804911847791 50.0
endloop
endfacet
facet normal -0.63415709320226 -0.7732042299038852 0.0
outer loop
vertex 6.435174977993632 8.464804911847791 50.0
vertex 5.280648564333931 9.32024024288022 3.101963130802687e-14
vertex 6.435174977993632 8.464804911847791 3.101963130802687e-14
endloop
endfacet
facet normal -0.5550620870693282 -0.8318089200641221 0.0
outer loop
vertex 5.280648564333931 9.32024024288022 3.101963130802687e-14
vertex 6.435174977993632 8.464804911847791 50.0
vertex 5.280648564333931 9.32024024288022 50.0
endloop
endfacet
facet normal -0.5550620870693282 -0.8318089200641221 0.0
outer loop
vertex 5.280648564333931 9.32024024288022 50.0
vertex 4.047608731526464 10.05801637161212 3.101963130802687e-14
vertex 5.280648564333931 9.32024024288022 3.101963130802687e-14
endloop
endfacet
facet normal -0.4705882352941169 -0.882352941176471 0.0
outer loop
vertex 4.047608731526464 10.05801637161212 3.101963130802687e-14
vertex 5.280648564333931 9.32024024288022 50.0
vertex 4.047608731526464 10.05801637161212 50.0
endloop
endfacet
facet normal -0.4705882352941169 -0.882352941176471 0.0
outer loop
vertex 4.047608731526464 10.05801637161212 50.0
vertex 2.7480042886971976 10.67098385655314 3.101963130802687e-14
vertex 4.047608731526464 10.05801637161212 3.101963130802687e-14
endloop
endfacet
facet normal -0.3815541342464595 -0.9243464949029855 0.0
outer loop
vertex 2.7480042886971976 10.67098385655314 3.101963130802687e-14
vertex 4.047608731526464 10.05801637161212 50.0
vertex 2.7480042886971976 10.67098385655314 50.0
endloop
endfacet
facet normal -0.3815541342464595 -0.9243464949029855 0.0
outer loop
vertex 2.7480042886971976 10.67098385655314 50.0
vertex 1.3944290913027515 11.15320271808292 3.101963130802687e-14
vertex 2.7480042886971976 10.67098385655314 3.101963130802687e-14
endloop
endfacet
facet normal -0.28882257152722735 -0.9573826414639026 7.726493897790869e-34
outer loop
vertex 1.3944290913027515 11.15320271808292 3.101963130802687e-14
vertex 2.7480042886971976 10.67098385655314 50.0
vertex 1.3944290913027515 11.15320271808292 50.0
endloop
endfacet
facet normal -0.28882257152722735 -0.9573826414639026 7.726493897790869e-34
outer loop
vertex 1.3944290913027515 11.15320271808292 50.0
vertex 0.0 11.500000000000002 3.101963130802687e-14
vertex 1.3944290913027515 11.15320271808292 3.101963130802687e-14
endloop
endfacet
facet normal -0.24134989663571932 -0.9704381625811754 1.5434257990188463e-33
outer loop
vertex 0.0 11.500000000000002 3.101963130802687e-14
vertex 1.3944290913027515 11.15320271808292 50.0
vertex 0.0 11.500000000000002 50.0
endloop
endfacet
facet normal -0.9573826414639031 -0.2888225715272257 -7.72649389779088e-34
outer loop
vertex 11.153202718082929 1.39442909130275 50.0
vertex 11.500000000000002 0.0 3.101963130802687e-14
vertex 11.500000000000002 0.0 50.0
endloop
endfacet
facet normal -0.9704381625811767 -0.24134989663571405 -1.543425799018848e-33
outer loop
vertex 11.500000000000002 0.0 3.101963130802687e-14
vertex 11.153202718082929 1.39442909130275 50.0
vertex 11.153202718082929 1.39442909130275 3.101963130802687e-14
endloop
endfacet
facet normal -0.9243464949029843 -0.38155413424646234 0.0
outer loop
vertex 10.670983856553146 2.7480042886971963 50.0
vertex 11.153202718082929 1.39442909130275 3.101963130802687e-14
vertex 11.153202718082929 1.39442909130275 50.0
endloop
endfacet
facet normal -0.9573826414639031 -0.2888225715272257 -7.72649389779088e-34
outer loop
vertex 11.153202718082929 1.39442909130275 3.101963130802687e-14
vertex 10.670983856553146 2.7480042886971963 50.0
vertex 10.670983856553146 2.7480042886971963 3.101963130802687e-14
endloop
endfacet
facet normal -0.8823529411764706 -0.47058823529411736 0.0
outer loop
vertex 10.05801637161212 4.047608731526459 50.0
vertex 10.670983856553146 2.7480042886971963 3.101963130802687e-14
vertex 10.670983856553146 2.7480042886971963 50.0
endloop
endfacet
facet normal -0.9243464949029843 -0.38155413424646234 0.0
outer loop
vertex 10.670983856553146 2.7480042886971963 3.101963130802687e-14
vertex 10.05801637161212 4.047608731526459 50.0
vertex 10.05801637161212 4.047608731526459 3.101963130802687e-14
endloop
endfacet
facet normal -0.8318089200641227 -0.5550620870693278 0.0
outer loop
vertex 9.320240242880223 5.280648564333928 50.0
vertex 10.05801637161212 4.047608731526459 3.101963130802687e-14
vertex 10.05801637161212 4.047608731526459 50.0
endloop
endfacet
facet normal -0.8823529411764706 -0.47058823529411736 0.0
outer loop
vertex 10.05801637161212 4.047608731526459 3.101963130802687e-14
vertex 9.320240242880223 5.280648564333928 50.0
vertex 9.320240242880223 5.280648564333928 3.101963130802687e-14
endloop
endfacet
facet normal -0.7732042299038849 -0.6341570932022603 0.0
outer loop
vertex 8.464804911847793 6.435174977993629 50.0
vertex 9.320240242880223 5.280648564333928 3.101963130802687e-14
vertex 9.320240242880223 5.280648564333928 50.0
endloop
endfacet
facet normal -0.8318089200641227 -0.5550620870693278 0.0
outer loop
vertex 9.320240242880223 5.280648564333928 3.101963130802687e-14
vertex 8.464804911847793 6.435174977993629 50.0
vertex 8.464804911847793 6.435174977993629 3.101963130802687e-14
endloop
endfacet
facet normal -1.0 0.0 0.0
outer loop
vertex 16.75 11.500000000000002 50.0
vertex 16.75 0.0 2.5379698342931078e-14
vertex 16.75 0.0 50.0
endloop
endfacet
facet normal -1.0 0.0 0.0
outer loop
vertex 16.75 0.0 2.5379698342931078e-14
vertex 16.75 11.500000000000002 50.0
vertex 16.75 11.500000000000002 2.5379698342931078e-14
endloop
endfacet
facet normal -0.0 -1.0 -0.0
outer loop
vertex 16.75 11.500000000000002 50.0
vertex 13.250000000000004 11.500000000000002 2.5379698342931078e-14
vertex 16.75 11.500000000000002 2.5379698342931078e-14
endloop
endfacet
facet normal -0.0 -1.0 -0.0
outer loop
vertex 13.250000000000004 11.500000000000002 2.5379698342931078e-14
vertex 16.75 11.500000000000002 50.0
vertex 13.250000000000004 11.500000000000002 50.0
endloop
endfacet
facet normal 1.0 -2.452144767432954e-16 0.0
outer loop
vertex 13.250000000000004 11.500000000000002 2.5379698342931078e-14
vertex 13.250000000000002 6.130361918582385e-17 50.0
vertex 13.250000000000002 6.130361918582385e-17 2.5379698342931078e-14
endloop
endfacet
facet normal 1.0 -2.452144767432954e-16 0.0
outer loop
vertex 13.250000000000002 6.130361918582385e-17 50.0
vertex 13.250000000000004 11.500000000000002 2.5379698342931078e-14
vertex 13.250000000000004 11.500000000000002 50.0
endloop
endfacet
facet normal 0.0 -1.0 0.0
outer loop
vertex 18.5 0.0 50.0
vertex 16.75 0.0 2.5379698342931078e-14
vertex 18.5 0.0 1.127986593019159e-14
endloop
endfacet
facet normal 0.0 -1.0 0.0
outer loop
vertex 16.75 0.0 2.5379698342931078e-14
vertex 18.5 0.0 50.0
vertex 16.75 0.0 50.0
endloop
endfacet
facet normal -2.4521447674329536e-16 -1.0 0.0
outer loop
vertex 30.0 16.749999999999996 50.0
vertex 18.5 16.749999999999996 8.459899447643692e-15
vertex 30.0 16.749999999999996 8.459899447643692e-15
endloop
endfacet
facet normal -2.4521447674329536e-16 -1.0 0.0
outer loop
vertex 18.5 16.749999999999996 8.459899447643692e-15
vertex 30.0 16.749999999999996 50.0
vertex 18.5 16.749999999999996 50.0
endloop
endfacet
facet normal 1.0 0.0 0.0
outer loop
vertex 18.5 16.749999999999996 8.459899447643692e-15
vertex 18.5 13.250000000000004 50.0
vertex 18.5 13.250000000000004 8.459899447643692e-15
endloop
endfacet
facet normal 1.0 0.0 0.0
outer loop
vertex 18.5 13.250000000000004 50.0
vertex 18.5 16.749999999999996 8.459899447643692e-15
vertex 18.5 16.749999999999996 50.0
endloop
endfacet
facet normal 2.4521447674329536e-16 1.0 0.0
outer loop
vertex 18.5 13.250000000000004 50.0
vertex 30.0 13.250000000000002 8.459899447643692e-15
vertex 18.5 13.250000000000004 8.459899447643692e-15
endloop
endfacet
facet normal 2.4521447674329536e-16 1.0 0.0
outer loop
vertex 30.0 13.250000000000002 8.459899447643692e-15
vertex 18.5 13.250000000000004 50.0
vertex 30.0 13.250000000000002 50.0
endloop
endfacet
facet normal 1.0 -0.0 -0.0
outer loop
vertex 30.0 18.499999999999993 2.8199664825478975e-15
vertex 30.0 16.749999999999996 50.0
vertex 30.0 16.749999999999996 8.459899447643692e-15
endloop
endfacet
facet normal 1.0 -0.0 -0.0
outer loop
vertex 30.0 16.749999999999996 50.0
vertex 30.0 18.499999999999993 2.8199664825478975e-15
vertex 30.0 18.499999999999993 50.0
endloop
endfacet
facet normal -2.4521447674329536e-16 1.0 0.0
outer loop
vertex 6.130361918582384e-17 13.250000000000002 50.0
vertex 11.500000000000002 13.250000000000004 4.511946372076636e-14
vertex 6.130361918582384e-17 13.250000000000002 4.511946372076636e-14
endloop
endfacet
facet normal -2.4521447674329536e-16 1.0 0.0
outer loop
vertex 11.500000000000002 13.250000000000004 4.511946372076636e-14
vertex 6.130361918582384e-17 13.250000000000002 50.0
vertex 11.500000000000002 13.250000000000004 50.0
endloop
endfacet
facet normal -1.0 0.0 -0.0
outer loop
vertex 11.500000000000002 16.749999999999996 50.0
vertex 11.500000000000002 13.250000000000004 4.511946372076636e-14
vertex 11.500000000000002 13.250000000000004 50.0
endloop
endfacet
facet normal -1.0 0.0 -0.0
outer loop
vertex 11.500000000000002 13.250000000000004 4.511946372076636e-14
vertex 11.500000000000002 16.749999999999996 50.0
vertex 11.500000000000002 16.749999999999996 4.511946372076636e-14
endloop
endfacet
facet normal 0.0 -1.0 0.0
outer loop
vertex 11.500000000000002 16.749999999999996 50.0
vertex 0.0 16.749999999999996 4.511946372076636e-14
vertex 11.500000000000002 16.749999999999996 4.511946372076636e-14
endloop
endfacet
facet normal 0.0 -1.0 0.0
outer loop
vertex 0.0 16.749999999999996 4.511946372076636e-14
vertex 11.500000000000002 16.749999999999996 50.0
vertex 0.0 16.749999999999996 50.0
endloop
endfacet
facet normal -1.0 0.0 0.0
outer loop
vertex 6.130361918582384e-17 13.250000000000002 50.0
vertex 0.0 11.500000000000002 3.101963130802687e-14
vertex 0.0 11.500000000000002 50.0
endloop
endfacet
facet normal -1.0 0.0 0.0
outer loop
vertex 0.0 11.500000000000002 3.101963130802687e-14
vertex 6.130361918582384e-17 13.250000000000002 50.0
vertex 6.130361918582384e-17 13.250000000000002 4.511946372076636e-14
endloop
endfacet
facet normal -0.0 1.0 -0.0
outer loop
vertex 0.0 18.499999999999993 5.357936316841005e-14
vertex 30.0 18.499999999999993 50.0
vertex 30.0 18.499999999999993 2.8199664825478975e-15
endloop
endfacet
facet normal -0.0 1.0 -0.0
outer loop
vertex 30.0 18.499999999999993 50.0
vertex 0.0 18.499999999999993 5.357936316841005e-14
vertex 0.0 18.499999999999993 50.0
endloop
endfacet
endsolid lateral
