solid lateral
facet normal -1.3140840442283184e-15 9.622111270818506e-16 -1.0
outer loop
vertex 13.250000000000004 11.500000000000002 2.5379698342931078e-14
vertex 13.989926047499914 14.10431556311341 2.725516611714971e-14
vertex 16.75 11.500000000000002 2.5379698342931078e-14
endloop
endfacet
facet normal -1.3140840442283184e-15 9.622111270818506e-16 -1.0
outer loop
vertex 13.989926047499914 14.10431556311341 2.725516611714971e-14
vertex 13.250000000000004 11.500000000000002 2.5379698342931078e-14
vertex 13.792523292150111 14.396261646075061 2.7795483697775252e-14
endloop
endfacet
facet normal -1.3140840442283184e-15 9.622111270818506e-16 -1.0
outer loop
vertex 13.792523292150111 14.396261646075061 2.7795483697775252e-14
vertex 13.250000000000004 11.500000000000002 2.5379698342931078e-14
vertex 13.677408078990672 14.729351500131896 2.826725752652757e-14
endloop
endfacet
facet normal -1.3140840442283184e-15 9.622111270818506e-16 -1.0
outer loop
vertex 13.677408078990672 14.729351500131896 2.826725752652757e-14
vertex 13.250000000000004 11.500000000000002 2.5379698342931078e-14
vertex 13.652425319561527 15.080885602186948 2.86383369966203e-14
endloop
endfacet
facet normal -1.3140840442283184e-15 9.622111270818506e-16 -1.0
outer loop
vertex 16.75 11.500000000000002 2.5379698342931078e-14
vertex 13.989926047499914 14.10431556311341 2.725516611714971e-14
vertex 14.256163673486462 13.873408894337059 2.6683126534853552e-14
endloop
endfacet
facet normal -1.3140840442283184e-15 9.622111270818506e-16 -1.0
outer loop
vertex 16.75 11.500000000000002 2.5379698342931078e-14
vertex 14.256163673486462 13.873408894337059 2.6683126534853552e-14
vertex 14.573092515877262 13.719277547631808 2.6118348503080146e-14
endloop
endfacet
facet normal -1.3140840442283184e-15 9.622111270818506e-16 -1.0
outer loop
vertex 16.75 11.500000000000002 2.5379698342931078e-14
vertex 14.573092515877262 13.719277547631808 2.6118348503080146e-14
vertex 14.919114397813052 13.652425319561528 2.5599320711355033e-14
endloop
endfacet
facet normal -1.3140840442283184e-15 9.622111270818506e-16 -1.0
outer loop
vertex 16.75 11.500000000000002 2.5379698342931078e-14
vertex 14.919114397813052 13.652425319561528 2.5599320711355033e-14
vertex 15.270648499868102 13.677408078990673 2.5161414045950294e-14
endloop
endfacet
facet normal -1.3140840442283184e-15 9.622111270818506e-16 -1.0
outer loop
vertex 16.75 11.500000000000002 2.5379698342931078e-14
vertex 15.270648499868102 13.677408078990673 2.5161414045950294e-14
vertex 15.603738353924937 13.792523292150113 2.4834471122438283e-14
endloop
endfacet
facet normal -1.3140840442283184e-15 9.622111270818506e-16 -1.0
outer loop
vertex 16.75 11.500000000000002 2.5379698342931078e-14
vertex 15.603738353924937 13.792523292150113 2.4834471122438283e-14
vertex 15.89568443688659 13.989926047499916 2.4640772560757615e-14
endloop
endfacet
facet normal -1.3140840442283184e-15 9.622111270818506e-16 -1.0
outer loop
vertex 16.75 11.500000000000002 2.5379698342931078e-14
vertex 15.89568443688659 13.989926047499916 2.4640772560757615e-14
vertex 16.12659110566294 14.256163673486466 2.4593518597784815e-14
endloop
endfacet
facet normal -1.3140840442283184e-15 9.622111270818506e-16 -1.0
outer loop
vertex 16.75 11.500000000000002 2.5379698342931078e-14
vertex 16.12659110566294 14.256163673486466 2.4593518597784815e-14
vertex 16.28072245236819 14.573092515877265 2.469592951300562e-14
endloop
endfacet
facet normal -1.3140840442283184e-15 9.622111270818506e-16 -1.0
outer loop
vertex 16.75 11.500000000000002 2.5379698342931078e-14
vertex 16.28072245236819 14.573092515877265 2.469592951300562e-14
vertex 16.34757468043847 14.919114397813054 2.494102617178977e-14
endloop
endfacet
facet normal -1.3140840442283184e-15 9.622111270818506e-16 -1.0
outer loop
vertex 6.130361918582384e-17 13.250000000000002 4.511946372076636e-14
vertex 1.3944290913027515 11.15320271808292 3.101963130802687e-14
vertex 0.0 11.500000000000002 3.101963130802687e-14
endloop
endfacet
facet normal -1.3140840442283184e-15 9.622111270818506e-16 -1.0
outer loop
vertex 1.3944290913027515 11.15320271808292 3.101963130802687e-14
vertex 6.130361918582384e-17 13.250000000000002 4.511946372076636e-14
vertex 11.500000000000002 13.250000000000004 4.511946372076636e-14
endloop
endfacet
facet normal -1.3140840442283184e-15 9.622111270818506e-16 -1.0
outer loop
vertex 1.3944290913027515 11.15320271808292 3.101963130802687e-14
vertex 11.500000000000002 13.250000000000004 4.511946372076636e-14
vertex 2.7480042886971976 10.67098385655314 3.101963130802687e-14
endloop
endfacet
facet normal -1.3140840442283184e-15 9.622111270818506e-16 -1.0
outer loop
vertex 2.7480042886971976 10.67098385655314 3.101963130802687e-14
vertex 11.500000000000002 13.250000000000004 4.511946372076636e-14
vertex 4.047608731526464 10.05801637161212 3.101963130802687e-14
endloop
endfacet
facet normal -1.3140840442283184e-15 9.622111270818506e-16 -1.0
outer loop
vertex 4.047608731526464 10.05801637161212 3.101963130802687e-14
vertex 11.500000000000002 13.250000000000004 4.511946372076636e-14
vertex 5.280648564333931 9.32024024288022 3.101963130802687e-14
endloop
endfacet
facet normal -1.3140840442283184e-15 9.622111270818506e-16 -1.0
outer loop
vertex 5.280648564333931 9.32024024288022 3.101963130802687e-14
vertex 11.500000000000002 13.250000000000004 4.511946372076636e-14
vertex 6.435174977993632 8.464804911847791 3.101963130802687e-14
endloop
endfacet
facet normal -1.3140840442283184e-15 9.622111270818506e-16 -1.0
outer loop
vertex 6.435174977993632 8.464804911847791 3.101963130802687e-14
vertex 11.500000000000002 13.250000000000004 4.511946372076636e-14
vertex 7.5000000000000036 7.500000000000002 3.101963130802687e-14
endloop
endfacet
facet normal -1.3140840442283184e-15 9.622111270818506e-16 -1.0
outer loop
vertex 7.5000000000000036 7.500000000000002 3.101963130802687e-14
vertex 11.500000000000002 13.250000000000004 4.511946372076636e-14
vertex 8.464804911847793 6.435174977993629 3.101963130802687e-14
endloop
endfacet
facet normal -1.3140840442283184e-15 9.622111270818506e-16 -1.0
outer loop
vertex 8.464804911847793 6.435174977993629 3.101963130802687e-14
vertex 11.500000000000002 13.250000000000004 4.511946372076636e-14
vertex 9.320240242880223 5.280648564333928 3.101963130802687e-14
endloop
endfacet
facet normal -1.3140840442283184e-15 9.622111270818506e-16 -1.0
outer loop
vertex 9.320240242880223 5.280648564333928 3.101963130802687e-14
vertex 11.500000000000002 13.250000000000004 4.511946372076636e-14
vertex 10.05801637161212 4.047608731526459 3.101963130802687e-14
endloop
endfacet
facet normal -1.3140840442283184e-15 9.622111270818506e-16 -1.0
outer loop
vertex 10.05801637161212 4.047608731526459 3.101963130802687e-14
vertex 11.500000000000002 13.250000000000004 4.511946372076636e-14
vertex 10.670983856553146 2.7480042886971963 3.101963130802687e-14
endloop
endfacet
facet normal -1.3140840442283184e-15 9.622111270818506e-16 -1.0
outer loop
vertex 10.670983856553146 2.7480042886971963 3.101963130802687e-14
vertex 11.500000000000002 13.250000000000004 4.511946372076636e-14
vertex 11.153202718082929 1.39442909130275 3.101963130802687e-14
endloop
endfacet
facet normal -1.3140840442283184e-15 9.622111270818506e-16 -1.0
outer loop
vertex 11.153202718082929 1.39442909130275 3.101963130802687e-14
vertex 11.500000000000002 13.250000000000004 4.511946372076636e-14
vertex 11.500000000000002 0.0 3.101963130802687e-14
endloop
endfacet
facet normal -1.3140840442283184e-15 9.622111270818506e-16 -1.0
outer loop
vertex 30.0 18.499999999999993 2.8199664825478975e-15
vertex 0.0 16.749999999999996 4.511946372076636e-14
vertex 0.0 18.499999999999993 5.357936316841005e-14
endloop
endfacet
facet normal -1.3140840442283184e-15 9.622111270818506e-16 -1.0
outer loop
vertex 0.0 16.749999999999996 4.511946372076636e-14
vertex 30.0 18.499999999999993 2.8199664825478975e-15
vertex 11.500000000000002 16.749999999999996 4.511946372076636e-14
endloop
endfacet
facet normal -1.3140840442283184e-15 9.622111270818506e-16 -1.0
outer loop
vertex 11.500000000000002 16.749999999999996 4.511946372076636e-14
vertex 30.0 18.499999999999993 2.8199664825478975e-15
vertex 14.729351500131893 16.322591921009327 2.8417949122459776e-14
endloop
endfacet
facet normal -1.3140840442283184e-15 9.622111270818506e-16 -1.0
outer loop
vertex 11.500000000000002 16.749999999999996 4.511946372076636e-14
vertex 14.729351500131893 16.322591921009327 2.8417949122459776e-14
vertex 14.39626164607506 16.20747670784989 2.874489204597179e-14
endloop
endfacet
facet normal -1.3140840442283184e-15 9.622111270818506e-16 -1.0
outer loop
vertex 11.500000000000002 16.749999999999996 4.511946372076636e-14
vertex 14.39626164607506 16.20747670784989 2.874489204597179e-14
vertex 14.104315563113406 16.010073952500086 2.8938590607652464e-14
endloop
endfacet
facet normal -1.3140840442283184e-15 9.622111270818506e-16 -1.0
outer loop
vertex 11.500000000000002 16.749999999999996 4.511946372076636e-14
vertex 14.104315563113406 16.010073952500086 2.8938590607652464e-14
vertex 11.500000000000002 13.250000000000004 4.511946372076636e-14
endloop
endfacet
facet normal -1.3140840442283184e-15 9.622111270818506e-16 -1.0
outer loop
vertex 11.500000000000002 13.250000000000004 4.511946372076636e-14
vertex 14.104315563113406 16.010073952500086 2.8938590607652464e-14
vertex 13.873408894337057 15.743836326513536 2.898584457062526e-14
endloop
endfacet
facet normal -1.3140840442283184e-15 9.622111270818506e-16 -1.0
outer loop
vertex 11.500000000000002 13.250000000000004 4.511946372076636e-14
vertex 13.873408894337057 15.743836326513536 2.898584457062526e-14
vertex 13.719277547631805 15.426907484122736 2.888343365540445e-14
endloop
endfacet
facet normal -1.3140840442283184e-15 9.622111270818506e-16 -1.0
outer loop
vertex 11.500000000000002 13.250000000000004 4.511946372076636e-14
vertex 13.719277547631805 15.426907484122736 2.888343365540445e-14
vertex 13.652425319561527 15.080885602186948 2.86383369966203e-14
endloop
endfacet
facet normal -1.3140840442283184e-15 9.622111270818506e-16 -1.0
outer loop
vertex 11.500000000000002 13.250000000000004 4.511946372076636e-14
vertex 13.652425319561527 15.080885602186948 2.86383369966203e-14
vertex 11.500000000000002 0.0 3.101963130802687e-14
endloop
endfacet
facet normal -1.3140840442283184e-15 9.622111270818506e-16 -1.0
outer loop
vertex 11.500000000000002 0.0 3.101963130802687e-14
vertex 13.652425319561527 15.080885602186948 2.86383369966203e-14
vertex 13.250000000000004 11.500000000000002 2.5379698342931078e-14
endloop
endfacet
facet normal -1.3140840442283184e-15 9.622111270818506e-16 -1.0
outer loop
vertex 11.500000000000002 0.0 3.101963130802687e-14
vertex 13.250000000000004 11.500000000000002 2.5379698342931078e-14
vertex 13.250000000000002 6.130361918582385e-17 2.5379698342931078e-14
endloop
endfacet
facet normal -1.3140840442283184e-15 9.622111270818506e-16 -1.0
outer loop
vertex 14.729351500131893 16.322591921009327 2.8417949122459776e-14
vertex 30.0 18.499999999999993 2.8199664825478975e-15
vertex 15.080885602186944 16.347574680438473 2.7980042457055037e-14
endloop
endfacet
facet normal -1.3140840442283184e-15 9.622111270818506e-16 -1.0
outer loop
vertex 15.080885602186944 16.347574680438473 2.7980042457055037e-14
vertex 30.0 18.499999999999993 2.8199664825478975e-15
vertex 18.5 16.749999999999996 8.459899447643692e-15
endloop
endfacet
facet normal -1.3140840442283184e-15 9.622111270818506e-16 -1.0
outer loop
vertex 15.080885602186944 16.347574680438473 2.7980042457055037e-14
vertex 18.5 16.749999999999996 8.459899447643692e-15
vertex 15.426907484122733 16.28072245236819 2.7461014665329924e-14
endloop
endfacet
facet normal -1.3140840442283184e-15 9.622111270818506e-16 -1.0
outer loop
vertex 15.426907484122733 16.28072245236819 2.7461014665329924e-14
vertex 18.5 16.749999999999996 8.459899447643692e-15
vertex 15.74383632651353 16.126591105662943 2.6896236633556527e-14
endloop
endfacet
facet normal -1.3140840442283184e-15 9.622111270818506e-16 -1.0
outer loop
vertex 15.74383632651353 16.126591105662943 2.6896236633556527e-14
vertex 18.5 16.749999999999996 8.459899447643692e-15
vertex 16.010073952500083 15.895684436886592 2.6324197051260365e-14
endloop
endfacet
facet normal -1.3140840442283184e-15 9.622111270818506e-16 -1.0
outer loop
vertex 16.010073952500083 15.895684436886592 2.6324197051260365e-14
vertex 18.5 16.749999999999996 8.459899447643692e-15
vertex 16.207476707849885 15.60373835392494 2.5783879470634817e-14
endloop
endfacet
facet normal -1.3140840442283184e-15 9.622111270818506e-16 -1.0
outer loop
vertex 16.207476707849885 15.60373835392494 2.5783879470634817e-14
vertex 18.5 16.749999999999996 8.459899447643692e-15
vertex 16.322591921009323 15.270648499868106 2.5312105641882498e-14
endloop
endfacet
facet normal -1.3140840442283184e-15 9.622111270818506e-16 -1.0
outer loop
vertex 16.322591921009323 15.270648499868106 2.5312105641882498e-14
vertex 18.5 16.749999999999996 8.459899447643692e-15
vertex 16.34757468043847 14.919114397813054 2.494102617178977e-14
endloop
endfacet
facet normal -1.3140840442283184e-15 9.622111270818506e-16 -1.0
outer loop
vertex 16.34757468043847 14.919114397813054 2.494102617178977e-14
vertex 18.5 16.749999999999996 8.459899447643692e-15
vertex 16.75 11.500000000000002 2.5379698342931078e-14
endloop
endfacet
facet normal -1.3140840442283184e-15 9.622111270818506e-16 -1.0
outer loop
vertex 16.75 11.500000000000002 2.5379698342931078e-14
vertex 18.5 16.749999999999996 8.459899447643692e-15
vertex 16.75 0.0 2.5379698342931078e-14
endloop
endfacet
facet normal -1.3140840442283184e-15 9.622111270818506e-16 -1.0
outer loop
vertex 18.5 16.749999999999996 8.459899447643692e-15
vertex 30.0 18.499999999999993 2.8199664825478975e-15
vertex 30.0 16.749999999999996 8.459899447643692e-15
endloop
endfacet
facet normal -1.3140840442283184e-15 9.622111270818506e-16 -1.0
outer loop
vertex 18.5 16.749999999999996 8.459899447643692e-15
vertex 18.5 0.0 1.127986593019159e-14
vertex 16.75 0.0 2.5379698342931078e-14
endloop
endfacet
facet normal -1.3140840442283184e-15 9.622111270818506e-16 -1.0
outer loop
vertex 18.5 0.0 1.127986593019159e-14
vertex 18.5 16.749999999999996 8.459899447643692e-15
vertex 18.5 13.250000000000004 8.459899447643692e-15
endloop
endfacet
facet normal -1.3140840442283184e-15 9.622111270818506e-16 -1.0
outer loop
vertex 18.5 0.0 1.127986593019159e-14
vertex 18.5 13.250000000000004 8.459899447643692e-15
vertex 18.846797281917084 1.3944290913027515 1.127986593019159e-14
endloop
endfacet
facet normal -1.3140840442283184e-15 9.622111270818506e-16 -1.0
outer loop
vertex 18.846797281917084 1.3944290913027515 1.127986593019159e-14
vertex 18.5 13.250000000000004 8.459899447643692e-15
vertex 19.329016143446864 2.7480042886971976 1.127986593019159e-14
endloop
endfacet
facet normal -1.3140840442283184e-15 9.622111270818506e-16 -1.0
outer loop
vertex 19.329016143446864 2.7480042886971976 1.127986593019159e-14
vertex 18.5 13.250000000000004 8.459899447643692e-15
vertex 19.941983628387884 4.047608731526464 1.127986593019159e-14
endloop
endfacet
facet normal -1.3140840442283184e-15 9.622111270818506e-16 -1.0
outer loop
vertex 19.941983628387884 4.047608731526464 1.127986593019159e-14
vertex 18.5 13.250000000000004 8.459899447643692e-15
vertex 20.679759757119786 5.280648564333931 1.127986593019159e-14
endloop
endfacet
facet normal -1.3140840442283184e-15 9.622111270818506e-16 -1.0
outer loop
vertex 20.679759757119786 5.280648564333931 1.127986593019159e-14
vertex 18.5 13.250000000000004 8.459899447643692e-15
vertex 21.535195088152214 6.435174977993632 1.127986593019159e-14
endloop
endfacet
facet normal -1.3140840442283184e-15 9.622111270818506e-16 -1.0
outer loop
vertex 21.535195088152214 6.435174977993632 1.127986593019159e-14
vertex 18.5 13.250000000000004 8.459899447643692e-15
vertex 22.5 7.500000000000002 1.127986593019159e-14
endloop
endfacet
facet normal -1.3140840442283184e-15 9.622111270818506e-16 -1.0
outer loop
vertex 22.5 7.500000000000002 1.127986593019159e-14
vertex 18.5 13.250000000000004 8.459899447643692e-15
vertex 23.564825022006374 8.464804911847793 1.127986593019159e-14
endloop
endfacet
facet normal -1.3140840442283184e-15 9.622111270818506e-16 -1.0
outer loop
vertex 23.564825022006374 8.464804911847793 1.127986593019159e-14
vertex 18.5 13.250000000000004 8.459899447643692e-15
vertex 30.0 13.250000000000002 8.459899447643692e-15
endloop
endfacet
facet normal -1.3140840442283184e-15 9.622111270818506e-16 -1.0
outer loop
vertex 23.564825022006374 8.464804911847793 1.127986593019159e-14
vertex 30.0 13.250000000000002 8.459899447643692e-15
vertex 24.719351435666074 9.320240242880223 1.127986593019159e-14
endloop
endfacet
facet normal -1.3140840442283184e-15 9.622111270818506e-16 -1.0
outer loop
vertex 24.719351435666074 9.320240242880223 1.127986593019159e-14
vertex 30.0 13.250000000000002 8.459899447643692e-15
vertex 25.952391268473544 10.05801637161212 1.127986593019159e-14
endloop
endfacet
facet normal -1.3140840442283184e-15 9.622111270818506e-16 -1.0
outer loop
vertex 25.952391268473544 10.05801637161212 1.127986593019159e-14
vertex 30.0 13.250000000000002 8.459899447643692e-15
vertex 27.251995711302804 10.670983856553146 1.127986593019159e-14
endloop
endfacet
facet normal -1.3140840442283184e-15 9.622111270818506e-16 -1.0
outer loop
vertex 27.251995711302804 10.670983856553146 1.127986593019159e-14
vertex 30.0 13.250000000000002 8.459899447643692e-15
vertex 28.605570908697253 11.153202718082929 1.127986593019159e-14
endloop
endfacet
facet normal -1.3140840442283184e-15 9.622111270818506e-16 -1.0
outer loop
vertex 28.605570908697253 11.153202718082929 1.127986593019159e-14
vertex 30.0 13.250000000000002 8.459899447643692e-15
vertex 30.0 11.500000000000002 1.127986593019159e-14
endloop
endfacet
facet normal 1.0 -0.0 -0.0
outer loop
vertex 30.0 13.250000000000002 8.459899447643692e-15
vertex 30.0 11.500000000000002 50.0
vertex 30.0 11.500000000000002 1.127986593019159e-14
endloop
endfacet
facet normal 1.0 -0.0 -0.0
outer loop
vertex 30.0 11.500000000000002 50.0
vertex 30.0 13.250000000000002 8.459899447643692e-15
vertex 30.0 13.250000000000002 50.0
endloop
endfacet
facet normal 0.0 -1.0 0.0
outer loop
vertex 13.250000000000002 6.130361918582385e-17 50.0
vertex 11.500000000000002 0.0 3.101963130802687e-14
vertex 13.250000000000002 6.130361918582385e-17 2.5379698342931078e-14
endloop
endfacet
facet normal 0.0 -1.0 0.0
outer loop
vertex 11.500000000000002 0.0 3.101963130802687e-14
vertex 13.250000000000002 6.130361918582385e-17 50.0
vertex 11.500000000000002 0.0 50.0
endloop
endfacet
facet normal -1.0 0.0 0.0
outer loop
vertex 0.0 18.499999999999993 50.0
vertex 0.0 16.749999999999996 4.511946372076636e-14
vertex 0.0 16.749999999999996 50.0
endloop
endfacet
facet normal -1.0 0.0 0.0
outer loop
vertex 0.0 16.749999999999996 4.511946372076636e-14
vertex 0.0 18.499999999999993 50.0
vertex 0.0 18.499999999999993 5.357936316841005e-14
endloop
endfacet
facet normal 1.0584148384888932e-30 -3.2472558070681497e-31 1.0
outer loop
vertex 1.3944290913027515 11.15320271808292 50.0
vertex 6.130361918582384e-17 13.250000000000002 50.0
vertex 0.0 11.500000000000002 50.0
endloop
endfacet
facet normal 1.0584148384888932e-30 -3.2472558070681497e-31 1.0
outer loop
vertex 6.130361918582384e-17 13.250000000000002 50.0
vertex 1.3944290913027515 11.15320271808292 50.0
vertex 11.500000000000002 13.250000000000004 50.0
endloop
endfacet
facet normal 1.0584148384888932e-30 -3.2472558070681497e-31 1.0
outer loop
vertex 11.500000000000002 13.250000000000004 50.0
vertex 1.3944290913027515 11.15320271808292 50.0
vertex 2.7480042886971976 10.67098385655314 50.0
endloop
endfacet
facet normal 1.0584148384888932e-30 -3.2472558070681497e-31 1.0
outer loop
vertex 11.500000000000002 13.250000000000004 50.0
vertex 2.7480042886971976 10.67098385655314 50.0
vertex 4.047608731526464 10.05801637161212 50.0
endloop
endfacet
facet normal 1.0584148384888932e-30 -3.2472558070681497e-31 1.0
outer loop
vertex 11.500000000000002 13.250000000000004 50.0
vertex 4.047608731526464 10.05801637161212 50.0
vertex 5.280648564333931 9.32024024288022 50.0
endloop
endfacet
facet normal 1.0584148384888932e-30 -3.2472558070681497e-31 1.0
outer loop
vertex 11.500000000000002 13.250000000000004 50.0
vertex 5.280648564333931 9.32024024288022 50.0
vertex 6.435174977993632 8.464804911847791 50.0
endloop
endfacet
facet normal 1.0584148384888932e-30 -3.2472558070681497e-31 1.0
outer loop
vertex 11.500000000000002 13.250000000000004 50.0
vertex 6.435174977993632 8.464804911847791 50.0
vertex 7.5000000000000036 7.500000000000002 50.0
endloop
endfacet
facet normal 1.0584148384888932e-30 -3.2472558070681497e-31 1.0
outer loop
vertex 11.500000000000002 13.250000000000004 50.0
vertex 7.5000000000000036 7.500000000000002 50.0
vertex 8.464804911847793 6.435174977993629 50.0
endloop
endfacet
facet normal 1.0584148384888932e-30 -3.2472558070681497e-31 1.0
outer loop
vertex 11.500000000000002 13.250000000000004 50.0
vertex 8.464804911847793 6.435174977993629 50.0
vertex 9.320240242880223 5.280648564333928 50.0
endloop
endfacet
facet normal 1.0584148384888932e-30 -3.2472558070681497e-31 1.0
outer loop
vertex 11.500000000000002 13.250000000000004 50.0
vertex 9.320240242880223 5.280648564333928 50.0
vertex 10.05801637161212 4.047608731526459 50.0
endloop
endfacet
facet normal 1.0584148384888932e-30 -3.2472558070681497e-31 1.0
outer loop
vertex 11.500000000000002 13.250000000000004 50.0
vertex 10.05801637161212 4.047608731526459 50.0
vertex 10.670983856553146 2.7480042886971963 50.0
endloop
endfacet
facet normal 1.0584148384888932e-30 -3.2472558070681497e-31 1.0
outer loop
vertex 11.500000000000002 13.250000000000004 50.0
vertex 10.670983856553146 2.7480042886971963 50.0
vertex 11.153202718082929 1.39442909130275 50.0
endloop
endfacet
facet normal 1.0584148384888932e-30 -3.2472558070681497e-31 1.0
outer loop
vertex 11.500000000000002 13.250000000000004 50.0
vertex 11.153202718082929 1.39442909130275 50.0
vertex 11.500000000000002 0.0 50.0
endloop
endfacet
facet normal 1.0584148384888932e-30 -3.2472558070681497e-31 1.0
outer loop
vertex 11.500000000000002 13.250000000000004 50.0
vertex 11.500000000000002 0.0 50.0
vertex 13.250000000000002 6.130361918582385e-17 50.0
endloop
endfacet
facet normal 1.0584148384888932e-30 -3.2472558070681497e-31 1.0
outer loop
vertex 11.500000000000002 13.250000000000004 50.0
vertex 13.250000000000002 6.130361918582385e-17 50.0
vertex 11.500000000000002 16.749999999999996 50.0
endloop
endfacet
facet normal 1.0584148384888932e-30 -3.2472558070681497e-31 1.0
outer loop
vertex 18.5 0.0 50.0
vertex 16.75 11.500000000000002 50.0
vertex 16.75 0.0 50.0
endloop
endfacet
facet normal 1.0584148384888932e-30 -3.2472558070681497e-31 1.0
outer loop
vertex 18.846797281917084 1.3944290913027515 50.0
vertex 18.5 13.250000000000004 50.0
vertex 18.5 0.0 50.0
endloop
endfacet
facet normal 1.0584148384888932e-30 -3.2472558070681497e-31 1.0
outer loop
vertex 18.5 13.250000000000004 50.0
vertex 18.846797281917084 1.3944290913027515 50.0
vertex 19.329016143446864 2.7480042886971976 50.0
endloop
endfacet
facet normal 1.0584148384888932e-30 -3.2472558070681497e-31 1.0
outer loop
vertex 18.5 13.250000000000004 50.0
vertex 19.329016143446864 2.7480042886971976 50.0
vertex 19.941983628387884 4.047608731526464 50.0
endloop
endfacet
facet normal 1.0584148384888932e-30 -3.2472558070681497e-31 1.0
outer loop
vertex 18.5 13.250000000000004 50.0
vertex 19.941983628387884 4.047608731526464 50.0
vertex 20.679759757119786 5.280648564333931 50.0
endloop
endfacet
facet normal 1.0584148384888932e-30 -3.2472558070681497e-31 1.0
outer loop
vertex 18.5 13.250000000000004 50.0
vertex 20.679759757119786 5.280648564333931 50.0
vertex 21.535195088152214 6.435174977993632 50.0
endloop
endfacet
facet normal 1.0584148384888932e-30 -3.2472558070681497e-31 1.0
outer loop
vertex 18.5 13.250000000000004 50.0
vertex 21.535195088152214 6.435174977993632 50.0
vertex 22.5 7.500000000000002 50.0
endloop
endfacet
facet normal 1.0584148384888932e-30 -3.2472558070681497e-31 1.0
outer loop
vertex 18.5 13.250000000000004 50.0
vertex 22.5 7.500000000000002 50.0
vertex 23.564825022006374 8.464804911847793 50.0
endloop
endfacet
facet normal 1.0584148384888932e-30 -3.2472558070681497e-31 1.0
outer loop
vertex 18.5 13.250000000000004 50.0
vertex 23.564825022006374 8.464804911847793 50.0
vertex 30.0 13.250000000000002 50.0
endloop
endfacet
facet normal 1.0584148384888932e-30 -3.2472558070681497e-31 1.0
outer loop
vertex 30.0 13.250000000000002 50.0
vertex 23.564825022006374 8.464804911847793 50.0
vertex 24.719351435666074 9.320240242880223 50.0
endloop
endfacet
facet normal 1.0584148384888932e-30 -3.2472558070681497e-31 1.0
outer loop
vertex 30.0 13.250000000000002 50.0
vertex 24.719351435666074 9.320240242880223 50.0
vertex 25.952391268473544 10.05801637161212 50.0
endloop
endfacet
facet normal 1.0584148384888932e-30 -3.2472558070681497e-31 1.0
outer loop
vertex 30.0 13.250000000000002 50.0
vertex 25.952391268473544 10.05801637161212 50.0
vertex 27.251995711302804 10.670983856553146 50.0
endloop
endfacet
facet normal 1.0584148384888932e-30 -3.2472558070681497e-31 1.0
outer loop
vertex 30.0 13.250000000000002 50.0
vertex 27.251995711302804 10.670983856553146 50.0
vertex 28.605570908697253 11.153202718082929 50.0
endloop
endfacet
facet normal 1.0584148384888932e-30 -3.2472558070681497e-31 1.0
outer loop
vertex 30.0 13.250000000000002 50.0
vertex 28.605570908697253 11.153202718082929 50.0
vertex 30.0 11.500000000000002 50.0
endloop
endfacet
facet normal 1.0584148384888932e-30 -3.2472558070681497e-31 1.0
outer loop
vertex 11.500000000000002 16.749999999999996 50.0
vertex 0.0 18.499999999999993 50.0
vertex 0.0 16.749999999999996 50.0
endloop
endfacet
facet normal 1.0584148384888932e-30 -3.2472558070681497e-31 1.0
outer loop
vertex 0.0 18.499999999999993 50.0
vertex 11.500000000000002 16.749999999999996 50.0
vertex 30.0 18.499999999999993 50.0
endloop
endfacet
facet normal 1.0584148384888932e-30 -3.2472558070681497e-31 1.0
outer loop
vertex 30.0 18.499999999999993 50.0
vertex 11.500000000000002 16.749999999999996 50.0
vertex 18.5 16.749999999999996 50.0
endloop
endfacet
facet normal 1.0584148384888932e-30 -3.2472558070681497e-31 1.0
outer loop
vertex 18.5 16.749999999999996 50.0
vertex 11.500000000000002 16.749999999999996 50.0
vertex 13.250000000000004 11.500000000000002 50.0
endloop
endfacet
facet normal 1.0584148384888932e-30 -3.2472558070681497e-31 1.0
outer loop
vertex 13.250000000000004 11.500000000000002 50.0
vertex 11.500000000000002 16.749999999999996 50.0
vertex 13.250000000000002 6.130361918582385e-17 50.0
endloop
endfacet
facet normal 1.0584148384888932e-30 -3.2472558070681497e-31 1.0
outer loop
vertex 18.5 16.749999999999996 50.0
vertex 13.250000000000004 11.500000000000002 50.0
vertex 16.75 11.500000000000002 50.0
endloop
endfacet
facet normal 1.0584148384888932e-30 -3.2472558070681497e-31 1.0
outer loop
vertex 18.5 16.749999999999996 50.0
vertex 16.75 11.500000000000002 50.0
vertex 18.5 0.0 50.0
endloop
endfacet
facet normal 1.0584148384888932e-30 -3.2472558070681497e-31 1.0
outer loop
vertex 18.5 16.749999999999996 50.0
vertex 18.5 0.0 50.0
vertex 18.5 13.250000000000004 50.0
endloop
endfacet
facet normal 1.0584148384888932e-30 -3.2472558070681497e-31 1.0
outer loop
vertex 30.0 18.499999999999993 50.0
vertex 18.5 16.749999999999996 50.0
vertex 30.0 16.749999999999996 50.0
endloop
endfacet
facet normal 0.24134989663571427 -0.9704381625811767 0.0
outer loop
vertex 30.0 11.500000000000002 50.0
vertex 28.605570908697253 11.153202718082929 1.127986593019159e-14
vertex 30.0 11.500000000000002 1.127986593019159e-14
endloop
endfacet
facet normal 0.2888225715272255 -0.9573826414639033 0.0
outer loop
vertex 28.605570908697253 11.153202718082929 1.127986593019159e-14
vertex 30.0 11.500000000000002 50.0
vertex 28.605570908697253 11.153202718082929 50.0
endloop
endfacet
facet normal 0.2888225715272255 -0.9573826414639033 0.0
outer loop
vertex 28.605570908697253 11.153202718082929 50.0
vertex 27.251995711302804 10.670983856553146 1.127986593019159e-14
vertex 28.605570908697253 11.153202718082929 1.127986593019159e-14
endloop
endfacet
facet normal 0.3815541342464626 -0.9243464949029842 0.0
outer loop
vertex 27.251995711302804 10.670983856553146 1.127986593019159e-14
vertex 28.605570908697253 11.153202718082929 50.0
vertex 27.251995711302804 10.670983856553146 50.0
endloop
endfacet
facet normal 0.3815541342464626 -0.9243464949029842 0.0
outer loop
vertex 27.251995711302804 10.670983856553146 50.0
vertex 25.952391268473544 10.05801637161212 1.127986593019159e-14
vertex 27.251995711302804 10.670983856553146 1.127986593019159e-14
endloop
endfacet
facet normal 0.4705882352941178 -0.8823529411764706 0.0
outer loop
vertex 25.952391268473544 10.05801637161212 1.127986593019159e-14
vertex 27.251995711302804 10.670983856553146 50.0
vertex 25.952391268473544 10.05801637161212 50.0
endloop
endfacet
facet normal 0.4705882352941178 -0.8823529411764706 0.0
outer loop
vertex 25.952391268473544 10.05801637161212 50.0
vertex 24.719351435666074 9.320240242880223 1.127986593019159e-14
vertex 25.952391268473544 10.05801637161212 1.127986593019159e-14
endloop
endfacet
facet normal 0.5550620870693276 -0.8318089200641228 0.0
outer loop
vertex 24.719351435666074 9.320240242880223 1.127986593019159e-14
vertex 25.952391268473544 10.05801637161212 50.0
vertex 24.719351435666074 9.320240242880223 50.0
endloop
endfacet
facet normal 0.5550620870693276 -0.8318089200641228 0.0
outer loop
vertex 24.719351435666074 9.320240242880223 50.0
vertex 23.564825022006374 8.464804911847793 1.127986593019159e-14
vertex 24.719351435666074 9.320240242880223 1.127986593019159e-14
endloop
endfacet
facet normal 0.6341570932022601 -0.7732042299038852 0.0
outer loop
vertex 23.564825022006374 8.464804911847793 1.127986593019159e-14
vertex 24.719351435666074 9.320240242880223 50.0
vertex 23.564825022006374 8.464804911847793 50.0
endloop
endfacet
facet normal 0.6341570932022601 -0.7732042299038852 0.0
outer loop
vertex 23.564825022006374 8.464804911847793 50.0
vertex 22.5 7.500000000000002 1.127986593019159e-14
vertex 23.564825022006374 8.464804911847793 1.127986593019159e-14
endloop
endfacet
facet normal 0.7071067811865476 -0.7071067811865475 0.0
outer loop
vertex 22.5 7.500000000000002 1.127986593019159e-14
vertex 23.564825022006374 8.464804911847793 50.0
vertex 22.5 7.500000000000002 50.0
endloop
endfacet
facet normal 0.7071067811865476 -0.7071067811865475 0.0
outer loop
vertex 22.5 7.500000000000002 1.127986593019159e-14
vertex 21.535195088152214 6.435174977993632 50.0
vertex 21.535195088152214 6.435174977993632 1.127986593019159e-14
endloop
endfacet
facet normal 0.7732042299038855 -0.6341570932022597 0.0
outer loop
vertex 21.535195088152214 6.435174977993632 50.0
vertex 22.5 7.500000000000002 1.127986593019159e-14
vertex 22.5 7.500000000000002 50.0
endloop
endfacet
facet normal 0.7732042299038855 -0.6341570932022597 0.0
outer loop
vertex 21.535195088152214 6.435174977993632 1.127986593019159e-14
vertex 20.679759757119786 5.280648564333931 50.0
vertex 20.679759757119786 5.280648564333931 1.127986593019159e-14
endloop
endfacet
facet normal 0.8318089200641219 -0.5550620870693286 0.0
outer loop
vertex 20.679759757119786 5.280648564333931 50.0
vertex 21.535195088152214 6.435174977993632 1.127986593019159e-14
vertex 21.535195088152214 6.435174977993632 50.0
endloop
endfacet
facet normal 0.8318089200641219 -0.5550620870693286 0.0
outer loop
vertex 20.679759757119786 5.280648564333931 1.127986593019159e-14
vertex 19.941983628387884 4.047608731526464 50.0
vertex 19.941983628387884 4.047608731526464 1.127986593019159e-14
endloop
endfacet
facet normal 0.882352941176471 -0.4705882352941169 0.0
outer loop
vertex 19.941983628387884 4.047608731526464 50.0
vertex 20.679759757119786 5.280648564333931 1.127986593019159e-14
vertex 20.679759757119786 5.280648564333931 50.0
endloop
endfacet
facet normal 0.882352941176471 -0.4705882352941169 0.0
outer loop
vertex 19.941983628387884 4.047608731526464 1.127986593019159e-14
vertex 19.329016143446864 2.7480042886971976 50.0
vertex 19.329016143446864 2.7480042886971976 1.127986593019159e-14
endloop
endfacet
facet normal 0.9243464949029855 -0.3815541342464595 0.0
outer loop
vertex 19.329016143446864 2.7480042886971976 50.0
vertex 19.941983628387884 4.047608731526464 1.127986593019159e-14
vertex 19.941983628387884 4.047608731526464 50.0
endloop
endfacet
facet normal 0.9243464949029855 -0.3815541342464595 0.0
outer loop
vertex 19.329016143446864 2.7480042886971976 1.127986593019159e-14
vertex 18.846797281917084 1.3944290913027515 50.0
vertex 18.846797281917084 1.3944290913027515 1.127986593019159e-14
endloop
endfacet
facet normal 0.9573826414639025 -0.2888225715272278 0.0
outer loop
vertex 18.846797281917084 1.3944290913027515 50.0
vertex 19.329016143446864 2.7480042886971976 1.127986593019159e-14
vertex 19.329016143446864 2.7480042886971976 50.0
endloop
endfacet
facet normal 0.9573826414639025 -0.2888225715272278 0.0
outer loop
vertex 18.846797281917084 1.3944290913027515 1.127986593019159e-14
vertex 18.5 0.0 50.0
vertex 18.5 0.0 1.127986593019159e-14
endloop
endfacet
facet normal 0.9704381625811752 -0.2413498966357203 -0.0
outer loop
vertex 18.5 0.0 50.0
vertex 18.846797281917084 1.3944290913027515 1.127986593019159e-14
vertex 18.846797281917084 1.3944290913027515 50.0
endloop
endfacet
facet normal -0.7071067811865478 -0.7071067811865472 0.0
outer loop
vertex 7.5000000000000036 7.500000000000002 50.0
vertex 8.464804911847793 6.435174977993629 3.101963130802687e-14
vertex 8.464804911847793 6.435174977993629 50.0
endloop
endfacet
facet normal -0.7732042299038849 -0.6341570932022603 0.0
outer loop
vertex 8.464804911847793 6.435174977993629 3.101963130802687e-14
vertex 7.5000000000000036 7.500000000000002 50.0
vertex 7.5000000000000036 7.500000000000002 3.101963130802687e-14
endloop
endfacet
facet normal -0.7071067811865478 -0.7071067811865472 0.0
outer loop
vertex 7.5000000000000036 7.500000000000002 50.0
vertex 6.435174977993632 8.464804911847791 3.101963130802687e-14
vertex 7.5000000000000036 7.500000000000002 3.101963130802687e-14
endloop
endfacet
facet normal -0.63415709320226 -0.7732042299038852 0.0
outer loop
vertex 6.435174977993632 8.464804911847791 3.101963130802687e-14
vertex 7.5000000000000036 7.500000000000002 50.0
vertex 6.435174977993632 8.464804911847791 50.0
endloop
endfacet
facet normal -0.63415709320226 -0.7732042299038852 0.0
outer loop
vertex 6.435174977993632 8.464804911847791 50.0
vertex 5.280648564333931 9.32024024288022 3.101963130802687e-14
vertex 6.435174977993632 8.464804911847791 3.101963130802687e-14
endloop
endfacet
facet normal -0.5550620870693282 -0.8318089200641221 0.0
outer loop
vertex 5.280648564333931 9.32024024288022 3.101963130802687e-14
vertex 6.435174977993632 8.464804911847791 50.0
vertex 5.280648564333931 9.32024024288022 50.0
endloop
endfacet
facet normal -0.5550620870693282 -0.8318089200641221 0.0
outer loop
vertex 5.280648564333931 9.32024024288022 50.0
vertex 4.047608731526464 10.05801637161212 3.101963130802687e-14
vertex 5.280648564333931 9.32024024288022 3.101963130802687e-14
endloop
endfacet
facet normal -0.4705882352941169 -0.882352941176471 0.0
outer loop
vertex 4.047608731526464 10.05801637161212 3.101963130802687e-14
vertex 5.280648564333931 9.32024024288022 50.0
vertex 4.047608731526464 10.05801637161212 50.0
endloop
endfacet
facet normal -0.4705882352941169 -0.882352941176471 0.0
outer loop
vertex 4.047608731526464 10.05801637161212 50.0
vertex 2.7480042886971976 10.67098385655314 3.101963130802687e-14
vertex 4.047608731526464 10.05801637161212 3.101963130802687e-14
endloop
endfacet
facet normal -0.3815541342464595 -0.9243464949029855 0.0
outer loop
vertex 2.7480042886971976 10.67098385655314 3.101963130802687e-14
vertex 4.047608731526464 10.05801637161212 50.0
vertex 2.7480042886971976 10.67098385655314 50.0
endloop
endfacet
facet normal -0.3815541342464595 -0.9243464949029855 0.0
outer loop
vertex 2.7480042886971976 10.67098385655314 50.0
vertex 1.3944290913027515 11.15320271808292 3.101963130802687e-14
vertex 2.7480042886971976 10.67098385655314 3.101963130802687e-14
endloop
endfacet
facet normal -0.28882257152722735 -0.9573826414639026 7.726493897790869e-34
outer loop
vertex 1.3944290913027515 11.15320271808292 3.101963130802687e-14
vertex 2.7480042886971976 10.67098385655314 50.0
vertex 1.3944290913027515 11.15320271808292 50.0
endloop
endfacet
facet normal -0.28882257152722735 -0.9573826414639026 7.726493897790869e-34
outer loop
vertex 1.3944290913027515 11.15320271808292 50.0
vertex 0.0 11.500000000000002 3.101963130802687e-14
vertex 1.3944290913027515 11.15320271808292 3.101963130802687e-14
endloop
endfacet
facet normal -0.24134989663571932 -0.9704381625811754 1.5434257990188463e-33
outer loop
vertex 0.0 11.500000000000002 3.101963130802687e-14
vertex 1.3944290913027515 11.15320271808292 50.0
vertex 0.0 11.500000000000002 50.0
endloop
endfacet
facet normal -0.9573826414639031 -0.2888225715272257 -7.72649389779088e-34
outer loop
vertex 11.153202718082929 1.39442909130275 50.0
vertex 11.500000000000002 0.0 3.101963130802687e-14
vertex 11.500000000000002 0.0 50.0
endloop
endfacet
facet normal -0.9704381625811767 -0.24134989663571405 -1.543425799018848e-33
outer loop
vertex 11.500000000000002 0.0 3.101963130802687e-14
vertex 11.153202718082929 1.39442909130275 50.0
vertex 11.153202718082929 1.39442909130275 3.101963130802687e-14
endloop
endfacet
facet normal -0.9243464949029843 -0.38155413424646234 0.0
outer loop
vertex 10.670983856553146 2.7480042886971963 50.0
vertex 11.153202718082929 1.39442909130275 3.101963130802687e-14
vertex 11.153202718082929 1.39442909130275 50.0
endloop
endfacet
facet normal -0.9573826414639031 -0.2888225715272257 -7.72649389779088e-34
outer loop
vertex 11.153202718082929 1.39442909130275 3.101963130802687e-14
vertex 10.670983856553146 2.7480042886971963 50.0
vertex 10.670983856553146 2.7480042886971963 3.101963130802687e-14
endloop
endfacet
facet normal -0.8823529411764706 -0.47058823529411736 0.0
outer loop
vertex 10.05801637161212 4.047608731526459 50.0
vertex 10.670983856553146 2.7480042886971963 3.101963130802687e-14
vertex 10.670983856553146 2.7480042886971963 50.0
endloop
endfacet
facet normal -0.9243464949029843 -0.38155413424646234 0.0
outer loop
vertex 10.670983856553146 2.7480042886971963 3.101963130802687e-14
vertex 10.05801637161212 4.047608731526459 50.0
vertex 10.05801637161212 4.047608731526459 3.101963130802687e-14
endloop
endfacet
facet normal -0.8318089200641227 -0.5550620870693278 0.0
outer loop
vertex 9.320240242880223 5.280648564333928 50.0
vertex 10.05801637161212 4.047608731526459 3.101963130802687e-14
vertex 10.05801637161212 4.047608731526459 50.0
endloop
endfacet
facet normal -0.8823529411764706 -0.47058823529411736 0.0
outer loop
vertex 10.05801637161212 4.047608731526459 3.101963130802687e-14
vertex 9.320240242880223 5.280648564333928 50.0
vertex 9.320240242880223 5.280648564333928 3.101963130802687e-14
endloop
endfacet
facet normal -0.7732042299038849 -0.6341570932022603 0.0
outer loop
vertex 8.464804911847793 6.435174977993629 50.0
vertex 9.320240242880223 5.280648564333928 3.101963130802687e-14
vertex 9.320240242880223 5.280648564333928 50.0
endloop
endfacet
facet normal -0.8318089200641227 -0.5550620870693278 0.0
outer loop
vertex 9.320240242880223 5.280648564333928 3.101963130802687e-14
vertex 8.464804911847793 6.435174977993629 50.0
vertex 8.464804911847793 6.435174977993629 3.101963130802687e-14
endloop
endfacet
facet normal -1.0 0.0 0.0
outer loop
vertex 16.75 11.500000000000002 50.0
vertex 16.75 0.0 2.5379698342931078e-14
vertex 16.75 0.0 50.0
endloop
endfacet
facet normal -1.0 0.0 0.0
outer loop
vertex 16.75 0.0 2.5379698342931078e-14
vertex 16.75 11.500000000000002 50.0
vertex 16.75 11.500000000000002 2.5379698342931078e-14
endloop
endfacet
facet normal -0.0 -1.0 -0.0
outer loop
vertex 16.75 11.500000000000002 50.0
vertex 13.250000000000004 11.500000000000002 2.5379698342931078e-14
vertex 16.75 11.500000000000002 2.5379698342931078e-14
endloop
endfacet
facet normal -0.0 -1.0 -0.0
outer loop
vertex 13.250000000000004 11.500000000000002 2.5379698342931078e-14
vertex 16.75 11.500000000000002 50.0
vertex 13.250000000000004 11.500000000000002 50.0
endloop
endfacet
facet normal 1.0 -2.452144767432954e-16 0.0
outer loop
vertex 13.250000000000004 11.500000000000002 2.5379698342931078e-14
vertex 13.250000000000002 6.130361918582385e-17 50.0
vertex 13.250000000000002 6.130361918582385e-17 2.5379698342931078e-14
endloop
endfacet
facet normal 1.0 -2.452144767432954e-16 0.0
outer loop
vertex 13.250000000000002 6.130361918582385e-17 50.0
vertex 13.250000000000004 11.500000000000002 2.5379698342931078e-14
vertex 13.250000000000004 11.500000000000002 50.0
endloop
endfacet
facet normal 0.0 -1.0 0.0
outer loop
vertex 18.5 0.0 50.0
vertex 16.75 0.0 2.5379698342931078e-14
vertex 18.5 0.0 1.127986593019159e-14
endloop
endfacet
facet normal 0.0 -1.0 0.0
outer loop
vertex 16.75 0.0 2.5379698342931078e-14
vertex 18.5 0.0 50.0
vertex 16.75 0.0 50.0
endloop
endfacet
facet normal -2.4521447674329536e-16 -1.0 0.0
outer loop
vertex 30.0 16.749999999999996 50.0
vertex 18.5 16.749999999999996 8.459899447643692e-15
vertex 30.0 16.749999999999996 8.459899447643692e-15
endloop
endfacet
facet normal -2.4521447674329536e-16 -1.0 0.0
outer loop
vertex 18.5 16.749999999999996 8.459899447643692e-15
vertex 30.0 16.749999999999996 50.0
vertex 18.5 16.749999999999996 50.0
endloop
endfacet
facet normal 1.0 0.0 0.0
outer loop
vertex 18.5 16.749999999999996 8.459899447643692e-15
vertex 18.5 13.250000000000004 50.0
vertex 18.5 13.250000000000004 8.459899447643692e-15
endloop
endfacet
facet normal 1.0 0.0 0.0
outer loop
vertex 18.5 13.250000000000004 50.0
vertex 18.5 16.749999999999996 8.459899447643692e-15
vertex 18.5 16.749999999999996 50.0
endloop
endfacet
facet normal 2.4521447674329536e-16 1.0 0.0
outer loop
vertex 18.5 13.250000000000004 50.0
vertex 30.0 13.250000000000002 8.459899447643692e-15
vertex 18.5 13.250000000000004 8.459899447643692e-15
endloop
endfacet
facet normal 2.4521447674329536e-16 1.0 0.0
outer loop
vertex 30.0 13.250000000000002 8.459899447643692e-15
vertex 18.5 13.250000000000004 50.0
vertex 30.0 13.250000000000002 50.0
endloop
endfacet
facet normal 1.0 -0.0 -0.0
outer loop
vertex 30.0 18.499999999999993 2.8199664825478975e-15
vertex 30.0 16.749999999999996 50.0
vertex 30.0 16.749999999999996 8.459899447643692e-15
endloop
endfacet
facet normal 1.0 -0.0 -0.0
outer loop
vertex 30.0 16.749999999999996 50.0
vertex 30.0 18.499999999999993 2.8199664825478975e-15
vertex 30.0 18.499999999999993 50.0
endloop
endfacet
facet normal -2.4521447674329536e-16 1.0 0.0
outer loop
vertex 6.130361918582384e-17 13.250000000000002 50.0
vertex 11.500000000000002 13.250000000000004 4.511946372076636e-14
vertex 6.130361918582384e-17 13.250000000000002 4.511946372076636e-14
endloop
endfacet
facet normal -2.4521447674329536e-16 1.0 0.0
outer loop
vertex 11.500000000000002 13.250000000000004 4.511946372076636e-14
vertex 6.130361918582384e-17 13.250000000000002 50.0
vertex 11.500000000000002 13.250000000000004 50.0
endloop
endfacet
facet normal -1.0 0.0 -0.0
outer loop
vertex 11.500000000000002 16.749999999999996 50.0
vertex 11.500000000000002 13.250000000000004 4.511946372076636e-14
vertex 11.500000000000002 13.250000000000004 50.0
endloop
endfacet
facet normal -1.0 0.0 -0.0
outer loop
vertex 11.500000000000002 13.250000000000004 4.511946372076636e-14
vertex 11.500000000000002 16.749999999999996 50.0
vertex 11.500000000000002 16.749999999999996 4.511946372076636e-14
endloop
endfacet
facet normal 0.0 -1.0 0.0
outer loop
vertex 11.500000000000002 16.749999999999996 50.0
vertex 0.0 16.749999999999996 4.511946372076636e-14
vertex 11.500000000000002 16.749999999999996 4.511946372076636e-14
endloop
endfacet
facet normal 0.0 -1.0 0.0
outer loop
vertex 0.0 16.749999999999996 4.511946372076636e-14
vertex 11.500000000000002 16.749999999999996 50.0
vertex 0.0 16.749999999999996 50.0
endloop
endfacet
facet normal -1.0 0.0 0.0
outer loop
vertex 6.130361918582384e-17 13.250000000000002 50.0
vertex 0.0 11.500000000000002 3.101963130802687e-14
vertex 0.0 11.500000000000002 50.0
endloop
endfacet
facet normal -1.0 0.0 0.0
outer loop
vertex 0.0 11.500000000000002 3.101963130802687e-14
vertex 6.130361918582384e-17 13.250000000000002 50.0
vertex 6.130361918582384e-17 13.250000000000002 4.511946372076636e-14
endloop
endfacet
facet normal -0.0 1.0 -0.0
outer loop
vertex 0.0 18.499999999999993 5.357936316841005e-14
vertex 30.0 18.499999999999993 50.0
vertex 30.0 18.499999999999993 2.8199664825478975e-15
endloop
endfacet
facet normal -0.0 1.0 -0.0
outer loop
vertex 30.0 18.499999999999993 50.0
vertex 0.0 18.499999999999993 5.357936316841005e-14
vertex 0.0 18.499999999999993 50.0
endloop
endfacet
facet normal -1.3140840442283168e-15 9.622111270818506e-16 -1.0
outer loop
vertex 13.719277547631826 15.426907484122722 15.000000000000028
vertex 13.677408078990691 14.729351500131882 15.000000000000028
vertex 13.652425319561546 15.080885602186934 15.000000000000028
endloop
endfacet
facet normal -1.3140840442283168e-15 9.622111270818506e-16 -1.0
outer loop
vertex 13.677408078990691 14.729351500131882 15.000000000000028
vertex 13.719277547631826 15.426907484122722 15.000000000000028
vertex 13.79252329215013 14.396261646075047 15.000000000000028
endloop
endfacet
facet normal -1.3140840442283168e-15 9.622111270818506e-16 -1.0
outer loop
vertex 13.79252329215013 14.396261646075047 15.000000000000028
vertex 13.719277547631826 15.426907484122722 15.000000000000028
vertex 13.873408894337077 15.743836326513522 15.000000000000028
endloop
endfacet
facet normal -1.3140840442283168e-15 9.622111270818506e-16 -1.0
outer loop
vertex 13.79252329215013 14.396261646075047 15.000000000000028
vertex 13.873408894337077 15.743836326513522 15.000000000000028
vertex 13.989926047499933 14.104315563113396 15.000000000000028
endloop
endfacet
facet normal -1.3140840442283168e-15 9.622111270818506e-16 -1.0
outer loop
vertex 13.989926047499933 14.104315563113396 15.000000000000028
vertex 13.873408894337077 15.743836326513522 15.000000000000028
vertex 14.104315563113426 16.010073952500072 15.000000000000028
endloop
endfacet
facet normal -1.3140840442283168e-15 9.622111270818506e-16 -1.0
outer loop
vertex 13.989926047499933 14.104315563113396 15.000000000000028
vertex 14.104315563113426 16.010073952500072 15.000000000000028
vertex 14.256163673486483 13.873408894337045 15.000000000000027
endloop
endfacet
facet normal -1.3140840442283168e-15 9.622111270818506e-16 -1.0
outer loop
vertex 14.256163673486483 13.873408894337045 15.000000000000027
vertex 14.104315563113426 16.010073952500072 15.000000000000028
vertex 14.396261646075079 16.207476707849874 15.000000000000028
endloop
endfacet
facet normal -1.3140840442283168e-15 9.622111270818506e-16 -1.0
outer loop
vertex 14.256163673486483 13.873408894337045 15.000000000000027
vertex 14.396261646075079 16.207476707849874 15.000000000000028
vertex 14.573092515877283 13.719277547631794 15.000000000000027
endloop
endfacet
facet normal -1.3140840442283168e-15 9.622111270818506e-16 -1.0
outer loop
vertex 14.573092515877283 13.719277547631794 15.000000000000027
vertex 14.396261646075079 16.207476707849874 15.000000000000028
vertex 14.729351500131912 16.322591921009312 15.000000000000028
endloop
endfacet
facet normal -1.3140840442283168e-15 9.622111270818506e-16 -1.0
outer loop
vertex 14.573092515877283 13.719277547631794 15.000000000000027
vertex 14.729351500131912 16.322591921009312 15.000000000000028
vertex 14.919114397813072 13.652425319561516 15.000000000000027
endloop
endfacet
facet normal -1.3140840442283168e-15 9.622111270818506e-16 -1.0
outer loop
vertex 14.919114397813072 13.652425319561516 15.000000000000027
vertex 14.729351500131912 16.322591921009312 15.000000000000028
vertex 15.080885602186964 16.34757468043846 15.000000000000028
endloop
endfacet
facet normal -1.3140840442283168e-15 9.622111270818506e-16 -1.0
outer loop
vertex 14.919114397813072 13.652425319561516 15.000000000000027
vertex 15.080885602186964 16.34757468043846 15.000000000000028
vertex 15.270648499868122 13.67740807899066 15.000000000000027
endloop
endfacet
facet normal -1.3140840442283168e-15 9.622111270818506e-16 -1.0
outer loop
vertex 15.270648499868122 13.67740807899066 15.000000000000027
vertex 15.080885602186964 16.34757468043846 15.000000000000028
vertex 15.426907484122752 16.280722452368177 15.000000000000028
endloop
endfacet
facet normal -1.3140840442283168e-15 9.622111270818506e-16 -1.0
outer loop
vertex 15.270648499868122 13.67740807899066 15.000000000000027
vertex 15.426907484122752 16.280722452368177 15.000000000000028
vertex 15.603738353924957 13.792523292150099 15.000000000000027
endloop
endfacet
facet normal -1.3140840442283168e-15 9.622111270818506e-16 -1.0
outer loop
vertex 15.603738353924957 13.792523292150099 15.000000000000027
vertex 15.426907484122752 16.280722452368177 15.000000000000028
vertex 15.74383632651355 16.12659110566293 15.000000000000028
endloop
endfacet
facet normal -1.3140840442283168e-15 9.622111270818506e-16 -1.0
outer loop
vertex 15.603738353924957 13.792523292150099 15.000000000000027
vertex 15.74383632651355 16.12659110566293 15.000000000000028
vertex 15.89568443688661 13.989926047499901 15.000000000000027
endloop
endfacet
facet normal -1.3140840442283168e-15 9.622111270818506e-16 -1.0
outer loop
vertex 15.89568443688661 13.989926047499901 15.000000000000027
vertex 15.74383632651355 16.12659110566293 15.000000000000028
vertex 16.010073952500104 15.895684436886578 15.000000000000027
endloop
endfacet
facet normal -1.3140840442283168e-15 9.622111270818506e-16 -1.0
outer loop
vertex 15.89568443688661 13.989926047499901 15.000000000000027
vertex 16.010073952500104 15.895684436886578 15.000000000000027
vertex 16.126591105662957 14.256163673486451 15.000000000000027
endloop
endfacet
facet normal -1.3140840442283168e-15 9.622111270818506e-16 -1.0
outer loop
vertex 16.126591105662957 14.256163673486451 15.000000000000027
vertex 16.010073952500104 15.895684436886578 15.000000000000027
vertex 16.207476707849906 15.603738353924927 15.000000000000027
endloop
endfacet
facet normal -1.3140840442283168e-15 9.622111270818506e-16 -1.0
outer loop
vertex 16.126591105662957 14.256163673486451 15.000000000000027
vertex 16.207476707849906 15.603738353924927 15.000000000000027
vertex 16.28072245236821 14.573092515877251 15.000000000000027
endloop
endfacet
facet normal -1.3140840442283168e-15 9.622111270818506e-16 -1.0
outer loop
vertex 16.28072245236821 14.573092515877251 15.000000000000027
vertex 16.207476707849906 15.603738353924927 15.000000000000027
vertex 16.322591921009344 15.270648499868091 15.000000000000027
endloop
endfacet
facet normal -1.3140840442283168e-15 9.622111270818506e-16 -1.0
outer loop
vertex 16.28072245236821 14.573092515877251 15.000000000000027
vertex 16.322591921009344 15.270648499868091 15.000000000000027
vertex 16.347574680438488 14.91911439781304 15.000000000000027
endloop
endfacet
facet normal -0.7482029277778407 -0.6634699532493296 3.4480335773679197e-16
outer loop
vertex 16.010073952500104 15.895684436886578 15.000000000000027
vertex 15.74383632651353 16.126591105662943 2.6896236633556527e-14
vertex 16.010073952500083 15.895684436886592 2.6324197051260365e-14
endloop
endfacet
facet normal -0.5509898714915092 -0.8345119301206965 -7.892966618628285e-17
outer loop
vertex 15.74383632651353 16.126591105662943 2.6896236633556527e-14
vertex 16.010073952500104 15.895684436886578 15.000000000000027
vertex 15.74383632651355 16.12659110566293 15.000000000000028
endloop
endfacet
facet normal -0.7482029277778407 -0.6634699532493296 3.4480335773679197e-16
outer loop
vertex 16.010073952500104 15.895684436886578 15.000000000000027
vertex 16.207476707849885 15.60373835392494 2.5783879470634817e-14
vertex 16.207476707849906 15.603738353924927 15.000000000000027
endloop
endfacet
facet normal -0.8944271909999165 -0.44721359549995654 7.450386026446035e-16
outer loop
vertex 16.207476707849885 15.60373835392494 2.5783879470634817e-14
vertex 16.010073952500104 15.895684436886578 15.000000000000027
vertex 16.010073952500083 15.895684436886592 2.6324197051260365e-14
endloop
endfacet
facet normal -0.8944271909999165 -0.44721359549995643 7.450386026446036e-16
outer loop
vertex 16.207476707849906 15.603738353924927 15.000000000000027
vertex 16.322591921009323 15.270648499868106 2.5312105641882498e-14
vertex 16.322591921009344 15.270648499868091 15.000000000000027
endloop
endfacet
facet normal -0.9796977192661692 -0.2004803702726689 1.0945006980166942e-15
outer loop
vertex 16.322591921009323 15.270648499868106 2.5312105641882498e-14
vertex 16.207476707849906 15.603738353924927 15.000000000000027
vertex 16.207476707849885 15.60373835392494 2.5783879470634817e-14
endloop
endfacet
facet normal -0.9796977192661692 -0.20048037027266877 1.0945006980166942e-15
outer loop
vertex 16.322591921009344 15.270648499868091 15.000000000000027
vertex 16.34757468043847 14.919114397813054 2.494102617178977e-14
vertex 16.347574680438488 14.91911439781304 15.000000000000027
endloop
endfacet
facet normal -0.9982034669914623 0.05991526087921798 1.3693743795668635e-15
outer loop
vertex 16.34757468043847 14.919114397813054 2.494102617178977e-14
vertex 16.322591921009344 15.270648499868091 15.000000000000027
vertex 16.322591921009323 15.270648499868106 2.5312105641882498e-14
endloop
endfacet
facet normal -0.9982034669914623 0.059915260879218044 1.3693743795668635e-15
outer loop
vertex 16.347574680438488 14.91911439781304 15.000000000000027
vertex 16.28072245236819 14.573092515877265 2.469592951300562e-14
vertex 16.28072245236821 14.573092515877251 15.000000000000027
endloop
endfacet
facet normal -0.9486832980505134 0.31622776601683894 1.5509274601477146e-15
outer loop
vertex 16.28072245236819 14.573092515877265 2.469592951300562e-14
vertex 16.347574680438488 14.91911439781304 15.000000000000027
vertex 16.34757468043847 14.919114397813054 2.494102617178977e-14
endloop
endfacet
facet normal -0.9486832980505134 0.316227766016839 1.5509274601477146e-15
outer loop
vertex 16.28072245236821 14.573092515877251 15.000000000000027
vertex 16.12659110566294 14.256163673486466 2.4593518597784815e-14
vertex 16.126591105662957 14.256163673486451 15.000000000000027
endloop
endfacet
facet normal -0.834511930120696 0.5509898714915101 1.626787397348313e-15
outer loop
vertex 16.12659110566294 14.256163673486466 2.4593518597784815e-14
vertex 16.28072245236821 14.573092515877251 15.000000000000027
vertex 16.28072245236819 14.573092515877265 2.469592951300562e-14
endloop
endfacet
facet normal -0.834511930120696 0.55098987149151 1.6267873973483125e-15
outer loop
vertex 16.126591105662957 14.256163673486451 15.000000000000027
vertex 15.89568443688659 13.989926047499916 2.4640772560757615e-14
vertex 15.89568443688661 13.989926047499901 15.000000000000027
endloop
endfacet
facet normal -0.6634699532493273 0.7482029277778425 1.5917844618129065e-15
outer loop
vertex 15.89568443688659 13.989926047499916 2.4640772560757615e-14
vertex 16.126591105662957 14.256163673486451 15.000000000000027
vertex 16.12659110566294 14.256163673486466 2.4593518597784815e-14
endloop
endfacet
facet normal -0.44721359549995654 0.8944271909999165 1.448304045753153e-15
outer loop
vertex 15.603738353924937 13.792523292150113 2.4834471122438283e-14
vertex 15.89568443688661 13.989926047499901 15.000000000000027
vertex 15.89568443688659 13.989926047499916 2.4640772560757615e-14
endloop
endfacet
facet normal -0.6634699532493274 0.7482029277778424 1.5917844618129069e-15
outer loop
vertex 15.89568443688661 13.989926047499901 15.000000000000027
vertex 15.603738353924937 13.792523292150113 2.4834471122438283e-14
vertex 15.603738353924957 13.792523292150099 15.000000000000027
endloop
endfacet
facet normal -0.2004803702726689 0.9796977192661692 1.2061241024109183e-15
outer loop
vertex 15.270648499868102 13.677408078990673 2.5161414045950294e-14
vertex 15.603738353924957 13.792523292150099 15.000000000000027
vertex 15.603738353924937 13.792523292150113 2.4834471122438283e-14
endloop
endfacet
facet normal -0.44721359549995654 0.8944271909999165 1.4483040457531529e-15
outer loop
vertex 15.603738353924957 13.792523292150099 15.000000000000027
vertex 15.270648499868102 13.677408078990673 2.5161414045950294e-14
vertex 15.270648499868122 13.67740807899066 15.000000000000027
endloop
endfacet
facet normal 0.05991526087921798 0.9982034669914623 8.817487947037085e-16
outer loop
vertex 14.919114397813052 13.652425319561528 2.5599320711355033e-14
vertex 15.270648499868122 13.67740807899066 15.000000000000027
vertex 15.270648499868102 13.677408078990673 2.5161414045950294e-14
endloop
endfacet
facet normal -0.20048037027266896 0.9796977192661692 1.2061241024109183e-15
outer loop
vertex 15.270648499868122 13.67740807899066 15.000000000000027
vertex 14.919114397813052 13.652425319561528 2.5599320711355033e-14
vertex 14.919114397813072 13.652425319561516 15.000000000000027
endloop
endfacet
facet normal 0.31622776601683894 0.9486832980505134 4.972837637962182e-16
outer loop
vertex 14.573092515877262 13.719277547631808 2.6118348503080146e-14
vertex 14.919114397813072 13.652425319561516 15.000000000000027
vertex 14.919114397813052 13.652425319561528 2.5599320711355033e-14
endloop
endfacet
facet normal 0.05991526087921785 0.9982034669914622 8.817487947037084e-16
outer loop
vertex 14.919114397813072 13.652425319561516 15.000000000000027
vertex 14.573092515877262 13.719277547631808 2.6118348503080146e-14
vertex 14.573092515877283 13.719277547631794 15.000000000000027
endloop
endfacet
facet normal 0.5509898714915101 0.834511930120696 7.892966618628144e-17
outer loop
vertex 14.256163673486462 13.873408894337059 2.6683126534853552e-14
vertex 14.573092515877283 13.719277547631794 15.000000000000027
vertex 14.573092515877262 13.719277547631808 2.6118348503080146e-14
endloop
endfacet
facet normal 0.31622776601683883 0.9486832980505134 4.972837637962183e-16
outer loop
vertex 14.573092515877283 13.719277547631794 15.000000000000027
vertex 14.256163673486462 13.873408894337059 2.6683126534853552e-14
vertex 14.256163673486483 13.873408894337045 15.000000000000027
endloop
endfacet
facet normal 0.7482029277778425 0.6634699532493273 -3.448033577367964e-16
outer loop
vertex 13.989926047499914 14.10431556311341 2.725516611714971e-14
vertex 14.256163673486483 13.873408894337045 15.000000000000027
vertex 14.256163673486462 13.873408894337059 2.6683126534853552e-14
endloop
endfacet
facet normal 0.5509898714915101 0.8345119301206957 7.892966618628107e-17
outer loop
vertex 14.256163673486483 13.873408894337045 15.000000000000027
vertex 13.989926047499914 14.10431556311341 2.725516611714971e-14
vertex 13.989926047499933 14.104315563113396 15.000000000000028
endloop
endfacet
facet normal 0.7482029277778425 0.6634699532493273 -3.448033577367964e-16
outer loop
vertex 13.989926047499914 14.10431556311341 2.725516611714971e-14
vertex 13.79252329215013 14.396261646075047 15.000000000000028
vertex 13.989926047499933 14.104315563113396 15.000000000000028
endloop
endfacet
facet normal 0.8944271909999165 0.4472135954999566 -7.450386026446033e-16
outer loop
vertex 13.79252329215013 14.396261646075047 15.000000000000028
vertex 13.989926047499914 14.10431556311341 2.725516611714971e-14
vertex 13.792523292150111 14.396261646075061 2.7795483697775252e-14
endloop
endfacet
facet normal 0.8944271909999165 0.44721359549995654 -7.450386026446035e-16
outer loop
vertex 13.792523292150111 14.396261646075061 2.7795483697775252e-14
vertex 13.677408078990691 14.729351500131882 15.000000000000028
vertex 13.79252329215013 14.396261646075047 15.000000000000028
endloop
endfacet
facet normal 0.9796977192661692 0.200480370272669 -1.094500698016694e-15
outer loop
vertex 13.677408078990691 14.729351500131882 15.000000000000028
vertex 13.792523292150111 14.396261646075061 2.7795483697775252e-14
vertex 13.677408078990672 14.729351500131896 2.826725752652757e-14
endloop
endfacet
facet normal 0.9796977192661692 0.2004803702726689 -1.0945006980166942e-15
outer loop
vertex 13.677408078990672 14.729351500131896 2.826725752652757e-14
vertex 13.652425319561546 15.080885602186934 15.000000000000028
vertex 13.677408078990691 14.729351500131882 15.000000000000028
endloop
endfacet
facet normal 0.9982034669914622 -0.0599152608792179 -1.3693743795668631e-15
outer loop
vertex 13.652425319561546 15.080885602186934 15.000000000000028
vertex 13.677408078990672 14.729351500131896 2.826725752652757e-14
vertex 13.652425319561527 15.080885602186948 2.86383369966203e-14
endloop
endfacet
facet normal 0.9982034669914623 -0.05991526087921798 -1.3693743795668635e-15
outer loop
vertex 13.652425319561527 15.080885602186948 2.86383369966203e-14
vertex 13.719277547631826 15.426907484122722 15.000000000000028
vertex 13.652425319561546 15.080885602186934 15.000000000000028
endloop
endfacet
facet normal 0.9486832980505135 -0.31622776601683894 -1.550927460147715e-15
outer loop
vertex 13.719277547631826 15.426907484122722 15.000000000000028
vertex 13.652425319561527 15.080885602186948 2.86383369966203e-14
vertex 13.719277547631805 15.426907484122736 2.888343365540445e-14
endloop
endfacet
facet normal 0.9486832980505134 -0.31622776601683894 -1.5509274601477146e-15
outer loop
vertex 13.719277547631805 15.426907484122736 2.888343365540445e-14
vertex 13.873408894337077 15.743836326513522 15.000000000000028
vertex 13.719277547631826 15.426907484122722 15.000000000000028
endloop
endfacet
facet normal 0.834511930120696 -0.5509898714915099 -1.6267873973483125e-15
outer loop
vertex 13.873408894337077 15.743836326513522 15.000000000000028
vertex 13.719277547631805 15.426907484122736 2.888343365540445e-14
vertex 13.873408894337057 15.743836326513536 2.898584457062526e-14
endloop
endfacet
facet normal 0.834511930120696 -0.5509898714915101 -1.626787397348313e-15
outer loop
vertex 13.873408894337057 15.743836326513536 2.898584457062526e-14
vertex 14.104315563113426 16.010073952500072 15.000000000000028
vertex 13.873408894337077 15.743836326513522 15.000000000000028
endloop
endfacet
facet normal 0.6634699532493273 -0.7482029277778425 -1.5917844618129069e-15
outer loop
vertex 14.104315563113426 16.010073952500072 15.000000000000028
vertex 13.873408894337057 15.743836326513536 2.898584457062526e-14
vertex 14.104315563113406 16.010073952500086 2.8938590607652464e-14
endloop
endfacet
facet normal 0.4472135954999565 -0.8944271909999165 -1.4483040457531529e-15
outer loop
vertex 14.396261646075079 16.207476707849874 15.000000000000028
vertex 14.104315563113406 16.010073952500086 2.8938590607652464e-14
vertex 14.39626164607506 16.20747670784989 2.874489204597179e-14
endloop
endfacet
facet normal 0.6634699532493273 -0.7482029277778425 -1.5917844618129065e-15
outer loop
vertex 14.104315563113406 16.010073952500086 2.8938590607652464e-14
vertex 14.396261646075079 16.207476707849874 15.000000000000028
vertex 14.104315563113426 16.010073952500072 15.000000000000028
endloop
endfacet
facet normal 0.20048037027266877 -0.9796977192661691 -1.206124102410918e-15
outer loop
vertex 14.729351500131912 16.322591921009312 15.000000000000028
vertex 14.39626164607506 16.20747670784989 2.874489204597179e-14
vertex 14.729351500131893 16.322591921009327 2.8417949122459776e-14
endloop
endfacet
facet normal 0.44721359549995654 -0.8944271909999165 -1.448304045753153e-15
outer loop
vertex 14.39626164607506 16.20747670784989 2.874489204597179e-14
vertex 14.729351500131912 16.322591921009312 15.000000000000028
vertex 14.396261646075079 16.207476707849874 15.000000000000028
endloop
endfacet
facet normal -0.05991526087921807 -0.9982034669914622 -8.817487947037081e-16
outer loop
vertex 15.080885602186964 16.34757468043846 15.000000000000028
vertex 14.729351500131893 16.322591921009327 2.8417949122459776e-14
vertex 15.080885602186944 16.347574680438473 2.7980042457055037e-14
endloop
endfacet
facet normal 0.2004803702726689 -0.9796977192661692 -1.2061241024109183e-15
outer loop
vertex 14.729351500131893 16.322591921009327 2.8417949122459776e-14
vertex 15.080885602186964 16.34757468043846 15.000000000000028
vertex 14.729351500131912 16.322591921009312 15.000000000000028
endloop
endfacet
facet normal -0.3162277660168407 -0.948683298050513 -4.972837637962154e-16
outer loop
vertex 15.426907484122752 16.280722452368177 15.000000000000028
vertex 15.080885602186944 16.347574680438473 2.7980042457055037e-14
vertex 15.426907484122733 16.28072245236819 2.7461014665329924e-14
endloop
endfacet
facet normal -0.05991526087921798 -0.9982034669914623 -8.817487947037085e-16
outer loop
vertex 15.080885602186944 16.347574680438473 2.7980042457055037e-14
vertex 15.426907484122752 16.280722452368177 15.000000000000028
vertex 15.080885602186964 16.34757468043846 15.000000000000028
endloop
endfacet
facet normal -0.5509898714915091 -0.8345119301206966 -7.89296661862832e-17
outer loop
vertex 15.74383632651355 16.12659110566293 15.000000000000028
vertex 15.426907484122733 16.28072245236819 2.7461014665329924e-14
vertex 15.74383632651353 16.126591105662943 2.6896236633556527e-14
endloop
endfacet
facet normal -0.3162277660168406 -0.948683298050513 -4.972837637962155e-16
outer loop
vertex 15.426907484122733 16.28072245236819 2.7461014665329924e-14
vertex 15.74383632651355 16.12659110566293 15.000000000000028
vertex 15.426907484122752 16.280722452368177 15.000000000000028
endloop
endfacet
endsolid lateral
