solid plano
facet normal -1.1429509532487735e-15 1.296842020349664e-16 -1.0
outer loop
vertex 30.0 18.499999999999993 2.8199664825478975e-15
vertex 0.0 16.699999999999996 4.511946372076636e-14
vertex 0.0 18.499999999999993 5.357936316841005e-14
endloop
endfacet
facet normal -1.1429509532487735e-15 1.296842020349664e-16 -1.0
outer loop
vertex 0.0 16.699999999999996 4.511946372076636e-14
vertex 30.0 18.499999999999993 2.8199664825478975e-15
vertex 11.500000000000002 16.699999999999996 4.511946372076636e-14
endloop
endfacet
facet normal -1.1429509532487735e-15 1.296842020349664e-16 -1.0
outer loop
vertex 11.500000000000002 16.699999999999996 4.511946372076636e-14
vertex 30.0 18.499999999999993 2.8199664825478975e-15
vertex 14.903631399465946 16.346556011768953 2.7074453209930324e-14
endloop
endfacet
facet normal -1.1429509532487735e-15 1.296842020349664e-16 -1.0
outer loop
vertex 11.500000000000002 16.699999999999996 4.511946372076636e-14
vertex 14.903631399465946 16.346556011768953 2.7074453209930324e-14
vertex 14.558400738757722 16.27573119914435 2.7459850063367997e-14
endloop
endfacet
facet normal -1.1429509532487735e-15 1.296842020349664e-16 -1.0
outer loop
vertex 11.500000000000002 16.699999999999996 4.511946372076636e-14
vertex 14.558400738757722 16.27573119914435 2.7459850063367997e-14
vertex 14.243264337925877 16.117967413543543 2.7799576042456487e-14
endloop
endfacet
facet normal -1.1429509532487735e-15 1.296842020349664e-16 -1.0
outer loop
vertex 11.500000000000002 16.699999999999996 4.511946372076636e-14
vertex 14.243264337925877 16.117967413543543 2.7799576042456487e-14
vertex 13.979698221899575 15.884015996238254 2.807047938314464e-14
endloop
endfacet
facet normal -1.1429509532487735e-15 1.296842020349664e-16 -1.0
outer loop
vertex 11.500000000000002 16.699999999999996 4.511946372076636e-14
vertex 13.979698221899575 15.884015996238254 2.807047938314464e-14
vertex 11.500000000000002 13.300000000000004 4.511946372076636e-14
endloop
endfacet
facet normal -1.1429509532487735e-15 1.296842020349664e-16 -1.0
outer loop
vertex 11.500000000000002 13.300000000000004 4.511946372076636e-14
vertex 13.979698221899575 15.884015996238254 2.807047938314464e-14
vertex 13.785663985922401 15.58982034969483 2.8254098470453502e-14
endloop
endfacet
facet normal -1.1429509532487735e-15 1.296842020349664e-16 -1.0
outer loop
vertex 11.500000000000002 13.300000000000004 4.511946372076636e-14
vertex 13.785663985922401 15.58982034969483 2.8254098470453502e-14
vertex 13.674384742519472 15.25542942104392 2.833791996702786e-14
endloop
endfacet
facet normal -1.1429509532487735e-15 1.296842020349664e-16 -1.0
outer loop
vertex 11.500000000000002 13.300000000000004 4.511946372076636e-14
vertex 13.674384742519472 15.25542942104392 2.833791996702786e-14
vertex 13.653443988231047 14.903631399465946 2.8316231576397742e-14
endloop
endfacet
facet normal -1.1429509532487735e-15 1.296842020349664e-16 -1.0
outer loop
vertex 14.903631399465946 16.346556011768953 2.7074453209930324e-14
vertex 30.0 18.499999999999993 2.8199664825478975e-15
vertex 15.255429421043923 16.32561525748053 2.666964964080684e-14
endloop
endfacet
facet normal -1.1429509532487735e-15 1.296842020349664e-16 -1.0
outer loop
vertex 15.255429421043923 16.32561525748053 2.666964964080684e-14
vertex 30.0 18.499999999999993 2.8199664825478975e-15
vertex 18.5 16.7 8.459899447643692e-15
endloop
endfacet
facet normal -1.1429509532487735e-15 1.296842020349664e-16 -1.0
outer loop
vertex 15.255429421043923 16.32561525748053 2.666964964080684e-14
vertex 18.5 16.7 8.459899447643692e-15
vertex 15.58982034969483 16.2143360140776 2.6273026050263774e-14
endloop
endfacet
facet normal -1.1429509532487735e-15 1.296842020349664e-16 -1.0
outer loop
vertex 15.58982034969483 16.2143360140776 2.6273026050263774e-14
vertex 18.5 16.7 8.459899447643692e-15
vertex 15.884015996238254 16.02030177810043 2.591161168054517e-14
endloop
endfacet
facet normal -1.1429509532487735e-15 1.296842020349664e-16 -1.0
outer loop
vertex 15.884015996238254 16.02030177810043 2.591161168054517e-14
vertex 18.5 16.7 8.459899447643692e-15
vertex 16.117967413543543 15.756735662074124 2.5610036323681854e-14
endloop
endfacet
facet normal -1.1429509532487735e-15 1.296842020349664e-16 -1.0
outer loop
vertex 16.117967413543543 15.756735662074124 2.5610036323681854e-14
vertex 18.5 16.7 8.459899447643692e-15
vertex 16.27573119914435 15.44159926124228 2.5388851841867232e-14
endloop
endfacet
facet normal -1.1429509532487735e-15 1.296842020349664e-16 -1.0
outer loop
vertex 16.27573119914435 15.44159926124228 2.5388851841867232e-14
vertex 18.5 16.7 8.459899447643692e-15
vertex 16.346556011768953 15.096368600534056 2.5263131592012318e-14
endloop
endfacet
facet normal -1.1429509532487735e-15 1.296842020349664e-16 -1.0
outer loop
vertex 18.5 16.7 8.459899447643692e-15
vertex 30.0 18.499999999999993 2.8199664825478975e-15
vertex 30.0 16.699999999999996 8.459899447643692e-15
endloop
endfacet
facet normal -1.1429509532487735e-15 1.296842020349664e-16 -1.0
outer loop
vertex 4.904289534865907e-17 13.3 4.511946372076636e-14
vertex 30.0 11.500000000000002 1.127986593019159e-14
vertex 0.0 11.500000000000002 3.101963130802687e-14
endloop
endfacet
facet normal -1.1429509532487735e-15 1.296842020349664e-16 -1.0
outer loop
vertex 30.0 11.500000000000002 1.127986593019159e-14
vertex 4.904289534865907e-17 13.3 4.511946372076636e-14
vertex 11.500000000000002 13.300000000000004 4.511946372076636e-14
endloop
endfacet
facet normal -1.1429509532487735e-15 1.296842020349664e-16 -1.0
outer loop
vertex 30.0 11.500000000000002 1.127986593019159e-14
vertex 11.500000000000002 13.300000000000004 4.511946372076636e-14
vertex 14.744570578956079 13.674384742519472 2.690971352760322e-14
endloop
endfacet
facet normal -1.1429509532487735e-15 1.296842020349664e-16 -1.0
outer loop
vertex 14.744570578956079 13.674384742519472 2.690971352760322e-14
vertex 11.500000000000002 13.300000000000004 4.511946372076636e-14
vertex 14.410179650305171 13.785663985922401 2.7306337118146287e-14
endloop
endfacet
facet normal -1.1429509532487735e-15 1.296842020349664e-16 -1.0
outer loop
vertex 14.410179650305171 13.785663985922401 2.7306337118146287e-14
vertex 11.500000000000002 13.300000000000004 4.511946372076636e-14
vertex 14.115984003761747 13.979698221899572 2.7667751487864894e-14
endloop
endfacet
facet normal -1.1429509532487735e-15 1.296842020349664e-16 -1.0
outer loop
vertex 14.115984003761747 13.979698221899572 2.7667751487864894e-14
vertex 11.500000000000002 13.300000000000004 4.511946372076636e-14
vertex 13.882032586456457 14.243264337925877 2.796932684472821e-14
endloop
endfacet
facet normal -1.1429509532487735e-15 1.296842020349664e-16 -1.0
outer loop
vertex 13.882032586456457 14.243264337925877 2.796932684472821e-14
vertex 11.500000000000002 13.300000000000004 4.511946372076636e-14
vertex 13.724268800855652 14.558400738757722 2.8190511326542832e-14
endloop
endfacet
facet normal -1.1429509532487735e-15 1.296842020349664e-16 -1.0
outer loop
vertex 13.724268800855652 14.558400738757722 2.8190511326542832e-14
vertex 11.500000000000002 13.300000000000004 4.511946372076636e-14
vertex 13.653443988231047 14.903631399465946 2.8316231576397742e-14
endloop
endfacet
facet normal -1.1429509532487735e-15 1.296842020349664e-16 -1.0
outer loop
vertex 30.0 11.500000000000002 1.127986593019159e-14
vertex 14.744570578956079 13.674384742519472 2.690971352760322e-14
vertex 15.096368600534056 13.653443988231047 2.650490995847974e-14
endloop
endfacet
facet normal -1.1429509532487735e-15 1.296842020349664e-16 -1.0
outer loop
vertex 30.0 11.500000000000002 1.127986593019159e-14
vertex 15.096368600534056 13.653443988231047 2.650490995847974e-14
vertex 15.44159926124228 13.724268800855652 2.6119513105042067e-14
endloop
endfacet
facet normal -1.1429509532487735e-15 1.296842020349664e-16 -1.0
outer loop
vertex 30.0 11.500000000000002 1.127986593019159e-14
vertex 15.44159926124228 13.724268800855652 2.6119513105042067e-14
vertex 18.5 13.300000000000004 8.459899447643692e-15
endloop
endfacet
facet normal -1.1429509532487735e-15 1.296842020349664e-16 -1.0
outer loop
vertex 18.5 13.300000000000004 8.459899447643692e-15
vertex 15.44159926124228 13.724268800855652 2.6119513105042067e-14
vertex 15.756735662074124 13.882032586456457 2.5779787125953576e-14
endloop
endfacet
facet normal -1.1429509532487735e-15 1.296842020349664e-16 -1.0
outer loop
vertex 18.5 13.300000000000004 8.459899447643692e-15
vertex 15.756735662074124 13.882032586456457 2.5779787125953576e-14
vertex 16.02030177810043 14.115984003761747 2.550888378526542e-14
endloop
endfacet
facet normal -1.1429509532487735e-15 1.296842020349664e-16 -1.0
outer loop
vertex 18.5 13.300000000000004 8.459899447643692e-15
vertex 16.02030177810043 14.115984003761747 2.550888378526542e-14
vertex 16.2143360140776 14.410179650305171 2.532526469795656e-14
endloop
endfacet
facet normal -1.1429509532487735e-15 1.296842020349664e-16 -1.0
outer loop
vertex 18.5 13.300000000000004 8.459899447643692e-15
vertex 16.2143360140776 14.410179650305171 2.532526469795656e-14
vertex 16.32561525748053 14.744570578956079 2.5241443201382205e-14
endloop
endfacet
facet normal -1.1429509532487735e-15 1.296842020349664e-16 -1.0
outer loop
vertex 18.5 13.300000000000004 8.459899447643692e-15
vertex 16.32561525748053 14.744570578956079 2.5241443201382205e-14
vertex 16.346556011768953 15.096368600534056 2.5263131592012318e-14
endloop
endfacet
facet normal -1.1429509532487735e-15 1.296842020349664e-16 -1.0
outer loop
vertex 18.5 13.300000000000004 8.459899447643692e-15
vertex 16.346556011768953 15.096368600534056 2.5263131592012318e-14
vertex 18.5 16.7 8.459899447643692e-15
endloop
endfacet
facet normal -1.1429509532487735e-15 1.296842020349664e-16 -1.0
outer loop
vertex 30.0 11.500000000000002 1.127986593019159e-14
vertex 18.5 13.300000000000004 8.459899447643692e-15
vertex 30.0 13.3 8.459899447643692e-15
endloop
endfacet
facet normal 1.0 -0.0 -0.0
outer loop
vertex 30.0 13.3 8.459899447643692e-15
vertex 30.0 11.500000000000002 50.0
vertex 30.0 11.500000000000002 1.127986593019159e-14
endloop
endfacet
facet normal 1.0 -0.0 -0.0
outer loop
vertex 30.0 11.500000000000002 50.0
vertex 30.0 13.3 8.459899447643692e-15
vertex 30.0 13.3 50.0
endloop
endfacet
facet normal -1.0 0.0 0.0
outer loop
vertex 0.0 18.499999999999993 50.0
vertex 0.0 16.699999999999996 4.511946372076636e-14
vertex 0.0 16.699999999999996 50.0
endloop
endfacet
facet normal -1.0 0.0 0.0
outer loop
vertex 0.0 16.699999999999996 4.511946372076636e-14
vertex 0.0 18.499999999999993 50.0
vertex 0.0 18.499999999999993 5.357936316841005e-14
endloop
endfacet
facet normal -0.0 -0.0 1.0
outer loop
vertex 30.0 11.500000000000002 50.0
vertex 4.904289534865907e-17 13.3 50.0
vertex 0.0 11.500000000000002 50.0
endloop
endfacet
facet normal -0.0 -0.0 1.0
outer loop
vertex 4.904289534865907e-17 13.3 50.0
vertex 30.0 11.500000000000002 50.0
vertex 11.500000000000002 13.300000000000004 50.0
endloop
endfacet
facet normal -0.0 -0.0 1.0
outer loop
vertex 11.500000000000002 13.300000000000004 50.0
vertex 30.0 11.500000000000002 50.0
vertex 18.5 13.300000000000004 50.0
endloop
endfacet
facet normal -0.0 -0.0 1.0
outer loop
vertex 11.500000000000002 13.300000000000004 50.0
vertex 18.5 13.300000000000004 50.0
vertex 11.500000000000002 16.699999999999996 50.0
endloop
endfacet
facet normal -0.0 -0.0 1.0
outer loop
vertex 18.5 13.300000000000004 50.0
vertex 30.0 11.500000000000002 50.0
vertex 30.0 13.3 50.0
endloop
endfacet
facet normal -0.0 -0.0 1.0
outer loop
vertex 11.500000000000002 16.699999999999996 50.0
vertex 0.0 18.499999999999993 50.0
vertex 0.0 16.699999999999996 50.0
endloop
endfacet
facet normal -0.0 -0.0 1.0
outer loop
vertex 0.0 18.499999999999993 50.0
vertex 11.500000000000002 16.699999999999996 50.0
vertex 30.0 18.499999999999993 50.0
endloop
endfacet
facet normal -0.0 -0.0 1.0
outer loop
vertex 30.0 18.499999999999993 50.0
vertex 11.500000000000002 16.699999999999996 50.0
vertex 18.5 16.7 50.0
endloop
endfacet
facet normal -0.0 -0.0 1.0
outer loop
vertex 18.5 16.7 50.0
vertex 11.500000000000002 16.699999999999996 50.0
vertex 18.5 13.300000000000004 50.0
endloop
endfacet
facet normal -0.0 -0.0 1.0
outer loop
vertex 30.0 18.499999999999993 50.0
vertex 18.5 16.7 50.0
vertex 30.0 16.699999999999996 50.0
endloop
endfacet
facet normal -2.4521447674329536e-16 -1.0 0.0
outer loop
vertex 30.0 16.699999999999996 50.0
vertex 18.5 16.7 8.459899447643692e-15
vertex 30.0 16.699999999999996 8.459899447643692e-15
endloop
endfacet
facet normal -2.4521447674329536e-16 -1.0 0.0
outer loop
vertex 18.5 16.7 8.459899447643692e-15
vertex 30.0 16.699999999999996 50.0
vertex 18.5 16.7 50.0
endloop
endfacet
facet normal 1.0 0.0 0.0
outer loop
vertex 18.5 16.7 8.459899447643692e-15
vertex 18.5 13.300000000000004 50.0
vertex 18.5 13.300000000000004 8.459899447643692e-15
endloop
endfacet
facet normal 1.0 0.0 0.0
outer loop
vertex 18.5 13.300000000000004 50.0
vertex 18.5 16.7 8.459899447643692e-15
vertex 18.5 16.7 50.0
endloop
endfacet
facet normal 2.4521447674329536e-16 1.0 0.0
outer loop
vertex 18.5 13.300000000000004 50.0
vertex 30.0 13.3 8.459899447643692e-15
vertex 18.5 13.300000000000004 8.459899447643692e-15
endloop
endfacet
facet normal 2.4521447674329536e-16 1.0 0.0
outer loop
vertex 30.0 13.3 8.459899447643692e-15
vertex 18.5 13.300000000000004 50.0
vertex 30.0 13.3 50.0
endloop
endfacet
facet normal 1.0 -0.0 -0.0
outer loop
vertex 30.0 18.499999999999993 2.8199664825478975e-15
vertex 30.0 16.699999999999996 50.0
vertex 30.0 16.699999999999996 8.459899447643692e-15
endloop
endfacet
facet normal 1.0 -0.0 -0.0
outer loop
vertex 30.0 16.699999999999996 50.0
vertex 30.0 18.499999999999993 2.8199664825478975e-15
vertex 30.0 18.499999999999993 50.0
endloop
endfacet
facet normal -2.4521447674329536e-16 1.0 0.0
outer loop
vertex 4.904289534865907e-17 13.3 50.0
vertex 11.500000000000002 13.300000000000004 4.511946372076636e-14
vertex 4.904289534865907e-17 13.3 4.511946372076636e-14
endloop
endfacet
facet normal -2.4521447674329536e-16 1.0 0.0
outer loop
vertex 11.500000000000002 13.300000000000004 4.511946372076636e-14
vertex 4.904289534865907e-17 13.3 50.0
vertex 11.500000000000002 13.300000000000004 50.0
endloop
endfacet
facet normal -1.0 0.0 -0.0
outer loop
vertex 11.500000000000002 16.699999999999996 50.0
vertex 11.500000000000002 13.300000000000004 4.511946372076636e-14
vertex 11.500000000000002 13.300000000000004 50.0
endloop
endfacet
facet normal -1.0 0.0 -0.0
outer loop
vertex 11.500000000000002 13.300000000000004 4.511946372076636e-14
vertex 11.500000000000002 16.699999999999996 50.0
vertex 11.500000000000002 16.699999999999996 4.511946372076636e-14
endloop
endfacet
facet normal 0.0 -1.0 0.0
outer loop
vertex 11.500000000000002 16.699999999999996 50.0
vertex 0.0 16.699999999999996 4.511946372076636e-14
vertex 11.500000000000002 16.699999999999996 4.511946372076636e-14
endloop
endfacet
facet normal 0.0 -1.0 0.0
outer loop
vertex 0.0 16.699999999999996 4.511946372076636e-14
vertex 11.500000000000002 16.699999999999996 50.0
vertex 0.0 16.699999999999996 50.0
endloop
endfacet
facet normal -1.0 3.503063953475649e-17 2.364671427571149e-35
outer loop
vertex 4.904289534865907e-17 13.3 50.0
vertex 0.0 11.500000000000002 3.101963130802687e-14
vertex 0.0 11.500000000000002 50.0
endloop
endfacet
facet normal -1.0 3.503063953475649e-17 2.364671427571149e-35
outer loop
vertex 0.0 11.500000000000002 3.101963130802687e-14
vertex 4.904289534865907e-17 13.3 50.0
vertex 4.904289534865907e-17 13.3 4.511946372076636e-14
endloop
endfacet
facet normal -0.0 1.0 -0.0
outer loop
vertex 0.0 18.499999999999993 5.357936316841005e-14
vertex 30.0 18.499999999999993 50.0
vertex 30.0 18.499999999999993 2.8199664825478975e-15
endloop
endfacet
facet normal -0.0 1.0 -0.0
outer loop
vertex 30.0 18.499999999999993 50.0
vertex 0.0 18.499999999999993 5.357936316841005e-14
vertex 0.0 18.499999999999993 50.0
endloop
endfacet
facet normal 0.0 -1.0 0.0
outer loop
vertex 30.0 11.500000000000002 50.0
vertex 0.0 11.500000000000002 3.101963130802687e-14
vertex 30.0 11.500000000000002 1.127986593019159e-14
endloop
endfacet
facet normal 0.0 -1.0 0.0
outer loop
vertex 0.0 11.500000000000002 3.101963130802687e-14
vertex 30.0 11.500000000000002 50.0
vertex 0.0 11.500000000000002 50.0
endloop
endfacet
facet normal -1.142950953248776e-15 1.2968420203496773e-16 -1.0
outer loop
vertex 13.67438474251949 15.255429421043917 15.000000000000028
vertex 13.72426880085567 14.558400738757719 15.000000000000028
vertex 13.653443988231064 14.903631399465942 15.000000000000028
endloop
endfacet
facet normal -1.142950953248776e-15 1.2968420203496773e-16 -1.0
outer loop
vertex 13.72426880085567 14.558400738757719 15.000000000000028
vertex 13.67438474251949 15.255429421043917 15.000000000000028
vertex 13.785663985922419 15.589820349694827 15.000000000000028
endloop
endfacet
facet normal -1.142950953248776e-15 1.2968420203496773e-16 -1.0
outer loop
vertex 13.72426880085567 14.558400738757719 15.000000000000028
vertex 13.785663985922419 15.589820349694827 15.000000000000028
vertex 13.882032586456473 14.243264337925874 15.000000000000028
endloop
endfacet
facet normal -1.142950953248776e-15 1.2968420203496773e-16 -1.0
outer loop
vertex 13.882032586456473 14.243264337925874 15.000000000000028
vertex 13.785663985922419 15.589820349694827 15.000000000000028
vertex 13.979698221899591 15.88401599623825 15.000000000000028
endloop
endfacet
facet normal -1.142950953248776e-15 1.2968420203496773e-16 -1.0
outer loop
vertex 13.882032586456473 14.243264337925874 15.000000000000028
vertex 13.979698221899591 15.88401599623825 15.000000000000028
vertex 14.115984003761765 13.97969822189957 15.000000000000028
endloop
endfacet
facet normal -1.142950953248776e-15 1.2968420203496773e-16 -1.0
outer loop
vertex 14.115984003761765 13.97969822189957 15.000000000000028
vertex 13.979698221899591 15.88401599623825 15.000000000000028
vertex 14.243264337925893 16.117967413543543 15.000000000000028
endloop
endfacet
facet normal -1.142950953248776e-15 1.2968420203496773e-16 -1.0
outer loop
vertex 14.115984003761765 13.97969822189957 15.000000000000028
vertex 14.243264337925893 16.117967413543543 15.000000000000028
vertex 14.410179650305187 13.7856639859224 15.000000000000028
endloop
endfacet
facet normal -1.142950953248776e-15 1.2968420203496773e-16 -1.0
outer loop
vertex 14.410179650305187 13.7856639859224 15.000000000000028
vertex 14.243264337925893 16.117967413543543 15.000000000000028
vertex 14.558400738757738 16.275731199144346 15.000000000000028
endloop
endfacet
facet normal -1.142950953248776e-15 1.2968420203496773e-16 -1.0
outer loop
vertex 14.410179650305187 13.7856639859224 15.000000000000028
vertex 14.558400738757738 16.275731199144346 15.000000000000028
vertex 14.744570578956095 13.674384742519468 15.000000000000028
endloop
endfacet
facet normal -1.142950953248776e-15 1.2968420203496773e-16 -1.0
outer loop
vertex 14.744570578956095 13.674384742519468 15.000000000000028
vertex 14.558400738757738 16.275731199144346 15.000000000000028
vertex 14.903631399465961 16.34655601176895 15.000000000000028
endloop
endfacet
facet normal -1.142950953248776e-15 1.2968420203496773e-16 -1.0
outer loop
vertex 14.744570578956095 13.674384742519468 15.000000000000028
vertex 14.903631399465961 16.34655601176895 15.000000000000028
vertex 15.096368600534074 13.653443988231045 15.000000000000027
endloop
endfacet
facet normal -1.142950953248776e-15 1.2968420203496773e-16 -1.0
outer loop
vertex 15.096368600534074 13.653443988231045 15.000000000000027
vertex 14.903631399465961 16.34655601176895 15.000000000000028
vertex 15.255429421043939 16.32561525748053 15.000000000000027
endloop
endfacet
facet normal -1.142950953248776e-15 1.2968420203496773e-16 -1.0
outer loop
vertex 15.096368600534074 13.653443988231045 15.000000000000027
vertex 15.255429421043939 16.32561525748053 15.000000000000027
vertex 15.441599261242297 13.72426880085565 15.000000000000027
endloop
endfacet
facet normal -1.142950953248776e-15 1.2968420203496773e-16 -1.0
outer loop
vertex 15.441599261242297 13.72426880085565 15.000000000000027
vertex 15.255429421043939 16.32561525748053 15.000000000000027
vertex 15.589820349694847 16.2143360140776 15.000000000000027
endloop
endfacet
facet normal -1.142950953248776e-15 1.2968420203496773e-16 -1.0
outer loop
vertex 15.441599261242297 13.72426880085565 15.000000000000027
vertex 15.589820349694847 16.2143360140776 15.000000000000027
vertex 15.756735662074142 13.882032586456454 15.000000000000027
endloop
endfacet
facet normal -1.142950953248776e-15 1.2968420203496773e-16 -1.0
outer loop
vertex 15.756735662074142 13.882032586456454 15.000000000000027
vertex 15.589820349694847 16.2143360140776 15.000000000000027
vertex 15.88401599623827 16.02030177810043 15.000000000000027
endloop
endfacet
facet normal -1.142950953248776e-15 1.2968420203496773e-16 -1.0
outer loop
vertex 15.756735662074142 13.882032586456454 15.000000000000027
vertex 15.88401599623827 16.02030177810043 15.000000000000027
vertex 16.020301778100446 14.115984003761746 15.000000000000027
endloop
endfacet
facet normal -1.142950953248776e-15 1.2968420203496773e-16 -1.0
outer loop
vertex 16.020301778100446 14.115984003761746 15.000000000000027
vertex 15.88401599623827 16.02030177810043 15.000000000000027
vertex 16.11796741354356 15.756735662074123 15.000000000000027
endloop
endfacet
facet normal -1.142950953248776e-15 1.2968420203496773e-16 -1.0
outer loop
vertex 16.020301778100446 14.115984003761746 15.000000000000027
vertex 16.11796741354356 15.756735662074123 15.000000000000027
vertex 16.214336014077617 14.410179650305167 15.000000000000027
endloop
endfacet
facet normal -1.142950953248776e-15 1.2968420203496773e-16 -1.0
outer loop
vertex 16.214336014077617 14.410179650305167 15.000000000000027
vertex 16.11796741354356 15.756735662074123 15.000000000000027
vertex 16.275731199144367 15.441599261242278 15.000000000000027
endloop
endfacet
facet normal -1.142950953248776e-15 1.2968420203496773e-16 -1.0
outer loop
vertex 16.214336014077617 14.410179650305167 15.000000000000027
vertex 16.275731199144367 15.441599261242278 15.000000000000027
vertex 16.325615257480546 14.744570578956075 15.000000000000027
endloop
endfacet
facet normal -1.142950953248776e-15 1.2968420203496773e-16 -1.0
outer loop
vertex 16.325615257480546 14.744570578956075 15.000000000000027
vertex 16.275731199144367 15.441599261242278 15.000000000000027
vertex 16.34655601176897 15.096368600534054 15.000000000000027
endloop
endfacet
facet normal -0.07138414854374481 0.9974488976066316 2.1094194498169959e-16
outer loop
vertex 15.096368600534056 13.653443988231047 2.650490995847974e-14
vertex 15.441599261242297 13.72426880085565 15.000000000000027
vertex 15.44159926124228 13.724268800855652 2.6119513105042067e-14
endloop
endfacet
facet normal -0.32711056388316945 0.9449860734402572 4.964210956762702e-16
outer loop
vertex 15.441599261242297 13.72426880085565 15.000000000000027
vertex 15.096368600534056 13.653443988231047 2.650490995847974e-14
vertex 15.096368600534074 13.653443988231045 15.000000000000027
endloop
endfacet
facet normal 0.18920697855105248 0.9819372277633542 -8.891255066532718e-17
outer loop
vertex 14.744570578956079 13.674384742519472 2.690971352760322e-14
vertex 15.096368600534074 13.653443988231045 15.000000000000027
vertex 15.096368600534056 13.653443988231047 2.650490995847974e-14
endloop
endfacet
facet normal -0.07138414854374457 0.9974488976066317 2.109419449816993e-16
outer loop
vertex 15.096368600534074 13.653443988231045 15.000000000000027
vertex 14.744570578956079 13.674384742519472 2.690971352760322e-14
vertex 14.744570578956095 13.674384742519468 15.000000000000028
endloop
endfacet
facet normal 0.4369039627369088 0.8995081585759996 -3.8270780291944574e-16
outer loop
vertex 14.410179650305171 13.785663985922401 2.7306337118146287e-14
vertex 14.744570578956095 13.674384742519468 15.000000000000028
vertex 14.744570578956079 13.674384742519472 2.690971352760322e-14
endloop
endfacet
facet normal 0.18920697855105276 0.9819372277633543 -8.891255066532748e-17
outer loop
vertex 14.744570578956095 13.674384742519468 15.000000000000028
vertex 14.410179650305171 13.785663985922401 2.7306337118146287e-14
vertex 14.410179650305187 13.7856639859224 15.000000000000028
endloop
endfacet
facet normal 0.654826663880186 0.7557790948892049 -6.504221508591576e-16
outer loop
vertex 14.115984003761747 13.979698221899572 2.7667751487864894e-14
vertex 14.410179650305187 13.7856639859224 15.000000000000028
vertex 14.410179650305171 13.785663985922401 2.7306337118146287e-14
endloop
endfacet
facet normal 0.4369039627369088 0.8995081585759999 -3.827078029194458e-16
outer loop
vertex 14.410179650305187 13.7856639859224 15.000000000000028
vertex 14.115984003761747 13.979698221899572 2.7667751487864894e-14
vertex 14.115984003761765 13.97969822189957 15.000000000000028
endloop
endfacet
facet normal 0.654826663880186 0.7557790948892049 -6.504221508591576e-16
outer loop
vertex 14.115984003761747 13.979698221899572 2.7667751487864894e-14
vertex 13.882032586456473 14.243264337925874 15.000000000000028
vertex 14.115984003761765 13.97969822189957 15.000000000000028
endloop
endfacet
facet normal 0.8281240100322553 0.5605449348697188 -8.738113040912425e-16
outer loop
vertex 13.882032586456473 14.243264337925874 15.000000000000028
vertex 14.115984003761747 13.979698221899572 2.7667751487864894e-14
vertex 13.882032586456457 14.243264337925877 2.796932684472821e-14
endloop
endfacet
facet normal 0.8281240100322553 0.5605449348697187 -8.738113040912426e-16
outer loop
vertex 13.882032586456457 14.243264337925877 2.796932684472821e-14
vertex 13.72426880085567 14.558400738757719 15.000000000000028
vertex 13.882032586456473 14.243264337925874 15.000000000000028
endloop
endfacet
facet normal 0.9449860734402571 0.3271105638831694 -1.0376516609909624e-15
outer loop
vertex 13.72426880085567 14.558400738757719 15.000000000000028
vertex 13.882032586456457 14.243264337925877 2.796932684472821e-14
vertex 13.724268800855652 14.558400738757722 2.8190511326542832e-14
endloop
endfacet
facet normal 0.9449860734402573 0.32711056388316934 -1.0376516609909626e-15
outer loop
vertex 13.724268800855652 14.558400738757722 2.8190511326542832e-14
vertex 13.653443988231064 14.903631399465942 15.000000000000028
vertex 13.72426880085567 14.558400738757719 15.000000000000028
endloop
endfacet
facet normal 0.9974488976066317 0.07138414854374461 -1.1307777719945993e-15
outer loop
vertex 13.653443988231064 14.903631399465942 15.000000000000028
vertex 13.724268800855652 14.558400738757722 2.8190511326542832e-14
vertex 13.653443988231047 14.903631399465946 2.8316231576397742e-14
endloop
endfacet
facet normal 0.9974488976066316 0.07138414854374457 -1.1307777719945991e-15
outer loop
vertex 13.653443988231047 14.903631399465946 2.8316231576397742e-14
vertex 13.67438474251949 15.255429421043917 15.000000000000028
vertex 13.653443988231064 14.903631399465942 15.000000000000028
endloop
endfacet
facet normal 0.9819372277633545 -0.18920697855105148 -1.1468432465354268e-15
outer loop
vertex 13.67438474251949 15.255429421043917 15.000000000000028
vertex 13.653443988231047 14.903631399465946 2.8316231576397742e-14
vertex 13.674384742519472 15.25542942104392 2.833791996702786e-14
endloop
endfacet
facet normal 0.9819372277633546 -0.1892069785510515 -1.146843246535427e-15
outer loop
vertex 13.674384742519472 15.25542942104392 2.833791996702786e-14
vertex 13.785663985922419 15.589820349694827 15.000000000000028
vertex 13.67438474251949 15.255429421043917 15.000000000000028
endloop
endfacet
facet normal 0.8995081585759989 -0.4369039627369107 -1.0847532490729405e-15
outer loop
vertex 13.785663985922419 15.589820349694827 15.000000000000028
vertex 13.674384742519472 15.25542942104392 2.833791996702786e-14
vertex 13.785663985922401 15.58982034969483 2.8254098470453502e-14
endloop
endfacet
facet normal 0.8995081585759989 -0.4369039627369106 -1.0847532490729405e-15
outer loop
vertex 13.785663985922401 15.58982034969483 2.8254098470453502e-14
vertex 13.979698221899591 15.88401599623825 15.000000000000028
vertex 13.785663985922419 15.589820349694827 15.000000000000028
endloop
endfacet
facet normal 0.7557790948892046 -0.6548266638801866 -9.487391103256355e-16
outer loop
vertex 13.979698221899591 15.88401599623825 15.000000000000028
vertex 13.785663985922401 15.58982034969483 2.8254098470453502e-14
vertex 13.979698221899575 15.884015996238254 2.807047938314464e-14
endloop
endfacet
facet normal 0.5605449348697209 -0.8281240100322538 -7.48069969075151e-16
outer loop
vertex 14.243264337925893 16.117967413543543 15.000000000000028
vertex 13.979698221899575 15.884015996238254 2.807047938314464e-14
vertex 14.243264337925877 16.117967413543543 2.7799576042456487e-14
endloop
endfacet
facet normal 0.7557790948892045 -0.6548266638801865 -9.487391103256353e-16
outer loop
vertex 13.979698221899575 15.884015996238254 2.807047938314464e-14
vertex 14.243264337925893 16.117967413543543 15.000000000000028
vertex 13.979698221899591 15.88401599623825 15.000000000000028
endloop
endfacet
facet normal 0.3271105638831693 -0.9449860734402573 -4.964210956762701e-16
outer loop
vertex 14.558400738757738 16.275731199144346 15.000000000000028
vertex 14.243264337925877 16.117967413543543 2.7799576042456487e-14
vertex 14.558400738757722 16.27573119914435 2.7459850063367997e-14
endloop
endfacet
facet normal 0.5605449348697209 -0.8281240100322538 -7.48069969075151e-16
outer loop
vertex 14.243264337925877 16.117967413543543 2.7799576042456487e-14
vertex 14.558400738757738 16.275731199144346 15.000000000000028
vertex 14.243264337925893 16.117967413543543 15.000000000000028
endloop
endfacet
facet normal 0.07138414854374504 -0.9974488976066316 -2.1094194498169986e-16
outer loop
vertex 14.903631399465961 16.34655601176895 15.000000000000028
vertex 14.558400738757722 16.27573119914435 2.7459850063367997e-14
vertex 14.903631399465946 16.346556011768953 2.7074453209930324e-14
endloop
endfacet
facet normal 0.32711056388316934 -0.9449860734402573 -4.964210956762701e-16
outer loop
vertex 14.558400738757722 16.27573119914435 2.7459850063367997e-14
vertex 14.903631399465961 16.34655601176895 15.000000000000028
vertex 14.558400738757738 16.275731199144346 15.000000000000028
endloop
endfacet
facet normal -0.1892069785510523 -0.9819372277633545 8.891255066532694e-17
outer loop
vertex 15.255429421043939 16.32561525748053 15.000000000000027
vertex 14.903631399465946 16.346556011768953 2.7074453209930324e-14
vertex 15.255429421043923 16.32561525748053 2.666964964080684e-14
endloop
endfacet
facet normal 0.07138414854374481 -0.9974488976066316 -2.1094194498169959e-16
outer loop
vertex 14.903631399465946 16.346556011768953 2.7074453209930324e-14
vertex 15.255429421043939 16.32561525748053 15.000000000000027
vertex 14.903631399465961 16.34655601176895 15.000000000000028
endloop
endfacet
facet normal -0.43690396273690885 -0.8995081585759998 3.8270780291944593e-16
outer loop
vertex 15.589820349694847 16.2143360140776 15.000000000000027
vertex 15.255429421043923 16.32561525748053 2.666964964080684e-14
vertex 15.58982034969483 16.2143360140776 2.6273026050263774e-14
endloop
endfacet
facet normal -0.18920697855105248 -0.9819372277633542 8.891255066532718e-17
outer loop
vertex 15.255429421043923 16.32561525748053 2.666964964080684e-14
vertex 15.589820349694847 16.2143360140776 15.000000000000027
vertex 15.255429421043939 16.32561525748053 15.000000000000027
endloop
endfacet
facet normal -0.654826663880186 -0.7557790948892049 6.504221508591576e-16
outer loop
vertex 15.88401599623827 16.02030177810043 15.000000000000027
vertex 15.58982034969483 16.2143360140776 2.6273026050263774e-14
vertex 15.884015996238254 16.02030177810043 2.591161168054517e-14
endloop
endfacet
facet normal -0.4369039627369088 -0.8995081585759996 3.8270780291944574e-16
outer loop
vertex 15.58982034969483 16.2143360140776 2.6273026050263774e-14
vertex 15.88401599623827 16.02030177810043 15.000000000000027
vertex 15.589820349694847 16.2143360140776 15.000000000000027
endloop
endfacet
facet normal -0.654826663880186 -0.7557790948892049 6.504221508591576e-16
outer loop
vertex 15.88401599623827 16.02030177810043 15.000000000000027
vertex 16.117967413543543 15.756735662074124 2.5610036323681854e-14
vertex 16.11796741354356 15.756735662074123 15.000000000000027
endloop
endfacet
facet normal -0.8281240100322553 -0.5605449348697187 8.738113040912426e-16
outer loop
vertex 16.117967413543543 15.756735662074124 2.5610036323681854e-14
vertex 15.88401599623827 16.02030177810043 15.000000000000027
vertex 15.884015996238254 16.02030177810043 2.591161168054517e-14
endloop
endfacet
facet normal -0.8281240100322553 -0.5605449348697187 8.738113040912425e-16
outer loop
vertex 16.11796741354356 15.756735662074123 15.000000000000027
vertex 16.27573119914435 15.44159926124228 2.5388851841867232e-14
vertex 16.275731199144367 15.441599261242278 15.000000000000027
endloop
endfacet
facet normal -0.9449860734402573 -0.32711056388316934 1.0376516609909624e-15
outer loop
vertex 16.27573119914435 15.44159926124228 2.5388851841867232e-14
vertex 16.11796741354356 15.756735662074123 15.000000000000027
vertex 16.117967413543543 15.756735662074124 2.5610036323681854e-14
endloop
endfacet
facet normal -0.9449860734402573 -0.3271105638831693 1.0376516609909622e-15
outer loop
vertex 16.275731199144367 15.441599261242278 15.000000000000027
vertex 16.346556011768953 15.096368600534056 2.5263131592012318e-14
vertex 16.34655601176897 15.096368600534054 15.000000000000027
endloop
endfacet
facet normal -0.9974488976066316 -0.07138414854374482 1.130777771994599e-15
outer loop
vertex 16.346556011768953 15.096368600534056 2.5263131592012318e-14
vertex 16.275731199144367 15.441599261242278 15.000000000000027
vertex 16.27573119914435 15.44159926124228 2.5388851841867232e-14
endloop
endfacet
facet normal -0.9974488976066317 -0.07138414854374481 1.1307777719945993e-15
outer loop
vertex 16.34655601176897 15.096368600534054 15.000000000000027
vertex 16.32561525748053 14.744570578956079 2.5241443201382205e-14
vertex 16.325615257480546 14.744570578956075 15.000000000000027
endloop
endfacet
facet normal -0.9819372277633543 0.18920697855105248 1.1468432465354268e-15
outer loop
vertex 16.32561525748053 14.744570578956079 2.5241443201382205e-14
vertex 16.34655601176897 15.096368600534054 15.000000000000027
vertex 16.346556011768953 15.096368600534056 2.5263131592012318e-14
endloop
endfacet
facet normal -0.9819372277633542 0.18920697855105245 1.1468432465354268e-15
outer loop
vertex 16.325615257480546 14.744570578956075 15.000000000000027
vertex 16.2143360140776 14.410179650305171 2.532526469795656e-14
vertex 16.214336014077617 14.410179650305167 15.000000000000027
endloop
endfacet
facet normal -0.8995081585759996 0.4369039627369088 1.0847532490729412e-15
outer loop
vertex 16.2143360140776 14.410179650305171 2.532526469795656e-14
vertex 16.325615257480546 14.744570578956075 15.000000000000027
vertex 16.32561525748053 14.744570578956079 2.5241443201382205e-14
endloop
endfacet
facet normal -0.8995081585759998 0.4369039627369088 1.0847532490729414e-15
outer loop
vertex 16.214336014077617 14.410179650305167 15.000000000000027
vertex 16.02030177810043 14.115984003761747 2.550888378526542e-14
vertex 16.020301778100446 14.115984003761746 15.000000000000027
endloop
endfacet
facet normal -0.755779094889205 0.654826663880186 9.48739110325636e-16
outer loop
vertex 16.02030177810043 14.115984003761747 2.550888378526542e-14
vertex 16.214336014077617 14.410179650305167 15.000000000000027
vertex 16.2143360140776 14.410179650305171 2.532526469795656e-14
endloop
endfacet
facet normal -0.5605449348697187 0.8281240100322553 7.480699690751488e-16
outer loop
vertex 15.756735662074124 13.882032586456457 2.5779787125953576e-14
vertex 16.020301778100446 14.115984003761746 15.000000000000027
vertex 16.02030177810043 14.115984003761747 2.550888378526542e-14
endloop
endfacet
facet normal -0.7557790948892049 0.654826663880186 9.487391103256357e-16
outer loop
vertex 16.020301778100446 14.115984003761746 15.000000000000027
vertex 15.756735662074124 13.882032586456457 2.5779787125953576e-14
vertex 15.756735662074142 13.882032586456454 15.000000000000027
endloop
endfacet
facet normal -0.32711056388316934 0.9449860734402573 4.964210956762701e-16
outer loop
vertex 15.44159926124228 13.724268800855652 2.6119513105042067e-14
vertex 15.756735662074142 13.882032586456454 15.000000000000027
vertex 15.756735662074124 13.882032586456457 2.5779787125953576e-14
endloop
endfacet
facet normal -0.5605449348697187 0.8281240100322553 7.480699690751488e-16
outer loop
vertex 15.756735662074142 13.882032586456454 15.000000000000027
vertex 15.44159926124228 13.724268800855652 2.6119513105042067e-14
vertex 15.441599261242297 13.72426880085565 15.000000000000027
endloop
endfacet
endsolid plano
