solid plano
facet normal -1.1429509532487735e-15 1.296842020349664e-16 -1.0
outer loop
vertex 30.0 18.499999999999993 2.8199664825478975e-15
vertex 0.0 16.699999999999996 4.511946372076636e-14
vertex 0.0 18.499999999999993 5.357936316841005e-14
endloop
endfacet
facet normal -1.1429509532487735e-15 1.296842020349664e-16 -1.0
outer loop
vertex 0.0 16.699999999999996 4.511946372076636e-14
vertex 30.0 18.499999999999993 2.8199664825478975e-15
vertex 11.500000000000002 16.699999999999996 4.511946372076636e-14
endloop
endfacet
facet normal -1.1429509532487735e-15 1.296842020349664e-16 -1.0
outer loop
vertex 11.500000000000002 16.699999999999996 4.511946372076636e-14
vertex 30.0 18.499999999999993 2.8199664825478975e-15
vertex 18.5 16.7 8.459899447643692e-15
endloop
endfacet
facet normal -1.1429509532487735e-15 1.296842020349664e-16 -1.0
outer loop
vertex 11.500000000000002 16.699999999999996 4.511946372076636e-14
vertex 18.5 16.7 8.459899447643692e-15
vertex 11.500000000000002 13.300000000000004 4.511946372076636e-14
endloop
endfacet
facet normal -1.1429509532487735e-15 1.296842020349664e-16 -1.0
outer loop
vertex 18.5 16.7 8.459899447643692e-15
vertex 30.0 18.499999999999993 2.8199664825478975e-15
vertex 30.0 16.699999999999996 8.459899447643692e-15
endloop
endfacet
facet normal -1.1429509532487735e-15 1.296842020349664e-16 -1.0
outer loop
vertex 4.904289534865907e-17 13.3 4.511946372076636e-14
vertex 30.0 11.500000000000002 1.127986593019159e-14
vertex 0.0 11.500000000000002 3.101963130802687e-14
endloop
endfacet
facet normal -1.1429509532487735e-15 1.296842020349664e-16 -1.0
outer loop
vertex 30.0 11.500000000000002 1.127986593019159e-14
vertex 4.904289534865907e-17 13.3 4.511946372076636e-14
vertex 11.500000000000002 13.300000000000004 4.511946372076636e-14
endloop
endfacet
facet normal -1.1429509532487735e-15 1.296842020349664e-16 -1.0
outer loop
vertex 30.0 11.500000000000002 1.127986593019159e-14
vertex 11.500000000000002 13.300000000000004 4.511946372076636e-14
vertex 18.5 13.300000000000004 8.459899447643692e-15
endloop
endfacet
facet normal -1.1429509532487735e-15 1.296842020349664e-16 -1.0
outer loop
vertex 18.5 13.300000000000004 8.459899447643692e-15
vertex 11.500000000000002 13.300000000000004 4.511946372076636e-14
vertex 18.5 16.7 8.459899447643692e-15
endloop
endfacet
facet normal -1.1429509532487735e-15 1.296842020349664e-16 -1.0
outer loop
vertex 30.0 11.500000000000002 1.127986593019159e-14
vertex 18.5 13.300000000000004 8.459899447643692e-15
vertex 30.0 13.3 8.459899447643692e-15
endloop
endfacet
facet normal 1.0 -0.0 -0.0
outer loop
vertex 30.0 13.3 8.459899447643692e-15
vertex 30.0 11.500000000000002 50.0
vertex 30.0 11.500000000000002 1.127986593019159e-14
endloop
endfacet
facet normal 1.0 -0.0 -0.0
outer loop
vertex 30.0 11.500000000000002 50.0
vertex 30.0 13.3 8.459899447643692e-15
vertex 30.0 13.3 50.0
endloop
endfacet
facet normal -1.0 0.0 0.0
outer loop
vertex 0.0 18.499999999999993 50.0
vertex 0.0 16.699999999999996 4.511946372076636e-14
vertex 0.0 16.699999999999996 50.0
endloop
endfacet
facet normal -1.0 0.0 0.0
outer loop
vertex 0.0 16.699999999999996 4.511946372076636e-14
vertex 0.0 18.499999999999993 50.0
vertex 0.0 18.499999999999993 5.357936316841005e-14
endloop
endfacet
facet normal -0.0 -0.0 1.0
outer loop
vertex 30.0 11.500000000000002 50.0
vertex 4.904289534865907e-17 13.3 50.0
vertex 0.0 11.500000000000002 50.0
endloop
endfacet
facet normal -0.0 -0.0 1.0
outer loop
vertex 4.904289534865907e-17 13.3 50.0
vertex 30.0 11.500000000000002 50.0
vertex 11.500000000000002 13.300000000000004 50.0
endloop
endfacet
facet normal -0.0 -0.0 1.0
outer loop
vertex 11.500000000000002 13.300000000000004 50.0
vertex 30.0 11.500000000000002 50.0
vertex 18.5 13.300000000000004 50.0
endloop
endfacet
facet normal -0.0 -0.0 1.0
outer loop
vertex 11.500000000000002 13.300000000000004 50.0
vertex 18.5 13.300000000000004 50.0
vertex 11.500000000000002 16.699999999999996 50.0
endloop
endfacet
facet normal -0.0 -0.0 1.0
outer loop
vertex 18.5 13.300000000000004 50.0
vertex 30.0 11.500000000000002 50.0
vertex 30.0 13.3 50.0
endloop
endfacet
facet normal -0.0 -0.0 1.0
outer loop
vertex 11.500000000000002 16.699999999999996 50.0
vertex 0.0 18.499999999999993 50.0
vertex 0.0 16.699999999999996 50.0
endloop
endfacet
facet normal -0.0 -0.0 1.0
outer loop
vertex 0.0 18.499999999999993 50.0
vertex 11.500000000000002 16.699999999999996 50.0
vertex 30.0 18.499999999999993 50.0
endloop
endfacet
facet normal -0.0 -0.0 1.0
outer loop
vertex 30.0 18.499999999999993 50.0
vertex 11.500000000000002 16.699999999999996 50.0
vertex 18.5 16.7 50.0
endloop
endfacet
facet normal -0.0 -0.0 1.0
outer loop
vertex 18.5 16.7 50.0
vertex 11.500000000000002 16.699999999999996 50.0
vertex 18.5 13.300000000000004 50.0
endloop
endfacet
facet normal -0.0 -0.0 1.0
outer loop
vertex 30.0 18.499999999999993 50.0
vertex 18.5 16.7 50.0
vertex 30.0 16.699999999999996 50.0
endloop
endfacet
facet normal -2.4521447674329536e-16 -1.0 0.0
outer loop
vertex 30.0 16.699999999999996 50.0
vertex 18.5 16.7 8.459899447643692e-15
vertex 30.0 16.699999999999996 8.459899447643692e-15
endloop
endfacet
facet normal -2.4521447674329536e-16 -1.0 0.0
outer loop
vertex 18.5 16.7 8.459899447643692e-15
vertex 30.0 16.699999999999996 50.0
vertex 18.5 16.7 50.0
endloop
endfacet
facet normal 1.0 0.0 0.0
outer loop
vertex 18.5 16.7 8.459899447643692e-15
vertex 18.5 13.300000000000004 50.0
vertex 18.5 13.300000000000004 8.459899447643692e-15
endloop
endfacet
facet normal 1.0 0.0 0.0
outer loop
vertex 18.5 13.300000000000004 50.0
vertex 18.5 16.7 8.459899447643692e-15
vertex 18.5 16.7 50.0
endloop
endfacet
facet normal 2.4521447674329536e-16 1.0 0.0
outer loop
vertex 18.5 13.300000000000004 50.0
vertex 30.0 13.3 8.459899447643692e-15
vertex 18.5 13.300000000000004 8.459899447643692e-15
endloop
endfacet
facet normal 2.4521447674329536e-16 1.0 0.0
outer loop
vertex 30.0 13.3 8.459899447643692e-15
vertex 18.5 13.300000000000004 50.0
vertex 30.0 13.3 50.0
endloop
endfacet
facet normal 1.0 -0.0 -0.0
outer loop
vertex 30.0 18.499999999999993 2.8199664825478975e-15
vertex 30.0 16.699999999999996 50.0
vertex 30.0 16.699999999999996 8.459899447643692e-15
endloop
endfacet
facet normal 1.0 -0.0 -0.0
outer loop
vertex 30.0 16.699999999999996 50.0
vertex 30.0 18.499999999999993 2.8199664825478975e-15
vertex 30.0 18.499999999999993 50.0
endloop
endfacet
facet normal -2.4521447674329536e-16 1.0 0.0
outer loop
vertex 4.904289534865907e-17 13.3 50.0
vertex 11.500000000000002 13.300000000000004 4.511946372076636e-14
vertex 4.904289534865907e-17 13.3 4.511946372076636e-14
endloop
endfacet
facet normal -2.4521447674329536e-16 1.0 0.0
outer loop
vertex 11.500000000000002 13.300000000000004 4.511946372076636e-14
vertex 4.904289534865907e-17 13.3 50.0
vertex 11.500000000000002 13.300000000000004 50.0
endloop
endfacet
facet normal -1.0 0.0 -0.0
outer loop
vertex 11.500000000000002 16.699999999999996 50.0
vertex 11.500000000000002 13.300000000000004 4.511946372076636e-14
vertex 11.500000000000002 13.300000000000004 50.0
endloop
endfacet
facet normal -1.0 0.0 -0.0
outer loop
vertex 11.500000000000002 13.300000000000004 4.511946372076636e-14
vertex 11.500000000000002 16.699999999999996 50.0
vertex 11.500000000000002 16.699999999999996 4.511946372076636e-14
endloop
endfacet
facet normal 0.0 -1.0 0.0
outer loop
vertex 11.500000000000002 16.699999999999996 50.0
vertex 0.0 16.699999999999996 4.511946372076636e-14
vertex 11.500000000000002 16.699999999999996 4.511946372076636e-14
endloop
endfacet
facet normal 0.0 -1.0 0.0
outer loop
vertex 0.0 16.699999999999996 4.511946372076636e-14
vertex 11.500000000000002 16.699999999999996 50.0
vertex 0.0 16.699999999999996 50.0
endloop
endfacet
facet normal -1.0 3.503063953475649e-17 2.364671427571149e-35
outer loop
vertex 4.904289534865907e-17 13.3 50.0
vertex 0.0 11.500000000000002 3.101963130802687e-14
vertex 0.0 11.500000000000002 50.0
endloop
endfacet
facet normal -1.0 3.503063953475649e-17 2.364671427571149e-35
outer loop
vertex 0.0 11.500000000000002 3.101963130802687e-14
vertex 4.904289534865907e-17 13.3 50.0
vertex 4.904289534865907e-17 13.3 4.511946372076636e-14
endloop
endfacet
facet normal -0.0 1.0 -0.0
outer loop
vertex 0.0 18.499999999999993 5.357936316841005e-14
vertex 30.0 18.499999999999993 50.0
vertex 30.0 18.499999999999993 2.8199664825478975e-15
endloop
endfacet
facet normal -0.0 1.0 -0.0
outer loop
vertex 30.0 18.499999999999993 50.0
vertex 0.0 18.499999999999993 5.357936316841005e-14
vertex 0.0 18.499999999999993 50.0
endloop
endfacet
facet normal 0.0 -1.0 0.0
outer loop
vertex 30.0 11.500000000000002 50.0
vertex 0.0 11.500000000000002 3.101963130802687e-14
vertex 30.0 11.500000000000002 1.127986593019159e-14
endloop
endfacet
facet normal 0.0 -1.0 0.0
outer loop
vertex 0.0 11.500000000000002 3.101963130802687e-14
vertex 30.0 11.500000000000002 50.0
vertex 0.0 11.500000000000002 50.0
endloop
endfacet
endsolid plano
