M48
; DRILL file {KiCad (5.1.8)-1} date 03/23/21 12:44:45
; FORMAT={-:-/ absolute / inch / decimal}
; #@! TF.CreationDate,2021-03-23T12:44:45+01:00
; #@! TF.GenerationSoftware,Kicad,Pcbnew,(5.1.8)-1
; #@! TF.FileFunction,Plated,1,2,PTH
FMAT,2
INCH
T1C0.0157
T2C0.0236
T3C0.0276
T4C0.0300
T5C0.0315
T6C0.0354
T7C0.0394
T8C0.0472
T9C0.0787
%
G90
G05
T1
X4.575Y-4.15
X4.75Y-5.375
X5.2Y-4.3
X5.425Y-4.7
T2
X5.325Y-4.875
X5.4037Y-4.875
T3
X4.85Y-5.3
X4.85Y-5.5
X4.075Y-4.025
X4.075Y-4.225
T4
X4.825Y-4.075
X5.025Y-4.075
T5
X4.05Y-5.0781
X4.05Y-5.275
X5.1Y-5.125
X5.1Y-5.425
X5.2Y-5.125
X5.2Y-5.425
X5.3Y-5.125
X5.3Y-5.425
X5.4Y-5.125
X5.4Y-5.425
X5.5Y-5.125
X5.5Y-5.425
X5.6Y-5.125
X5.6Y-5.425
X5.7Y-5.125
X5.7Y-5.425
X5.8Y-5.125
X5.8Y-5.425
X4.3Y-4.25
X4.3Y-4.35
X4.3Y-4.45
X4.3Y-4.55
X4.3Y-4.65
X4.3Y-4.75
X4.3Y-4.85
X4.3Y-4.95
X4.3Y-5.05
X4.3Y-5.15
X4.3Y-5.25
X4.3Y-5.35
X4.3Y-5.45
X4.3Y-5.55
X4.6Y-4.25
X4.6Y-4.35
X4.6Y-4.45
X4.6Y-4.55
X4.6Y-4.65
X4.6Y-4.75
X4.6Y-4.85
X4.6Y-4.95
X4.6Y-5.05
X4.6Y-5.15
X4.6Y-5.25
X4.6Y-5.35
X4.6Y-5.45
X4.6Y-5.55
X4.2531Y-4.05
X4.45Y-4.05
X4.15Y-5.0781
X4.15Y-5.275
X4.085Y-5.4829
X4.085Y-5.675
T6
X4.85Y-5.05
X4.85Y-5.15
X5.2Y-4.085
X5.3Y-4.085
X5.4Y-4.085
T7
X4.275Y-5.775
X4.375Y-5.775
X4.475Y-5.775
X5.075Y-4.375
X5.075Y-4.475
X5.075Y-4.575
X5.075Y-4.675
X5.075Y-4.775
X5.075Y-4.875
X4.975Y-4.375
X4.975Y-4.475
X4.975Y-4.575
X4.975Y-4.675
X4.975Y-4.775
X4.975Y-4.875
X4.875Y-4.375
X4.875Y-4.475
X4.875Y-4.575
X4.875Y-4.675
X4.875Y-4.775
X4.875Y-4.875
X4.075Y-4.4
X4.075Y-4.5
X4.075Y-4.6
X4.075Y-4.7
X4.075Y-4.8
X4.075Y-4.9
T8
X5.685Y-4.7922
X5.685Y-4.93
X5.675Y-4.0872
X5.675Y-4.225
X5.675Y-5.6122
X5.675Y-5.75
T9
X4.6654Y-4.0551
X4.6654Y-5.7874
T0
M30
